M48
;DRILL file {KiCad 4.0.2-stable} date 7/30/2016 6:00:21 PM
;FORMAT={-:-/ absolute / inch / decimal}
FMAT,2
INCH,TZ
T1C0.013
T2C0.014
T3C0.016
T4C0.025
%
G90
G05
M72
T1
X4.1831Y-3.435
X4.1948Y-4.1981
X4.2224Y-3.435
X4.2224Y-4.1831
X4.3209Y-4.124
X4.3898Y-4.0846
X4.4919Y-5.366
X4.5079Y-3.7008
X4.5472Y-3.7008
X4.5571Y-3.5138
X4.5866Y-3.5138
X4.6161Y-3.5138
X4.6468Y-5.517
X4.665Y-4.3881
X4.7481Y-4.8251
X4.7586Y-4.5253
X4.7761Y-4.2905
X4.7783Y-4.6864
X4.7835Y-3.75
X4.8128Y-5.366
X4.8699Y-3.3394
X4.8857Y-4.5478
X4.8863Y-5.7739
X4.8916Y-3.3944
X4.9179Y-3.7807
X4.9179Y-4.8068
X4.9199Y-5.3661
X4.9234Y-3.5244
X4.9234Y-3.2159
X4.9454Y-3.3804
X4.9623Y-4.9396
X4.9673Y-3.638
X5.0044Y-4.9983
X5.0051Y-4.8071
X5.006Y-4.8437
X5.0525Y-3.6495
X5.0526Y-3.4045
X5.0552Y-3.275
X5.0571Y-5.1314
X5.0774Y-3.6983
X5.078Y-3.3412
X5.0788Y-5.3661
X5.0806Y-5.092
X5.0809Y-3.4
X5.0826Y-3.5186
X5.0833Y-3.5941
X5.0931Y-3.7215
X5.1153Y-3.6489
X5.1247Y-3.7521
X5.1292Y-3.4439
X5.1404Y-3.8009
X5.1473Y-5.4289
X5.1631Y-5.3855
X5.1871Y-5.131
X5.2008Y-5.3661
X5.2778Y-5.1002
X5.3472Y-5.3659
X5.3476Y-5.1041
X5.3785Y-5.135
X5.4252Y-5.3755
X5.4823Y-5.8957
X5.4949Y-5.1318
X5.5493Y-5.4688
X5.5552Y-5.3659
X5.5688Y-5.4093
X5.5689Y-5.1416
X5.6049Y-5.3666
X5.6366Y-5.3824
X5.6665Y-5.4054
X5.6742Y-5.0915
X5.7004Y-5.1514
X5.7356Y-5.1515
X5.8683Y-4.0608
X5.8807Y-4.2029
X5.9164Y-5.3661
X5.9435Y-4.5325
X6.0656Y-5.1515
X6.1336Y-4.9762
T2
X4.1402Y-3.9281
X4.3406Y-2.6476
X4.3406Y-2.687
X4.3799Y-2.6476
X4.3799Y-2.687
X4.4488Y-2.628
X4.4488Y-2.874
X4.4488Y-2.9134
X4.4685Y-2.4902
X4.4685Y-2.5295
X4.4882Y-2.874
X4.4882Y-2.9134
X4.5768Y-2.6181
X4.5768Y-2.6673
X4.5768Y-2.7559
X4.5768Y-2.7854
X4.6161Y-2.6181
X4.6161Y-2.6673
X4.6161Y-2.7559
X4.6161Y-2.7854
X4.6555Y-2.6181
X4.6555Y-2.6673
X4.6555Y-2.7559
X4.6555Y-2.7854
X4.7244Y-2.6673
X4.7244Y-2.7559
X4.7539Y-2.4114
X4.8326Y-2.7089
X4.8425Y-2.5984
X4.8642Y-2.5355
X5.0394Y-2.4114
T3
X4.124Y-3.1594
X4.124Y-3.2087
X4.376Y-3.4232
X4.4193Y-3.2579
X4.4587Y-3.2579
X4.5768Y-3.5728
X4.7539Y-2.8445
X4.8031Y-2.8445
T4
X4.9394Y-6.1126
X5.0394Y-6.2126
X5.1394Y-6.1126
T0
M30
