G04 #@! TF.FileFunction,Copper,L1,Top,Signal*
%FSLAX46Y46*%
G04 Gerber Fmt 4.6, Leading zero omitted, Abs format (unit mm)*
G04 Created by KiCad (PCBNEW 4.0.2-stable) date 7/30/2016 6:00:18 PM*
%MOMM*%
G01*
G04 APERTURE LIST*
%ADD10C,0.100000*%
%ADD11C,1.016000*%
%ADD12R,1.300000X1.500000*%
%ADD13R,1.250000X1.500000*%
%ADD14R,1.500000X1.250000*%
%ADD15R,1.198880X1.198880*%
%ADD16R,0.450000X0.590000*%
%ADD17R,1.500000X1.300000*%
%ADD18R,1.450000X0.450000*%
%ADD19O,3.014980X1.506220*%
%ADD20R,0.700000X0.700000*%
%ADD21C,0.500000*%
%ADD22C,1.000000*%
%ADD23C,0.200000*%
%ADD24C,0.500000*%
%ADD25C,0.300000*%
%ADD26C,0.250000*%
%ADD27C,0.254000*%
G04 APERTURE END LIST*
D10*
G36*
X155000000Y-139505204D02*
X151994796Y-136500000D01*
X152171572Y-136323224D01*
X155176776Y-139328428D01*
X155000000Y-139505204D01*
X155000000Y-139505204D01*
G37*
G36*
X154823224Y-134025126D02*
X152171573Y-136676777D01*
X151994796Y-136500000D01*
X154646447Y-133848349D01*
X154823224Y-134025126D01*
X154823224Y-134025126D01*
G37*
G36*
X157828428Y-136676776D02*
X154823224Y-133671572D01*
X155000000Y-133494796D01*
X158005204Y-136500000D01*
X157828428Y-136676776D01*
X157828428Y-136676776D01*
G37*
G36*
X155530331Y-134025126D02*
X152878680Y-136676777D01*
X152701903Y-136500000D01*
X155353554Y-133848349D01*
X155530331Y-134025126D01*
X155530331Y-134025126D01*
G37*
G36*
X155530331Y-134732233D02*
X152878680Y-137383884D01*
X152701903Y-137207107D01*
X155353554Y-134555456D01*
X155530331Y-134732233D01*
X155530331Y-134732233D01*
G37*
G36*
X156237437Y-134732233D02*
X153585786Y-137383884D01*
X153409009Y-137207107D01*
X156060660Y-134555456D01*
X156237437Y-134732233D01*
X156237437Y-134732233D01*
G37*
G36*
X156237437Y-135439340D02*
X153585786Y-138090991D01*
X153409009Y-137914214D01*
X156060660Y-135262563D01*
X156237437Y-135439340D01*
X156237437Y-135439340D01*
G37*
G36*
X156944544Y-135439340D02*
X154292893Y-138090991D01*
X154116116Y-137914214D01*
X156767767Y-135262563D01*
X156944544Y-135439340D01*
X156944544Y-135439340D01*
G37*
G36*
X156944544Y-136146446D02*
X154292893Y-138798097D01*
X154116116Y-138621320D01*
X156767767Y-135969669D01*
X156944544Y-136146446D01*
X156944544Y-136146446D01*
G37*
G36*
X157651651Y-136146446D02*
X155000000Y-138798097D01*
X154823223Y-138621320D01*
X157474874Y-135969669D01*
X157651651Y-136146446D01*
X157651651Y-136146446D01*
G37*
G36*
X157651651Y-136853553D02*
X155000000Y-139505204D01*
X154823223Y-139328427D01*
X157474874Y-136676776D01*
X157651651Y-136853553D01*
X157651651Y-136853553D01*
G37*
G36*
X118000000Y-124505204D02*
X114994796Y-121500000D01*
X115171572Y-121323224D01*
X118176776Y-124328428D01*
X118000000Y-124505204D01*
X118000000Y-124505204D01*
G37*
G36*
X117823224Y-119025126D02*
X115171573Y-121676777D01*
X114994796Y-121500000D01*
X117646447Y-118848349D01*
X117823224Y-119025126D01*
X117823224Y-119025126D01*
G37*
G36*
X120828428Y-121676776D02*
X117823224Y-118671572D01*
X118000000Y-118494796D01*
X121005204Y-121500000D01*
X120828428Y-121676776D01*
X120828428Y-121676776D01*
G37*
G36*
X118530331Y-119025126D02*
X115878680Y-121676777D01*
X115701903Y-121500000D01*
X118353554Y-118848349D01*
X118530331Y-119025126D01*
X118530331Y-119025126D01*
G37*
G36*
X118530331Y-119732233D02*
X115878680Y-122383884D01*
X115701903Y-122207107D01*
X118353554Y-119555456D01*
X118530331Y-119732233D01*
X118530331Y-119732233D01*
G37*
G36*
X119237437Y-119732233D02*
X116585786Y-122383884D01*
X116409009Y-122207107D01*
X119060660Y-119555456D01*
X119237437Y-119732233D01*
X119237437Y-119732233D01*
G37*
G36*
X119237437Y-120439340D02*
X116585786Y-123090991D01*
X116409009Y-122914214D01*
X119060660Y-120262563D01*
X119237437Y-120439340D01*
X119237437Y-120439340D01*
G37*
G36*
X119944544Y-120439340D02*
X117292893Y-123090991D01*
X117116116Y-122914214D01*
X119767767Y-120262563D01*
X119944544Y-120439340D01*
X119944544Y-120439340D01*
G37*
G36*
X119944544Y-121146446D02*
X117292893Y-123798097D01*
X117116116Y-123621320D01*
X119767767Y-120969669D01*
X119944544Y-121146446D01*
X119944544Y-121146446D01*
G37*
G36*
X120651651Y-121146446D02*
X118000000Y-123798097D01*
X117823223Y-123621320D01*
X120474874Y-120969669D01*
X120651651Y-121146446D01*
X120651651Y-121146446D01*
G37*
G36*
X120651651Y-121853553D02*
X118000000Y-124505204D01*
X117823223Y-124328427D01*
X120474874Y-121676776D01*
X120651651Y-121853553D01*
X120651651Y-121853553D01*
G37*
D11*
X128000000Y-157800000D03*
X130540000Y-155260000D03*
X125460000Y-155260000D03*
D12*
X123000000Y-148950000D03*
X123000000Y-146250000D03*
D10*
G36*
X110500000Y-132005204D02*
X107494796Y-129000000D01*
X107671572Y-128823224D01*
X110676776Y-131828428D01*
X110500000Y-132005204D01*
X110500000Y-132005204D01*
G37*
G36*
X110323224Y-126525126D02*
X107671573Y-129176777D01*
X107494796Y-129000000D01*
X110146447Y-126348349D01*
X110323224Y-126525126D01*
X110323224Y-126525126D01*
G37*
G36*
X113328428Y-129176776D02*
X110323224Y-126171572D01*
X110500000Y-125994796D01*
X113505204Y-129000000D01*
X113328428Y-129176776D01*
X113328428Y-129176776D01*
G37*
G36*
X111030331Y-126525126D02*
X108378680Y-129176777D01*
X108201903Y-129000000D01*
X110853554Y-126348349D01*
X111030331Y-126525126D01*
X111030331Y-126525126D01*
G37*
G36*
X111030331Y-127232233D02*
X108378680Y-129883884D01*
X108201903Y-129707107D01*
X110853554Y-127055456D01*
X111030331Y-127232233D01*
X111030331Y-127232233D01*
G37*
G36*
X111737437Y-127232233D02*
X109085786Y-129883884D01*
X108909009Y-129707107D01*
X111560660Y-127055456D01*
X111737437Y-127232233D01*
X111737437Y-127232233D01*
G37*
G36*
X111737437Y-127939340D02*
X109085786Y-130590991D01*
X108909009Y-130414214D01*
X111560660Y-127762563D01*
X111737437Y-127939340D01*
X111737437Y-127939340D01*
G37*
G36*
X112444544Y-127939340D02*
X109792893Y-130590991D01*
X109616116Y-130414214D01*
X112267767Y-127762563D01*
X112444544Y-127939340D01*
X112444544Y-127939340D01*
G37*
G36*
X112444544Y-128646446D02*
X109792893Y-131298097D01*
X109616116Y-131121320D01*
X112267767Y-128469669D01*
X112444544Y-128646446D01*
X112444544Y-128646446D01*
G37*
G36*
X113151651Y-128646446D02*
X110500000Y-131298097D01*
X110323223Y-131121320D01*
X112974874Y-128469669D01*
X113151651Y-128646446D01*
X113151651Y-128646446D01*
G37*
G36*
X113151651Y-129353553D02*
X110500000Y-132005204D01*
X110323223Y-131828427D01*
X112974874Y-129176776D01*
X113151651Y-129353553D01*
X113151651Y-129353553D01*
G37*
G36*
X118000000Y-139505204D02*
X114994796Y-136500000D01*
X115171572Y-136323224D01*
X118176776Y-139328428D01*
X118000000Y-139505204D01*
X118000000Y-139505204D01*
G37*
G36*
X117823224Y-134025126D02*
X115171573Y-136676777D01*
X114994796Y-136500000D01*
X117646447Y-133848349D01*
X117823224Y-134025126D01*
X117823224Y-134025126D01*
G37*
G36*
X120828428Y-136676776D02*
X117823224Y-133671572D01*
X118000000Y-133494796D01*
X121005204Y-136500000D01*
X120828428Y-136676776D01*
X120828428Y-136676776D01*
G37*
G36*
X118530331Y-134025126D02*
X115878680Y-136676777D01*
X115701903Y-136500000D01*
X118353554Y-133848349D01*
X118530331Y-134025126D01*
X118530331Y-134025126D01*
G37*
G36*
X118530331Y-134732233D02*
X115878680Y-137383884D01*
X115701903Y-137207107D01*
X118353554Y-134555456D01*
X118530331Y-134732233D01*
X118530331Y-134732233D01*
G37*
G36*
X119237437Y-134732233D02*
X116585786Y-137383884D01*
X116409009Y-137207107D01*
X119060660Y-134555456D01*
X119237437Y-134732233D01*
X119237437Y-134732233D01*
G37*
G36*
X119237437Y-135439340D02*
X116585786Y-138090991D01*
X116409009Y-137914214D01*
X119060660Y-135262563D01*
X119237437Y-135439340D01*
X119237437Y-135439340D01*
G37*
G36*
X119944544Y-135439340D02*
X117292893Y-138090991D01*
X117116116Y-137914214D01*
X119767767Y-135262563D01*
X119944544Y-135439340D01*
X119944544Y-135439340D01*
G37*
G36*
X119944544Y-136146446D02*
X117292893Y-138798097D01*
X117116116Y-138621320D01*
X119767767Y-135969669D01*
X119944544Y-136146446D01*
X119944544Y-136146446D01*
G37*
G36*
X120651651Y-136146446D02*
X118000000Y-138798097D01*
X117823223Y-138621320D01*
X120474874Y-135969669D01*
X120651651Y-136146446D01*
X120651651Y-136146446D01*
G37*
G36*
X120651651Y-136853553D02*
X118000000Y-139505204D01*
X117823223Y-139328427D01*
X120474874Y-136676776D01*
X120651651Y-136853553D01*
X120651651Y-136853553D01*
G37*
G36*
X162500000Y-132005204D02*
X159494796Y-129000000D01*
X159671572Y-128823224D01*
X162676776Y-131828428D01*
X162500000Y-132005204D01*
X162500000Y-132005204D01*
G37*
G36*
X162323224Y-126525126D02*
X159671573Y-129176777D01*
X159494796Y-129000000D01*
X162146447Y-126348349D01*
X162323224Y-126525126D01*
X162323224Y-126525126D01*
G37*
G36*
X165328428Y-129176776D02*
X162323224Y-126171572D01*
X162500000Y-125994796D01*
X165505204Y-129000000D01*
X165328428Y-129176776D01*
X165328428Y-129176776D01*
G37*
G36*
X163030331Y-126525126D02*
X160378680Y-129176777D01*
X160201903Y-129000000D01*
X162853554Y-126348349D01*
X163030331Y-126525126D01*
X163030331Y-126525126D01*
G37*
G36*
X163030331Y-127232233D02*
X160378680Y-129883884D01*
X160201903Y-129707107D01*
X162853554Y-127055456D01*
X163030331Y-127232233D01*
X163030331Y-127232233D01*
G37*
G36*
X163737437Y-127232233D02*
X161085786Y-129883884D01*
X160909009Y-129707107D01*
X163560660Y-127055456D01*
X163737437Y-127232233D01*
X163737437Y-127232233D01*
G37*
G36*
X163737437Y-127939340D02*
X161085786Y-130590991D01*
X160909009Y-130414214D01*
X163560660Y-127762563D01*
X163737437Y-127939340D01*
X163737437Y-127939340D01*
G37*
G36*
X164444544Y-127939340D02*
X161792893Y-130590991D01*
X161616116Y-130414214D01*
X164267767Y-127762563D01*
X164444544Y-127939340D01*
X164444544Y-127939340D01*
G37*
G36*
X164444544Y-128646446D02*
X161792893Y-131298097D01*
X161616116Y-131121320D01*
X164267767Y-128469669D01*
X164444544Y-128646446D01*
X164444544Y-128646446D01*
G37*
G36*
X165151651Y-128646446D02*
X162500000Y-131298097D01*
X162323223Y-131121320D01*
X164974874Y-128469669D01*
X165151651Y-128646446D01*
X165151651Y-128646446D01*
G37*
G36*
X165151651Y-129353553D02*
X162500000Y-132005204D01*
X162323223Y-131828427D01*
X164974874Y-129176776D01*
X165151651Y-129353553D01*
X165151651Y-129353553D01*
G37*
G36*
X125500000Y-132005204D02*
X122494796Y-129000000D01*
X122671572Y-128823224D01*
X125676776Y-131828428D01*
X125500000Y-132005204D01*
X125500000Y-132005204D01*
G37*
G36*
X125323224Y-126525126D02*
X122671573Y-129176777D01*
X122494796Y-129000000D01*
X125146447Y-126348349D01*
X125323224Y-126525126D01*
X125323224Y-126525126D01*
G37*
G36*
X128328428Y-129176776D02*
X125323224Y-126171572D01*
X125500000Y-125994796D01*
X128505204Y-129000000D01*
X128328428Y-129176776D01*
X128328428Y-129176776D01*
G37*
G36*
X126030331Y-126525126D02*
X123378680Y-129176777D01*
X123201903Y-129000000D01*
X125853554Y-126348349D01*
X126030331Y-126525126D01*
X126030331Y-126525126D01*
G37*
G36*
X126030331Y-127232233D02*
X123378680Y-129883884D01*
X123201903Y-129707107D01*
X125853554Y-127055456D01*
X126030331Y-127232233D01*
X126030331Y-127232233D01*
G37*
G36*
X126737437Y-127232233D02*
X124085786Y-129883884D01*
X123909009Y-129707107D01*
X126560660Y-127055456D01*
X126737437Y-127232233D01*
X126737437Y-127232233D01*
G37*
G36*
X126737437Y-127939340D02*
X124085786Y-130590991D01*
X123909009Y-130414214D01*
X126560660Y-127762563D01*
X126737437Y-127939340D01*
X126737437Y-127939340D01*
G37*
G36*
X127444544Y-127939340D02*
X124792893Y-130590991D01*
X124616116Y-130414214D01*
X127267767Y-127762563D01*
X127444544Y-127939340D01*
X127444544Y-127939340D01*
G37*
G36*
X127444544Y-128646446D02*
X124792893Y-131298097D01*
X124616116Y-131121320D01*
X127267767Y-128469669D01*
X127444544Y-128646446D01*
X127444544Y-128646446D01*
G37*
G36*
X128151651Y-128646446D02*
X125500000Y-131298097D01*
X125323223Y-131121320D01*
X127974874Y-128469669D01*
X128151651Y-128646446D01*
X128151651Y-128646446D01*
G37*
G36*
X128151651Y-129353553D02*
X125500000Y-132005204D01*
X125323223Y-131828427D01*
X127974874Y-129176776D01*
X128151651Y-129353553D01*
X128151651Y-129353553D01*
G37*
D13*
X125200000Y-148850000D03*
X125200000Y-146350000D03*
D12*
X111540000Y-110752000D03*
X111540000Y-108052000D03*
X120176000Y-110752000D03*
X120176000Y-108052000D03*
X151666000Y-111102000D03*
X151666000Y-108402000D03*
X160556000Y-111102000D03*
X160556000Y-108402000D03*
D14*
X136650000Y-158200000D03*
X134150000Y-158200000D03*
X139150000Y-151400000D03*
X141650000Y-151400000D03*
D15*
X121849020Y-61200000D03*
X119750980Y-61200000D03*
D16*
X120176000Y-112665000D03*
X120176000Y-114775000D03*
X122462000Y-112665000D03*
X122462000Y-114775000D03*
X149380000Y-113015000D03*
X149380000Y-115125000D03*
X151666000Y-113015000D03*
X151666000Y-115125000D03*
X153952000Y-113015000D03*
X153952000Y-115125000D03*
X158270000Y-113015000D03*
X158270000Y-115125000D03*
X160556000Y-113015000D03*
X160556000Y-115125000D03*
X162842000Y-113015000D03*
X162842000Y-115125000D03*
D17*
X134250000Y-151400000D03*
X136950000Y-151400000D03*
D18*
X136400000Y-154225000D03*
X136400000Y-154875000D03*
X136400000Y-155525000D03*
X136400000Y-156175000D03*
X140800000Y-156175000D03*
X140800000Y-155525000D03*
X140800000Y-154875000D03*
X140800000Y-154225000D03*
D16*
X109254000Y-112665000D03*
X109254000Y-114775000D03*
X111540000Y-112665000D03*
X111540000Y-114775000D03*
X113826000Y-112665000D03*
X113826000Y-114775000D03*
X117890000Y-112665000D03*
X117890000Y-114775000D03*
D13*
X134200000Y-153550000D03*
X134200000Y-156050000D03*
D19*
X143600000Y-154930000D03*
X143600000Y-157470000D03*
D10*
G36*
X147500000Y-132005204D02*
X144494796Y-129000000D01*
X144671572Y-128823224D01*
X147676776Y-131828428D01*
X147500000Y-132005204D01*
X147500000Y-132005204D01*
G37*
G36*
X147323224Y-126525126D02*
X144671573Y-129176777D01*
X144494796Y-129000000D01*
X147146447Y-126348349D01*
X147323224Y-126525126D01*
X147323224Y-126525126D01*
G37*
G36*
X150328428Y-129176776D02*
X147323224Y-126171572D01*
X147500000Y-125994796D01*
X150505204Y-129000000D01*
X150328428Y-129176776D01*
X150328428Y-129176776D01*
G37*
G36*
X148030331Y-126525126D02*
X145378680Y-129176777D01*
X145201903Y-129000000D01*
X147853554Y-126348349D01*
X148030331Y-126525126D01*
X148030331Y-126525126D01*
G37*
G36*
X148030331Y-127232233D02*
X145378680Y-129883884D01*
X145201903Y-129707107D01*
X147853554Y-127055456D01*
X148030331Y-127232233D01*
X148030331Y-127232233D01*
G37*
G36*
X148737437Y-127232233D02*
X146085786Y-129883884D01*
X145909009Y-129707107D01*
X148560660Y-127055456D01*
X148737437Y-127232233D01*
X148737437Y-127232233D01*
G37*
G36*
X148737437Y-127939340D02*
X146085786Y-130590991D01*
X145909009Y-130414214D01*
X148560660Y-127762563D01*
X148737437Y-127939340D01*
X148737437Y-127939340D01*
G37*
G36*
X149444544Y-127939340D02*
X146792893Y-130590991D01*
X146616116Y-130414214D01*
X149267767Y-127762563D01*
X149444544Y-127939340D01*
X149444544Y-127939340D01*
G37*
G36*
X149444544Y-128646446D02*
X146792893Y-131298097D01*
X146616116Y-131121320D01*
X149267767Y-128469669D01*
X149444544Y-128646446D01*
X149444544Y-128646446D01*
G37*
G36*
X150151651Y-128646446D02*
X147500000Y-131298097D01*
X147323223Y-131121320D01*
X149974874Y-128469669D01*
X150151651Y-128646446D01*
X150151651Y-128646446D01*
G37*
G36*
X150151651Y-129353553D02*
X147500000Y-132005204D01*
X147323223Y-131828427D01*
X149974874Y-129176776D01*
X150151651Y-129353553D01*
X150151651Y-129353553D01*
G37*
G36*
X155000000Y-124505204D02*
X151994796Y-121500000D01*
X152171572Y-121323224D01*
X155176776Y-124328428D01*
X155000000Y-124505204D01*
X155000000Y-124505204D01*
G37*
G36*
X154823224Y-119025126D02*
X152171573Y-121676777D01*
X151994796Y-121500000D01*
X154646447Y-118848349D01*
X154823224Y-119025126D01*
X154823224Y-119025126D01*
G37*
G36*
X157828428Y-121676776D02*
X154823224Y-118671572D01*
X155000000Y-118494796D01*
X158005204Y-121500000D01*
X157828428Y-121676776D01*
X157828428Y-121676776D01*
G37*
G36*
X155530331Y-119025126D02*
X152878680Y-121676777D01*
X152701903Y-121500000D01*
X155353554Y-118848349D01*
X155530331Y-119025126D01*
X155530331Y-119025126D01*
G37*
G36*
X155530331Y-119732233D02*
X152878680Y-122383884D01*
X152701903Y-122207107D01*
X155353554Y-119555456D01*
X155530331Y-119732233D01*
X155530331Y-119732233D01*
G37*
G36*
X156237437Y-119732233D02*
X153585786Y-122383884D01*
X153409009Y-122207107D01*
X156060660Y-119555456D01*
X156237437Y-119732233D01*
X156237437Y-119732233D01*
G37*
G36*
X156237437Y-120439340D02*
X153585786Y-123090991D01*
X153409009Y-122914214D01*
X156060660Y-120262563D01*
X156237437Y-120439340D01*
X156237437Y-120439340D01*
G37*
G36*
X156944544Y-120439340D02*
X154292893Y-123090991D01*
X154116116Y-122914214D01*
X156767767Y-120262563D01*
X156944544Y-120439340D01*
X156944544Y-120439340D01*
G37*
G36*
X156944544Y-121146446D02*
X154292893Y-123798097D01*
X154116116Y-123621320D01*
X156767767Y-120969669D01*
X156944544Y-121146446D01*
X156944544Y-121146446D01*
G37*
G36*
X157651651Y-121146446D02*
X155000000Y-123798097D01*
X154823223Y-123621320D01*
X157474874Y-120969669D01*
X157651651Y-121146446D01*
X157651651Y-121146446D01*
G37*
G36*
X157651651Y-121853553D02*
X155000000Y-124505204D01*
X154823223Y-124328427D01*
X157474874Y-121676776D01*
X157651651Y-121853553D01*
X157651651Y-121853553D01*
G37*
D20*
X129000000Y-144300000D03*
X129000000Y-147700000D03*
X133600000Y-144300000D03*
X133600000Y-147700000D03*
X139000000Y-144300000D03*
X139000000Y-147700000D03*
X143600000Y-144300000D03*
X143600000Y-147700000D03*
D15*
X123650980Y-61200000D03*
X125749020Y-61200000D03*
D21*
X114500000Y-94000000D03*
X115500000Y-94000000D03*
X107250000Y-87250000D03*
X106250000Y-87250000D03*
X115750000Y-89250000D03*
X116500000Y-89250000D03*
X117250000Y-89250000D03*
X114000000Y-74000000D03*
X113000000Y-74000000D03*
X113000000Y-73000000D03*
X114000000Y-73000000D03*
D22*
X122000000Y-72250000D03*
X120750000Y-72250000D03*
D21*
X110250000Y-67250000D03*
X110250000Y-68250000D03*
X111250000Y-68250000D03*
X111250000Y-67250000D03*
X105162000Y-99774900D03*
X122749000Y-68805500D03*
X123550000Y-64402800D03*
X144790800Y-130844800D03*
X124112500Y-146658000D03*
X129048400Y-129337300D03*
X135830300Y-129644300D03*
X136613800Y-130427800D03*
X150277500Y-136298200D03*
X127112800Y-126957300D03*
X154067500Y-130848300D03*
X126043100Y-125465500D03*
X124915200Y-96030000D03*
X125054700Y-81683600D03*
X124915200Y-122092300D03*
X129000800Y-136298900D03*
X109750000Y-104750000D03*
X121500000Y-95250000D03*
X139250000Y-149750000D03*
X130282000Y-87476100D03*
X143929700Y-137298400D03*
X124245800Y-86217500D03*
X124095700Y-115514000D03*
X121369400Y-119034900D03*
X124965400Y-136298000D03*
X125613100Y-85861200D03*
X131142600Y-136792800D03*
X128981700Y-84867500D03*
X134055300Y-129544200D03*
X129054400Y-86361100D03*
X131753600Y-130326900D03*
X122245700Y-136297000D03*
X145685400Y-130847700D03*
X120601500Y-122558400D03*
X149368900Y-106754600D03*
X144124100Y-129323500D03*
X128450500Y-130336700D03*
X149054900Y-103145200D03*
X123695400Y-84822000D03*
X137800000Y-136538000D03*
X106548300Y-106631800D03*
X118491900Y-111458200D03*
X128334300Y-92697500D03*
X132099400Y-136299900D03*
X126169100Y-92405600D03*
X127152900Y-123029400D03*
X118029500Y-140132500D03*
X114094600Y-136295800D03*
X121311800Y-108977600D03*
X155793900Y-126394600D03*
X107250000Y-106250000D03*
X111500000Y-103750000D03*
X118250000Y-70750000D03*
X117250000Y-70750000D03*
X116250000Y-70750000D03*
X116250000Y-70000000D03*
X117250000Y-70000000D03*
X120000000Y-67750000D03*
X120000000Y-70000000D03*
X118250000Y-70000000D03*
D22*
X104750000Y-81500000D03*
X104750000Y-80250000D03*
X113250000Y-82750000D03*
X112250000Y-82750000D03*
D21*
X116250000Y-90750000D03*
X111150000Y-86950000D03*
X120750000Y-61250000D03*
X120868100Y-114941800D03*
X150963700Y-115125000D03*
X140952100Y-138908000D03*
X128965600Y-93936000D03*
X129365800Y-94526700D03*
X141448000Y-137396000D03*
X129098700Y-89373200D03*
X143170000Y-136714000D03*
X130566800Y-96543400D03*
X142365700Y-136311500D03*
X130166400Y-95302700D03*
X141103000Y-136293100D03*
X129116600Y-91290700D03*
X141451200Y-130597700D03*
X129927700Y-92682800D03*
X139571000Y-130347300D03*
X128402600Y-83185900D03*
X135818000Y-136293100D03*
X128335100Y-86475300D03*
X127130600Y-122100600D03*
X130741600Y-137893500D03*
X125054600Y-89520800D03*
X113000000Y-66750000D03*
X123000000Y-66000000D03*
X113500000Y-64250000D03*
X113500000Y-63250000D03*
X116250000Y-66500000D03*
X117250000Y-66500000D03*
X118250000Y-66500000D03*
X118250000Y-67750000D03*
X117250000Y-67750000D03*
X116250000Y-67750000D03*
X128000000Y-61250000D03*
D23*
X124225000Y-148900000D02*
X123050000Y-148900000D01*
X124275000Y-148850000D02*
X124225000Y-148900000D01*
X125200000Y-148850000D02*
X124275000Y-148850000D01*
X125200000Y-155000000D02*
X125200000Y-148850000D01*
X125460000Y-155260000D02*
X125200000Y-155000000D01*
X123100000Y-148850000D02*
X123050000Y-148900000D01*
X123050000Y-148900000D02*
X123000000Y-148950000D01*
X114500000Y-94000000D02*
X115500000Y-94000000D01*
X107250000Y-87250000D02*
X106250000Y-87250000D01*
X115750000Y-89250000D02*
X116500000Y-89250000D01*
X113000000Y-74000000D02*
X114000000Y-74000000D01*
X114000000Y-73000000D02*
X113000000Y-73000000D01*
D24*
X120750000Y-72250000D02*
X122000000Y-72250000D01*
X120500000Y-72500000D02*
X120750000Y-72250000D01*
X118500000Y-72500000D02*
X120500000Y-72500000D01*
X118500000Y-75750000D02*
X118500000Y-72500000D01*
X117500000Y-75750000D02*
X118500000Y-75750000D01*
D23*
X110250000Y-68250000D02*
X110250000Y-67250000D01*
X111250000Y-67250000D02*
X111250000Y-68250000D01*
X105162000Y-98900800D02*
X105162000Y-99774900D01*
X123550000Y-68004400D02*
X123550000Y-64402800D01*
X122749000Y-68805500D02*
X123550000Y-68004400D01*
D25*
X139475000Y-154875000D02*
X140800000Y-154875000D01*
X139200000Y-154600000D02*
X139475000Y-154875000D01*
X139200000Y-153800000D02*
X139200000Y-154600000D01*
X139800000Y-153200000D02*
X139200000Y-153800000D01*
X139850000Y-153200000D02*
X139800000Y-153200000D01*
X141650000Y-151400000D02*
X139850000Y-153200000D01*
D23*
X141650000Y-151400000D02*
X141650000Y-150474700D01*
X124274700Y-146495800D02*
X124112500Y-146658000D01*
X124274700Y-146350000D02*
X124274700Y-146495800D01*
X125200000Y-146350000D02*
X124274700Y-146350000D01*
X125200000Y-146350000D02*
X126125300Y-146350000D01*
X135830300Y-129644300D02*
X136613800Y-130427800D01*
X147087200Y-133141200D02*
X150277500Y-133141200D01*
X144790800Y-130844800D02*
X147087200Y-133141200D01*
X150277500Y-133141200D02*
X150277500Y-136298200D01*
X151774600Y-133141200D02*
X154067500Y-130848300D01*
X150277500Y-133141200D02*
X151774600Y-133141200D01*
X127112800Y-126535200D02*
X127112800Y-126957300D01*
X126043100Y-125465500D02*
X127112800Y-126535200D01*
X124915200Y-96030000D02*
X124915200Y-122092300D01*
X125054700Y-88717100D02*
X125054700Y-81683600D01*
X124496000Y-89275800D02*
X125054700Y-88717100D01*
X124496000Y-95610800D02*
X124496000Y-89275800D01*
X124915200Y-96030000D02*
X124496000Y-95610800D01*
X129650400Y-145018300D02*
X128318700Y-146350000D01*
X129650400Y-142223800D02*
X129650400Y-145018300D01*
X129000800Y-141574200D02*
X129650400Y-142223800D01*
X129000800Y-136298900D02*
X129000800Y-141574200D01*
X126125300Y-146350000D02*
X128318700Y-146350000D01*
X139926100Y-148750800D02*
X141650000Y-150474700D01*
X128891900Y-148750800D02*
X139926100Y-148750800D01*
X128318700Y-148177600D02*
X128891900Y-148750800D01*
X128318700Y-146350000D02*
X128318700Y-148177600D01*
X129048400Y-128892900D02*
X129048400Y-129337300D01*
X127112800Y-126957300D02*
X129048400Y-128892900D01*
X129048400Y-136251300D02*
X129000800Y-136298900D01*
X129048400Y-129337300D02*
X129048400Y-136251300D01*
X112038000Y-127462000D02*
X111914200Y-127585800D01*
X112038000Y-127108000D02*
X112038000Y-127462000D01*
X111861000Y-126932000D02*
X112038000Y-127108000D01*
X112339000Y-127586000D02*
X112480000Y-127727000D01*
X111914000Y-127586000D02*
X112339000Y-127586000D01*
X111914200Y-127585800D02*
X111914000Y-127586000D01*
X111030000Y-129177000D02*
X111030300Y-129176700D01*
X111030300Y-129176700D02*
X112480000Y-127727000D01*
X111030300Y-129176700D02*
X111030300Y-129176800D01*
X109779300Y-124873300D02*
X111142000Y-126236000D01*
X109779300Y-114775000D02*
X109779300Y-124873300D01*
X111166000Y-126236000D02*
X111861000Y-126932000D01*
X111142000Y-126236000D02*
X111166000Y-126236000D01*
X109254000Y-114775000D02*
X109779300Y-114775000D01*
X111737400Y-129883900D02*
X111737300Y-129883800D01*
X111737000Y-129884000D02*
X111737300Y-129883800D01*
X112798000Y-128045000D02*
X112480000Y-127727000D01*
X112798000Y-128046000D02*
X112798000Y-128045000D01*
X112976000Y-128046000D02*
X112798000Y-128046000D01*
X113276000Y-128346000D02*
X112976000Y-128046000D01*
X111737300Y-129883800D02*
X113276000Y-128346000D01*
X110323000Y-128470000D02*
X111092000Y-127701000D01*
X111092000Y-127701000D02*
X111861000Y-126932000D01*
X111091900Y-127701000D02*
X110323200Y-128469700D01*
X111092000Y-127701000D02*
X111091900Y-127701000D01*
X109616000Y-127763000D02*
X110379000Y-126999500D01*
X110379000Y-126999500D02*
X111142000Y-126236000D01*
X109616100Y-127762400D02*
X109616100Y-127762600D01*
X110379000Y-126999500D02*
X109616100Y-127762400D01*
X109254000Y-112665000D02*
X111540000Y-112665000D01*
X113826000Y-112665000D02*
X111540000Y-112665000D01*
X111540000Y-112665000D02*
X111540000Y-110752000D01*
X119414000Y-120086000D02*
X119414200Y-120085800D01*
X119414000Y-120191000D02*
X119414000Y-120086000D01*
X119715000Y-120492000D02*
X119414000Y-120191000D01*
X119538000Y-119608000D02*
X119361000Y-119432000D01*
X119538000Y-119962000D02*
X119538000Y-119608000D01*
X119414200Y-120085800D02*
X119538000Y-119962000D01*
X118530000Y-121677000D02*
X118530300Y-121676700D01*
X118530300Y-121676700D02*
X119715000Y-120492000D01*
X118530300Y-121676700D02*
X118530300Y-121676800D01*
X118654000Y-118619300D02*
X118654000Y-118724000D01*
X114214300Y-114179600D02*
X118654000Y-118619300D01*
X112660700Y-114179600D02*
X114214300Y-114179600D01*
X112065300Y-114775000D02*
X112660700Y-114179600D01*
X119361000Y-119431000D02*
X119361000Y-119432000D01*
X118654000Y-118724000D02*
X119361000Y-119431000D01*
X111540000Y-114775000D02*
X112065300Y-114775000D01*
X119237400Y-122383900D02*
X119237300Y-122383800D01*
X119237000Y-122384000D02*
X119237300Y-122383800D01*
X119834000Y-120611000D02*
X119715000Y-120492000D01*
X120541000Y-120611000D02*
X119834000Y-120611000D01*
X120776000Y-120846000D02*
X120541000Y-120611000D01*
X119237300Y-122383800D02*
X120776000Y-120846000D01*
X117823000Y-120970000D02*
X118592000Y-120201000D01*
X118592000Y-120201000D02*
X119361000Y-119432000D01*
X118591900Y-120201000D02*
X117823200Y-120969700D01*
X118592000Y-120201000D02*
X118591900Y-120201000D01*
X117116000Y-120263000D02*
X117885000Y-119493500D01*
X117885000Y-119493500D02*
X118654000Y-118724000D01*
X117116100Y-120262400D02*
X117116100Y-120262600D01*
X117885000Y-119493500D02*
X117116100Y-120262400D01*
X119538000Y-134962000D02*
X119414200Y-135085800D01*
X119538000Y-134608000D02*
X119538000Y-134962000D01*
X119361000Y-134432000D02*
X119538000Y-134608000D01*
X119839000Y-135086000D02*
X119980000Y-135227000D01*
X119414000Y-135086000D02*
X119839000Y-135086000D01*
X119414200Y-135085800D02*
X119414000Y-135086000D01*
X118530000Y-136677000D02*
X118530300Y-136676700D01*
X118530300Y-136676700D02*
X119980000Y-135227000D01*
X118530300Y-136676700D02*
X118530300Y-136676800D01*
X113826000Y-128920000D02*
X118642000Y-133736000D01*
X113826000Y-114775000D02*
X113826000Y-128920000D01*
X118666000Y-133736000D02*
X119361000Y-134432000D01*
X118642000Y-133736000D02*
X118666000Y-133736000D01*
X119237400Y-137383900D02*
X119237300Y-137383800D01*
X119237000Y-137384000D02*
X119237300Y-137383800D01*
X120298000Y-135545000D02*
X119980000Y-135227000D01*
X120476000Y-135545000D02*
X120298000Y-135545000D01*
X120776000Y-135846000D02*
X120476000Y-135545000D01*
X119237300Y-137383800D02*
X120776000Y-135846000D01*
X117823000Y-135970000D02*
X118592000Y-135201000D01*
X118592000Y-135201000D02*
X119361000Y-134432000D01*
X118591900Y-135201000D02*
X117823200Y-135969700D01*
X118592000Y-135201000D02*
X118591900Y-135201000D01*
X117116000Y-135263000D02*
X117879000Y-134499500D01*
X117879000Y-134499500D02*
X118642000Y-133736000D01*
X117116100Y-135262400D02*
X117116100Y-135262600D01*
X117879000Y-134499500D02*
X117116100Y-135262400D01*
X126030000Y-129177000D02*
X126030300Y-129176700D01*
X126030300Y-129176700D02*
X127076000Y-128131000D01*
X126030300Y-129176700D02*
X126030300Y-129176800D01*
X126737400Y-129883900D02*
X126737300Y-129883800D01*
X126737300Y-129883800D02*
X126737000Y-129884000D01*
X125323000Y-128470000D02*
X125827000Y-127966000D01*
X125827000Y-127966000D02*
X126331000Y-127462000D01*
X125826900Y-127966000D02*
X125323200Y-128469700D01*
X125827000Y-127966000D02*
X125826900Y-127966000D01*
X127786000Y-128532000D02*
X127786000Y-128684000D01*
X127385000Y-128131000D02*
X127786000Y-128532000D01*
X127076000Y-128131000D02*
X127385000Y-128131000D01*
X127786000Y-128836000D02*
X126737300Y-129883800D01*
X127786000Y-128684000D02*
X127786000Y-128836000D01*
X118415300Y-115300300D02*
X118415300Y-114775000D01*
X121957000Y-118842000D02*
X118415300Y-115300300D01*
X121957000Y-129464200D02*
X121957000Y-118842000D01*
X125022300Y-132529500D02*
X121957000Y-129464200D01*
X126011700Y-132529500D02*
X125022300Y-132529500D01*
X127030200Y-131511000D02*
X126011700Y-132529500D01*
X127030200Y-130900000D02*
X127030200Y-131511000D01*
X128496400Y-129433800D02*
X127030200Y-130900000D01*
X128496400Y-129266600D02*
X128496400Y-129433800D01*
X127913800Y-128684000D02*
X128496400Y-129266600D01*
X127786000Y-128684000D02*
X127913800Y-128684000D01*
X117890000Y-114775000D02*
X118415300Y-114775000D01*
X124616000Y-127763000D02*
X125385000Y-126993500D01*
X126331000Y-126714000D02*
X126331000Y-127462000D01*
X126327000Y-126711000D02*
X126331000Y-126714000D01*
X126186000Y-126711000D02*
X126327000Y-126711000D01*
X126154000Y-126679000D02*
X126186000Y-126711000D01*
X126154000Y-126224000D02*
X126154000Y-126679000D01*
X125385000Y-126993500D02*
X126154000Y-126224000D01*
X124616100Y-127762400D02*
X124616100Y-127762600D01*
X125385000Y-126993500D02*
X124616100Y-127762400D01*
X126791000Y-127462000D02*
X126852500Y-127524000D01*
X126331000Y-127462000D02*
X126791000Y-127462000D01*
X127076000Y-127747000D02*
X127076000Y-128131000D01*
X126914000Y-127586000D02*
X127076000Y-127747000D01*
X126852500Y-127524000D02*
X126914000Y-127586000D01*
X126914200Y-127585700D02*
X126914200Y-127585800D01*
X126852500Y-127524000D02*
X126914200Y-127585700D01*
X117890000Y-112665000D02*
X120176000Y-112665000D01*
X122462000Y-112665000D02*
X120176000Y-112665000D01*
X120176000Y-112665000D02*
X120176000Y-110752000D01*
D25*
X121500000Y-95500000D02*
X121500000Y-95250000D01*
X121250000Y-95750000D02*
X121500000Y-95500000D01*
X121250000Y-100250000D02*
X121250000Y-95750000D01*
X110750000Y-100250000D02*
X121250000Y-100250000D01*
X110500000Y-100500000D02*
X110750000Y-100250000D01*
X110500000Y-104000000D02*
X110500000Y-100500000D01*
X109750000Y-104750000D02*
X110500000Y-104000000D01*
X139150000Y-149850000D02*
X139150000Y-151400000D01*
X139250000Y-149750000D02*
X139150000Y-149850000D01*
X139225000Y-155525000D02*
X140800000Y-155525000D01*
X138600000Y-154900000D02*
X139225000Y-155525000D01*
X138600000Y-153600000D02*
X138600000Y-154900000D01*
X139150000Y-153050000D02*
X138600000Y-153600000D01*
X139150000Y-151400000D02*
X139150000Y-153050000D01*
X136950000Y-151400000D02*
X139150000Y-151400000D01*
D23*
X143929700Y-131560400D02*
X143929700Y-137298400D01*
X142402000Y-130032700D02*
X143929700Y-131560400D01*
X142402000Y-99596100D02*
X142402000Y-130032700D01*
X130282000Y-87476100D02*
X142402000Y-99596100D01*
X124095700Y-86367600D02*
X124095700Y-115514000D01*
X124245800Y-86217500D02*
X124095700Y-86367600D01*
X121369400Y-132702000D02*
X121369400Y-119034900D01*
X124965400Y-136298000D02*
X121369400Y-132702000D01*
X125613100Y-93689600D02*
X125613100Y-85861200D01*
X126160000Y-94236500D02*
X125613100Y-93689600D01*
X126160000Y-122821700D02*
X126160000Y-94236500D01*
X131142600Y-127804300D02*
X126160000Y-122821700D01*
X131142600Y-136792800D02*
X131142600Y-127804300D01*
X134055300Y-128031700D02*
X134055300Y-129544200D01*
X133605100Y-127581500D02*
X134055300Y-128031700D01*
X133605100Y-106426600D02*
X133605100Y-127581500D01*
X129616100Y-102437600D02*
X133605100Y-106426600D01*
X129616100Y-95054700D02*
X129616100Y-102437600D01*
X129916100Y-94754700D02*
X129616100Y-95054700D01*
X129916100Y-93482800D02*
X129916100Y-94754700D01*
X129314200Y-92880900D02*
X129916100Y-93482800D01*
X129314200Y-92310200D02*
X129314200Y-92880900D01*
X128512300Y-91508300D02*
X129314200Y-92310200D01*
X128512300Y-88467600D02*
X128512300Y-91508300D01*
X130044000Y-86935900D02*
X128512300Y-88467600D01*
X130044000Y-85929800D02*
X130044000Y-86935900D01*
X128981700Y-84867500D02*
X130044000Y-85929800D01*
X131603600Y-130176900D02*
X131753600Y-130326900D01*
X131603600Y-108682400D02*
X131603600Y-130176900D01*
X127563800Y-104642600D02*
X131603600Y-108682400D01*
X127563800Y-88200900D02*
X127563800Y-104642600D01*
X129054400Y-86710300D02*
X127563800Y-88200900D01*
X129054400Y-86361100D02*
X129054400Y-86710300D01*
X155530000Y-122384000D02*
X154293000Y-123621000D01*
X154823000Y-121677000D02*
X153586000Y-122914000D01*
X117823000Y-121677000D02*
X116586000Y-122914000D01*
X116992000Y-123922000D02*
X117699000Y-124629000D01*
X118530000Y-122384000D02*
X116992000Y-123922000D01*
X153586000Y-122914000D02*
X154293000Y-123621000D01*
X154116000Y-120970000D02*
X152578000Y-122508000D01*
X154116100Y-120969900D02*
X154116100Y-120969700D01*
X154116000Y-120970000D02*
X154116100Y-120969900D01*
X114694000Y-121376000D02*
X114871000Y-121199000D01*
X114694000Y-121624000D02*
X114694000Y-121376000D01*
X115578000Y-122508000D02*
X114694000Y-121624000D01*
X117116000Y-120970000D02*
X115578000Y-122508000D01*
X117116100Y-120969900D02*
X117116100Y-120969700D01*
X117116000Y-120970000D02*
X117116100Y-120969900D01*
X156237400Y-123091000D02*
X156237200Y-123090800D01*
X156237200Y-123090800D02*
X156468000Y-122861000D01*
X155530100Y-122383900D02*
X155530000Y-122384000D01*
X155530300Y-122383900D02*
X155530100Y-122383900D01*
X154823200Y-121676800D02*
X154823000Y-121677000D01*
X152900000Y-120771500D02*
X153409000Y-120263000D01*
X153586000Y-122914000D02*
X153533000Y-122861500D01*
X152879000Y-122809000D02*
X152578000Y-122508000D01*
X153480000Y-122809000D02*
X152879000Y-122809000D01*
X153533000Y-122861500D02*
X153480000Y-122809000D01*
X153533100Y-122861500D02*
X153585800Y-122914200D01*
X153533000Y-122861500D02*
X153533100Y-122861500D01*
X119770000Y-122558000D02*
X119503500Y-122824500D01*
X119503500Y-122824500D02*
X117699000Y-124629000D01*
X118530100Y-122383900D02*
X118530000Y-122384000D01*
X118530300Y-122383900D02*
X118530100Y-122383900D01*
X117823200Y-121676800D02*
X117823000Y-121677000D01*
X116409000Y-120263000D02*
X116408600Y-120263000D01*
X115808000Y-120263000D02*
X114871000Y-121199000D01*
X116408600Y-120263000D02*
X115808000Y-120263000D01*
X116408600Y-120263000D02*
X116409000Y-120262600D01*
X116586000Y-122914000D02*
X116585800Y-122913800D01*
X116585800Y-122913800D02*
X114871000Y-121199000D01*
X116585800Y-122913800D02*
X116585800Y-122914200D01*
X152391000Y-121280000D02*
X152900000Y-120771500D01*
X152391000Y-121780000D02*
X152391000Y-121280000D01*
X152435000Y-121824000D02*
X152391000Y-121780000D01*
X152435000Y-122306000D02*
X152435000Y-121824000D01*
X152578000Y-122448000D02*
X152435000Y-122306000D01*
X152578000Y-122508000D02*
X152578000Y-122448000D01*
X119503500Y-122824900D02*
X119237400Y-123091000D01*
X119503500Y-122824500D02*
X119503500Y-122824900D01*
X118124000Y-124806000D02*
X118301000Y-124629000D01*
X117876000Y-124806000D02*
X118124000Y-124806000D01*
X117699000Y-124629000D02*
X117876000Y-124806000D01*
X118301000Y-124629000D02*
X116586000Y-122914000D01*
X118301000Y-132352300D02*
X122245700Y-136297000D01*
X118301000Y-124629000D02*
X118301000Y-132352300D01*
X155124000Y-124806000D02*
X154876000Y-124806000D01*
X155301000Y-124629000D02*
X155124000Y-124806000D01*
X154293000Y-123621000D02*
X155301000Y-124629000D01*
X156237000Y-123091000D02*
X156237200Y-123090800D01*
X154699000Y-124629000D02*
X156237000Y-123091000D01*
X154876000Y-124806000D02*
X154699000Y-124629000D01*
X147369800Y-132532100D02*
X145685400Y-130847700D01*
X148033400Y-132532100D02*
X147369800Y-132532100D01*
X154876000Y-125689500D02*
X148033400Y-132532100D01*
X154876000Y-124806000D02*
X154876000Y-125689500D01*
X119770400Y-122558400D02*
X119770000Y-122558000D01*
X120601500Y-122558400D02*
X119770400Y-122558400D01*
X150715700Y-108101400D02*
X149368900Y-106754600D01*
X150715700Y-108402000D02*
X150715700Y-108101400D01*
X151666000Y-108402000D02*
X150715700Y-108402000D01*
X152900100Y-120771500D02*
X153409000Y-120262600D01*
X152900000Y-120771500D02*
X152900100Y-120771500D01*
X154477400Y-110263100D02*
X152616300Y-108402000D01*
X154477400Y-119194200D02*
X154477400Y-110263100D01*
X153409000Y-120262600D02*
X154477400Y-119194200D01*
X151666000Y-108402000D02*
X152616300Y-108402000D01*
X148030000Y-129884000D02*
X146793000Y-131121000D01*
X147323000Y-129177000D02*
X146086000Y-130414000D01*
X145606000Y-129934000D02*
X146086000Y-130414000D01*
X145606000Y-129480000D02*
X145606000Y-129934000D01*
X116992000Y-138922000D02*
X117004000Y-138910000D01*
X117293000Y-139223000D02*
X116992000Y-138922000D01*
X117317000Y-139223000D02*
X117293000Y-139223000D01*
X117711000Y-139617000D02*
X117317000Y-139223000D01*
X119237000Y-138091000D02*
X117711000Y-139617000D01*
X117823000Y-136677000D02*
X116586000Y-137914000D01*
X116586000Y-137914000D02*
X114871000Y-136199000D01*
X118530000Y-137384000D02*
X117004000Y-138910000D01*
X114694000Y-136376000D02*
X114871000Y-136199000D01*
X114694000Y-136624000D02*
X114694000Y-136376000D01*
X115578000Y-137508000D02*
X114694000Y-136624000D01*
X117116000Y-135970000D02*
X115578000Y-137508000D01*
X117116100Y-135969900D02*
X117116100Y-135969700D01*
X117116000Y-135970000D02*
X117116100Y-135969900D01*
X148030100Y-129883900D02*
X148030000Y-129884000D01*
X148030300Y-129883900D02*
X148030100Y-129883900D01*
X147323200Y-129176800D02*
X147323000Y-129177000D01*
X146793000Y-131121000D02*
X146301000Y-130629000D01*
X146301000Y-130629000D02*
X146086000Y-130414000D01*
X146300600Y-130629000D02*
X146085800Y-130414200D01*
X146301000Y-130629000D02*
X146300600Y-130629000D01*
X119237400Y-138091000D02*
X119237000Y-138091000D01*
X118530100Y-137383900D02*
X118530000Y-137384000D01*
X118530300Y-137383900D02*
X118530100Y-137383900D01*
X117823200Y-136676800D02*
X117823000Y-136677000D01*
X116409000Y-135263000D02*
X116408600Y-135263000D01*
X115808000Y-135263000D02*
X114871000Y-136199000D01*
X116408600Y-135263000D02*
X115808000Y-135263000D01*
X116408600Y-135263000D02*
X116409000Y-135262600D01*
X116586000Y-138492000D02*
X116586000Y-138203000D01*
X117004000Y-138910000D02*
X116586000Y-138492000D01*
X116586000Y-138203000D02*
X116586000Y-137914000D01*
X116585800Y-138202800D02*
X116585800Y-137914200D01*
X116586000Y-138203000D02*
X116585800Y-138202800D01*
X147801000Y-132129000D02*
X146793000Y-131121000D01*
X147977000Y-131953000D02*
X147801000Y-132129000D01*
X147977000Y-131675000D02*
X147977000Y-131953000D01*
X148737000Y-130914000D02*
X147977000Y-131675000D01*
X148737000Y-130591000D02*
X148737000Y-130914000D01*
X148737400Y-130591000D02*
X148737000Y-130591000D01*
X148893000Y-130591000D02*
X148737400Y-130591000D01*
X149413000Y-130071000D02*
X148893000Y-130591000D01*
X129000000Y-143975000D02*
X129000000Y-144300000D01*
X144371000Y-129346000D02*
X144371000Y-129323500D01*
X144460000Y-129435000D02*
X144371000Y-129346000D01*
X144460000Y-129480000D02*
X144460000Y-129435000D01*
X145606000Y-129480000D02*
X144460000Y-129480000D01*
X144371000Y-129301000D02*
X145909000Y-127763000D01*
X144371000Y-129323500D02*
X144371000Y-129301000D01*
X144371000Y-129323500D02*
X144124100Y-129323500D01*
X145909000Y-127763000D02*
X145909000Y-127762600D01*
X160556000Y-108402000D02*
X159605700Y-108402000D01*
X154348900Y-103145200D02*
X159605700Y-108402000D01*
X149054900Y-103145200D02*
X154348900Y-103145200D01*
X146616000Y-128470000D02*
X145606000Y-129480000D01*
X146616100Y-128469900D02*
X146616100Y-128469700D01*
X146616000Y-128470000D02*
X146616100Y-128469900D01*
X145909000Y-119592700D02*
X145909000Y-127762600D01*
X149929100Y-115572600D02*
X145909000Y-119592700D01*
X149929100Y-114729300D02*
X149929100Y-115572600D01*
X148818600Y-113618800D02*
X149929100Y-114729300D01*
X148818600Y-103381500D02*
X148818600Y-113618800D01*
X149054900Y-103145200D02*
X148818600Y-103381500D01*
X119237400Y-138091000D02*
X128450500Y-138091000D01*
X128450500Y-143425500D02*
X129000000Y-143975000D01*
X128450500Y-138091000D02*
X128450500Y-143425500D01*
X128450500Y-130336700D02*
X128450500Y-138091000D01*
X126030000Y-129884000D02*
X124793000Y-131121000D01*
X155530000Y-137384000D02*
X154293000Y-138621000D01*
X154823000Y-136677000D02*
X153586000Y-137914000D01*
X153586000Y-137914000D02*
X151871000Y-136199000D01*
X154699000Y-139629000D02*
X156237000Y-138091000D01*
X154876000Y-139806000D02*
X154699000Y-139629000D01*
X155124000Y-139806000D02*
X154876000Y-139806000D01*
X155301000Y-139629000D02*
X155124000Y-139806000D01*
X154293000Y-138621000D02*
X155301000Y-139629000D01*
X124793000Y-131121000D02*
X124086000Y-130414000D01*
X154116100Y-135969900D02*
X154116100Y-135969700D01*
X154116000Y-135970000D02*
X154116100Y-135969900D01*
X126737400Y-130591000D02*
X126737000Y-130591000D01*
X126030100Y-129883900D02*
X126030000Y-129884000D01*
X126030300Y-129883900D02*
X126030100Y-129883900D01*
X124086000Y-130414000D02*
X124033000Y-130361500D01*
X123379000Y-130309000D02*
X123078000Y-130008000D01*
X123980000Y-130309000D02*
X123379000Y-130309000D01*
X124033000Y-130361500D02*
X123980000Y-130309000D01*
X124033100Y-130361500D02*
X124085800Y-130414200D01*
X124033000Y-130361500D02*
X124033100Y-130361500D01*
X156237400Y-138091000D02*
X156237000Y-138091000D01*
X155530100Y-137383900D02*
X155530000Y-137384000D01*
X155530300Y-137383900D02*
X155530100Y-137383900D01*
X154823200Y-136676800D02*
X154823000Y-136677000D01*
X153586000Y-137914000D02*
X153801000Y-138129000D01*
X153801000Y-138129000D02*
X154293000Y-138621000D01*
X153800600Y-138129000D02*
X153585800Y-137914200D01*
X153801000Y-138129000D02*
X153800600Y-138129000D01*
X125801000Y-132129000D02*
X124793000Y-131121000D01*
X125199000Y-132129000D02*
X125801000Y-132129000D01*
X126737000Y-130591000D02*
X125199000Y-132129000D01*
X123909000Y-127762600D02*
X123909000Y-127763000D01*
X139000000Y-143975000D02*
X139000000Y-144300000D01*
X151694000Y-136624000D02*
X152148800Y-137078800D01*
X151694000Y-136376000D02*
X151694000Y-136624000D01*
X151871000Y-136199000D02*
X151694000Y-136376000D01*
X152578000Y-137508000D02*
X154116000Y-135970000D01*
X152148800Y-137078800D02*
X152578000Y-137508000D01*
X138349700Y-145600600D02*
X139000000Y-144950300D01*
X138349700Y-148242100D02*
X138349700Y-145600600D01*
X138458000Y-148350400D02*
X138349700Y-148242100D01*
X140877200Y-148350400D02*
X138458000Y-148350400D01*
X152148800Y-137078800D02*
X140877200Y-148350400D01*
X139000000Y-144300000D02*
X139000000Y-144950300D01*
X122888000Y-128783000D02*
X123909000Y-127763000D01*
X122888000Y-129764000D02*
X122888000Y-128783000D01*
X123078000Y-129953000D02*
X122888000Y-129764000D01*
X123078000Y-130008000D02*
X123078000Y-129953000D01*
X111540000Y-108052000D02*
X112490300Y-108052000D01*
X113540700Y-107001600D02*
X112490300Y-108052000D01*
X120950600Y-107001600D02*
X113540700Y-107001600D01*
X153409000Y-135263000D02*
X153408600Y-135263000D01*
X152808000Y-135263000D02*
X151871000Y-136199000D01*
X153408600Y-135263000D02*
X152808000Y-135263000D01*
X153408600Y-135263000D02*
X153409000Y-135262600D01*
X124616000Y-128470000D02*
X123078000Y-130008000D01*
X124616100Y-128469900D02*
X124616100Y-128469700D01*
X124616000Y-128470000D02*
X124616100Y-128469900D01*
X125323000Y-129177000D02*
X124086000Y-130414000D01*
X125323000Y-129177000D02*
X125323200Y-129176800D01*
X122151500Y-114125200D02*
X122999500Y-114125200D01*
X121919000Y-114357700D02*
X122151500Y-114125200D01*
X121919000Y-118081300D02*
X121919000Y-114357700D01*
X122394500Y-118556800D02*
X121919000Y-118081300D01*
X122394500Y-126248100D02*
X122394500Y-118556800D01*
X123909000Y-127762600D02*
X122394500Y-126248100D01*
X122999500Y-109050500D02*
X120950600Y-107001600D01*
X122999500Y-114125200D02*
X122999500Y-109050500D01*
X134865500Y-139840400D02*
X139000000Y-143975000D01*
X137800000Y-136905900D02*
X134865500Y-139840400D01*
X137800000Y-136538000D02*
X137800000Y-136905900D01*
X123695400Y-104256800D02*
X120950600Y-107001600D01*
X123695400Y-84822000D02*
X123695400Y-104256800D01*
X134865400Y-139840500D02*
X134865500Y-139840400D01*
X131843600Y-139840500D02*
X134865400Y-139840500D01*
X130002300Y-137999200D02*
X131843600Y-139840500D01*
X130002300Y-128008500D02*
X130002300Y-137999200D01*
X124889900Y-122896100D02*
X130002300Y-128008500D01*
X124889900Y-122845200D02*
X124889900Y-122896100D01*
X124364900Y-122320200D02*
X124889900Y-122845200D01*
X124364900Y-122252500D02*
X124364900Y-122320200D01*
X123496900Y-121384500D02*
X124364900Y-122252500D01*
X123496900Y-114622600D02*
X123496900Y-121384500D01*
X122999500Y-114125200D02*
X123496900Y-114622600D01*
X116136100Y-109102400D02*
X118491900Y-111458200D01*
X109018900Y-109102400D02*
X116136100Y-109102400D01*
X106548300Y-106631800D02*
X109018900Y-109102400D01*
X128014900Y-93016900D02*
X128334300Y-92697500D01*
X128014900Y-104527600D02*
X128014900Y-93016900D01*
X132003900Y-108516600D02*
X128014900Y-104527600D01*
X132003900Y-128244700D02*
X132003900Y-108516600D01*
X132304000Y-128544800D02*
X132003900Y-128244700D01*
X132304000Y-136095300D02*
X132304000Y-128544800D01*
X132099400Y-136299900D02*
X132304000Y-136095300D01*
X126560400Y-92796900D02*
X126169100Y-92405600D01*
X126560400Y-122436900D02*
X126560400Y-92796900D01*
X127152900Y-123029400D02*
X126560400Y-122436900D01*
X123000000Y-145103000D02*
X123000000Y-146250000D01*
X118029500Y-140132500D02*
X123000000Y-145103000D01*
X163030000Y-129884000D02*
X161793000Y-131121000D01*
X162323000Y-129177000D02*
X161086000Y-130414000D01*
X109086000Y-130414000D02*
X107371000Y-128699000D01*
X111030000Y-129884000D02*
X109504000Y-131410000D01*
X161086000Y-130414000D02*
X161793000Y-131121000D01*
X162199000Y-132129000D02*
X163737000Y-130591000D01*
X162376000Y-132306000D02*
X162199000Y-132129000D01*
X162624000Y-132306000D02*
X162376000Y-132306000D01*
X162801000Y-132129000D02*
X162624000Y-132306000D01*
X161793000Y-131121000D02*
X162801000Y-132129000D01*
X163737400Y-130591000D02*
X163737000Y-130591000D01*
X163030100Y-129883900D02*
X163030000Y-129884000D01*
X163030300Y-129883900D02*
X163030100Y-129883900D01*
X162323200Y-129176800D02*
X162323000Y-129177000D01*
X160909000Y-127763000D02*
X159371000Y-129301000D01*
X160909000Y-127763000D02*
X160909000Y-127762600D01*
X161086000Y-130414000D02*
X161085800Y-130413800D01*
X161085800Y-130413800D02*
X161085800Y-130414200D01*
X111030100Y-129883900D02*
X111030000Y-129884000D01*
X111030300Y-129883900D02*
X111030100Y-129883900D01*
X109086000Y-130992000D02*
X109086000Y-130703000D01*
X109504000Y-131410000D02*
X109086000Y-130992000D01*
X109086000Y-130703000D02*
X109086000Y-130414000D01*
X109085800Y-130702800D02*
X109085800Y-130414200D01*
X109086000Y-130703000D02*
X109085800Y-130702800D01*
X108308000Y-127763000D02*
X107371000Y-128699000D01*
X108909000Y-127763000D02*
X108308000Y-127763000D01*
X107194000Y-128876000D02*
X107371000Y-128699000D01*
X107194000Y-129124000D02*
X107194000Y-128876000D01*
X108078000Y-130008000D02*
X107194000Y-129124000D01*
X109616000Y-128470000D02*
X108078000Y-130008000D01*
X109616100Y-128469900D02*
X109616100Y-128469700D01*
X109616000Y-128470000D02*
X109616100Y-128469900D01*
X109492000Y-131422000D02*
X110101900Y-132031900D01*
X109504000Y-131410000D02*
X109492000Y-131422000D01*
X110101900Y-132031900D02*
X110199000Y-132129000D01*
X110102000Y-132031900D02*
X110199300Y-132129100D01*
X110101900Y-132031900D02*
X110102000Y-132031900D01*
X111737400Y-130591000D02*
X110199300Y-132129100D01*
X114094600Y-136024500D02*
X114094600Y-136295800D01*
X110199300Y-132129100D02*
X114094600Y-136024500D01*
X110323000Y-129177000D02*
X109086000Y-130414000D01*
X110323000Y-129177000D02*
X110323200Y-129176800D01*
X120601800Y-108477800D02*
X120176000Y-108052000D01*
X120812000Y-108477800D02*
X121311800Y-108977600D01*
X120601800Y-108477800D02*
X120812000Y-108477800D01*
X159371000Y-128699000D02*
X159258000Y-128812000D01*
X161085800Y-130413800D02*
X159371000Y-128699000D01*
X159145000Y-129075000D02*
X159371000Y-129301000D01*
X159145000Y-128925000D02*
X159145000Y-129075000D01*
X159258000Y-128812000D02*
X159145000Y-128925000D01*
X158211300Y-128812000D02*
X155793900Y-126394600D01*
X159258000Y-128812000D02*
X158211300Y-128812000D01*
X160078000Y-130008000D02*
X159371000Y-129301000D01*
X161616000Y-128470000D02*
X160078000Y-130008000D01*
X161616100Y-128469900D02*
X161616100Y-128469700D01*
X161616000Y-128470000D02*
X161616100Y-128469900D01*
X108909000Y-117424800D02*
X108909000Y-127762600D01*
X108723400Y-117239200D02*
X108909000Y-117424800D01*
X108723400Y-114329500D02*
X108723400Y-117239200D01*
X109792500Y-113260400D02*
X108723400Y-114329500D01*
X116161800Y-113260400D02*
X109792500Y-113260400D01*
X117396000Y-112026200D02*
X116161800Y-113260400D01*
X118758200Y-112026200D02*
X117396000Y-112026200D01*
X119187500Y-111596900D02*
X118758200Y-112026200D01*
X119187500Y-109892100D02*
X119187500Y-111596900D01*
X120601800Y-108477800D02*
X119187500Y-109892100D01*
X108909000Y-127762600D02*
X108909000Y-127763000D01*
X136325000Y-155600000D02*
X136400000Y-155525000D01*
X135400000Y-155600000D02*
X136325000Y-155600000D01*
X135200000Y-155400000D02*
X135400000Y-155600000D01*
X135200000Y-154550000D02*
X135200000Y-155400000D01*
X134200000Y-153550000D02*
X135200000Y-154550000D01*
X128000000Y-156200000D02*
X128000000Y-157800000D01*
X130000000Y-154200000D02*
X128000000Y-156200000D01*
X132350000Y-154200000D02*
X130000000Y-154200000D01*
X134200000Y-156050000D02*
X132350000Y-154200000D01*
X136400000Y-157950000D02*
X136400000Y-156175000D01*
X136650000Y-158200000D02*
X136400000Y-157950000D01*
X131210000Y-155260000D02*
X130540000Y-155260000D01*
X134150000Y-158200000D02*
X131210000Y-155260000D01*
D26*
X111500000Y-104250000D02*
X111500000Y-103750000D01*
X109500000Y-106250000D02*
X111500000Y-104250000D01*
X107250000Y-106250000D02*
X109500000Y-106250000D01*
D23*
X116250000Y-70750000D02*
X117250000Y-70750000D01*
X117250000Y-70000000D02*
X116250000Y-70000000D01*
X120000000Y-63049000D02*
X121849000Y-61200000D01*
X120000000Y-67750000D02*
X120000000Y-63049000D01*
X118250000Y-70000000D02*
X120000000Y-70000000D01*
X123651000Y-61200000D02*
X121849000Y-61200000D01*
D24*
X112250000Y-82750000D02*
X113250000Y-82750000D01*
D23*
X114950000Y-90750000D02*
X111150000Y-86950000D01*
X116250000Y-90750000D02*
X114950000Y-90750000D01*
D24*
X104750000Y-80250000D02*
X104750000Y-81500000D01*
X106000000Y-82750000D02*
X112250000Y-82750000D01*
X104750000Y-81500000D02*
X106000000Y-82750000D01*
D23*
X119801000Y-61250000D02*
X120750000Y-61250000D01*
X119751000Y-61200000D02*
X119801000Y-61250000D01*
X119751000Y-61200000D02*
X119250000Y-61701000D01*
X120176000Y-114775000D02*
X120701300Y-114775000D01*
X120701300Y-114775000D02*
X120868100Y-114941800D01*
X129000000Y-147700000D02*
X129000000Y-147049700D01*
X122462000Y-114775000D02*
X122987300Y-114775000D01*
X130079600Y-145970100D02*
X129000000Y-147049700D01*
X130079600Y-141943000D02*
X130079600Y-145970100D01*
X129601900Y-141465300D02*
X130079600Y-141943000D01*
X129601900Y-128245900D02*
X129601900Y-141465300D01*
X122987300Y-121631300D02*
X129601900Y-128245900D01*
X122987300Y-114775000D02*
X122987300Y-121631300D01*
X149380000Y-113015000D02*
X151666000Y-113015000D01*
X153952000Y-113015000D02*
X151666000Y-113015000D01*
X151666000Y-113015000D02*
X151666000Y-111102000D01*
X143557100Y-120422600D02*
X148854700Y-115125000D01*
X143557100Y-130621500D02*
X143557100Y-120422600D01*
X144527500Y-131591900D02*
X143557100Y-130621500D01*
X144527500Y-141522200D02*
X144527500Y-131591900D01*
X139000000Y-147049700D02*
X144527500Y-141522200D01*
X139000000Y-147700000D02*
X139000000Y-147049700D01*
X149380000Y-115125000D02*
X148854700Y-115125000D01*
X150963700Y-115125000D02*
X151666000Y-115125000D01*
X148030000Y-129177000D02*
X148030300Y-129176700D01*
X148030300Y-129176700D02*
X149215000Y-127992000D01*
X148030300Y-129176700D02*
X148030300Y-129176800D01*
X148737400Y-129883900D02*
X148737300Y-129883800D01*
X148737000Y-129884000D02*
X148737300Y-129883800D01*
X149334000Y-128111000D02*
X149215000Y-127992000D01*
X150041000Y-128111000D02*
X149334000Y-128111000D01*
X150276000Y-128346000D02*
X150041000Y-128111000D01*
X148737300Y-129883800D02*
X150276000Y-128346000D01*
X146616000Y-127763000D02*
X147385000Y-126993500D01*
X146616100Y-127762400D02*
X146616100Y-127762600D01*
X147385000Y-126993500D02*
X146616100Y-127762400D01*
X148914000Y-126932000D02*
X148914000Y-127311500D01*
X148861000Y-126932000D02*
X148914000Y-126932000D01*
X148773000Y-127020000D02*
X148861000Y-126932000D01*
X148914000Y-127691000D02*
X149215000Y-127992000D01*
X148914000Y-127311500D02*
X148914000Y-127691000D01*
X148914200Y-127311700D02*
X148914200Y-127585800D01*
X148914000Y-127311500D02*
X148914200Y-127311700D01*
X147323000Y-128470000D02*
X148048000Y-127745000D01*
X148048000Y-127745000D02*
X148773000Y-127020000D01*
X148047900Y-127745000D02*
X147323200Y-128469700D01*
X148048000Y-127745000D02*
X148047900Y-127745000D01*
X148154000Y-120397700D02*
X148154000Y-126224000D01*
X153426700Y-115125000D02*
X148154000Y-120397700D01*
X147385000Y-126993500D02*
X148154000Y-126224000D01*
X148455000Y-126702000D02*
X148773000Y-127020000D01*
X148455000Y-126525000D02*
X148455000Y-126702000D01*
X148154000Y-126224000D02*
X148455000Y-126525000D01*
X153952000Y-115125000D02*
X153426700Y-115125000D01*
X158270000Y-113015000D02*
X160556000Y-113015000D01*
X162842000Y-113015000D02*
X160556000Y-113015000D01*
X160556000Y-113015000D02*
X160556000Y-111102000D01*
X155530000Y-136677000D02*
X155530300Y-136676700D01*
X155530300Y-136676700D02*
X156980000Y-135227000D01*
X155530300Y-136676700D02*
X155530300Y-136676800D01*
X156237400Y-137383900D02*
X156237300Y-137383800D01*
X156237000Y-137384000D02*
X156237300Y-137383800D01*
X157298000Y-135545000D02*
X156980000Y-135227000D01*
X157476000Y-135545000D02*
X157298000Y-135545000D01*
X157776000Y-135846000D02*
X157476000Y-135545000D01*
X156237300Y-137383800D02*
X157776000Y-135846000D01*
X154823000Y-135970000D02*
X155592000Y-135201000D01*
X155592000Y-135201000D02*
X156361000Y-134432000D01*
X155591900Y-135201000D02*
X154823200Y-135969700D01*
X155592000Y-135201000D02*
X155591900Y-135201000D01*
X156361000Y-134821000D02*
X156361000Y-134432000D01*
X156414000Y-134874000D02*
X156361000Y-134821000D01*
X156414000Y-135086000D02*
X156414000Y-134874000D01*
X156414400Y-135086000D02*
X156414000Y-135086000D01*
X156839000Y-135086000D02*
X156414400Y-135086000D01*
X156980000Y-135227000D02*
X156839000Y-135086000D01*
X156414400Y-135086000D02*
X156414200Y-135085800D01*
X154116100Y-135262600D02*
X154116200Y-135262700D01*
X154116200Y-135262700D02*
X154116000Y-135263000D01*
X155654000Y-133830000D02*
X155654000Y-133724000D01*
X155884000Y-134059000D02*
X155654000Y-133830000D01*
X155884000Y-134225000D02*
X155884000Y-134059000D01*
X155925000Y-134266000D02*
X155884000Y-134225000D01*
X156060000Y-134131000D02*
X155925000Y-134266000D01*
X156061000Y-134131000D02*
X156060000Y-134131000D01*
X156361000Y-134432000D02*
X156061000Y-134131000D01*
X155654000Y-133724000D02*
X154116200Y-135262700D01*
X158270000Y-115125000D02*
X158270000Y-115720300D01*
X155243600Y-133313600D02*
X155654000Y-133724000D01*
X155243600Y-126166700D02*
X155243600Y-133313600D01*
X158320600Y-123089700D02*
X155243600Y-126166700D01*
X158320600Y-115770900D02*
X158320600Y-123089700D01*
X158270000Y-115720300D02*
X158320600Y-115770900D01*
X163997000Y-127304000D02*
X163997000Y-127503000D01*
X163743000Y-127050000D02*
X163997000Y-127304000D01*
X164433000Y-127503000D02*
X163997000Y-127503000D01*
X164568000Y-127639000D02*
X164433000Y-127503000D01*
X163997000Y-127503000D02*
X163914200Y-127585800D01*
X163914200Y-127585800D02*
X163914000Y-127586000D01*
X163030000Y-129177000D02*
X163030300Y-129176700D01*
X163030300Y-129176700D02*
X164568000Y-127639000D01*
X163030300Y-129176700D02*
X163030300Y-129176800D01*
X163367400Y-126010600D02*
X163154000Y-126224000D01*
X163367400Y-114678400D02*
X163367400Y-126010600D01*
X163218600Y-114529600D02*
X163367400Y-114678400D01*
X161676700Y-114529600D02*
X163218600Y-114529600D01*
X161081300Y-115125000D02*
X161676700Y-114529600D01*
X163394000Y-126702000D02*
X163743000Y-127050000D01*
X163394000Y-126464000D02*
X163394000Y-126702000D01*
X163154000Y-126224000D02*
X163394000Y-126464000D01*
X160556000Y-115125000D02*
X161081300Y-115125000D01*
X163737400Y-129883900D02*
X163737300Y-129883800D01*
X163737000Y-129884000D02*
X163737300Y-129883800D01*
X164569000Y-127639000D02*
X164568000Y-127639000D01*
X165276000Y-128346000D02*
X164569000Y-127639000D01*
X163737300Y-129883800D02*
X165276000Y-128346000D01*
X162323000Y-128470000D02*
X163033000Y-127760000D01*
X163033000Y-127760000D02*
X163743000Y-127050000D01*
X163032900Y-127760000D02*
X162323200Y-128469700D01*
X163033000Y-127760000D02*
X163032900Y-127760000D01*
X161616000Y-127763000D02*
X162385000Y-126993500D01*
X162385000Y-126993500D02*
X163154000Y-126224000D01*
X161616100Y-127762400D02*
X161616100Y-127762600D01*
X162385000Y-126993500D02*
X161616100Y-127762400D01*
X156361000Y-119432000D02*
X156538000Y-119608000D01*
X156008000Y-119785000D02*
X156361000Y-119432000D01*
X156538000Y-119962000D02*
X156414200Y-120085800D01*
X156538000Y-119608000D02*
X156538000Y-119962000D01*
X155530000Y-121677000D02*
X155530300Y-121676700D01*
X155530300Y-121676700D02*
X155530300Y-121676800D01*
X156237400Y-122383900D02*
X156237300Y-122383800D01*
X157776000Y-120846000D02*
X156237300Y-122383800D01*
X157588000Y-120658000D02*
X157776000Y-120846000D01*
X157362000Y-120658000D02*
X157588000Y-120658000D01*
X157249000Y-120770000D02*
X157362000Y-120658000D01*
X157099000Y-120770000D02*
X157249000Y-120770000D01*
X156414000Y-120086000D02*
X157099000Y-120770000D01*
X156414200Y-120085800D02*
X156414000Y-120086000D01*
X156237300Y-122383800D02*
X156237000Y-122384000D01*
X154823000Y-120970000D02*
X155415500Y-120377500D01*
X155415500Y-120377500D02*
X156008000Y-119785000D01*
X155415400Y-120377500D02*
X154823200Y-120969700D01*
X155415500Y-120377500D02*
X155415400Y-120377500D01*
X154116000Y-120263000D02*
X154885000Y-119493500D01*
X154116100Y-120262400D02*
X154116100Y-120262600D01*
X154885000Y-119493500D02*
X154116100Y-120262400D01*
X157068000Y-119608000D02*
X156538000Y-119608000D01*
X157068000Y-120139000D02*
X157068000Y-119608000D01*
X155530300Y-121676700D02*
X157068000Y-120139000D01*
X155654000Y-116779100D02*
X155654000Y-118724000D01*
X157903500Y-114529600D02*
X155654000Y-116779100D01*
X159015900Y-114529600D02*
X157903500Y-114529600D01*
X160206700Y-115720400D02*
X159015900Y-114529600D01*
X161721300Y-115720400D02*
X160206700Y-115720400D01*
X162316700Y-115125000D02*
X161721300Y-115720400D01*
X154885000Y-119493500D02*
X155654000Y-118724000D01*
X155955000Y-119732000D02*
X156008000Y-119785000D01*
X155955000Y-119025000D02*
X155955000Y-119732000D01*
X155654000Y-118724000D02*
X155955000Y-119025000D01*
X162842000Y-115125000D02*
X162316700Y-115125000D01*
X128815500Y-94086100D02*
X128965600Y-93936000D01*
X128815500Y-103335300D02*
X128815500Y-94086100D01*
X132804500Y-107324300D02*
X128815500Y-103335300D01*
X132804500Y-127913100D02*
X132804500Y-107324300D01*
X133104600Y-128213200D02*
X132804500Y-127913100D01*
X133104600Y-131060500D02*
X133104600Y-128213200D01*
X140952100Y-138908000D02*
X133104600Y-131060500D01*
X129215800Y-94676700D02*
X129365800Y-94526700D01*
X129215800Y-103169500D02*
X129215800Y-94676700D01*
X133204800Y-107158500D02*
X129215800Y-103169500D01*
X133204800Y-127747300D02*
X133204800Y-107158500D01*
X133504900Y-128047400D02*
X133204800Y-127747300D01*
X133504900Y-129795900D02*
X133504900Y-128047400D01*
X141104900Y-137395900D02*
X133504900Y-129795900D01*
X141448000Y-137395900D02*
X141104900Y-137395900D01*
X141448000Y-137396000D02*
X141448000Y-137395900D01*
X143170000Y-133758700D02*
X143170000Y-136714000D01*
X142001600Y-132590300D02*
X143170000Y-133758700D01*
X142001600Y-102276100D02*
X142001600Y-132590300D01*
X129098700Y-89373200D02*
X142001600Y-102276100D01*
X142365700Y-134926800D02*
X142365700Y-136311500D01*
X134405700Y-126966800D02*
X142365700Y-134926800D01*
X134405700Y-100382300D02*
X134405700Y-126966800D01*
X130566800Y-96543400D02*
X134405700Y-100382300D01*
X130016400Y-95452700D02*
X130166400Y-95302700D01*
X130016400Y-102271800D02*
X130016400Y-95452700D01*
X134005400Y-106260800D02*
X130016400Y-102271800D01*
X134005400Y-127415700D02*
X134005400Y-106260800D01*
X134772600Y-128182900D02*
X134005400Y-127415700D01*
X134772600Y-129962700D02*
X134772600Y-128182900D01*
X141103000Y-136293100D02*
X134772600Y-129962700D01*
X129313900Y-91290700D02*
X129116600Y-91290700D01*
X141451200Y-103428000D02*
X129313900Y-91290700D01*
X141451200Y-130597700D02*
X141451200Y-103428000D01*
X139571000Y-102326100D02*
X139571000Y-130347300D01*
X129927700Y-92682800D02*
X139571000Y-102326100D01*
X132704300Y-133179400D02*
X135818000Y-136293100D01*
X132704300Y-128379000D02*
X132704300Y-133179400D01*
X132404200Y-128078900D02*
X132704300Y-128379000D01*
X132404200Y-108350600D02*
X132404200Y-128078900D01*
X128415200Y-104361600D02*
X132404200Y-108350600D01*
X128415200Y-93438000D02*
X128415200Y-104361600D01*
X128913900Y-92939300D02*
X128415200Y-93438000D01*
X128913900Y-92476000D02*
X128913900Y-92939300D01*
X128112000Y-91674100D02*
X128913900Y-92476000D01*
X128112000Y-88294300D02*
X128112000Y-91674100D01*
X129643700Y-86762600D02*
X128112000Y-88294300D01*
X129643700Y-86132800D02*
X129643700Y-86762600D01*
X128951100Y-85440200D02*
X129643700Y-86132800D01*
X128731800Y-85440200D02*
X128951100Y-85440200D01*
X128402600Y-85111000D02*
X128731800Y-85440200D01*
X128402600Y-83185900D02*
X128402600Y-85111000D01*
X127130600Y-87679800D02*
X127130600Y-122100600D01*
X128335100Y-86475300D02*
X127130600Y-87679800D01*
X125054600Y-93805600D02*
X125054600Y-89520800D01*
X125713000Y-94464000D02*
X125054600Y-93805600D01*
X125713000Y-123034400D02*
X125713000Y-94464000D01*
X130417300Y-127738700D02*
X125713000Y-123034400D01*
X130417300Y-137569200D02*
X130417300Y-127738700D01*
X130741600Y-137893500D02*
X130417300Y-137569200D01*
X120250000Y-68750000D02*
X123000000Y-66000000D01*
X113000000Y-68750000D02*
X120250000Y-68750000D01*
X113000000Y-66750000D02*
X113000000Y-68750000D01*
X136400000Y-153550000D02*
X136400000Y-154225000D01*
X134250000Y-151400000D02*
X136400000Y-153550000D01*
D25*
X142895000Y-154225000D02*
X143600000Y-154930000D01*
X140800000Y-154225000D02*
X142895000Y-154225000D01*
X142095000Y-157470000D02*
X143600000Y-157470000D01*
X140800000Y-156175000D02*
X142095000Y-157470000D01*
D23*
X113500000Y-63250000D02*
X113500000Y-64250000D01*
X117250000Y-66500000D02*
X116250000Y-66500000D01*
X118250000Y-67750000D02*
X118250000Y-66500000D01*
X116250000Y-67750000D02*
X117250000Y-67750000D01*
X127950000Y-61200000D02*
X125749000Y-61200000D01*
X128000000Y-61250000D02*
X127950000Y-61200000D01*
X125749000Y-61200000D02*
X125799000Y-61250000D01*
X125749000Y-61200000D02*
X125700000Y-61249000D01*
D27*
X114877000Y-69177000D02*
X118623000Y-69177000D01*
X114877000Y-69380200D02*
X118623000Y-69380200D01*
X114877000Y-69583400D02*
X118623000Y-69583400D01*
X114877000Y-69786600D02*
X118623000Y-69786600D01*
X114877000Y-69989800D02*
X118623000Y-69989800D01*
X114877000Y-70193000D02*
X118623000Y-70193000D01*
X114877000Y-70396200D02*
X118623000Y-70396200D01*
X114877000Y-70599400D02*
X118623000Y-70599400D01*
X114877000Y-70802600D02*
X118623000Y-70802600D01*
X114877000Y-71005800D02*
X118623000Y-71005800D01*
X114877000Y-71209000D02*
X118623000Y-71209000D01*
X114877000Y-71412200D02*
X118623000Y-71412200D01*
X114877000Y-71615400D02*
X118623000Y-71615400D01*
X114877000Y-71818600D02*
X118623000Y-71818600D01*
X114877000Y-72021800D02*
X117873000Y-72021800D01*
X114877000Y-72225000D02*
X117873000Y-72225000D01*
X114877000Y-72428200D02*
X117873000Y-72428200D01*
X114877000Y-72631400D02*
X117873000Y-72631400D01*
X114877000Y-72834600D02*
X117873000Y-72834600D01*
X114877000Y-73037800D02*
X117873000Y-73037800D01*
X114877000Y-73241000D02*
X117873000Y-73241000D01*
X114877000Y-73444200D02*
X117873000Y-73444200D01*
X114877000Y-73647400D02*
X117873000Y-73647400D01*
X114877000Y-73850600D02*
X117873000Y-73850600D01*
X114877000Y-74053800D02*
X117873000Y-74053800D01*
X114877000Y-74257000D02*
X117873000Y-74257000D01*
X114877000Y-74460200D02*
X117873000Y-74460200D01*
X114877000Y-74663400D02*
X117873000Y-74663400D01*
X114877000Y-74866600D02*
X117873000Y-74866600D01*
X118623000Y-71873000D02*
X118000000Y-71873000D01*
X117950590Y-71883006D01*
X117908965Y-71911447D01*
X117881685Y-71953841D01*
X117873000Y-72000000D01*
X117873000Y-74873000D01*
X114877000Y-74873000D01*
X114877000Y-69177000D01*
X118623000Y-69177000D01*
X118623000Y-71873000D01*
D26*
G36*
X114125000Y-64750000D02*
X114134848Y-64798632D01*
X114162841Y-64839601D01*
X114204568Y-64866451D01*
X114250000Y-64875000D01*
X118625000Y-64875000D01*
X118625000Y-68125000D01*
X114875000Y-68125000D01*
X114875000Y-66750000D01*
X114865152Y-66701368D01*
X114838388Y-66661612D01*
X114588388Y-66411612D01*
X114547037Y-66384187D01*
X114500000Y-66375000D01*
X113438119Y-66375000D01*
X113326137Y-66262823D01*
X113114876Y-66175100D01*
X112886127Y-66174900D01*
X112875000Y-66179498D01*
X112875000Y-64750000D01*
X112865152Y-64701368D01*
X112837159Y-64660399D01*
X112795432Y-64633549D01*
X112750000Y-64625000D01*
X111625000Y-64625000D01*
X111625000Y-62875000D01*
X114125000Y-62875000D01*
X114125000Y-64750000D01*
X114125000Y-64750000D01*
G37*
X114125000Y-64750000D02*
X114134848Y-64798632D01*
X114162841Y-64839601D01*
X114204568Y-64866451D01*
X114250000Y-64875000D01*
X118625000Y-64875000D01*
X118625000Y-68125000D01*
X114875000Y-68125000D01*
X114875000Y-66750000D01*
X114865152Y-66701368D01*
X114838388Y-66661612D01*
X114588388Y-66411612D01*
X114547037Y-66384187D01*
X114500000Y-66375000D01*
X113438119Y-66375000D01*
X113326137Y-66262823D01*
X113114876Y-66175100D01*
X112886127Y-66174900D01*
X112875000Y-66179498D01*
X112875000Y-64750000D01*
X112865152Y-64701368D01*
X112837159Y-64660399D01*
X112795432Y-64633549D01*
X112750000Y-64625000D01*
X111625000Y-64625000D01*
X111625000Y-62875000D01*
X114125000Y-62875000D01*
X114125000Y-64750000D01*
G36*
X111125000Y-65000000D02*
X111134848Y-65048632D01*
X111162841Y-65089601D01*
X111204568Y-65116451D01*
X111250000Y-65125000D01*
X112375000Y-65125000D01*
X112375000Y-67000000D01*
X112384848Y-67048632D01*
X112412841Y-67089601D01*
X112454568Y-67116451D01*
X112500000Y-67125000D01*
X112561882Y-67125000D01*
X112575000Y-67138141D01*
X112575000Y-68750000D01*
X112607351Y-68912640D01*
X112699480Y-69050520D01*
X112837360Y-69142649D01*
X113000000Y-69175000D01*
X114375000Y-69175000D01*
X114375000Y-75250000D01*
X114384848Y-75298632D01*
X114412841Y-75339601D01*
X114454568Y-75366451D01*
X114500000Y-75375000D01*
X117875000Y-75375000D01*
X117875000Y-99625000D01*
X104625000Y-99625000D01*
X104625000Y-87063873D01*
X110574900Y-87063873D01*
X110662254Y-87275286D01*
X110823863Y-87437177D01*
X111035124Y-87524900D01*
X111123938Y-87524978D01*
X114649480Y-91050521D01*
X114787359Y-91142649D01*
X114950000Y-91175000D01*
X115861794Y-91175000D01*
X115923863Y-91237177D01*
X116135124Y-91324900D01*
X116363873Y-91325100D01*
X116575286Y-91237746D01*
X116737177Y-91076137D01*
X116824900Y-90864876D01*
X116825100Y-90636127D01*
X116737746Y-90424714D01*
X116576137Y-90262823D01*
X116364876Y-90175100D01*
X116136127Y-90174900D01*
X115924714Y-90262254D01*
X115861859Y-90325000D01*
X115126041Y-90325000D01*
X111725023Y-86923983D01*
X111725100Y-86836127D01*
X111637746Y-86624714D01*
X111476137Y-86462823D01*
X111264876Y-86375100D01*
X111036127Y-86374900D01*
X110824714Y-86462254D01*
X110662823Y-86623863D01*
X110575100Y-86835124D01*
X110574900Y-87063873D01*
X104625000Y-87063873D01*
X104625000Y-82324892D01*
X104761839Y-82325011D01*
X105593414Y-83156586D01*
X105779957Y-83281231D01*
X106000000Y-83325000D01*
X111658288Y-83325000D01*
X111782065Y-83448993D01*
X112085177Y-83574857D01*
X112413383Y-83575143D01*
X112716715Y-83449809D01*
X112749855Y-83416727D01*
X112782065Y-83448993D01*
X113085177Y-83574857D01*
X113413383Y-83575143D01*
X113716715Y-83449809D01*
X113948993Y-83217935D01*
X114074857Y-82914823D01*
X114075143Y-82586617D01*
X113949809Y-82283285D01*
X113717935Y-82051007D01*
X113414823Y-81925143D01*
X113086617Y-81924857D01*
X112783285Y-82050191D01*
X112750145Y-82083273D01*
X112717935Y-82051007D01*
X112414823Y-81925143D01*
X112086617Y-81924857D01*
X111783285Y-82050191D01*
X111658259Y-82175000D01*
X106238172Y-82175000D01*
X105574990Y-81511818D01*
X105575143Y-81336617D01*
X105449809Y-81033285D01*
X105325000Y-80908259D01*
X105325000Y-80841712D01*
X105448993Y-80717935D01*
X105574857Y-80414823D01*
X105575143Y-80086617D01*
X105449809Y-79783285D01*
X105217935Y-79551007D01*
X104914823Y-79425143D01*
X104625000Y-79424890D01*
X104625000Y-64125000D01*
X111125000Y-64125000D01*
X111125000Y-65000000D01*
X111125000Y-65000000D01*
G37*
X111125000Y-65000000D02*
X111134848Y-65048632D01*
X111162841Y-65089601D01*
X111204568Y-65116451D01*
X111250000Y-65125000D01*
X112375000Y-65125000D01*
X112375000Y-67000000D01*
X112384848Y-67048632D01*
X112412841Y-67089601D01*
X112454568Y-67116451D01*
X112500000Y-67125000D01*
X112561882Y-67125000D01*
X112575000Y-67138141D01*
X112575000Y-68750000D01*
X112607351Y-68912640D01*
X112699480Y-69050520D01*
X112837360Y-69142649D01*
X113000000Y-69175000D01*
X114375000Y-69175000D01*
X114375000Y-75250000D01*
X114384848Y-75298632D01*
X114412841Y-75339601D01*
X114454568Y-75366451D01*
X114500000Y-75375000D01*
X117875000Y-75375000D01*
X117875000Y-99625000D01*
X104625000Y-99625000D01*
X104625000Y-87063873D01*
X110574900Y-87063873D01*
X110662254Y-87275286D01*
X110823863Y-87437177D01*
X111035124Y-87524900D01*
X111123938Y-87524978D01*
X114649480Y-91050521D01*
X114787359Y-91142649D01*
X114950000Y-91175000D01*
X115861794Y-91175000D01*
X115923863Y-91237177D01*
X116135124Y-91324900D01*
X116363873Y-91325100D01*
X116575286Y-91237746D01*
X116737177Y-91076137D01*
X116824900Y-90864876D01*
X116825100Y-90636127D01*
X116737746Y-90424714D01*
X116576137Y-90262823D01*
X116364876Y-90175100D01*
X116136127Y-90174900D01*
X115924714Y-90262254D01*
X115861859Y-90325000D01*
X115126041Y-90325000D01*
X111725023Y-86923983D01*
X111725100Y-86836127D01*
X111637746Y-86624714D01*
X111476137Y-86462823D01*
X111264876Y-86375100D01*
X111036127Y-86374900D01*
X110824714Y-86462254D01*
X110662823Y-86623863D01*
X110575100Y-86835124D01*
X110574900Y-87063873D01*
X104625000Y-87063873D01*
X104625000Y-82324892D01*
X104761839Y-82325011D01*
X105593414Y-83156586D01*
X105779957Y-83281231D01*
X106000000Y-83325000D01*
X111658288Y-83325000D01*
X111782065Y-83448993D01*
X112085177Y-83574857D01*
X112413383Y-83575143D01*
X112716715Y-83449809D01*
X112749855Y-83416727D01*
X112782065Y-83448993D01*
X113085177Y-83574857D01*
X113413383Y-83575143D01*
X113716715Y-83449809D01*
X113948993Y-83217935D01*
X114074857Y-82914823D01*
X114075143Y-82586617D01*
X113949809Y-82283285D01*
X113717935Y-82051007D01*
X113414823Y-81925143D01*
X113086617Y-81924857D01*
X112783285Y-82050191D01*
X112750145Y-82083273D01*
X112717935Y-82051007D01*
X112414823Y-81925143D01*
X112086617Y-81924857D01*
X111783285Y-82050191D01*
X111658259Y-82175000D01*
X106238172Y-82175000D01*
X105574990Y-81511818D01*
X105575143Y-81336617D01*
X105449809Y-81033285D01*
X105325000Y-80908259D01*
X105325000Y-80841712D01*
X105448993Y-80717935D01*
X105574857Y-80414823D01*
X105575143Y-80086617D01*
X105449809Y-79783285D01*
X105217935Y-79551007D01*
X104914823Y-79425143D01*
X104625000Y-79424890D01*
X104625000Y-64125000D01*
X111125000Y-64125000D01*
X111125000Y-65000000D01*
M02*
