G04 #@! TF.FileFunction,Profile,NP*
%FSLAX46Y46*%
G04 Gerber Fmt 4.6, Leading zero omitted, Abs format (unit mm)*
G04 Created by KiCad (PCBNEW 4.0.2-stable) date 7/30/2016 6:00:18 PM*
%MOMM*%
G01*
G04 APERTURE LIST*
%ADD10C,0.100000*%
%ADD11C,0.150000*%
G04 APERTURE END LIST*
D10*
D11*
X166500000Y-62000000D02*
G75*
G03X166500000Y-62000000I-1000000J0D01*
G01*
X119000000Y-100000000D02*
X121000000Y-100000000D01*
X119000000Y-73000000D02*
X121000000Y-73000000D01*
X121000000Y-100000000D02*
X121000000Y-73000000D01*
X119000000Y-73000000D02*
X119000000Y-100000000D01*
X137000000Y-124000000D02*
G75*
G03X137000000Y-124000000I-1000000J0D01*
G01*
X108500000Y-120000000D02*
G75*
G03X108500000Y-120000000I-1000000J0D01*
G01*
X166500000Y-120000000D02*
G75*
G03X166500000Y-120000000I-1000000J0D01*
G01*
X108500000Y-62000000D02*
G75*
G03X108500000Y-62000000I-1000000J0D01*
G01*
X167000000Y-156500000D02*
G75*
G03X167000000Y-156500000I-1500000J0D01*
G01*
X109000000Y-156500000D02*
G75*
G03X109000000Y-156500000I-1500000J0D01*
G01*
X104000000Y-156500000D02*
X104000000Y-156250000D01*
X165500000Y-160000000D02*
X107500000Y-160000000D01*
X165250000Y-60000000D02*
X107750000Y-60000000D01*
X169000000Y-63750000D02*
G75*
G03X165250000Y-60000000I-3750000J0D01*
G01*
X104000000Y-63250000D02*
X104000000Y-156250000D01*
X107750000Y-60000000D02*
G75*
G03X104000000Y-63250000I-250000J-3500000D01*
G01*
X104000000Y-156500000D02*
G75*
G03X107500000Y-160000000I3500000J0D01*
G01*
X165500000Y-160000000D02*
G75*
G03X169000000Y-156500000I0J3500000D01*
G01*
X169000000Y-63750000D02*
X169000000Y-156500000D01*
M02*
