G04 #@! TF.FileFunction,Copper,L2,Bot,Signal*
%FSLAX46Y46*%
G04 Gerber Fmt 4.6, Leading zero omitted, Abs format (unit mm)*
G04 Created by KiCad (PCBNEW 4.0.2-stable) date 7/30/2016 6:00:18 PM*
%MOMM*%
G01*
G04 APERTURE LIST*
%ADD10C,0.100000*%
%ADD11R,1.500000X1.250000*%
%ADD12R,2.000000X2.000000*%
%ADD13C,1.016000*%
%ADD14R,1.300000X1.500000*%
%ADD15R,1.250000X0.300000*%
%ADD16R,3.000000X2.000000*%
%ADD17R,1.250000X1.500000*%
%ADD18R,1.500000X1.300000*%
%ADD19R,1.800860X0.800100*%
%ADD20R,1.550000X0.600000*%
%ADD21R,1.800000X1.200000*%
%ADD22R,0.700000X1.500000*%
%ADD23R,1.000000X0.800000*%
%ADD24R,0.650000X1.060000*%
%ADD25R,1.060000X0.650000*%
%ADD26R,0.250000X4.250000*%
%ADD27R,3.750000X0.250000*%
%ADD28C,0.500000*%
%ADD29C,1.000000*%
%ADD30C,0.200000*%
%ADD31C,0.500000*%
%ADD32C,0.300000*%
%ADD33C,0.250000*%
%ADD34C,0.254000*%
G04 APERTURE END LIST*
D10*
D11*
X116058000Y-71882000D03*
X113558000Y-71882000D03*
D12*
X160660000Y-132300000D03*
X160660000Y-134840000D03*
X158120000Y-134840000D03*
X155580000Y-134840000D03*
X153040000Y-134840000D03*
X150500000Y-134840000D03*
X147960000Y-134840000D03*
X145420000Y-134840000D03*
X142880000Y-134840000D03*
X140340000Y-134840000D03*
X137800000Y-134840000D03*
X135260000Y-134840000D03*
X132720000Y-134840000D03*
X130180000Y-134840000D03*
X127640000Y-134840000D03*
X125100000Y-134840000D03*
X122560000Y-134840000D03*
X120020000Y-134840000D03*
X117480000Y-134840000D03*
X114940000Y-134840000D03*
X112400000Y-134840000D03*
X158120000Y-132300000D03*
X155580000Y-132300000D03*
X153040000Y-132300000D03*
X150500000Y-132300000D03*
X147960000Y-132300000D03*
X145420000Y-132300000D03*
X142880000Y-132300000D03*
X140340000Y-132300000D03*
X137800000Y-132300000D03*
X135260000Y-132300000D03*
X132720000Y-132300000D03*
X130180000Y-132300000D03*
X127640000Y-132300000D03*
X125100000Y-132300000D03*
X122560000Y-132300000D03*
X117480000Y-132300000D03*
X120020000Y-132300000D03*
X114940000Y-132300000D03*
X112400000Y-132300000D03*
D13*
X128000000Y-157800000D03*
X130540000Y-155260000D03*
X125460000Y-155260000D03*
D14*
X118200000Y-102400000D03*
X118200000Y-105100000D03*
X116100000Y-102400000D03*
X116100000Y-105100000D03*
X114000000Y-102400000D03*
X114000000Y-105100000D03*
X111250000Y-70150000D03*
X111250000Y-72850000D03*
D15*
X127250000Y-98750000D03*
X127250000Y-98250000D03*
D16*
X124925000Y-100290000D03*
D15*
X127250000Y-97250000D03*
X127250000Y-97750000D03*
X127250000Y-96750000D03*
X127250000Y-95750000D03*
X127250000Y-96250000D03*
X127250000Y-95250000D03*
X127250000Y-94250000D03*
X127250000Y-94750000D03*
X127250000Y-92250000D03*
X127250000Y-91750000D03*
X127250000Y-91250000D03*
X127250000Y-90750000D03*
X127250000Y-89750000D03*
X127250000Y-90250000D03*
X127250000Y-89250000D03*
X127250000Y-92750000D03*
X127250000Y-93250000D03*
X127250000Y-93750000D03*
X127250000Y-80250000D03*
X127250000Y-79250000D03*
X127250000Y-79750000D03*
X127250000Y-81250000D03*
X127250000Y-80750000D03*
X127250000Y-81750000D03*
X127250000Y-88750000D03*
X127250000Y-87750000D03*
X127250000Y-88250000D03*
X127250000Y-86250000D03*
X127250000Y-85250000D03*
X127250000Y-85750000D03*
X127250000Y-87250000D03*
X127250000Y-86750000D03*
X127250000Y-84250000D03*
X127250000Y-83250000D03*
X127250000Y-84750000D03*
X127250000Y-83750000D03*
X127250000Y-82250000D03*
X127250000Y-82750000D03*
X127250000Y-77750000D03*
X127250000Y-78750000D03*
X127250000Y-78250000D03*
X127250000Y-76750000D03*
X127250000Y-77250000D03*
X127250000Y-76250000D03*
X127250000Y-74250000D03*
X127250000Y-75750000D03*
X127250000Y-74750000D03*
X127250000Y-75250000D03*
D16*
X124925000Y-72710000D03*
D17*
X121550000Y-68200000D03*
X121550000Y-70700000D03*
D11*
X115200000Y-86550000D03*
X112700000Y-86550000D03*
X109800000Y-88750000D03*
X107300000Y-88750000D03*
D18*
X112700000Y-84350000D03*
X115400000Y-84350000D03*
D14*
X121550000Y-63300000D03*
X121550000Y-66000000D03*
D18*
X108550000Y-104600000D03*
X105850000Y-104600000D03*
X107100000Y-92550000D03*
X109800000Y-92550000D03*
X112200000Y-92550000D03*
X114900000Y-92550000D03*
D14*
X111900000Y-102400000D03*
X111900000Y-105100000D03*
D19*
X105798860Y-102850000D03*
X105798860Y-100950000D03*
X108801140Y-101900000D03*
D20*
X123987500Y-68750000D03*
X123987500Y-67750000D03*
D21*
X126512500Y-70050000D03*
X126512500Y-66450000D03*
D22*
X112000000Y-63675000D03*
X115000000Y-63675000D03*
X116500000Y-63675000D03*
D23*
X110600000Y-60825000D03*
X117900000Y-60825000D03*
X117900000Y-63025000D03*
X110600000Y-63025000D03*
D24*
X113096000Y-67734000D03*
X114046000Y-67734000D03*
X114996000Y-67734000D03*
X114996000Y-69934000D03*
X113096000Y-69934000D03*
D25*
X114300000Y-88200000D03*
X114300000Y-89150000D03*
X114300000Y-90100000D03*
X112100000Y-90100000D03*
X112100000Y-88200000D03*
X112100000Y-89150000D03*
D26*
X128750000Y-120000000D03*
D27*
X130500000Y-122000000D03*
D26*
X132750000Y-120000000D03*
D27*
X131000000Y-121500000D03*
X130500000Y-121000000D03*
X131000000Y-120500000D03*
X130500000Y-120000000D03*
X131000000Y-119500000D03*
X130500000Y-119000000D03*
X131000000Y-118500000D03*
X130500000Y-118000000D03*
D26*
X139250000Y-120000000D03*
D27*
X141000000Y-122000000D03*
D26*
X143250000Y-120000000D03*
D27*
X141500000Y-121500000D03*
X141000000Y-121000000D03*
X141500000Y-120500000D03*
X141000000Y-120000000D03*
X141500000Y-119500000D03*
X141000000Y-119000000D03*
X141500000Y-118500000D03*
X141000000Y-118000000D03*
D11*
X111780000Y-65786000D03*
X114280000Y-65786000D03*
D18*
X123900000Y-61250000D03*
X126600000Y-61250000D03*
D28*
X114500000Y-94000000D03*
X115500000Y-94000000D03*
X107250000Y-87250000D03*
X106250000Y-87250000D03*
X115750000Y-89250000D03*
X116500000Y-89250000D03*
X117250000Y-89250000D03*
X114000000Y-74000000D03*
X113000000Y-74000000D03*
X113000000Y-73000000D03*
X114000000Y-73000000D03*
D29*
X122000000Y-72250000D03*
X120750000Y-72250000D03*
D28*
X110250000Y-67250000D03*
X110250000Y-68250000D03*
X111250000Y-68250000D03*
X111250000Y-67250000D03*
X105162000Y-99774900D03*
X122749000Y-68805500D03*
X123550000Y-64402800D03*
X144790800Y-130844800D03*
X124112500Y-146658000D03*
X129048400Y-129337300D03*
X135830300Y-129644300D03*
X136613800Y-130427800D03*
X150277500Y-136298200D03*
X127112800Y-126957300D03*
X154067500Y-130848300D03*
X126043100Y-125465500D03*
X124915200Y-96030000D03*
X125054700Y-81683600D03*
X124915200Y-122092300D03*
X129000800Y-136298900D03*
X109750000Y-104750000D03*
X121500000Y-95250000D03*
X139250000Y-149750000D03*
X130282000Y-87476100D03*
X143929700Y-137298400D03*
X124245800Y-86217500D03*
X124095700Y-115514000D03*
X121369400Y-119034900D03*
X124965400Y-136298000D03*
X125613100Y-85861200D03*
X131142600Y-136792800D03*
X128981700Y-84867500D03*
X134055300Y-129544200D03*
X129054400Y-86361100D03*
X131753600Y-130326900D03*
X122245700Y-136297000D03*
X145685400Y-130847700D03*
X120601500Y-122558400D03*
X149368900Y-106754600D03*
X144124100Y-129323500D03*
X128450500Y-130336700D03*
X149054900Y-103145200D03*
X123695400Y-84822000D03*
X137800000Y-136538000D03*
X106548300Y-106631800D03*
X118491900Y-111458200D03*
X128334300Y-92697500D03*
X132099400Y-136299900D03*
X126169100Y-92405600D03*
X127152900Y-123029400D03*
X118029500Y-140132500D03*
X114094600Y-136295800D03*
X121311800Y-108977600D03*
X155793900Y-126394600D03*
X107250000Y-106250000D03*
X111500000Y-103750000D03*
X118250000Y-70750000D03*
X117250000Y-70750000D03*
X116250000Y-70750000D03*
X116250000Y-70000000D03*
X117250000Y-70000000D03*
X120000000Y-67750000D03*
X120000000Y-70000000D03*
X118250000Y-70000000D03*
D29*
X104750000Y-81500000D03*
X104750000Y-80250000D03*
X113250000Y-82750000D03*
X112250000Y-82750000D03*
D28*
X116250000Y-90750000D03*
X111150000Y-86950000D03*
X120750000Y-61250000D03*
X120868100Y-114941800D03*
X150963700Y-115125000D03*
X140952100Y-138908000D03*
X128965600Y-93936000D03*
X129365800Y-94526700D03*
X141448000Y-137396000D03*
X129098700Y-89373200D03*
X143170000Y-136714000D03*
X130566800Y-96543400D03*
X142365700Y-136311500D03*
X130166400Y-95302700D03*
X141103000Y-136293100D03*
X129116600Y-91290700D03*
X141451200Y-130597700D03*
X129927700Y-92682800D03*
X139571000Y-130347300D03*
X128402600Y-83185900D03*
X135818000Y-136293100D03*
X128335100Y-86475300D03*
X127130600Y-122100600D03*
X130741600Y-137893500D03*
X125054600Y-89520800D03*
X113000000Y-66750000D03*
X123000000Y-66000000D03*
X113500000Y-64250000D03*
X113500000Y-63250000D03*
X116250000Y-66500000D03*
X117250000Y-66500000D03*
X118250000Y-66500000D03*
X118250000Y-67750000D03*
X117250000Y-67750000D03*
X116250000Y-67750000D03*
X128000000Y-61250000D03*
D30*
X114500000Y-92950000D02*
X114500000Y-94000000D01*
X114900000Y-92550000D02*
X114500000Y-92950000D01*
X107250000Y-88700000D02*
X107250000Y-87250000D01*
X107300000Y-88750000D02*
X107250000Y-88700000D01*
X114400000Y-89250000D02*
X115750000Y-89250000D01*
X114300000Y-89150000D02*
X114400000Y-89250000D01*
X116500000Y-89250000D02*
X117250000Y-89250000D01*
X114000000Y-72324000D02*
X114000000Y-73000000D01*
X113558000Y-71882000D02*
X114000000Y-72324000D01*
X113000000Y-73000000D02*
X113000000Y-74000000D01*
D31*
X121550000Y-71450000D02*
X121550000Y-70700000D01*
X120750000Y-72250000D02*
X121550000Y-71450000D01*
D30*
X111250000Y-66316000D02*
X111250000Y-67250000D01*
X111780000Y-65786000D02*
X111250000Y-66316000D01*
X111250000Y-68250000D02*
X110250000Y-68250000D01*
D31*
X111780000Y-65786000D02*
X111744000Y-65750000D01*
X113558000Y-71882000D02*
X113000000Y-72440000D01*
X112218000Y-71882000D02*
X111250000Y-72850000D01*
X113558000Y-71882000D02*
X112218000Y-71882000D01*
X114000000Y-71440000D02*
X114000000Y-68750000D01*
X113558000Y-71882000D02*
X114000000Y-71440000D01*
X112000000Y-68750000D02*
X114000000Y-68750000D01*
X112000000Y-66006000D02*
X112000000Y-68750000D01*
X111780000Y-65786000D02*
X112000000Y-66006000D01*
X113200000Y-87050000D02*
X113200000Y-88900000D01*
X112700000Y-86550000D02*
X113200000Y-87050000D01*
X113200000Y-90850000D02*
X113200000Y-88900000D01*
X114900000Y-92550000D02*
X113200000Y-90850000D01*
X113450000Y-89150000D02*
X114300000Y-89150000D01*
X113200000Y-88900000D02*
X113450000Y-89150000D01*
X114000000Y-67780000D02*
X114046000Y-67734000D01*
X114000000Y-68750000D02*
X114000000Y-67780000D01*
D30*
X128175000Y-74968800D02*
X127956000Y-74750000D01*
X128175000Y-75250000D02*
X128175000Y-74968800D01*
X127250000Y-75250000D02*
X128175000Y-75250000D01*
X128175000Y-74531200D02*
X127956000Y-74750000D01*
X128175000Y-74250000D02*
X128175000Y-74531200D01*
X127250000Y-74250000D02*
X128175000Y-74250000D01*
X127956000Y-74750000D02*
X127250000Y-74750000D01*
D31*
X123500000Y-68750000D02*
X123744000Y-68750000D01*
X121550000Y-70700000D02*
X123500000Y-68750000D01*
D30*
X123900000Y-64053200D02*
X123550000Y-64402800D01*
X123900000Y-61250000D02*
X123900000Y-64053200D01*
X123744000Y-68750000D02*
X123500000Y-68750000D01*
X122805000Y-68750000D02*
X122749000Y-68805500D01*
X123500000Y-68750000D02*
X122805000Y-68750000D01*
D31*
X123744000Y-68750000D02*
X123987500Y-68750000D01*
X123987500Y-68750000D02*
X123988000Y-68750000D01*
D30*
X126250000Y-74750000D02*
X126000000Y-74750000D01*
X126250000Y-74750000D02*
X127250000Y-74750000D01*
X124016000Y-74750000D02*
X126000000Y-74750000D01*
X122000000Y-72733800D02*
X124016000Y-74750000D01*
X122000000Y-72250000D02*
X122000000Y-72733800D01*
X126000000Y-74750000D02*
X126250000Y-74750000D01*
D31*
X121550000Y-71800000D02*
X121550000Y-71450000D01*
X122000000Y-72250000D02*
X121550000Y-71800000D01*
X121550000Y-71450000D02*
X121550000Y-70700000D01*
D30*
X126250000Y-77750000D02*
X126250000Y-74750000D01*
X127250000Y-77750000D02*
X126250000Y-77750000D01*
X105799000Y-100950000D02*
X105799000Y-100600000D01*
X105637000Y-100250000D02*
X105162000Y-99774900D01*
X105799000Y-100250000D02*
X105637000Y-100250000D01*
X105799000Y-100600000D02*
X105799000Y-100250000D01*
X105798900Y-100600100D02*
X105798900Y-100950000D01*
X105799000Y-100600000D02*
X105798900Y-100600100D01*
X128250200Y-77750000D02*
X127250000Y-77750000D01*
X128612200Y-78112000D02*
X128250200Y-77750000D01*
X128612200Y-79603800D02*
X128612200Y-78112000D01*
X127966000Y-80250000D02*
X128612200Y-79603800D01*
X127713000Y-80250000D02*
X127966000Y-80250000D01*
X145420000Y-132300000D02*
X145420000Y-131806000D01*
X144790800Y-131176800D02*
X145420000Y-131806000D01*
X144790800Y-130844800D02*
X144790800Y-131176800D01*
X122917700Y-146658000D02*
X112400000Y-136140300D01*
X124112500Y-146658000D02*
X122917700Y-146658000D01*
X112400000Y-134840000D02*
X112400000Y-136140300D01*
X120020000Y-132300000D02*
X120020000Y-130999700D01*
X137800000Y-132300000D02*
X137800000Y-130999700D01*
X150435400Y-136140300D02*
X150277500Y-136298200D01*
X150500000Y-136140300D02*
X150435400Y-136140300D01*
X137228100Y-130427800D02*
X136613800Y-130427800D01*
X137800000Y-130999700D02*
X137228100Y-130427800D01*
X150500000Y-134840000D02*
X150500000Y-136140300D01*
X129799000Y-128586700D02*
X129048400Y-129337300D01*
X134772700Y-128586700D02*
X129799000Y-128586700D01*
X135830300Y-129644300D02*
X134772700Y-128586700D01*
X127112800Y-128986900D02*
X125100000Y-130999700D01*
X127112800Y-126957300D02*
X127112800Y-128986900D01*
X125100000Y-132300000D02*
X125100000Y-130999700D01*
X154128300Y-130848300D02*
X154067500Y-130848300D01*
X155580000Y-132300000D02*
X154128300Y-130848300D01*
X127713000Y-80250000D02*
X127250000Y-80250000D01*
X126324700Y-80413600D02*
X125054700Y-81683600D01*
X126324700Y-80250000D02*
X126324700Y-80413600D01*
X127250000Y-80250000D02*
X126324700Y-80250000D01*
X125440200Y-122617300D02*
X125440200Y-125465500D01*
X124915200Y-122092300D02*
X125440200Y-122617300D01*
X125440200Y-125579500D02*
X125440200Y-125465500D01*
X120020000Y-130999700D02*
X125440200Y-125579500D01*
X125440200Y-125465500D02*
X126043100Y-125465500D01*
X125135200Y-96250000D02*
X124915200Y-96030000D01*
X127250000Y-96250000D02*
X125135200Y-96250000D01*
X129159400Y-136140300D02*
X129000800Y-136298900D01*
X130180000Y-136140300D02*
X129159400Y-136140300D01*
X130180000Y-134840000D02*
X130180000Y-136140300D01*
X139002700Y-129797000D02*
X137800000Y-130999700D01*
X143743000Y-129797000D02*
X139002700Y-129797000D01*
X144790800Y-130844800D02*
X143743000Y-129797000D01*
D32*
X109600000Y-104600000D02*
X109750000Y-104750000D01*
X108550000Y-104600000D02*
X109600000Y-104600000D01*
X108550000Y-108450000D02*
X108550000Y-104600000D01*
X105750000Y-111250000D02*
X108550000Y-108450000D01*
X105750000Y-147500000D02*
X105750000Y-111250000D01*
X108000000Y-149750000D02*
X105750000Y-147500000D01*
X139250000Y-149750000D02*
X108000000Y-149750000D01*
X140340000Y-134840000D02*
X140340000Y-149750000D01*
D30*
X128175000Y-78250000D02*
X127250000Y-78250000D01*
X128175000Y-78750000D02*
X128175000Y-78250000D01*
X128013000Y-78750000D02*
X128175000Y-78750000D01*
X127250000Y-78750000D02*
X128013000Y-78750000D01*
X128175000Y-79250000D02*
X127250000Y-79250000D01*
X128175000Y-78912200D02*
X128175000Y-79250000D01*
X128013000Y-78750000D02*
X128175000Y-78912200D01*
X128175000Y-94750000D02*
X127250000Y-94750000D01*
X128175000Y-95087800D02*
X128175000Y-94750000D01*
X128013000Y-95250000D02*
X128175000Y-95087800D01*
X127250000Y-95250000D02*
X128013000Y-95250000D01*
X128175000Y-95750000D02*
X127250000Y-95750000D01*
X128175000Y-95412100D02*
X128175000Y-95750000D01*
X128013000Y-95250000D02*
X128175000Y-95412100D01*
D32*
X159000000Y-149750000D02*
X140340000Y-149750000D01*
X162500000Y-146250000D02*
X159000000Y-149750000D01*
X162500000Y-136680000D02*
X162500000Y-146250000D01*
X160660000Y-134840000D02*
X162500000Y-136680000D01*
X140340000Y-149750000D02*
X139250000Y-149750000D01*
X121250000Y-95250000D02*
X121500000Y-95250000D01*
X121250000Y-79000000D02*
X121250000Y-95250000D01*
X121500000Y-78750000D02*
X121250000Y-79000000D01*
X127250000Y-78750000D02*
X121500000Y-78750000D01*
X121500000Y-95250000D02*
X127250000Y-95250000D01*
D30*
X130282000Y-85331600D02*
X130282000Y-87476100D01*
X128700400Y-83750000D02*
X130282000Y-85331600D01*
X127250000Y-83750000D02*
X128700400Y-83750000D01*
X150581600Y-137298400D02*
X153040000Y-134840000D01*
X143929700Y-137298400D02*
X150581600Y-137298400D01*
X125100000Y-134840000D02*
X125100000Y-136140300D01*
X124965500Y-136298000D02*
X124965400Y-136298000D01*
X124965500Y-136274800D02*
X124965500Y-136298000D01*
X125100000Y-136140300D02*
X124965500Y-136274800D01*
X126213300Y-84250000D02*
X124245800Y-86217500D01*
X127250000Y-84250000D02*
X126213300Y-84250000D01*
X121369400Y-118240300D02*
X124095700Y-115514000D01*
X121369400Y-119034900D02*
X121369400Y-118240300D01*
X127250000Y-84750000D02*
X126324700Y-84750000D01*
X126324700Y-85149600D02*
X125613100Y-85861200D01*
X126324700Y-84750000D02*
X126324700Y-85149600D01*
X130992500Y-136942900D02*
X131142600Y-136792800D01*
X129824000Y-136942900D02*
X130992500Y-136942900D01*
X129441400Y-137325500D02*
X129824000Y-136942900D01*
X125045500Y-137325500D02*
X129441400Y-137325500D01*
X122560000Y-134840000D02*
X125045500Y-137325500D01*
X131635500Y-129544200D02*
X134055300Y-129544200D01*
X130180000Y-130999700D02*
X131635500Y-129544200D01*
X130180000Y-132300000D02*
X130180000Y-130999700D01*
X128599200Y-85250000D02*
X128981700Y-84867500D01*
X127250000Y-85250000D02*
X128599200Y-85250000D01*
X132720000Y-132300000D02*
X132720000Y-130999700D01*
X128443300Y-85750000D02*
X129054400Y-86361100D01*
X127250000Y-85750000D02*
X128443300Y-85750000D01*
X132047200Y-130326900D02*
X131753600Y-130326900D01*
X132720000Y-130999700D02*
X132047200Y-130326900D01*
X128325000Y-119000000D02*
X128675000Y-119000000D01*
X128325000Y-118633000D02*
X128325000Y-119000000D01*
X128383000Y-118575000D02*
X128325000Y-118633000D01*
X128766000Y-118575000D02*
X128383000Y-118575000D01*
X128825000Y-118516000D02*
X128766000Y-118575000D01*
X128825000Y-118484000D02*
X128825000Y-118516000D01*
X128766000Y-118425000D02*
X128825000Y-118484000D01*
X128383000Y-118425000D02*
X128766000Y-118425000D01*
X128325000Y-118367000D02*
X128383000Y-118425000D01*
X128325000Y-118000000D02*
X128325000Y-118367000D01*
X130500000Y-118000000D02*
X128325000Y-118000000D01*
X128675000Y-119925000D02*
X128750000Y-120000000D01*
X128675000Y-119000000D02*
X128675000Y-119925000D01*
X130500000Y-121000000D02*
X128325000Y-121000000D01*
X129000000Y-120000000D02*
X128750000Y-120000000D01*
X130500000Y-119000000D02*
X128675000Y-119000000D01*
X131500000Y-120000000D02*
X130500000Y-120000000D01*
X130500000Y-120000000D02*
X129000000Y-120000000D01*
X132720000Y-134840000D02*
X132720000Y-136140300D01*
X128325000Y-120675000D02*
X129000000Y-120000000D01*
X128325000Y-121000000D02*
X128325000Y-120675000D01*
X128325000Y-122000000D02*
X128325000Y-121713900D01*
X130500000Y-122000000D02*
X128325000Y-122000000D01*
X128399000Y-121075000D02*
X128325000Y-121000000D01*
X128399000Y-121394000D02*
X128399000Y-121075000D01*
X128539000Y-121533000D02*
X128399000Y-121394000D01*
X128539000Y-121534000D02*
X128539000Y-121533000D01*
X128498000Y-121575000D02*
X128539000Y-121534000D01*
X128383000Y-121575000D02*
X128498000Y-121575000D01*
X128325000Y-121633000D02*
X128383000Y-121575000D01*
X128325000Y-121713900D02*
X128325000Y-121633000D01*
X145685400Y-130084500D02*
X145685400Y-130847700D01*
X141807500Y-126206600D02*
X145685400Y-130084500D01*
X134706600Y-126206600D02*
X141807500Y-126206600D01*
X130500000Y-122000000D02*
X134706600Y-126206600D01*
X123688600Y-137739900D02*
X122245700Y-136297000D01*
X129593100Y-137739900D02*
X123688600Y-137739900D01*
X129989800Y-137343200D02*
X129593100Y-137739900D01*
X131836200Y-137343200D02*
X129989800Y-137343200D01*
X132720000Y-136459400D02*
X131836200Y-137343200D01*
X132720000Y-136140300D02*
X132720000Y-136459400D01*
X128308400Y-80750000D02*
X127250000Y-80750000D01*
X149622100Y-102063700D02*
X128308400Y-80750000D01*
X149622100Y-106501400D02*
X149622100Y-102063700D01*
X149368900Y-106754600D02*
X149622100Y-106501400D01*
X121617900Y-121542000D02*
X120601500Y-122558400D01*
X128153100Y-121542000D02*
X121617900Y-121542000D01*
X128325000Y-121713900D02*
X128153100Y-121542000D01*
X135260000Y-132300000D02*
X135260000Y-130999700D01*
X136936200Y-129323500D02*
X135797900Y-130461800D01*
X144124100Y-129323500D02*
X136936200Y-129323500D01*
X135797900Y-130461800D02*
X135260000Y-130999700D01*
X127250000Y-81250000D02*
X128175300Y-81250000D01*
X149054900Y-102129600D02*
X149054900Y-103145200D01*
X128175300Y-81250000D02*
X149054900Y-102129600D01*
X128477200Y-130310000D02*
X128450500Y-130336700D01*
X129357300Y-130310000D02*
X128477200Y-130310000D01*
X130673500Y-128993800D02*
X129357300Y-130310000D01*
X134329800Y-128993800D02*
X130673500Y-128993800D01*
X135797900Y-130461800D02*
X134329800Y-128993800D01*
X127250000Y-82250000D02*
X126324700Y-82250000D01*
X137800000Y-134840000D02*
X137800000Y-136538000D01*
X126267400Y-82250000D02*
X123695400Y-84822000D01*
X126324700Y-82250000D02*
X126267400Y-82250000D01*
X105799000Y-102850000D02*
X105799000Y-103200000D01*
X105798900Y-103199900D02*
X105798900Y-102850000D01*
X105799000Y-103200000D02*
X105798900Y-103199900D01*
X105850000Y-103601000D02*
X105850000Y-104600000D01*
X105799000Y-103550000D02*
X105850000Y-103601000D01*
X105799000Y-103200000D02*
X105799000Y-103550000D01*
X127625500Y-111458200D02*
X118491900Y-111458200D01*
X147167000Y-130999700D02*
X127625500Y-111458200D01*
X147960000Y-130999700D02*
X147167000Y-130999700D01*
X105850000Y-105933500D02*
X106548300Y-106631800D01*
X105850000Y-104600000D02*
X105850000Y-105933500D01*
X147960000Y-132300000D02*
X147960000Y-130999700D01*
X127640000Y-134840000D02*
X127640000Y-136140300D01*
X128281800Y-92750000D02*
X128334300Y-92697500D01*
X127250000Y-92750000D02*
X128281800Y-92750000D01*
X128424200Y-136924500D02*
X127640000Y-136140300D01*
X129276300Y-136924500D02*
X128424200Y-136924500D01*
X129658200Y-136542600D02*
X129276300Y-136924500D01*
X130583100Y-136542600D02*
X129658200Y-136542600D01*
X130883200Y-136242500D02*
X130583100Y-136542600D01*
X132042000Y-136242500D02*
X130883200Y-136242500D01*
X132099400Y-136299900D02*
X132042000Y-136242500D01*
X127250000Y-92250000D02*
X127256000Y-92255700D01*
X127640000Y-132300000D02*
X127640000Y-130999700D01*
X127714600Y-123591100D02*
X127152900Y-123029400D01*
X127714600Y-130925100D02*
X127714600Y-123591100D01*
X127640000Y-130999700D02*
X127714600Y-130925100D01*
X127250000Y-92250000D02*
X126324700Y-92250000D01*
X126169100Y-92405600D02*
X126324700Y-92250000D01*
X117500000Y-134860000D02*
X117490000Y-134850000D01*
X117490000Y-134850000D02*
X117480000Y-134840000D01*
X117490000Y-139593000D02*
X118029500Y-140132500D01*
X117490000Y-134850000D02*
X117490000Y-139593000D01*
X139175000Y-119925000D02*
X139250000Y-120000000D01*
X139175000Y-119000000D02*
X139175000Y-119925000D01*
X141000000Y-120000000D02*
X139250000Y-120000000D01*
X141000000Y-121000000D02*
X138825000Y-121000000D01*
X138825000Y-120425000D02*
X139250000Y-120000000D01*
X138825000Y-121000000D02*
X138825000Y-120425000D01*
X141000000Y-119000000D02*
X139175000Y-119000000D01*
X114250100Y-136140300D02*
X114940000Y-136140300D01*
X114094600Y-136295800D02*
X114250100Y-136140300D01*
X114940000Y-134840000D02*
X114940000Y-136140300D01*
X139506000Y-122000000D02*
X141000000Y-122000000D01*
X138899000Y-121394000D02*
X139506000Y-122000000D01*
X138899000Y-121075000D02*
X138899000Y-121394000D01*
X138825000Y-121000000D02*
X138899000Y-121075000D01*
X141000000Y-118000000D02*
X139175000Y-118000000D01*
X138825000Y-119000000D02*
X139175000Y-119000000D01*
X138825000Y-118633000D02*
X138825000Y-119000000D01*
X138883000Y-118575000D02*
X138825000Y-118633000D01*
X139266000Y-118575000D02*
X138883000Y-118575000D01*
X139325000Y-118516000D02*
X139266000Y-118575000D01*
X139325000Y-118484000D02*
X139325000Y-118516000D01*
X139266000Y-118425000D02*
X139325000Y-118484000D01*
X138883000Y-118425000D02*
X139266000Y-118425000D01*
X138825000Y-118367000D02*
X138883000Y-118425000D01*
X138825000Y-118000000D02*
X138825000Y-118367000D01*
X139175000Y-118000000D02*
X138825000Y-118000000D01*
X130152600Y-108977600D02*
X121311800Y-108977600D01*
X139175000Y-118000000D02*
X130152600Y-108977600D01*
X145394600Y-126394600D02*
X141000000Y-122000000D01*
X155793900Y-126394600D02*
X145394600Y-126394600D01*
D31*
X120000000Y-66650000D02*
X121550000Y-68200000D01*
X120000000Y-65250000D02*
X120000000Y-66650000D01*
X119750000Y-65000000D02*
X120000000Y-65250000D01*
X116000000Y-65000000D02*
X119750000Y-65000000D01*
X115000000Y-64000000D02*
X116000000Y-65000000D01*
X115000000Y-63675000D02*
X115000000Y-64000000D01*
X122000000Y-67750000D02*
X123987500Y-67750000D01*
X121550000Y-68200000D02*
X122000000Y-67750000D01*
X123987500Y-67750000D02*
X123988000Y-67750000D01*
D33*
X127250000Y-103750000D02*
X111500000Y-103750000D01*
X127250000Y-98750000D02*
X127250000Y-103750000D01*
D31*
X161050000Y-132300000D02*
X160660000Y-132300000D01*
X163750000Y-135000000D02*
X161050000Y-132300000D01*
X163750000Y-146250000D02*
X163750000Y-135000000D01*
X150750000Y-159250000D02*
X163750000Y-146250000D01*
X116250000Y-159250000D02*
X150750000Y-159250000D01*
X104750000Y-147750000D02*
X116250000Y-159250000D01*
X104750000Y-111000000D02*
X104750000Y-147750000D01*
X107250000Y-108500000D02*
X104750000Y-111000000D01*
X107250000Y-106250000D02*
X107250000Y-108500000D01*
X158170000Y-132250000D02*
X158120000Y-132300000D01*
X160710000Y-132250000D02*
X158170000Y-132250000D01*
D30*
X117250000Y-70750000D02*
X118250000Y-70750000D01*
X116250000Y-70000000D02*
X116250000Y-70750000D01*
X117500000Y-70000000D02*
X118250000Y-70000000D01*
X120000000Y-70000000D02*
X120000000Y-67750000D01*
D31*
X114996000Y-70820000D02*
X114996000Y-69934000D01*
X116058000Y-71882000D02*
X114996000Y-70820000D01*
X109800000Y-89850000D02*
X107100000Y-92550000D01*
X109800000Y-88750000D02*
X109800000Y-89850000D01*
X110200000Y-89150000D02*
X109800000Y-88750000D01*
X112100000Y-89150000D02*
X110200000Y-89150000D01*
D30*
X160660000Y-132300000D02*
X158120000Y-132300000D01*
X118250000Y-70000000D02*
X117500000Y-70000000D01*
X117500000Y-70000000D02*
X117250000Y-70000000D01*
D31*
X107250000Y-99500000D02*
X107250000Y-106250000D01*
X104750000Y-81500000D02*
X104750000Y-80250000D01*
X112250000Y-82750000D02*
X113250000Y-82750000D01*
X112700000Y-83300000D02*
X112700000Y-84350000D01*
X113250000Y-82750000D02*
X112700000Y-83300000D01*
X104750000Y-63750000D02*
X104750000Y-80250000D01*
X108000000Y-63750000D02*
X104750000Y-63750000D01*
X109750000Y-62000000D02*
X108000000Y-63750000D01*
X111250000Y-62000000D02*
X109750000Y-62000000D01*
X112250000Y-61000000D02*
X111250000Y-62000000D01*
X116750000Y-61000000D02*
X112250000Y-61000000D01*
X116750000Y-63425000D02*
X116750000Y-61000000D01*
X116500000Y-63675000D02*
X116750000Y-63425000D01*
D30*
X114950000Y-90750000D02*
X116250000Y-90750000D01*
X114350000Y-90150000D02*
X114950000Y-90750000D01*
X111150000Y-86950000D02*
X111050000Y-86950000D01*
D31*
X113000000Y-84350000D02*
X112700000Y-84350000D01*
X115200000Y-86550000D02*
X113000000Y-84350000D01*
X114350000Y-90150000D02*
X114300000Y-90100000D01*
D30*
X114300000Y-90100000D02*
X114350000Y-90150000D01*
D31*
X111050000Y-86000000D02*
X111050000Y-86950000D01*
X112700000Y-84350000D02*
X111050000Y-86000000D01*
X111050000Y-87150000D02*
X112100000Y-88200000D01*
X111050000Y-86950000D02*
X111050000Y-87150000D01*
D30*
X120750000Y-62500000D02*
X121500000Y-63250000D01*
X120750000Y-61250000D02*
X120750000Y-62500000D01*
X121500000Y-63250000D02*
X121550000Y-63300000D01*
X121500000Y-63250000D02*
X121550000Y-63300000D01*
X132750000Y-119500000D02*
X132750000Y-120000000D01*
X131000000Y-119500000D02*
X132750000Y-119500000D01*
X132825000Y-119425000D02*
X132825000Y-118500000D01*
X132750000Y-119500000D02*
X132825000Y-119425000D01*
X131000000Y-121500000D02*
X132750000Y-121500000D01*
X132750000Y-121500000D02*
X132750000Y-120000000D01*
X131000000Y-118500000D02*
X132825000Y-118500000D01*
X132750000Y-122425000D02*
X132750000Y-121500000D01*
X133027000Y-122425000D02*
X132750000Y-122425000D01*
X133156000Y-122296000D02*
X133027000Y-122425000D01*
X133156000Y-122257000D02*
X133156000Y-122296000D01*
X132833000Y-121935000D02*
X133156000Y-122257000D01*
X132833000Y-121479000D02*
X132833000Y-121935000D01*
X133156000Y-121157000D02*
X132833000Y-121479000D01*
X133175000Y-121137000D02*
X133156000Y-121157000D01*
X133175000Y-120500000D02*
X133175000Y-121137000D01*
X131000000Y-120500000D02*
X133175000Y-120500000D01*
X132734000Y-118075000D02*
X132925500Y-118075000D01*
X132675000Y-118016000D02*
X132734000Y-118075000D01*
X133175000Y-118500000D02*
X132825000Y-118500000D01*
X133175000Y-118133000D02*
X133175000Y-118500000D01*
X133117000Y-118075000D02*
X133175000Y-118133000D01*
X132925500Y-118075000D02*
X133117000Y-118075000D01*
X129917500Y-114941800D02*
X120868100Y-114941800D01*
X132925500Y-117949800D02*
X129917500Y-114941800D01*
X132925500Y-118075000D02*
X132925500Y-117949800D01*
X143250000Y-119500000D02*
X143250000Y-120000000D01*
X141500000Y-119500000D02*
X143250000Y-119500000D01*
X141500000Y-121500000D02*
X143250000Y-121500000D01*
X143250000Y-120000000D02*
X143250000Y-121500000D01*
X143675000Y-120500000D02*
X141500000Y-120500000D01*
X143675000Y-122319000D02*
X143675000Y-120500000D01*
X143569000Y-122425000D02*
X143675000Y-122319000D01*
X143250000Y-122425000D02*
X143569000Y-122425000D01*
X143250000Y-121500000D02*
X143250000Y-122425000D01*
X143325000Y-119425000D02*
X143325000Y-118962500D01*
X143250000Y-119500000D02*
X143325000Y-119425000D01*
X143325000Y-118500000D02*
X141500000Y-118500000D01*
X143325000Y-118962500D02*
X143325000Y-118500000D01*
X147126200Y-118962500D02*
X150963700Y-115125000D01*
X143325000Y-118962500D02*
X147126200Y-118962500D01*
D31*
X116200000Y-88200000D02*
X114300000Y-88200000D01*
X116750000Y-87650000D02*
X116200000Y-88200000D01*
X116750000Y-85700000D02*
X116750000Y-87650000D01*
X115400000Y-84350000D02*
X116750000Y-85700000D01*
D30*
X154052000Y-138908000D02*
X140952100Y-138908000D01*
X158120000Y-134840000D02*
X154052000Y-138908000D01*
X128779600Y-93750000D02*
X128965600Y-93936000D01*
X127250000Y-93750000D02*
X128779600Y-93750000D01*
X152537100Y-137882900D02*
X155580000Y-134840000D01*
X141934900Y-137882900D02*
X152537100Y-137882900D01*
X141448000Y-137396000D02*
X141934900Y-137882900D01*
X127250000Y-93250000D02*
X128175300Y-93250000D01*
X129515900Y-94376600D02*
X129365800Y-94526700D01*
X129515900Y-93708000D02*
X129515900Y-94376600D01*
X129057900Y-93250000D02*
X129515900Y-93708000D01*
X128175300Y-93250000D02*
X129057900Y-93250000D01*
X127250000Y-87250000D02*
X128175300Y-87250000D01*
X153040000Y-132300000D02*
X153040000Y-130999700D01*
X128886000Y-87250000D02*
X128175300Y-87250000D01*
X156763000Y-115127000D02*
X128886000Y-87250000D01*
X156763000Y-127276700D02*
X156763000Y-115127000D01*
X153040000Y-130999700D02*
X156763000Y-127276700D01*
X128819900Y-87750000D02*
X127250000Y-87750000D01*
X156348900Y-115279000D02*
X128819900Y-87750000D01*
X156348900Y-126645600D02*
X156348900Y-115279000D01*
X152189600Y-130804900D02*
X156348900Y-126645600D01*
X151995100Y-130804900D02*
X152189600Y-130804900D01*
X150500000Y-132300000D02*
X151995100Y-130804900D01*
X146086000Y-136714000D02*
X143170000Y-136714000D01*
X147960000Y-134840000D02*
X146086000Y-136714000D01*
X128475500Y-88750000D02*
X129098700Y-89373200D01*
X127250000Y-88750000D02*
X128475500Y-88750000D01*
X142536800Y-136140400D02*
X142365700Y-136311500D01*
X144119600Y-136140400D02*
X142536800Y-136140400D01*
X145420000Y-134840000D02*
X144119600Y-136140400D01*
X128273400Y-94250000D02*
X130566800Y-96543400D01*
X127250000Y-94250000D02*
X128273400Y-94250000D01*
X127250000Y-90750000D02*
X128175300Y-90750000D01*
X128185000Y-90740300D02*
X128175300Y-90750000D01*
X129352100Y-90740300D02*
X128185000Y-90740300D01*
X130491600Y-91879800D02*
X129352100Y-90740300D01*
X130491600Y-94977500D02*
X130491600Y-91879800D01*
X130166400Y-95302700D02*
X130491600Y-94977500D01*
X141426900Y-136293100D02*
X141103000Y-136293100D01*
X142880000Y-134840000D02*
X141426900Y-136293100D01*
X142880000Y-132300000D02*
X142880000Y-130999700D01*
X141853200Y-130999700D02*
X141451200Y-130597700D01*
X142880000Y-130999700D02*
X141853200Y-130999700D01*
X129075900Y-91250000D02*
X129116600Y-91290700D01*
X127250000Y-91250000D02*
X129075900Y-91250000D01*
X129119800Y-92682800D02*
X129927700Y-92682800D01*
X128187000Y-91750000D02*
X129119800Y-92682800D01*
X127250000Y-91750000D02*
X128187000Y-91750000D01*
X140223400Y-130999700D02*
X140340000Y-130999700D01*
X139571000Y-130347300D02*
X140223400Y-130999700D01*
X140340000Y-132300000D02*
X140340000Y-130999700D01*
X135260000Y-134840000D02*
X135260000Y-136140300D01*
X135665200Y-136140300D02*
X135260000Y-136140300D01*
X135818000Y-136293100D02*
X135665200Y-136140300D01*
X128175300Y-82958600D02*
X128402600Y-83185900D01*
X128175300Y-82750000D02*
X128175300Y-82958600D01*
X127250000Y-82750000D02*
X128175300Y-82750000D01*
X128175300Y-86315500D02*
X128335100Y-86475300D01*
X128175300Y-86250000D02*
X128175300Y-86315500D01*
X127250000Y-86250000D02*
X128175300Y-86250000D01*
X122560000Y-132300000D02*
X122560000Y-130999700D01*
X126593400Y-122637800D02*
X127130600Y-122100600D01*
X126593400Y-125693500D02*
X126593400Y-122637800D01*
X122560000Y-129726900D02*
X126593400Y-125693500D01*
X122560000Y-130999700D02*
X122560000Y-129726900D01*
X120055000Y-134840000D02*
X120037500Y-134840000D01*
X120037500Y-134840000D02*
X120020000Y-134840000D01*
X127250000Y-86750000D02*
X126324700Y-86750000D01*
X130494700Y-138140400D02*
X130741600Y-137893500D01*
X123237300Y-138140400D02*
X130494700Y-138140400D01*
X120037500Y-134940600D02*
X123237300Y-138140400D01*
X120037500Y-134840000D02*
X120037500Y-134940600D01*
X125054600Y-88020100D02*
X126324700Y-86750000D01*
X125054600Y-89520800D02*
X125054600Y-88020100D01*
X117480000Y-132300000D02*
X117480000Y-130999700D01*
X128753800Y-88250000D02*
X127250000Y-88250000D01*
X131917700Y-91413900D02*
X128753800Y-88250000D01*
X131917700Y-100924600D02*
X131917700Y-91413900D01*
X124778800Y-108063500D02*
X131917700Y-100924600D01*
X121075900Y-108063500D02*
X124778800Y-108063500D01*
X117480000Y-111659400D02*
X121075900Y-108063500D01*
X117480000Y-130999700D02*
X117480000Y-111659400D01*
X128530500Y-89750000D02*
X127250000Y-89750000D01*
X128720200Y-89939700D02*
X128530500Y-89750000D01*
X129683700Y-89939700D02*
X128720200Y-89939700D01*
X131517400Y-91773400D02*
X129683700Y-89939700D01*
X131517400Y-100723600D02*
X131517400Y-91773400D01*
X124577900Y-107663100D02*
X131517400Y-100723600D01*
X120891000Y-107663100D02*
X124577900Y-107663100D01*
X114940000Y-113614100D02*
X120891000Y-107663100D01*
X114940000Y-132300000D02*
X114940000Y-113614100D01*
X128464400Y-90250000D02*
X127250000Y-90250000D01*
X128554400Y-90340000D02*
X128464400Y-90250000D01*
X129517900Y-90340000D02*
X128554400Y-90340000D01*
X131117100Y-91939200D02*
X129517900Y-90340000D01*
X131117100Y-100504400D02*
X131117100Y-91939200D01*
X125056700Y-106564800D02*
X131117100Y-100504400D01*
X121416300Y-106564800D02*
X125056700Y-106564800D01*
X112400000Y-115581100D02*
X121416300Y-106564800D01*
X112400000Y-132300000D02*
X112400000Y-115581100D01*
X111425000Y-105100000D02*
X111900000Y-105100000D01*
X111900000Y-105100000D02*
X114000000Y-105100000D01*
X108801000Y-101900000D02*
X108801100Y-101900000D01*
X111900000Y-104999000D02*
X111900000Y-105100000D01*
X108801100Y-101900000D02*
X111900000Y-104999000D01*
X114000000Y-105100000D02*
X116100000Y-105100000D01*
X116100000Y-105100000D02*
X118200000Y-105100000D01*
X113000000Y-67638000D02*
X113000000Y-66750000D01*
X113096000Y-67734000D02*
X113000000Y-67638000D01*
X123000000Y-66000000D02*
X121550000Y-66000000D01*
X111466000Y-69934000D02*
X113096000Y-69934000D01*
X111250000Y-70150000D02*
X111466000Y-69934000D01*
D32*
X109800000Y-92550000D02*
X112200000Y-92550000D01*
X112100000Y-92450000D02*
X112100000Y-90100000D01*
X112200000Y-92550000D02*
X112100000Y-92450000D01*
D30*
X112425000Y-63250000D02*
X113500000Y-63250000D01*
X112000000Y-63675000D02*
X112425000Y-63250000D01*
X115012000Y-67750000D02*
X116250000Y-67750000D01*
X114996000Y-67734000D02*
X115012000Y-67750000D01*
X118250000Y-66500000D02*
X117250000Y-66500000D01*
X117250000Y-67750000D02*
X118250000Y-67750000D01*
D31*
X114996000Y-67734000D02*
X115230000Y-67500000D01*
D30*
X114111000Y-65786000D02*
X112000000Y-63675000D01*
X114280000Y-65786000D02*
X114111000Y-65786000D01*
D31*
X114996000Y-66502000D02*
X114280000Y-65786000D01*
X114996000Y-67734000D02*
X114996000Y-66502000D01*
X112169000Y-63675000D02*
X112000000Y-63675000D01*
X114280000Y-65786000D02*
X112169000Y-63675000D01*
D30*
X122750000Y-96750000D02*
X127250000Y-96750000D01*
X121500000Y-98000000D02*
X122750000Y-96750000D01*
X121500000Y-100300000D02*
X121500000Y-98000000D01*
X121350000Y-100450000D02*
X121500000Y-100300000D01*
X116734000Y-100450000D02*
X121350000Y-100450000D01*
X116342000Y-100842000D02*
X116734000Y-100450000D01*
X113458000Y-100842000D02*
X116342000Y-100842000D01*
X111900000Y-102400000D02*
X113458000Y-100842000D01*
X114500000Y-101900000D02*
X114000000Y-102400000D01*
X114500000Y-101250000D02*
X114500000Y-101900000D01*
X116500000Y-101250000D02*
X114500000Y-101250000D01*
X116900000Y-100850000D02*
X116500000Y-101250000D01*
X119600000Y-100850000D02*
X116900000Y-100850000D01*
X119750000Y-101000000D02*
X119600000Y-100850000D01*
X119750000Y-101250000D02*
X119750000Y-101000000D01*
X119950000Y-101450000D02*
X119750000Y-101250000D01*
X121750000Y-101450000D02*
X119950000Y-101450000D01*
X121950000Y-101250000D02*
X121750000Y-101450000D01*
X121950000Y-98168600D02*
X121950000Y-101250000D01*
X122869000Y-97250000D02*
X121950000Y-98168600D01*
X127250000Y-97250000D02*
X122869000Y-97250000D01*
X122934000Y-97750000D02*
X127250000Y-97750000D01*
X122350000Y-98334300D02*
X122934000Y-97750000D01*
X122350000Y-101750000D02*
X122350000Y-98334300D01*
X122250000Y-101850000D02*
X122350000Y-101750000D01*
X119250000Y-101850000D02*
X122250000Y-101850000D01*
X119250000Y-101250000D02*
X119250000Y-101850000D01*
X117250000Y-101250000D02*
X119250000Y-101250000D01*
X116100000Y-102400000D02*
X117250000Y-101250000D01*
X118350000Y-102250000D02*
X118200000Y-102400000D01*
X122750000Y-102250000D02*
X118350000Y-102250000D01*
X122750000Y-98500000D02*
X122750000Y-102250000D01*
X123000000Y-98250000D02*
X122750000Y-98500000D01*
X127250000Y-98250000D02*
X123000000Y-98250000D01*
X126600000Y-61250000D02*
X128000000Y-61250000D01*
D34*
G36*
X118623000Y-71873000D02*
X118000000Y-71873000D01*
X117950590Y-71883006D01*
X117908965Y-71911447D01*
X117881685Y-71953841D01*
X117873000Y-72000000D01*
X117873000Y-82873000D01*
X114076893Y-82873000D01*
X114077143Y-82586221D01*
X113951505Y-82282154D01*
X113719070Y-82049312D01*
X113415222Y-81923144D01*
X113086221Y-81922857D01*
X112782154Y-82048495D01*
X112750148Y-82080445D01*
X112719070Y-82049312D01*
X112415222Y-81923144D01*
X112086221Y-81922857D01*
X111782154Y-82048495D01*
X111549312Y-82280930D01*
X111423144Y-82584778D01*
X111422867Y-82901948D01*
X111408965Y-82911447D01*
X111381685Y-82953841D01*
X111373000Y-83000000D01*
X111373000Y-84447394D01*
X110410197Y-85410197D01*
X110382334Y-85452211D01*
X110373000Y-85500000D01*
X110373000Y-87750000D01*
X110383006Y-87799410D01*
X110410197Y-87839803D01*
X111410197Y-88839803D01*
X111452211Y-88867666D01*
X111500000Y-88877000D01*
X112423000Y-88877000D01*
X112423000Y-89423000D01*
X111170000Y-89423000D01*
X111120590Y-89433006D01*
X111078965Y-89461447D01*
X111061099Y-89484659D01*
X111041099Y-89517992D01*
X111023000Y-89583333D01*
X111023000Y-91423000D01*
X108750000Y-91423000D01*
X108700590Y-91433006D01*
X108658965Y-91461447D01*
X108631685Y-91503841D01*
X108623000Y-91550000D01*
X108623000Y-99673000D01*
X106277000Y-99673000D01*
X106277000Y-89877000D01*
X108000000Y-89877000D01*
X108049410Y-89866994D01*
X108089803Y-89839803D01*
X108589803Y-89339803D01*
X108617666Y-89297789D01*
X108627000Y-89250000D01*
X108627000Y-87544549D01*
X109599170Y-86329336D01*
X109622223Y-86284503D01*
X109627000Y-86250000D01*
X109627000Y-82043575D01*
X114850248Y-75327970D01*
X114872684Y-75282826D01*
X114877000Y-75250000D01*
X114877000Y-69627000D01*
X118623000Y-69627000D01*
X118623000Y-71873000D01*
X118623000Y-71873000D01*
G37*
X118623000Y-71873000D02*
X118000000Y-71873000D01*
X117950590Y-71883006D01*
X117908965Y-71911447D01*
X117881685Y-71953841D01*
X117873000Y-72000000D01*
X117873000Y-82873000D01*
X114076893Y-82873000D01*
X114077143Y-82586221D01*
X113951505Y-82282154D01*
X113719070Y-82049312D01*
X113415222Y-81923144D01*
X113086221Y-81922857D01*
X112782154Y-82048495D01*
X112750148Y-82080445D01*
X112719070Y-82049312D01*
X112415222Y-81923144D01*
X112086221Y-81922857D01*
X111782154Y-82048495D01*
X111549312Y-82280930D01*
X111423144Y-82584778D01*
X111422867Y-82901948D01*
X111408965Y-82911447D01*
X111381685Y-82953841D01*
X111373000Y-83000000D01*
X111373000Y-84447394D01*
X110410197Y-85410197D01*
X110382334Y-85452211D01*
X110373000Y-85500000D01*
X110373000Y-87750000D01*
X110383006Y-87799410D01*
X110410197Y-87839803D01*
X111410197Y-88839803D01*
X111452211Y-88867666D01*
X111500000Y-88877000D01*
X112423000Y-88877000D01*
X112423000Y-89423000D01*
X111170000Y-89423000D01*
X111120590Y-89433006D01*
X111078965Y-89461447D01*
X111061099Y-89484659D01*
X111041099Y-89517992D01*
X111023000Y-89583333D01*
X111023000Y-91423000D01*
X108750000Y-91423000D01*
X108700590Y-91433006D01*
X108658965Y-91461447D01*
X108631685Y-91503841D01*
X108623000Y-91550000D01*
X108623000Y-99673000D01*
X106277000Y-99673000D01*
X106277000Y-89877000D01*
X108000000Y-89877000D01*
X108049410Y-89866994D01*
X108089803Y-89839803D01*
X108589803Y-89339803D01*
X108617666Y-89297789D01*
X108627000Y-89250000D01*
X108627000Y-87544549D01*
X109599170Y-86329336D01*
X109622223Y-86284503D01*
X109627000Y-86250000D01*
X109627000Y-82043575D01*
X114850248Y-75327970D01*
X114872684Y-75282826D01*
X114877000Y-75250000D01*
X114877000Y-69627000D01*
X118623000Y-69627000D01*
X118623000Y-71873000D01*
G36*
X112423000Y-90950000D02*
X112433006Y-90999410D01*
X112460197Y-91039803D01*
X113223000Y-91802606D01*
X113223000Y-93423000D01*
X109277000Y-93423000D01*
X109277000Y-92077000D01*
X111550000Y-92077000D01*
X111599410Y-92066994D01*
X111641035Y-92038553D01*
X111668315Y-91996159D01*
X111677000Y-91950000D01*
X111677000Y-89877000D01*
X112423000Y-89877000D01*
X112423000Y-90950000D01*
X112423000Y-90950000D01*
G37*
X112423000Y-90950000D02*
X112433006Y-90999410D01*
X112460197Y-91039803D01*
X113223000Y-91802606D01*
X113223000Y-93423000D01*
X109277000Y-93423000D01*
X109277000Y-92077000D01*
X111550000Y-92077000D01*
X111599410Y-92066994D01*
X111641035Y-92038553D01*
X111668315Y-91996159D01*
X111677000Y-91950000D01*
X111677000Y-89877000D01*
X112423000Y-89877000D01*
X112423000Y-90950000D01*
G36*
X115260197Y-90239803D02*
X115302211Y-90267666D01*
X115350000Y-90277000D01*
X116823000Y-90277000D01*
X116823000Y-91423000D01*
X115002606Y-91423000D01*
X113877000Y-90297394D01*
X113877000Y-89877000D01*
X114897394Y-89877000D01*
X115260197Y-90239803D01*
X115260197Y-90239803D01*
G37*
X115260197Y-90239803D02*
X115302211Y-90267666D01*
X115350000Y-90277000D01*
X116823000Y-90277000D01*
X116823000Y-91423000D01*
X115002606Y-91423000D01*
X113877000Y-90297394D01*
X113877000Y-89877000D01*
X114897394Y-89877000D01*
X115260197Y-90239803D01*
X110377000Y-69377000D02*
X113373000Y-69377000D01*
X110377000Y-69580200D02*
X113373000Y-69580200D01*
X110377000Y-69783400D02*
X113373000Y-69783400D01*
X110377000Y-69986600D02*
X113373000Y-69986600D01*
X110377000Y-70189800D02*
X113373000Y-70189800D01*
X110377000Y-70393000D02*
X113373000Y-70393000D01*
X110377000Y-70596200D02*
X113373000Y-70596200D01*
X110377000Y-70799400D02*
X112520994Y-70799400D01*
X110377000Y-71002600D02*
X112317794Y-71002600D01*
X113373000Y-70623000D02*
X112750000Y-70623000D01*
X112700590Y-70633006D01*
X112660197Y-70660197D01*
X112197394Y-71123000D01*
X110377000Y-71123000D01*
X110377000Y-69377000D01*
X113373000Y-69377000D01*
X113373000Y-70623000D01*
X108439002Y-64127000D02*
X111123000Y-64127000D01*
X105327000Y-64330200D02*
X111123000Y-64330200D01*
X105327000Y-64533400D02*
X111123000Y-64533400D01*
X105327000Y-64736600D02*
X111123000Y-64736600D01*
X105327000Y-64939800D02*
X111123000Y-64939800D01*
X105327000Y-65143000D02*
X112463394Y-65143000D01*
X105327000Y-65346200D02*
X112623000Y-65346200D01*
X105327000Y-65549400D02*
X112623000Y-65549400D01*
X105327000Y-65752600D02*
X112623000Y-65752600D01*
X105327000Y-65955800D02*
X112623000Y-65955800D01*
X105327000Y-66159000D02*
X112623000Y-66159000D01*
X105327000Y-66362200D02*
X112571764Y-66362200D01*
X105327000Y-66565400D02*
X112451887Y-66565400D01*
X105327000Y-66768600D02*
X112373000Y-66768600D01*
X105327000Y-66971800D02*
X112373000Y-66971800D01*
X105327000Y-67175000D02*
X112373000Y-67175000D01*
X113877000Y-67175000D02*
X114343467Y-67175000D01*
X105327000Y-67378200D02*
X112373000Y-67378200D01*
X113877000Y-67378200D02*
X114337594Y-67378200D01*
X105327000Y-67581400D02*
X112373000Y-67581400D01*
X113877000Y-67581400D02*
X114337594Y-67581400D01*
X105327000Y-67784600D02*
X112373000Y-67784600D01*
X113877000Y-67784600D02*
X114337594Y-67784600D01*
X105327000Y-67987800D02*
X112373000Y-67987800D01*
X113877000Y-67987800D02*
X114337594Y-67987800D01*
X105327000Y-68191000D02*
X112373000Y-68191000D01*
X113877000Y-68191000D02*
X114337594Y-68191000D01*
X105327000Y-68394200D02*
X112373000Y-68394200D01*
X113877000Y-68394200D02*
X114366199Y-68394200D01*
X105327000Y-68597400D02*
X112421338Y-68597400D01*
X113828086Y-68597400D02*
X114421338Y-68597400D01*
X105327000Y-68800600D02*
X118623000Y-68800600D01*
X105327000Y-69003800D02*
X109873000Y-69003800D01*
X114183406Y-69003800D02*
X118623000Y-69003800D01*
X105327000Y-69207000D02*
X109873000Y-69207000D01*
X114367812Y-69207000D02*
X114381091Y-69207000D01*
X105327000Y-69410200D02*
X109873000Y-69410200D01*
X113877000Y-69410200D02*
X114337594Y-69410200D01*
X105327000Y-69613400D02*
X109873000Y-69613400D01*
X113877000Y-69613400D02*
X114337594Y-69613400D01*
X105327000Y-69816600D02*
X109873000Y-69816600D01*
X113877000Y-69816600D02*
X114337594Y-69816600D01*
X105327000Y-70019800D02*
X109873000Y-70019800D01*
X113877000Y-70019800D02*
X114337594Y-70019800D01*
X105327000Y-70223000D02*
X109873000Y-70223000D01*
X113877000Y-70223000D02*
X114337594Y-70223000D01*
X105327000Y-70426200D02*
X109873000Y-70426200D01*
X113877000Y-70426200D02*
X114337594Y-70426200D01*
X105327000Y-70629400D02*
X109873000Y-70629400D01*
X113877000Y-70629400D02*
X114373000Y-70629400D01*
X105327000Y-70832600D02*
X109873000Y-70832600D01*
X113877000Y-70832600D02*
X114373000Y-70832600D01*
X105327000Y-71035800D02*
X109873000Y-71035800D01*
X113870264Y-71035800D02*
X114373000Y-71035800D01*
X105327000Y-71239000D02*
X109873000Y-71239000D01*
X112940606Y-71239000D02*
X114373000Y-71239000D01*
X105327000Y-71442200D02*
X109873000Y-71442200D01*
X112737406Y-71442200D02*
X114373000Y-71442200D01*
X105327000Y-71645400D02*
X114373000Y-71645400D01*
X105327000Y-71848600D02*
X114373000Y-71848600D01*
X105327000Y-72051800D02*
X114373000Y-72051800D01*
X105327000Y-72255000D02*
X114373000Y-72255000D01*
X105327000Y-72458200D02*
X114373000Y-72458200D01*
X105327000Y-72661400D02*
X114373000Y-72661400D01*
X105327000Y-72864600D02*
X114373000Y-72864600D01*
X105327000Y-73067800D02*
X114373000Y-73067800D01*
X105327000Y-73271000D02*
X114373000Y-73271000D01*
X105327000Y-73474200D02*
X114373000Y-73474200D01*
X105327000Y-73677400D02*
X114373000Y-73677400D01*
X105327000Y-73880600D02*
X114373000Y-73880600D01*
X105327000Y-74083800D02*
X114373000Y-74083800D01*
X105327000Y-74287000D02*
X114373000Y-74287000D01*
X105327000Y-74490200D02*
X114373000Y-74490200D01*
X105327000Y-74693400D02*
X114373000Y-74693400D01*
X105327000Y-74896600D02*
X114373000Y-74896600D01*
X105327000Y-75099800D02*
X114373000Y-75099800D01*
X105327000Y-75303000D02*
X114297887Y-75303000D01*
X105327000Y-75506200D02*
X114139842Y-75506200D01*
X105327000Y-75709400D02*
X113981798Y-75709400D01*
X105327000Y-75912600D02*
X113823753Y-75912600D01*
X105327000Y-76115800D02*
X113665709Y-76115800D01*
X105327000Y-76319000D02*
X113507664Y-76319000D01*
X105327000Y-76522200D02*
X113349620Y-76522200D01*
X105327000Y-76725400D02*
X113191576Y-76725400D01*
X105327000Y-76928600D02*
X113033531Y-76928600D01*
X105327000Y-77131800D02*
X112875487Y-77131800D01*
X105327000Y-77335000D02*
X112717442Y-77335000D01*
X105327000Y-77538200D02*
X112559398Y-77538200D01*
X105327000Y-77741400D02*
X112401353Y-77741400D01*
X105327000Y-77944600D02*
X112243309Y-77944600D01*
X105327000Y-78147800D02*
X112085265Y-78147800D01*
X105327000Y-78351000D02*
X111927220Y-78351000D01*
X105327000Y-78554200D02*
X111769176Y-78554200D01*
X105327000Y-78757400D02*
X111611131Y-78757400D01*
X105327000Y-78960600D02*
X111453087Y-78960600D01*
X105327000Y-79163800D02*
X111295042Y-79163800D01*
X105327000Y-79367000D02*
X111136998Y-79367000D01*
X105327000Y-79570200D02*
X110978953Y-79570200D01*
X105442767Y-79773400D02*
X110820909Y-79773400D01*
X105531849Y-79976600D02*
X110662865Y-79976600D01*
X105577061Y-80179800D02*
X110504820Y-80179800D01*
X105576884Y-80383000D02*
X110346776Y-80383000D01*
X105505860Y-80586200D02*
X110188731Y-80586200D01*
X105380234Y-80789400D02*
X110030687Y-80789400D01*
X105412021Y-80992600D02*
X109872642Y-80992600D01*
X105519123Y-81195800D02*
X109714598Y-81195800D01*
X105577088Y-81399000D02*
X109556554Y-81399000D01*
X105576910Y-81602200D02*
X109398509Y-81602200D01*
X105518649Y-81805400D02*
X109240465Y-81805400D01*
X105411088Y-82008600D02*
X109123000Y-82008600D01*
X105192930Y-82211800D02*
X109123000Y-82211800D01*
X104627000Y-82415000D02*
X109123000Y-82415000D01*
X104627000Y-82618200D02*
X109123000Y-82618200D01*
X104627000Y-82821400D02*
X109123000Y-82821400D01*
X104627000Y-83024600D02*
X109123000Y-83024600D01*
X104627000Y-83227800D02*
X109123000Y-83227800D01*
X104627000Y-83431000D02*
X109123000Y-83431000D01*
X104627000Y-83634200D02*
X109123000Y-83634200D01*
X104627000Y-83837400D02*
X109123000Y-83837400D01*
X104627000Y-84040600D02*
X109123000Y-84040600D01*
X104627000Y-84243800D02*
X109123000Y-84243800D01*
X104627000Y-84447000D02*
X109123000Y-84447000D01*
X104627000Y-84650200D02*
X109123000Y-84650200D01*
X104627000Y-84853400D02*
X109123000Y-84853400D01*
X104627000Y-85056600D02*
X109123000Y-85056600D01*
X104627000Y-85259800D02*
X109123000Y-85259800D01*
X104627000Y-85463000D02*
X109123000Y-85463000D01*
X104627000Y-85666200D02*
X109123000Y-85666200D01*
X104627000Y-85869400D02*
X109123000Y-85869400D01*
X104627000Y-86072600D02*
X109123000Y-86072600D01*
X104627000Y-86275800D02*
X109066722Y-86275800D01*
X104627000Y-86479000D02*
X108904162Y-86479000D01*
X104627000Y-86682200D02*
X108741602Y-86682200D01*
X104627000Y-86885400D02*
X108579042Y-86885400D01*
X104627000Y-87088600D02*
X108416482Y-87088600D01*
X104627000Y-87291800D02*
X108253922Y-87291800D01*
X104627000Y-87495000D02*
X108123693Y-87495000D01*
X104627000Y-87698200D02*
X108123000Y-87698200D01*
X104627000Y-87901400D02*
X108123000Y-87901400D01*
X104627000Y-88104600D02*
X108123000Y-88104600D01*
X104627000Y-88307800D02*
X108123000Y-88307800D01*
X104627000Y-88511000D02*
X108123000Y-88511000D01*
X104627000Y-88714200D02*
X108123000Y-88714200D01*
X104627000Y-88917400D02*
X108123000Y-88917400D01*
X104627000Y-89120600D02*
X108123000Y-89120600D01*
X104627000Y-89323800D02*
X107996594Y-89323800D01*
X104627000Y-89527000D02*
X105773303Y-89527000D01*
X104627000Y-89730200D02*
X105775652Y-89730200D01*
X104627000Y-89933400D02*
X105778001Y-89933400D01*
X104627000Y-90136600D02*
X105780350Y-90136600D01*
X104627000Y-90339800D02*
X105782699Y-90339800D01*
X104627000Y-90543000D02*
X105785048Y-90543000D01*
X104627000Y-90746200D02*
X105787397Y-90746200D01*
X104627000Y-90949400D02*
X105789747Y-90949400D01*
X104627000Y-91152600D02*
X105792096Y-91152600D01*
X104627000Y-91355800D02*
X105794445Y-91355800D01*
X104627000Y-91559000D02*
X105796794Y-91559000D01*
X104627000Y-91762200D02*
X105799143Y-91762200D01*
X104627000Y-91965400D02*
X105801492Y-91965400D01*
X104627000Y-92168600D02*
X105803841Y-92168600D01*
X104627000Y-92371800D02*
X105806191Y-92371800D01*
X104627000Y-92575000D02*
X105808540Y-92575000D01*
X104627000Y-92778200D02*
X105810889Y-92778200D01*
X104627000Y-92981400D02*
X105813238Y-92981400D01*
X104627000Y-93184600D02*
X105815587Y-93184600D01*
X104627000Y-93387800D02*
X105817936Y-93387800D01*
X104627000Y-93591000D02*
X105820285Y-93591000D01*
X104627000Y-93794200D02*
X105822634Y-93794200D01*
X104627000Y-93997400D02*
X105824984Y-93997400D01*
X104627000Y-94200600D02*
X105827333Y-94200600D01*
X104627000Y-94403800D02*
X105829682Y-94403800D01*
X104627000Y-94607000D02*
X105832031Y-94607000D01*
X104627000Y-94810200D02*
X105834380Y-94810200D01*
X104627000Y-95013400D02*
X105836729Y-95013400D01*
X104627000Y-95216600D02*
X105839078Y-95216600D01*
X104627000Y-95419800D02*
X105841428Y-95419800D01*
X104627000Y-95623000D02*
X105843777Y-95623000D01*
X104627000Y-95826200D02*
X105846126Y-95826200D01*
X104627000Y-96029400D02*
X105848475Y-96029400D01*
X104627000Y-96232600D02*
X105850824Y-96232600D01*
X104627000Y-96435800D02*
X105853173Y-96435800D01*
X104627000Y-96639000D02*
X105855522Y-96639000D01*
X104627000Y-96842200D02*
X105857871Y-96842200D01*
X104627000Y-97045400D02*
X105860221Y-97045400D01*
X104627000Y-97248600D02*
X105862570Y-97248600D01*
X104627000Y-97451800D02*
X105864919Y-97451800D01*
X104627000Y-97655000D02*
X105867268Y-97655000D01*
X104627000Y-97858200D02*
X105869617Y-97858200D01*
X104627000Y-98061400D02*
X105871966Y-98061400D01*
X104627000Y-98264600D02*
X105873000Y-98264600D01*
X104627000Y-98467800D02*
X105873000Y-98467800D01*
X104627000Y-98671000D02*
X105873000Y-98671000D01*
X104627000Y-98874200D02*
X105873000Y-98874200D01*
X104627000Y-99077400D02*
X105873000Y-99077400D01*
X104627000Y-99280600D02*
X105873000Y-99280600D01*
X104627000Y-99483800D02*
X105873000Y-99483800D01*
X111123000Y-65000000D02*
X111133006Y-65049410D01*
X111161447Y-65091035D01*
X111203841Y-65118315D01*
X111250000Y-65127000D01*
X112447394Y-65127000D01*
X112623000Y-65302606D01*
X112623000Y-66311053D01*
X112511129Y-66422729D01*
X112423100Y-66634724D01*
X112423089Y-66647305D01*
X112410197Y-66660197D01*
X112382334Y-66702211D01*
X112373000Y-66750000D01*
X112373000Y-68500000D01*
X112383006Y-68549410D01*
X112411447Y-68591035D01*
X112453841Y-68618315D01*
X112500000Y-68627000D01*
X113750000Y-68627000D01*
X113799410Y-68616994D01*
X113841035Y-68588553D01*
X113868315Y-68546159D01*
X113877000Y-68500000D01*
X113877000Y-67127000D01*
X114353187Y-67127000D01*
X114337594Y-67204000D01*
X114337594Y-68264000D01*
X114360395Y-68385179D01*
X114373000Y-68404768D01*
X114373000Y-68500000D01*
X114383006Y-68549410D01*
X114411447Y-68591035D01*
X114453841Y-68618315D01*
X114500000Y-68627000D01*
X118623000Y-68627000D01*
X118623000Y-69123000D01*
X115488968Y-69123000D01*
X115450714Y-69096862D01*
X115321000Y-69070594D01*
X114671000Y-69070594D01*
X114549821Y-69093395D01*
X114503814Y-69123000D01*
X114500000Y-69123000D01*
X114450590Y-69133006D01*
X114408965Y-69161447D01*
X114381685Y-69203841D01*
X114375136Y-69238646D01*
X114365584Y-69197377D01*
X114339803Y-69160197D01*
X114089803Y-68910197D01*
X114047789Y-68882334D01*
X114000000Y-68873000D01*
X110000000Y-68873000D01*
X109950590Y-68883006D01*
X109908965Y-68911447D01*
X109881685Y-68953841D01*
X109873000Y-69000000D01*
X109873000Y-71500000D01*
X109883006Y-71549410D01*
X109911447Y-71591035D01*
X109953841Y-71618315D01*
X110000000Y-71627000D01*
X112333333Y-71627000D01*
X112361890Y-71623748D01*
X112578557Y-71573748D01*
X112639803Y-71539803D01*
X113052606Y-71127000D01*
X113750000Y-71127000D01*
X113799410Y-71116994D01*
X113841035Y-71088553D01*
X113868315Y-71046159D01*
X113877000Y-71000000D01*
X113877000Y-69377000D01*
X114250000Y-69377000D01*
X114299410Y-69366994D01*
X114341035Y-69338553D01*
X114355354Y-69316301D01*
X114337594Y-69404000D01*
X114337594Y-70464000D01*
X114360395Y-70585179D01*
X114373000Y-70604768D01*
X114373000Y-75206425D01*
X109149752Y-81922030D01*
X109127316Y-81967174D01*
X109123000Y-82000000D01*
X109123000Y-86205452D01*
X108150830Y-87420664D01*
X108127777Y-87465497D01*
X108123000Y-87500000D01*
X108123000Y-89197394D01*
X107947394Y-89373000D01*
X105900000Y-89373000D01*
X105850590Y-89383006D01*
X105808965Y-89411447D01*
X105781685Y-89453841D01*
X105773008Y-89501468D01*
X105873000Y-98150776D01*
X105873000Y-99623000D01*
X104627000Y-99623000D01*
X104627000Y-82326893D01*
X104913779Y-82327143D01*
X105217846Y-82201505D01*
X105450688Y-81969070D01*
X105576856Y-81665222D01*
X105577143Y-81336221D01*
X105451505Y-81032154D01*
X105327000Y-80907431D01*
X105327000Y-80842542D01*
X105450688Y-80719070D01*
X105576856Y-80415222D01*
X105577143Y-80086221D01*
X105451505Y-79782154D01*
X105327000Y-79657431D01*
X105327000Y-64327000D01*
X107999995Y-64327000D01*
X108000000Y-64327001D01*
X108220808Y-64283078D01*
X108408001Y-64158001D01*
X108439002Y-64127000D01*
X111123000Y-64127000D01*
X111123000Y-65000000D01*
X112052606Y-85877000D02*
X113373000Y-85877000D01*
X111849406Y-86080200D02*
X113373000Y-86080200D01*
X111646206Y-86283400D02*
X113373000Y-86283400D01*
X111627000Y-86486600D02*
X113373000Y-86486600D01*
X111666803Y-86689800D02*
X113373000Y-86689800D01*
X111822606Y-86893000D02*
X113373000Y-86893000D01*
X112025806Y-87096200D02*
X113373000Y-87096200D01*
X112229006Y-87299400D02*
X113373000Y-87299400D01*
X113127000Y-87502600D02*
X113373000Y-87502600D01*
X113127000Y-87705800D02*
X113373000Y-87705800D01*
X113127000Y-87909000D02*
X113373000Y-87909000D01*
X113127000Y-88112200D02*
X113373000Y-88112200D01*
X113127000Y-88315400D02*
X113373000Y-88315400D01*
X113127000Y-88518600D02*
X113373000Y-88518600D01*
X113127000Y-88721800D02*
X113373000Y-88721800D01*
X116707806Y-88721800D02*
X117873000Y-88721800D01*
X113127000Y-88925000D02*
X117873000Y-88925000D01*
X113127000Y-89128200D02*
X117873000Y-89128200D01*
X113127000Y-89331400D02*
X117873000Y-89331400D01*
X113127000Y-89534600D02*
X113373000Y-89534600D01*
X115214206Y-89534600D02*
X117873000Y-89534600D01*
X113127000Y-89737800D02*
X113373000Y-89737800D01*
X115417406Y-89737800D02*
X117873000Y-89737800D01*
X113127000Y-89941000D02*
X113373000Y-89941000D01*
X117360442Y-89941000D02*
X117873000Y-89941000D01*
X113127000Y-90144200D02*
X113373000Y-90144200D01*
X117377000Y-90144200D02*
X117873000Y-90144200D01*
X113127000Y-90347400D02*
X113373000Y-90347400D01*
X117377000Y-90347400D02*
X117873000Y-90347400D01*
X113127000Y-90550600D02*
X113383807Y-90550600D01*
X117377000Y-90550600D02*
X117873000Y-90550600D01*
X113127000Y-90753800D02*
X113574194Y-90753800D01*
X117377000Y-90753800D02*
X117873000Y-90753800D01*
X113136606Y-90957000D02*
X113777394Y-90957000D01*
X117377000Y-90957000D02*
X117873000Y-90957000D01*
X113339806Y-91160200D02*
X113980594Y-91160200D01*
X117377000Y-91160200D02*
X117873000Y-91160200D01*
X113543006Y-91363400D02*
X114183794Y-91363400D01*
X117377000Y-91363400D02*
X117873000Y-91363400D01*
X113746206Y-91566600D02*
X114386994Y-91566600D01*
X117377000Y-91566600D02*
X117873000Y-91566600D01*
X113877000Y-91769800D02*
X114590194Y-91769800D01*
X117373274Y-91769800D02*
X117873000Y-91769800D01*
X113877000Y-91973000D02*
X117873000Y-91973000D01*
X113877000Y-92176200D02*
X117873000Y-92176200D01*
X113877000Y-92379400D02*
X117873000Y-92379400D01*
X113877000Y-92582600D02*
X117873000Y-92582600D01*
X113877000Y-92785800D02*
X117873000Y-92785800D01*
X113877000Y-92989000D02*
X117873000Y-92989000D01*
X113877000Y-93192200D02*
X117873000Y-93192200D01*
X113877000Y-93395400D02*
X117873000Y-93395400D01*
X113877000Y-93598600D02*
X117873000Y-93598600D01*
X113864685Y-93801800D02*
X117873000Y-93801800D01*
X109127000Y-94005000D02*
X117873000Y-94005000D01*
X109127000Y-94208200D02*
X117873000Y-94208200D01*
X109127000Y-94411400D02*
X117873000Y-94411400D01*
X109127000Y-94614600D02*
X117873000Y-94614600D01*
X109127000Y-94817800D02*
X117873000Y-94817800D01*
X109127000Y-95021000D02*
X117873000Y-95021000D01*
X109127000Y-95224200D02*
X117873000Y-95224200D01*
X109127000Y-95427400D02*
X117873000Y-95427400D01*
X109127000Y-95630600D02*
X117873000Y-95630600D01*
X109127000Y-95833800D02*
X117873000Y-95833800D01*
X109127000Y-96037000D02*
X117873000Y-96037000D01*
X109127000Y-96240200D02*
X117873000Y-96240200D01*
X109127000Y-96443400D02*
X117873000Y-96443400D01*
X109127000Y-96646600D02*
X117873000Y-96646600D01*
X109127000Y-96849800D02*
X117873000Y-96849800D01*
X109127000Y-97053000D02*
X117873000Y-97053000D01*
X109127000Y-97256200D02*
X117873000Y-97256200D01*
X109127000Y-97459400D02*
X117873000Y-97459400D01*
X109127000Y-97662600D02*
X117873000Y-97662600D01*
X109127000Y-97865800D02*
X117873000Y-97865800D01*
X109127000Y-98069000D02*
X117873000Y-98069000D01*
X109127000Y-98272200D02*
X117873000Y-98272200D01*
X109127000Y-98475400D02*
X117873000Y-98475400D01*
X109127000Y-98678600D02*
X117873000Y-98678600D01*
X109127000Y-98881800D02*
X117873000Y-98881800D01*
X109127000Y-99085000D02*
X117873000Y-99085000D01*
X109127000Y-99288200D02*
X117873000Y-99288200D01*
X109127000Y-99491400D02*
X117873000Y-99491400D01*
X113373000Y-88750000D02*
X113383006Y-88799410D01*
X113411447Y-88841035D01*
X113453841Y-88868315D01*
X113500000Y-88877000D01*
X116500000Y-88877000D01*
X116549410Y-88866994D01*
X116589803Y-88839803D01*
X116802606Y-88627000D01*
X117873000Y-88627000D01*
X117873000Y-99623000D01*
X109127000Y-99623000D01*
X109127000Y-93877000D01*
X113750000Y-93877000D01*
X113799410Y-93866994D01*
X113841035Y-93838553D01*
X113868315Y-93796159D01*
X113877000Y-93750000D01*
X113877000Y-91750000D01*
X113866994Y-91700590D01*
X113839803Y-91660197D01*
X113127000Y-90947394D01*
X113127000Y-89500000D01*
X113373000Y-89500000D01*
X113373000Y-90500000D01*
X113383006Y-90549410D01*
X113410197Y-90589803D01*
X114660197Y-91839803D01*
X114702211Y-91867666D01*
X114750000Y-91877000D01*
X117250000Y-91877000D01*
X117299410Y-91866994D01*
X117341035Y-91838553D01*
X117368315Y-91796159D01*
X117377000Y-91750000D01*
X117377000Y-90000000D01*
X117366994Y-89950590D01*
X117338553Y-89908965D01*
X117296159Y-89881685D01*
X117250000Y-89873000D01*
X115552606Y-89873000D01*
X115089803Y-89410197D01*
X115047789Y-89382334D01*
X115000000Y-89373000D01*
X113500000Y-89373000D01*
X113450590Y-89383006D01*
X113408965Y-89411447D01*
X113381685Y-89453841D01*
X113373000Y-89500000D01*
X113127000Y-89500000D01*
X113127000Y-87500000D01*
X113116994Y-87450590D01*
X113088553Y-87408965D01*
X113046159Y-87381685D01*
X113000000Y-87373000D01*
X112302606Y-87373000D01*
X111700176Y-86770570D01*
X111639442Y-86623583D01*
X111627000Y-86611119D01*
X111627000Y-86302606D01*
X112052606Y-85877000D01*
X113373000Y-85877000D01*
X113373000Y-88750000D01*
X111877000Y-83377000D02*
X114123000Y-83377000D01*
X111877000Y-83580200D02*
X114123000Y-83580200D01*
X111877000Y-83783400D02*
X114123000Y-83783400D01*
X111877000Y-83986600D02*
X114123000Y-83986600D01*
X111877000Y-84189800D02*
X114123000Y-84189800D01*
X111877000Y-84393000D02*
X114123000Y-84393000D01*
X111833406Y-84596200D02*
X114123000Y-84596200D01*
X111630206Y-84799400D02*
X114123000Y-84799400D01*
X111427006Y-85002600D02*
X114123526Y-85002600D01*
X111223806Y-85205800D02*
X114276194Y-85205800D01*
X111020606Y-85409000D02*
X111911976Y-85409000D01*
X113587999Y-85409000D02*
X114479394Y-85409000D01*
X110877000Y-85612200D02*
X111708194Y-85612200D01*
X113791806Y-85612200D02*
X114682594Y-85612200D01*
X110877000Y-85815400D02*
X111504994Y-85815400D01*
X113995006Y-85815400D02*
X114885794Y-85815400D01*
X110877000Y-86018600D02*
X111301794Y-86018600D01*
X114127000Y-86018600D02*
X116088994Y-86018600D01*
X110877000Y-86221800D02*
X111128508Y-86221800D01*
X113877000Y-86221800D02*
X113970620Y-86221800D01*
X114033924Y-86221800D02*
X116123000Y-86221800D01*
X110877000Y-86425000D02*
X111123000Y-86425000D01*
X113877000Y-86425000D02*
X116123000Y-86425000D01*
X110877000Y-86628200D02*
X111123000Y-86628200D01*
X113877000Y-86628200D02*
X116123000Y-86628200D01*
X110877000Y-86831400D02*
X111154540Y-86831400D01*
X113877000Y-86831400D02*
X116123000Y-86831400D01*
X110877000Y-87034600D02*
X111354994Y-87034600D01*
X113877000Y-87034600D02*
X116123000Y-87034600D01*
X110877000Y-87237800D02*
X111558194Y-87237800D01*
X113877000Y-87237800D02*
X116123000Y-87237800D01*
X110877000Y-87441000D02*
X111760078Y-87441000D01*
X115110442Y-87441000D02*
X116123000Y-87441000D01*
X110877000Y-87644200D02*
X111964594Y-87644200D01*
X111027006Y-87847400D02*
X112171652Y-87847400D01*
X111230206Y-88050600D02*
X112623000Y-88050600D01*
X111433406Y-88253800D02*
X112623000Y-88253800D01*
X114123000Y-85000000D02*
X114133006Y-85049410D01*
X114160197Y-85089803D01*
X114910197Y-85839803D01*
X114952211Y-85867666D01*
X115000000Y-85877000D01*
X115947394Y-85877000D01*
X116123000Y-86052606D01*
X116123000Y-87447394D01*
X115947394Y-87623000D01*
X115127000Y-87623000D01*
X115127000Y-87500000D01*
X115116994Y-87450590D01*
X115088553Y-87408965D01*
X115046159Y-87381685D01*
X115000000Y-87373000D01*
X113877000Y-87373000D01*
X113877000Y-86146299D01*
X113896656Y-86173817D01*
X113933517Y-86208208D01*
X113980854Y-86225549D01*
X114031208Y-86223106D01*
X114076644Y-86201265D01*
X114110004Y-86163468D01*
X114127000Y-86100000D01*
X114127000Y-86000000D01*
X114116994Y-85950590D01*
X114089803Y-85910197D01*
X113589803Y-85410197D01*
X113547789Y-85382334D01*
X113500000Y-85373000D01*
X112000000Y-85373000D01*
X111950590Y-85383006D01*
X111910197Y-85410197D01*
X111160197Y-86160197D01*
X111132334Y-86202211D01*
X111123000Y-86250000D01*
X111123000Y-86750000D01*
X111133006Y-86799410D01*
X111160197Y-86839803D01*
X111680588Y-87360194D01*
X111711012Y-87407474D01*
X111764231Y-87443837D01*
X112160197Y-87839803D01*
X112202211Y-87867666D01*
X112250000Y-87877000D01*
X112623000Y-87877000D01*
X112623000Y-88373000D01*
X111552606Y-88373000D01*
X110877000Y-87697394D01*
X110877000Y-85552606D01*
X111839803Y-84589803D01*
X111867666Y-84547789D01*
X111877000Y-84500000D01*
X111877000Y-83377000D01*
X114123000Y-83377000D01*
X114123000Y-85000000D01*
X114627000Y-83377000D02*
X117873000Y-83377000D01*
X114627000Y-83580200D02*
X117873000Y-83580200D01*
X114627000Y-83783400D02*
X117873000Y-83783400D01*
X114627000Y-83986600D02*
X117873000Y-83986600D01*
X114627000Y-84189800D02*
X117873000Y-84189800D01*
X114627000Y-84393000D02*
X117873000Y-84393000D01*
X114627000Y-84596200D02*
X117873000Y-84596200D01*
X114627000Y-84799400D02*
X117873000Y-84799400D01*
X114682206Y-85002600D02*
X117873000Y-85002600D01*
X114885406Y-85205800D02*
X117873000Y-85205800D01*
X116337999Y-85409000D02*
X117873000Y-85409000D01*
X116541806Y-85612200D02*
X117873000Y-85612200D01*
X116627000Y-85815400D02*
X117873000Y-85815400D01*
X116627000Y-86018600D02*
X117873000Y-86018600D01*
X116627000Y-86221800D02*
X117873000Y-86221800D01*
X116627000Y-86425000D02*
X117873000Y-86425000D01*
X116627000Y-86628200D02*
X117873000Y-86628200D01*
X116627000Y-86831400D02*
X117873000Y-86831400D01*
X116627000Y-87034600D02*
X117873000Y-87034600D01*
X116627000Y-87237800D02*
X117873000Y-87237800D01*
X116627000Y-87441000D02*
X117873000Y-87441000D01*
X116535406Y-87644200D02*
X117873000Y-87644200D01*
X116332206Y-87847400D02*
X117873000Y-87847400D01*
X113877000Y-88050600D02*
X114633819Y-88050600D01*
X116129006Y-88050600D02*
X117873000Y-88050600D01*
X113877000Y-88253800D02*
X116566594Y-88253800D01*
X117873000Y-88123000D02*
X116750000Y-88123000D01*
X116700590Y-88133006D01*
X116660197Y-88160197D01*
X116447394Y-88373000D01*
X113877000Y-88373000D01*
X113877000Y-87877000D01*
X114623000Y-87877000D01*
X114623000Y-88000000D01*
X114633006Y-88049410D01*
X114661447Y-88091035D01*
X114703841Y-88118315D01*
X114750000Y-88127000D01*
X116000000Y-88127000D01*
X116049410Y-88116994D01*
X116089803Y-88089803D01*
X116589803Y-87589803D01*
X116617666Y-87547789D01*
X116627000Y-87500000D01*
X116627000Y-85750000D01*
X116616994Y-85700590D01*
X116589803Y-85660197D01*
X116339803Y-85410197D01*
X116297789Y-85382334D01*
X116250000Y-85373000D01*
X115052606Y-85373000D01*
X114627000Y-84947394D01*
X114627000Y-83377000D01*
X117873000Y-83377000D01*
X117873000Y-88123000D01*
X111627000Y-62877000D02*
X114123000Y-62877000D01*
X111627000Y-63080200D02*
X114123000Y-63080200D01*
X111627000Y-63283400D02*
X114123000Y-63283400D01*
X111627000Y-63486600D02*
X114123000Y-63486600D01*
X111627000Y-63689800D02*
X114123000Y-63689800D01*
X111627000Y-63893000D02*
X114123000Y-63893000D01*
X111627000Y-64096200D02*
X114123000Y-64096200D01*
X111627000Y-64299400D02*
X114123000Y-64299400D01*
X111627000Y-64502600D02*
X114123526Y-64502600D01*
X112869890Y-64705800D02*
X114276194Y-64705800D01*
X112971490Y-64909000D02*
X115092998Y-64909000D01*
X113073090Y-65112200D02*
X115296198Y-65112200D01*
X113127000Y-65315400D02*
X115499398Y-65315400D01*
X113127000Y-65518600D02*
X115757524Y-65518600D01*
X113127000Y-65721800D02*
X118623000Y-65721800D01*
X113127000Y-65925000D02*
X118623000Y-65925000D01*
X113127000Y-66128200D02*
X118623000Y-66128200D01*
X113397420Y-66331400D02*
X118623000Y-66331400D01*
X113535314Y-66534600D02*
X118623000Y-66534600D01*
X114874530Y-66737800D02*
X118623000Y-66737800D01*
X114877000Y-66941000D02*
X118623000Y-66941000D01*
X114877000Y-67144200D02*
X118623000Y-67144200D01*
X114877000Y-67347400D02*
X118623000Y-67347400D01*
X114877000Y-67550600D02*
X118623000Y-67550600D01*
X114877000Y-67753800D02*
X118623000Y-67753800D01*
X114877000Y-67957000D02*
X118623000Y-67957000D01*
X114123000Y-64500000D02*
X114133006Y-64549410D01*
X114160197Y-64589803D01*
X114410197Y-64839803D01*
X114452211Y-64867666D01*
X114500000Y-64877000D01*
X115060998Y-64877000D01*
X115591997Y-65407998D01*
X115591999Y-65408001D01*
X115705840Y-65484066D01*
X115779192Y-65533078D01*
X116000000Y-65577001D01*
X116000005Y-65577000D01*
X118623000Y-65577000D01*
X118623000Y-68123000D01*
X114877000Y-68123000D01*
X114877000Y-66750000D01*
X114866994Y-66700590D01*
X114838553Y-66658965D01*
X114796159Y-66631685D01*
X114750000Y-66623000D01*
X113571840Y-66623000D01*
X113489442Y-66423583D01*
X113327271Y-66261129D01*
X113127000Y-66177968D01*
X113127000Y-65250000D01*
X113113592Y-65193204D01*
X112863592Y-64693204D01*
X112832546Y-64653485D01*
X112788493Y-64628974D01*
X112750000Y-64623000D01*
X111627000Y-64623000D01*
X111627000Y-62877000D01*
X114123000Y-62877000D01*
X114123000Y-64500000D01*
M02*
