G04 #@! TF.FileFunction,Legend,Top*
%FSLAX46Y46*%
G04 Gerber Fmt 4.6, Leading zero omitted, Abs format (unit mm)*
G04 Created by KiCad (PCBNEW 4.0.2-stable) date 7/30/2016 6:00:18 PM*
%MOMM*%
G01*
G04 APERTURE LIST*
%ADD10C,0.100000*%
%ADD11C,0.300000*%
%ADD12C,0.200000*%
%ADD13C,0.150000*%
G04 APERTURE END LIST*
D10*
D11*
X149421430Y-151542857D02*
X148735715Y-151542857D01*
X149078573Y-151542857D02*
X149078573Y-150342857D01*
X148964287Y-150514286D01*
X148850001Y-150628571D01*
X148735715Y-150685714D01*
X150450001Y-150342857D02*
X150221430Y-150342857D01*
X150107144Y-150400000D01*
X150050001Y-150457143D01*
X149935715Y-150628571D01*
X149878572Y-150857143D01*
X149878572Y-151314286D01*
X149935715Y-151428571D01*
X149992858Y-151485714D01*
X150107144Y-151542857D01*
X150335715Y-151542857D01*
X150450001Y-151485714D01*
X150507144Y-151428571D01*
X150564287Y-151314286D01*
X150564287Y-151028571D01*
X150507144Y-150914286D01*
X150450001Y-150857143D01*
X150335715Y-150800000D01*
X150107144Y-150800000D01*
X149992858Y-150857143D01*
X149935715Y-150914286D01*
X149878572Y-151028571D01*
X151078572Y-151542857D02*
X151078572Y-150742857D01*
X151078572Y-150857143D02*
X151135715Y-150800000D01*
X151250001Y-150742857D01*
X151421429Y-150742857D01*
X151535715Y-150800000D01*
X151592858Y-150914286D01*
X151592858Y-151542857D01*
X151592858Y-150914286D02*
X151650001Y-150800000D01*
X151764287Y-150742857D01*
X151935715Y-150742857D01*
X152050001Y-150800000D01*
X152107144Y-150914286D01*
X152107144Y-151542857D01*
X152678572Y-151542857D02*
X152678572Y-150742857D01*
X152678572Y-150857143D02*
X152735715Y-150800000D01*
X152850001Y-150742857D01*
X153021429Y-150742857D01*
X153135715Y-150800000D01*
X153192858Y-150914286D01*
X153192858Y-151542857D01*
X153192858Y-150914286D02*
X153250001Y-150800000D01*
X153364287Y-150742857D01*
X153535715Y-150742857D01*
X153650001Y-150800000D01*
X153707144Y-150914286D01*
X153707144Y-151542857D01*
X155135715Y-151485714D02*
X155307144Y-151542857D01*
X155592858Y-151542857D01*
X155707144Y-151485714D01*
X155764287Y-151428571D01*
X155821430Y-151314286D01*
X155821430Y-151200000D01*
X155764287Y-151085714D01*
X155707144Y-151028571D01*
X155592858Y-150971429D01*
X155364287Y-150914286D01*
X155250001Y-150857143D01*
X155192858Y-150800000D01*
X155135715Y-150685714D01*
X155135715Y-150571429D01*
X155192858Y-150457143D01*
X155250001Y-150400000D01*
X155364287Y-150342857D01*
X155650001Y-150342857D01*
X155821430Y-150400000D01*
X156335715Y-150742857D02*
X156335715Y-151942857D01*
X156335715Y-150800000D02*
X156450001Y-150742857D01*
X156678572Y-150742857D01*
X156792858Y-150800000D01*
X156850001Y-150857143D01*
X156907144Y-150971429D01*
X156907144Y-151314286D01*
X156850001Y-151428571D01*
X156792858Y-151485714D01*
X156678572Y-151542857D01*
X156450001Y-151542857D01*
X156335715Y-151485714D01*
X157878572Y-151485714D02*
X157764286Y-151542857D01*
X157535715Y-151542857D01*
X157421429Y-151485714D01*
X157364286Y-151371429D01*
X157364286Y-150914286D01*
X157421429Y-150800000D01*
X157535715Y-150742857D01*
X157764286Y-150742857D01*
X157878572Y-150800000D01*
X157935715Y-150914286D01*
X157935715Y-151028571D01*
X157364286Y-151142857D01*
X158964286Y-151542857D02*
X158964286Y-150914286D01*
X158907143Y-150800000D01*
X158792857Y-150742857D01*
X158564286Y-150742857D01*
X158450000Y-150800000D01*
X158964286Y-151485714D02*
X158850000Y-151542857D01*
X158564286Y-151542857D01*
X158450000Y-151485714D01*
X158392857Y-151371429D01*
X158392857Y-151257143D01*
X158450000Y-151142857D01*
X158564286Y-151085714D01*
X158850000Y-151085714D01*
X158964286Y-151028571D01*
X159535714Y-151542857D02*
X159535714Y-150342857D01*
X159650000Y-151085714D02*
X159992857Y-151542857D01*
X159992857Y-150742857D02*
X159535714Y-151200000D01*
X160964286Y-151485714D02*
X160850000Y-151542857D01*
X160621429Y-151542857D01*
X160507143Y-151485714D01*
X160450000Y-151371429D01*
X160450000Y-150914286D01*
X160507143Y-150800000D01*
X160621429Y-150742857D01*
X160850000Y-150742857D01*
X160964286Y-150800000D01*
X161021429Y-150914286D01*
X161021429Y-151028571D01*
X160450000Y-151142857D01*
X161535714Y-151542857D02*
X161535714Y-150742857D01*
X161535714Y-150971429D02*
X161592857Y-150857143D01*
X161650000Y-150800000D01*
X161764286Y-150742857D01*
X161878571Y-150742857D01*
D12*
X163500000Y-151250000D02*
G75*
G03X163500000Y-151250000I-8000000J0D01*
G01*
X167000000Y-107000000D02*
X167000000Y-64000000D01*
X106000000Y-107000000D02*
X167000000Y-107000000D01*
X106000000Y-64000000D02*
X106000000Y-107000000D01*
X167000000Y-64000000D02*
X106000000Y-64000000D01*
D13*
X123237500Y-157812700D02*
X123237500Y-159235100D01*
X132762500Y-157800000D02*
X132749800Y-159527200D01*
X123237500Y-159832000D02*
X132762500Y-159832000D01*
X123237500Y-150307000D02*
X123237500Y-159832000D01*
X132762500Y-159832000D02*
X132762500Y-150307000D01*
X132762500Y-150307000D02*
X123237500Y-150307000D01*
X123875000Y-147000000D02*
X123875000Y-148200000D01*
X122125000Y-148200000D02*
X122125000Y-147000000D01*
X124350000Y-147100000D02*
X124350000Y-148100000D01*
X126050000Y-148100000D02*
X126050000Y-147100000D01*
X112415000Y-108802000D02*
X112415000Y-110002000D01*
X110665000Y-110002000D02*
X110665000Y-108802000D01*
X121051000Y-108802000D02*
X121051000Y-110002000D01*
X119301000Y-110002000D02*
X119301000Y-108802000D01*
X152541000Y-109152000D02*
X152541000Y-110352000D01*
X150791000Y-110352000D02*
X150791000Y-109152000D01*
X161431000Y-109152000D02*
X161431000Y-110352000D01*
X159681000Y-110352000D02*
X159681000Y-109152000D01*
X134900000Y-159050000D02*
X135900000Y-159050000D01*
X135900000Y-157350000D02*
X134900000Y-157350000D01*
X140900000Y-150550000D02*
X139900000Y-150550000D01*
X139900000Y-152250000D02*
X140900000Y-152250000D01*
X119200000Y-61950000D02*
X121900000Y-61950000D01*
X119200000Y-60450000D02*
X121900000Y-60450000D01*
X120700000Y-61350000D02*
X120700000Y-61100000D01*
X120700000Y-61100000D02*
X120550000Y-61250000D01*
X120450000Y-60850000D02*
X120450000Y-61550000D01*
X120800000Y-61200000D02*
X121150000Y-61200000D01*
X120450000Y-61200000D02*
X120800000Y-60850000D01*
X120800000Y-60850000D02*
X120800000Y-61550000D01*
X120800000Y-61550000D02*
X120450000Y-61200000D01*
X120176000Y-113970000D02*
X120176000Y-114220000D01*
X120176000Y-113470000D02*
X120176000Y-113220000D01*
X120176000Y-113470000D02*
X120526000Y-113970000D01*
X120526000Y-113970000D02*
X119826000Y-113970000D01*
X119826000Y-113970000D02*
X120176000Y-113470000D01*
X120526000Y-113470000D02*
X119826000Y-113470000D01*
X119376000Y-112420000D02*
X119376000Y-114820000D01*
X120976000Y-112420000D02*
X120976000Y-114820000D01*
X122462000Y-113970000D02*
X122462000Y-114220000D01*
X122462000Y-113470000D02*
X122462000Y-113220000D01*
X122462000Y-113470000D02*
X122812000Y-113970000D01*
X122812000Y-113970000D02*
X122112000Y-113970000D01*
X122112000Y-113970000D02*
X122462000Y-113470000D01*
X122812000Y-113470000D02*
X122112000Y-113470000D01*
X121662000Y-112420000D02*
X121662000Y-114820000D01*
X123262000Y-112420000D02*
X123262000Y-114820000D01*
X149380000Y-114320000D02*
X149380000Y-114570000D01*
X149380000Y-113820000D02*
X149380000Y-113570000D01*
X149380000Y-113820000D02*
X149730000Y-114320000D01*
X149730000Y-114320000D02*
X149030000Y-114320000D01*
X149030000Y-114320000D02*
X149380000Y-113820000D01*
X149730000Y-113820000D02*
X149030000Y-113820000D01*
X148580000Y-112770000D02*
X148580000Y-115170000D01*
X150180000Y-112770000D02*
X150180000Y-115170000D01*
X151666000Y-114320000D02*
X151666000Y-114570000D01*
X151666000Y-113820000D02*
X151666000Y-113570000D01*
X151666000Y-113820000D02*
X152016000Y-114320000D01*
X152016000Y-114320000D02*
X151316000Y-114320000D01*
X151316000Y-114320000D02*
X151666000Y-113820000D01*
X152016000Y-113820000D02*
X151316000Y-113820000D01*
X150866000Y-112770000D02*
X150866000Y-115170000D01*
X152466000Y-112770000D02*
X152466000Y-115170000D01*
X153952000Y-114320000D02*
X153952000Y-114570000D01*
X153952000Y-113820000D02*
X153952000Y-113570000D01*
X153952000Y-113820000D02*
X154302000Y-114320000D01*
X154302000Y-114320000D02*
X153602000Y-114320000D01*
X153602000Y-114320000D02*
X153952000Y-113820000D01*
X154302000Y-113820000D02*
X153602000Y-113820000D01*
X153152000Y-112770000D02*
X153152000Y-115170000D01*
X154752000Y-112770000D02*
X154752000Y-115170000D01*
X158270000Y-114320000D02*
X158270000Y-114570000D01*
X158270000Y-113820000D02*
X158270000Y-113570000D01*
X158270000Y-113820000D02*
X158620000Y-114320000D01*
X158620000Y-114320000D02*
X157920000Y-114320000D01*
X157920000Y-114320000D02*
X158270000Y-113820000D01*
X158620000Y-113820000D02*
X157920000Y-113820000D01*
X157470000Y-112770000D02*
X157470000Y-115170000D01*
X159070000Y-112770000D02*
X159070000Y-115170000D01*
X160556000Y-114320000D02*
X160556000Y-114570000D01*
X160556000Y-113820000D02*
X160556000Y-113570000D01*
X160556000Y-113820000D02*
X160906000Y-114320000D01*
X160906000Y-114320000D02*
X160206000Y-114320000D01*
X160206000Y-114320000D02*
X160556000Y-113820000D01*
X160906000Y-113820000D02*
X160206000Y-113820000D01*
X159756000Y-112770000D02*
X159756000Y-115170000D01*
X161356000Y-112770000D02*
X161356000Y-115170000D01*
X162842000Y-114320000D02*
X162842000Y-114570000D01*
X162842000Y-113820000D02*
X162842000Y-113570000D01*
X162842000Y-113820000D02*
X163192000Y-114320000D01*
X163192000Y-114320000D02*
X162492000Y-114320000D01*
X162492000Y-114320000D02*
X162842000Y-113820000D01*
X163192000Y-113820000D02*
X162492000Y-113820000D01*
X162042000Y-112770000D02*
X162042000Y-115170000D01*
X163642000Y-112770000D02*
X163642000Y-115170000D01*
X136200000Y-152275000D02*
X135000000Y-152275000D01*
X135000000Y-150525000D02*
X136200000Y-150525000D01*
X136925000Y-153525000D02*
X136925000Y-153775000D01*
X140275000Y-153525000D02*
X140275000Y-153775000D01*
X140275000Y-156875000D02*
X140275000Y-156625000D01*
X136925000Y-156875000D02*
X136925000Y-156625000D01*
X136925000Y-153525000D02*
X140275000Y-153525000D01*
X136925000Y-156875000D02*
X140275000Y-156875000D01*
X136925000Y-153775000D02*
X135675000Y-153775000D01*
X109254000Y-113970000D02*
X109254000Y-114220000D01*
X109254000Y-113470000D02*
X109254000Y-113220000D01*
X109254000Y-113470000D02*
X109604000Y-113970000D01*
X109604000Y-113970000D02*
X108904000Y-113970000D01*
X108904000Y-113970000D02*
X109254000Y-113470000D01*
X109604000Y-113470000D02*
X108904000Y-113470000D01*
X108454000Y-112420000D02*
X108454000Y-114820000D01*
X110054000Y-112420000D02*
X110054000Y-114820000D01*
X111540000Y-113970000D02*
X111540000Y-114220000D01*
X111540000Y-113470000D02*
X111540000Y-113220000D01*
X111540000Y-113470000D02*
X111890000Y-113970000D01*
X111890000Y-113970000D02*
X111190000Y-113970000D01*
X111190000Y-113970000D02*
X111540000Y-113470000D01*
X111890000Y-113470000D02*
X111190000Y-113470000D01*
X110740000Y-112420000D02*
X110740000Y-114820000D01*
X112340000Y-112420000D02*
X112340000Y-114820000D01*
X113826000Y-113970000D02*
X113826000Y-114220000D01*
X113826000Y-113470000D02*
X113826000Y-113220000D01*
X113826000Y-113470000D02*
X114176000Y-113970000D01*
X114176000Y-113970000D02*
X113476000Y-113970000D01*
X113476000Y-113970000D02*
X113826000Y-113470000D01*
X114176000Y-113470000D02*
X113476000Y-113470000D01*
X113026000Y-112420000D02*
X113026000Y-114820000D01*
X114626000Y-112420000D02*
X114626000Y-114820000D01*
X117890000Y-113970000D02*
X117890000Y-114220000D01*
X117890000Y-113470000D02*
X117890000Y-113220000D01*
X117890000Y-113470000D02*
X118240000Y-113970000D01*
X118240000Y-113970000D02*
X117540000Y-113970000D01*
X117540000Y-113970000D02*
X117890000Y-113470000D01*
X118240000Y-113470000D02*
X117540000Y-113470000D01*
X117090000Y-112420000D02*
X117090000Y-114820000D01*
X118690000Y-112420000D02*
X118690000Y-114820000D01*
X135050000Y-155300000D02*
X135050000Y-154300000D01*
X133350000Y-154300000D02*
X133350000Y-155300000D01*
X144870000Y-158740000D02*
X144870000Y-153660000D01*
X140425000Y-158740000D02*
X140425000Y-153660000D01*
X146775000Y-153660000D02*
X146775000Y-158740000D01*
X146775000Y-153660000D02*
X140425000Y-153660000D01*
X146775000Y-158740000D02*
X140425000Y-158740000D01*
X126300000Y-60450000D02*
X123600000Y-60450000D01*
X126300000Y-61950000D02*
X123600000Y-61950000D01*
X124800000Y-61050000D02*
X124800000Y-61300000D01*
X124800000Y-61300000D02*
X124950000Y-61150000D01*
X125050000Y-61550000D02*
X125050000Y-60850000D01*
X124700000Y-61200000D02*
X124350000Y-61200000D01*
X125050000Y-61200000D02*
X124700000Y-61550000D01*
X124700000Y-61550000D02*
X124700000Y-60850000D01*
X124700000Y-60850000D02*
X125050000Y-61200000D01*
X151334263Y-137706683D02*
X151401607Y-137841370D01*
X151569966Y-138009729D01*
X151670981Y-138043401D01*
X151738325Y-138043401D01*
X151839340Y-138009729D01*
X151906683Y-137942386D01*
X151940355Y-137841371D01*
X151940355Y-137774027D01*
X151906684Y-137673012D01*
X151805668Y-137504652D01*
X151771996Y-137403637D01*
X151771996Y-137336294D01*
X151805668Y-137235279D01*
X151873012Y-137167935D01*
X151974027Y-137134263D01*
X152041370Y-137134263D01*
X152142385Y-137167935D01*
X152310745Y-137336294D01*
X152378088Y-137470981D01*
X152647462Y-137673012D02*
X152108714Y-138548477D01*
X152748478Y-138178088D01*
X152378088Y-138817851D01*
X153253553Y-138279103D01*
X153186210Y-139625973D02*
X152782149Y-139221912D01*
X152984179Y-139423942D02*
X153691286Y-138716836D01*
X153522927Y-138750507D01*
X153388240Y-138750507D01*
X153287225Y-138716836D01*
X154331049Y-139356599D02*
X154398393Y-139423943D01*
X154432065Y-139524958D01*
X154432065Y-139592302D01*
X154398393Y-139693317D01*
X154297378Y-139861675D01*
X154129019Y-140030035D01*
X153960660Y-140131050D01*
X153859645Y-140164721D01*
X153792302Y-140164721D01*
X153691286Y-140131050D01*
X153623942Y-140063706D01*
X153590271Y-139962690D01*
X153590271Y-139895347D01*
X153623942Y-139794332D01*
X153724957Y-139625973D01*
X153893317Y-139457614D01*
X154061675Y-139356599D01*
X154162690Y-139322927D01*
X154230034Y-139322927D01*
X154331049Y-139356599D01*
X119070982Y-118643401D02*
X119138326Y-118778088D01*
X119306685Y-118946447D01*
X119407700Y-118980119D01*
X119475044Y-118980119D01*
X119576059Y-118946447D01*
X119643402Y-118879104D01*
X119677074Y-118778089D01*
X119677074Y-118710745D01*
X119643403Y-118609729D01*
X119542387Y-118441370D01*
X119508715Y-118340355D01*
X119508715Y-118273012D01*
X119542387Y-118171996D01*
X119609730Y-118104653D01*
X119710746Y-118070981D01*
X119778089Y-118070981D01*
X119879104Y-118104653D01*
X120047463Y-118273012D01*
X120114807Y-118407699D01*
X120384181Y-118609729D02*
X119845432Y-119485195D01*
X120485197Y-119114806D01*
X120114807Y-119754569D01*
X120990272Y-119215821D01*
X121158631Y-119518867D02*
X121225974Y-119518867D01*
X121326989Y-119552538D01*
X121495349Y-119720898D01*
X121529020Y-119821913D01*
X121529020Y-119889256D01*
X121495349Y-119990271D01*
X121428005Y-120057615D01*
X121293318Y-120124958D01*
X120485196Y-120124958D01*
X120922929Y-120562691D01*
X127904762Y-149952381D02*
X127571428Y-149476190D01*
X127333333Y-149952381D02*
X127333333Y-148952381D01*
X127714286Y-148952381D01*
X127809524Y-149000000D01*
X127857143Y-149047619D01*
X127904762Y-149142857D01*
X127904762Y-149285714D01*
X127857143Y-149380952D01*
X127809524Y-149428571D01*
X127714286Y-149476190D01*
X127333333Y-149476190D01*
X128190476Y-148952381D02*
X128523809Y-149952381D01*
X128857143Y-148952381D01*
X129714286Y-149952381D02*
X129142857Y-149952381D01*
X129428571Y-149952381D02*
X129428571Y-148952381D01*
X129333333Y-149095238D01*
X129238095Y-149190476D01*
X129142857Y-149238095D01*
X122833334Y-144952381D02*
X122500000Y-144476190D01*
X122261905Y-144952381D02*
X122261905Y-143952381D01*
X122642858Y-143952381D01*
X122738096Y-144000000D01*
X122785715Y-144047619D01*
X122833334Y-144142857D01*
X122833334Y-144285714D01*
X122785715Y-144380952D01*
X122738096Y-144428571D01*
X122642858Y-144476190D01*
X122261905Y-144476190D01*
X123738096Y-143952381D02*
X123261905Y-143952381D01*
X123214286Y-144428571D01*
X123261905Y-144380952D01*
X123357143Y-144333333D01*
X123595239Y-144333333D01*
X123690477Y-144380952D01*
X123738096Y-144428571D01*
X123785715Y-144523810D01*
X123785715Y-144761905D01*
X123738096Y-144857143D01*
X123690477Y-144904762D01*
X123595239Y-144952381D01*
X123357143Y-144952381D01*
X123261905Y-144904762D01*
X123214286Y-144857143D01*
X107070981Y-130743401D02*
X107138325Y-130878088D01*
X107306684Y-131046447D01*
X107407699Y-131080119D01*
X107475043Y-131080119D01*
X107576058Y-131046447D01*
X107643401Y-130979104D01*
X107677073Y-130878089D01*
X107677073Y-130810745D01*
X107643402Y-130709729D01*
X107542386Y-130541370D01*
X107508714Y-130440355D01*
X107508714Y-130373012D01*
X107542386Y-130271996D01*
X107609729Y-130204653D01*
X107710745Y-130170981D01*
X107778088Y-130170981D01*
X107879103Y-130204653D01*
X108047462Y-130373012D01*
X108114806Y-130507699D01*
X108384180Y-130709729D02*
X107845431Y-131585195D01*
X108485196Y-131214806D01*
X108114806Y-131854569D01*
X108990271Y-131315821D01*
X108922928Y-132662691D02*
X108518867Y-132258630D01*
X108720897Y-132460660D02*
X109428004Y-131753553D01*
X109259645Y-131787225D01*
X109124958Y-131787225D01*
X109023943Y-131753553D01*
X114970981Y-138443401D02*
X115038325Y-138578088D01*
X115206684Y-138746447D01*
X115307699Y-138780119D01*
X115375043Y-138780119D01*
X115476058Y-138746447D01*
X115543401Y-138679104D01*
X115577073Y-138578089D01*
X115577073Y-138510745D01*
X115543402Y-138409729D01*
X115442386Y-138241370D01*
X115408714Y-138140355D01*
X115408714Y-138073012D01*
X115442386Y-137971996D01*
X115509729Y-137904653D01*
X115610745Y-137870981D01*
X115678088Y-137870981D01*
X115779103Y-137904653D01*
X115947462Y-138073012D01*
X116014806Y-138207699D01*
X116284180Y-138409729D02*
X115745431Y-139285195D01*
X116385196Y-138914806D01*
X116014806Y-139554569D01*
X116890271Y-139015821D01*
X117092302Y-139217851D02*
X117530035Y-139655584D01*
X117024958Y-139689255D01*
X117125974Y-139790271D01*
X117159646Y-139891286D01*
X117159646Y-139958630D01*
X117125973Y-140059646D01*
X116957615Y-140228004D01*
X116856600Y-140261676D01*
X116789256Y-140261676D01*
X116688241Y-140228004D01*
X116486210Y-140025973D01*
X116452538Y-139924958D01*
X116452538Y-139857615D01*
X163234264Y-125806683D02*
X163301608Y-125941370D01*
X163469967Y-126109729D01*
X163570982Y-126143401D01*
X163638326Y-126143401D01*
X163739341Y-126109729D01*
X163806684Y-126042386D01*
X163840356Y-125941371D01*
X163840356Y-125874027D01*
X163806685Y-125773012D01*
X163705669Y-125604652D01*
X163671997Y-125503637D01*
X163671997Y-125436294D01*
X163705669Y-125335279D01*
X163773013Y-125267935D01*
X163874028Y-125234263D01*
X163941371Y-125234263D01*
X164042386Y-125267935D01*
X164210746Y-125436294D01*
X164278089Y-125570981D01*
X164547463Y-125773012D02*
X164008715Y-126648477D01*
X164648479Y-126278088D01*
X164278089Y-126917851D01*
X165153554Y-126379103D01*
X165086211Y-127725973D02*
X164682150Y-127321912D01*
X164884180Y-127523942D02*
X165591287Y-126816836D01*
X165422928Y-126850507D01*
X165288241Y-126850507D01*
X165187226Y-126816836D01*
X165759646Y-128399408D02*
X165355585Y-127995347D01*
X165557615Y-128197377D02*
X166264722Y-127490271D01*
X166096363Y-127523942D01*
X165961676Y-127523942D01*
X165860661Y-127490271D01*
X126870981Y-126243401D02*
X126938325Y-126378088D01*
X127106684Y-126546447D01*
X127207699Y-126580119D01*
X127275043Y-126580119D01*
X127376058Y-126546447D01*
X127443401Y-126479104D01*
X127477073Y-126378089D01*
X127477073Y-126310745D01*
X127443402Y-126209729D01*
X127342386Y-126041370D01*
X127308714Y-125940355D01*
X127308714Y-125873012D01*
X127342386Y-125771996D01*
X127409729Y-125704653D01*
X127510745Y-125670981D01*
X127578088Y-125670981D01*
X127679103Y-125704653D01*
X127847462Y-125873012D01*
X127914806Y-126007699D01*
X128184180Y-126209729D02*
X127645431Y-127085195D01*
X128285196Y-126714806D01*
X127914806Y-127354569D01*
X128790271Y-126815821D01*
X129126989Y-127623943D02*
X128655584Y-128095348D01*
X129228004Y-127186210D02*
X128554569Y-127522928D01*
X128992302Y-127960661D01*
X125083334Y-144857143D02*
X125035715Y-144904762D01*
X124892858Y-144952381D01*
X124797620Y-144952381D01*
X124654762Y-144904762D01*
X124559524Y-144809524D01*
X124511905Y-144714286D01*
X124464286Y-144523810D01*
X124464286Y-144380952D01*
X124511905Y-144190476D01*
X124559524Y-144095238D01*
X124654762Y-144000000D01*
X124797620Y-143952381D01*
X124892858Y-143952381D01*
X125035715Y-144000000D01*
X125083334Y-144047619D01*
X126035715Y-144952381D02*
X125464286Y-144952381D01*
X125750000Y-144952381D02*
X125750000Y-143952381D01*
X125654762Y-144095238D01*
X125559524Y-144190476D01*
X125464286Y-144238095D01*
X113992381Y-109568666D02*
X113516190Y-109902000D01*
X113992381Y-110140095D02*
X112992381Y-110140095D01*
X112992381Y-109759142D01*
X113040000Y-109663904D01*
X113087619Y-109616285D01*
X113182857Y-109568666D01*
X113325714Y-109568666D01*
X113420952Y-109616285D01*
X113468571Y-109663904D01*
X113516190Y-109759142D01*
X113516190Y-110140095D01*
X113992381Y-108616285D02*
X113992381Y-109187714D01*
X113992381Y-108902000D02*
X112992381Y-108902000D01*
X113135238Y-108997238D01*
X113230476Y-109092476D01*
X113278095Y-109187714D01*
X122628381Y-109568666D02*
X122152190Y-109902000D01*
X122628381Y-110140095D02*
X121628381Y-110140095D01*
X121628381Y-109759142D01*
X121676000Y-109663904D01*
X121723619Y-109616285D01*
X121818857Y-109568666D01*
X121961714Y-109568666D01*
X122056952Y-109616285D01*
X122104571Y-109663904D01*
X122152190Y-109759142D01*
X122152190Y-110140095D01*
X121723619Y-109187714D02*
X121676000Y-109140095D01*
X121628381Y-109044857D01*
X121628381Y-108806761D01*
X121676000Y-108711523D01*
X121723619Y-108663904D01*
X121818857Y-108616285D01*
X121914095Y-108616285D01*
X122056952Y-108663904D01*
X122628381Y-109235333D01*
X122628381Y-108616285D01*
X154118381Y-109918666D02*
X153642190Y-110252000D01*
X154118381Y-110490095D02*
X153118381Y-110490095D01*
X153118381Y-110109142D01*
X153166000Y-110013904D01*
X153213619Y-109966285D01*
X153308857Y-109918666D01*
X153451714Y-109918666D01*
X153546952Y-109966285D01*
X153594571Y-110013904D01*
X153642190Y-110109142D01*
X153642190Y-110490095D01*
X153118381Y-109585333D02*
X153118381Y-108966285D01*
X153499333Y-109299619D01*
X153499333Y-109156761D01*
X153546952Y-109061523D01*
X153594571Y-109013904D01*
X153689810Y-108966285D01*
X153927905Y-108966285D01*
X154023143Y-109013904D01*
X154070762Y-109061523D01*
X154118381Y-109156761D01*
X154118381Y-109442476D01*
X154070762Y-109537714D01*
X154023143Y-109585333D01*
X163008381Y-109918666D02*
X162532190Y-110252000D01*
X163008381Y-110490095D02*
X162008381Y-110490095D01*
X162008381Y-110109142D01*
X162056000Y-110013904D01*
X162103619Y-109966285D01*
X162198857Y-109918666D01*
X162341714Y-109918666D01*
X162436952Y-109966285D01*
X162484571Y-110013904D01*
X162532190Y-110109142D01*
X162532190Y-110490095D01*
X162341714Y-109061523D02*
X163008381Y-109061523D01*
X161960762Y-109299619D02*
X162675048Y-109537714D01*
X162675048Y-108918666D01*
X138333334Y-159607143D02*
X138285715Y-159654762D01*
X138142858Y-159702381D01*
X138047620Y-159702381D01*
X137904762Y-159654762D01*
X137809524Y-159559524D01*
X137761905Y-159464286D01*
X137714286Y-159273810D01*
X137714286Y-159130952D01*
X137761905Y-158940476D01*
X137809524Y-158845238D01*
X137904762Y-158750000D01*
X138047620Y-158702381D01*
X138142858Y-158702381D01*
X138285715Y-158750000D01*
X138333334Y-158797619D01*
X138666667Y-158702381D02*
X139285715Y-158702381D01*
X138952381Y-159083333D01*
X139095239Y-159083333D01*
X139190477Y-159130952D01*
X139238096Y-159178571D01*
X139285715Y-159273810D01*
X139285715Y-159511905D01*
X139238096Y-159607143D01*
X139190477Y-159654762D01*
X139095239Y-159702381D01*
X138809524Y-159702381D01*
X138714286Y-159654762D01*
X138666667Y-159607143D01*
X140233334Y-150007143D02*
X140185715Y-150054762D01*
X140042858Y-150102381D01*
X139947620Y-150102381D01*
X139804762Y-150054762D01*
X139709524Y-149959524D01*
X139661905Y-149864286D01*
X139614286Y-149673810D01*
X139614286Y-149530952D01*
X139661905Y-149340476D01*
X139709524Y-149245238D01*
X139804762Y-149150000D01*
X139947620Y-149102381D01*
X140042858Y-149102381D01*
X140185715Y-149150000D01*
X140233334Y-149197619D01*
X141090477Y-149435714D02*
X141090477Y-150102381D01*
X140852381Y-149054762D02*
X140614286Y-149769048D01*
X141233334Y-149769048D01*
X120011905Y-63452381D02*
X120011905Y-62452381D01*
X120250000Y-62452381D01*
X120392858Y-62500000D01*
X120488096Y-62595238D01*
X120535715Y-62690476D01*
X120583334Y-62880952D01*
X120583334Y-63023810D01*
X120535715Y-63214286D01*
X120488096Y-63309524D01*
X120392858Y-63404762D01*
X120250000Y-63452381D01*
X120011905Y-63452381D01*
X121488096Y-62452381D02*
X121011905Y-62452381D01*
X120964286Y-62928571D01*
X121011905Y-62880952D01*
X121107143Y-62833333D01*
X121345239Y-62833333D01*
X121440477Y-62880952D01*
X121488096Y-62928571D01*
X121535715Y-63023810D01*
X121535715Y-63261905D01*
X121488096Y-63357143D01*
X121440477Y-63404762D01*
X121345239Y-63452381D01*
X121107143Y-63452381D01*
X121011905Y-63404762D01*
X120964286Y-63357143D01*
X120628381Y-117252095D02*
X119628381Y-117252095D01*
X119628381Y-117014000D01*
X119676000Y-116871142D01*
X119771238Y-116775904D01*
X119866476Y-116728285D01*
X120056952Y-116680666D01*
X120199810Y-116680666D01*
X120390286Y-116728285D01*
X120485524Y-116775904D01*
X120580762Y-116871142D01*
X120628381Y-117014000D01*
X120628381Y-117252095D01*
X119628381Y-115823523D02*
X119628381Y-116014000D01*
X119676000Y-116109238D01*
X119723619Y-116156857D01*
X119866476Y-116252095D01*
X120056952Y-116299714D01*
X120437905Y-116299714D01*
X120533143Y-116252095D01*
X120580762Y-116204476D01*
X120628381Y-116109238D01*
X120628381Y-115918761D01*
X120580762Y-115823523D01*
X120533143Y-115775904D01*
X120437905Y-115728285D01*
X120199810Y-115728285D01*
X120104571Y-115775904D01*
X120056952Y-115823523D01*
X120009333Y-115918761D01*
X120009333Y-116109238D01*
X120056952Y-116204476D01*
X120104571Y-116252095D01*
X120199810Y-116299714D01*
X122914381Y-117252095D02*
X121914381Y-117252095D01*
X121914381Y-117014000D01*
X121962000Y-116871142D01*
X122057238Y-116775904D01*
X122152476Y-116728285D01*
X122342952Y-116680666D01*
X122485810Y-116680666D01*
X122676286Y-116728285D01*
X122771524Y-116775904D01*
X122866762Y-116871142D01*
X122914381Y-117014000D01*
X122914381Y-117252095D01*
X121914381Y-116347333D02*
X121914381Y-115680666D01*
X122914381Y-116109238D01*
X149832381Y-117602095D02*
X148832381Y-117602095D01*
X148832381Y-117364000D01*
X148880000Y-117221142D01*
X148975238Y-117125904D01*
X149070476Y-117078285D01*
X149260952Y-117030666D01*
X149403810Y-117030666D01*
X149594286Y-117078285D01*
X149689524Y-117125904D01*
X149784762Y-117221142D01*
X149832381Y-117364000D01*
X149832381Y-117602095D01*
X149260952Y-116459238D02*
X149213333Y-116554476D01*
X149165714Y-116602095D01*
X149070476Y-116649714D01*
X149022857Y-116649714D01*
X148927619Y-116602095D01*
X148880000Y-116554476D01*
X148832381Y-116459238D01*
X148832381Y-116268761D01*
X148880000Y-116173523D01*
X148927619Y-116125904D01*
X149022857Y-116078285D01*
X149070476Y-116078285D01*
X149165714Y-116125904D01*
X149213333Y-116173523D01*
X149260952Y-116268761D01*
X149260952Y-116459238D01*
X149308571Y-116554476D01*
X149356190Y-116602095D01*
X149451429Y-116649714D01*
X149641905Y-116649714D01*
X149737143Y-116602095D01*
X149784762Y-116554476D01*
X149832381Y-116459238D01*
X149832381Y-116268761D01*
X149784762Y-116173523D01*
X149737143Y-116125904D01*
X149641905Y-116078285D01*
X149451429Y-116078285D01*
X149356190Y-116125904D01*
X149308571Y-116173523D01*
X149260952Y-116268761D01*
X152118381Y-117602095D02*
X151118381Y-117602095D01*
X151118381Y-117364000D01*
X151166000Y-117221142D01*
X151261238Y-117125904D01*
X151356476Y-117078285D01*
X151546952Y-117030666D01*
X151689810Y-117030666D01*
X151880286Y-117078285D01*
X151975524Y-117125904D01*
X152070762Y-117221142D01*
X152118381Y-117364000D01*
X152118381Y-117602095D01*
X152118381Y-116554476D02*
X152118381Y-116364000D01*
X152070762Y-116268761D01*
X152023143Y-116221142D01*
X151880286Y-116125904D01*
X151689810Y-116078285D01*
X151308857Y-116078285D01*
X151213619Y-116125904D01*
X151166000Y-116173523D01*
X151118381Y-116268761D01*
X151118381Y-116459238D01*
X151166000Y-116554476D01*
X151213619Y-116602095D01*
X151308857Y-116649714D01*
X151546952Y-116649714D01*
X151642190Y-116602095D01*
X151689810Y-116554476D01*
X151737429Y-116459238D01*
X151737429Y-116268761D01*
X151689810Y-116173523D01*
X151642190Y-116125904D01*
X151546952Y-116078285D01*
X154252381Y-118164286D02*
X153252381Y-118164286D01*
X153252381Y-117926191D01*
X153300000Y-117783333D01*
X153395238Y-117688095D01*
X153490476Y-117640476D01*
X153680952Y-117592857D01*
X153823810Y-117592857D01*
X154014286Y-117640476D01*
X154109524Y-117688095D01*
X154204762Y-117783333D01*
X154252381Y-117926191D01*
X154252381Y-118164286D01*
X154252381Y-116640476D02*
X154252381Y-117211905D01*
X154252381Y-116926191D02*
X153252381Y-116926191D01*
X153395238Y-117021429D01*
X153490476Y-117116667D01*
X153538095Y-117211905D01*
X153252381Y-116021429D02*
X153252381Y-115926190D01*
X153300000Y-115830952D01*
X153347619Y-115783333D01*
X153442857Y-115735714D01*
X153633333Y-115688095D01*
X153871429Y-115688095D01*
X154061905Y-115735714D01*
X154157143Y-115783333D01*
X154204762Y-115830952D01*
X154252381Y-115926190D01*
X154252381Y-116021429D01*
X154204762Y-116116667D01*
X154157143Y-116164286D01*
X154061905Y-116211905D01*
X153871429Y-116259524D01*
X153633333Y-116259524D01*
X153442857Y-116211905D01*
X153347619Y-116164286D01*
X153300000Y-116116667D01*
X153252381Y-116021429D01*
X158652381Y-118164286D02*
X157652381Y-118164286D01*
X157652381Y-117926191D01*
X157700000Y-117783333D01*
X157795238Y-117688095D01*
X157890476Y-117640476D01*
X158080952Y-117592857D01*
X158223810Y-117592857D01*
X158414286Y-117640476D01*
X158509524Y-117688095D01*
X158604762Y-117783333D01*
X158652381Y-117926191D01*
X158652381Y-118164286D01*
X158652381Y-116640476D02*
X158652381Y-117211905D01*
X158652381Y-116926191D02*
X157652381Y-116926191D01*
X157795238Y-117021429D01*
X157890476Y-117116667D01*
X157938095Y-117211905D01*
X158652381Y-115688095D02*
X158652381Y-116259524D01*
X158652381Y-115973810D02*
X157652381Y-115973810D01*
X157795238Y-116069048D01*
X157890476Y-116164286D01*
X157938095Y-116259524D01*
X161052381Y-118164286D02*
X160052381Y-118164286D01*
X160052381Y-117926191D01*
X160100000Y-117783333D01*
X160195238Y-117688095D01*
X160290476Y-117640476D01*
X160480952Y-117592857D01*
X160623810Y-117592857D01*
X160814286Y-117640476D01*
X160909524Y-117688095D01*
X161004762Y-117783333D01*
X161052381Y-117926191D01*
X161052381Y-118164286D01*
X161052381Y-116640476D02*
X161052381Y-117211905D01*
X161052381Y-116926191D02*
X160052381Y-116926191D01*
X160195238Y-117021429D01*
X160290476Y-117116667D01*
X160338095Y-117211905D01*
X160147619Y-116259524D02*
X160100000Y-116211905D01*
X160052381Y-116116667D01*
X160052381Y-115878571D01*
X160100000Y-115783333D01*
X160147619Y-115735714D01*
X160242857Y-115688095D01*
X160338095Y-115688095D01*
X160480952Y-115735714D01*
X161052381Y-116307143D01*
X161052381Y-115688095D01*
X163252381Y-118164286D02*
X162252381Y-118164286D01*
X162252381Y-117926191D01*
X162300000Y-117783333D01*
X162395238Y-117688095D01*
X162490476Y-117640476D01*
X162680952Y-117592857D01*
X162823810Y-117592857D01*
X163014286Y-117640476D01*
X163109524Y-117688095D01*
X163204762Y-117783333D01*
X163252381Y-117926191D01*
X163252381Y-118164286D01*
X163252381Y-116640476D02*
X163252381Y-117211905D01*
X163252381Y-116926191D02*
X162252381Y-116926191D01*
X162395238Y-117021429D01*
X162490476Y-117116667D01*
X162538095Y-117211905D01*
X162252381Y-116307143D02*
X162252381Y-115688095D01*
X162633333Y-116021429D01*
X162633333Y-115878571D01*
X162680952Y-115783333D01*
X162728571Y-115735714D01*
X162823810Y-115688095D01*
X163061905Y-115688095D01*
X163157143Y-115735714D01*
X163204762Y-115783333D01*
X163252381Y-115878571D01*
X163252381Y-116164286D01*
X163204762Y-116259524D01*
X163157143Y-116307143D01*
X134957143Y-150102381D02*
X134623809Y-149626190D01*
X134385714Y-150102381D02*
X134385714Y-149102381D01*
X134766667Y-149102381D01*
X134861905Y-149150000D01*
X134909524Y-149197619D01*
X134957143Y-149292857D01*
X134957143Y-149435714D01*
X134909524Y-149530952D01*
X134861905Y-149578571D01*
X134766667Y-149626190D01*
X134385714Y-149626190D01*
X135909524Y-150102381D02*
X135338095Y-150102381D01*
X135623809Y-150102381D02*
X135623809Y-149102381D01*
X135528571Y-149245238D01*
X135433333Y-149340476D01*
X135338095Y-149388095D01*
X136242857Y-149102381D02*
X136861905Y-149102381D01*
X136528571Y-149483333D01*
X136671429Y-149483333D01*
X136766667Y-149530952D01*
X136814286Y-149578571D01*
X136861905Y-149673810D01*
X136861905Y-149911905D01*
X136814286Y-150007143D01*
X136766667Y-150054762D01*
X136671429Y-150102381D01*
X136385714Y-150102381D01*
X136290476Y-150054762D01*
X136242857Y-150007143D01*
X138238095Y-157202381D02*
X138238095Y-158011905D01*
X138285714Y-158107143D01*
X138333333Y-158154762D01*
X138428571Y-158202381D01*
X138619048Y-158202381D01*
X138714286Y-158154762D01*
X138761905Y-158107143D01*
X138809524Y-158011905D01*
X138809524Y-157202381D01*
X139238095Y-157297619D02*
X139285714Y-157250000D01*
X139380952Y-157202381D01*
X139619048Y-157202381D01*
X139714286Y-157250000D01*
X139761905Y-157297619D01*
X139809524Y-157392857D01*
X139809524Y-157488095D01*
X139761905Y-157630952D01*
X139190476Y-158202381D01*
X139809524Y-158202381D01*
X109706381Y-117252095D02*
X108706381Y-117252095D01*
X108706381Y-117014000D01*
X108754000Y-116871142D01*
X108849238Y-116775904D01*
X108944476Y-116728285D01*
X109134952Y-116680666D01*
X109277810Y-116680666D01*
X109468286Y-116728285D01*
X109563524Y-116775904D01*
X109658762Y-116871142D01*
X109706381Y-117014000D01*
X109706381Y-117252095D01*
X109706381Y-115728285D02*
X109706381Y-116299714D01*
X109706381Y-116014000D02*
X108706381Y-116014000D01*
X108849238Y-116109238D01*
X108944476Y-116204476D01*
X108992095Y-116299714D01*
X111992381Y-117252095D02*
X110992381Y-117252095D01*
X110992381Y-117014000D01*
X111040000Y-116871142D01*
X111135238Y-116775904D01*
X111230476Y-116728285D01*
X111420952Y-116680666D01*
X111563810Y-116680666D01*
X111754286Y-116728285D01*
X111849524Y-116775904D01*
X111944762Y-116871142D01*
X111992381Y-117014000D01*
X111992381Y-117252095D01*
X111087619Y-116299714D02*
X111040000Y-116252095D01*
X110992381Y-116156857D01*
X110992381Y-115918761D01*
X111040000Y-115823523D01*
X111087619Y-115775904D01*
X111182857Y-115728285D01*
X111278095Y-115728285D01*
X111420952Y-115775904D01*
X111992381Y-116347333D01*
X111992381Y-115728285D01*
X114278381Y-117252095D02*
X113278381Y-117252095D01*
X113278381Y-117014000D01*
X113326000Y-116871142D01*
X113421238Y-116775904D01*
X113516476Y-116728285D01*
X113706952Y-116680666D01*
X113849810Y-116680666D01*
X114040286Y-116728285D01*
X114135524Y-116775904D01*
X114230762Y-116871142D01*
X114278381Y-117014000D01*
X114278381Y-117252095D01*
X113278381Y-116347333D02*
X113278381Y-115728285D01*
X113659333Y-116061619D01*
X113659333Y-115918761D01*
X113706952Y-115823523D01*
X113754571Y-115775904D01*
X113849810Y-115728285D01*
X114087905Y-115728285D01*
X114183143Y-115775904D01*
X114230762Y-115823523D01*
X114278381Y-115918761D01*
X114278381Y-116204476D01*
X114230762Y-116299714D01*
X114183143Y-116347333D01*
X118342381Y-117252095D02*
X117342381Y-117252095D01*
X117342381Y-117014000D01*
X117390000Y-116871142D01*
X117485238Y-116775904D01*
X117580476Y-116728285D01*
X117770952Y-116680666D01*
X117913810Y-116680666D01*
X118104286Y-116728285D01*
X118199524Y-116775904D01*
X118294762Y-116871142D01*
X118342381Y-117014000D01*
X118342381Y-117252095D01*
X117675714Y-115823523D02*
X118342381Y-115823523D01*
X117294762Y-116061619D02*
X118009048Y-116299714D01*
X118009048Y-115680666D01*
X132857143Y-155166666D02*
X132904762Y-155214285D01*
X132952381Y-155357142D01*
X132952381Y-155452380D01*
X132904762Y-155595238D01*
X132809524Y-155690476D01*
X132714286Y-155738095D01*
X132523810Y-155785714D01*
X132380952Y-155785714D01*
X132190476Y-155738095D01*
X132095238Y-155690476D01*
X132000000Y-155595238D01*
X131952381Y-155452380D01*
X131952381Y-155357142D01*
X132000000Y-155214285D01*
X132047619Y-155166666D01*
X132047619Y-154785714D02*
X132000000Y-154738095D01*
X131952381Y-154642857D01*
X131952381Y-154404761D01*
X132000000Y-154309523D01*
X132047619Y-154261904D01*
X132142857Y-154214285D01*
X132238095Y-154214285D01*
X132380952Y-154261904D01*
X132952381Y-154833333D01*
X132952381Y-154214285D01*
X146404762Y-157461905D02*
X146452381Y-157319048D01*
X146452381Y-157080952D01*
X146404762Y-156985714D01*
X146357143Y-156938095D01*
X146261905Y-156890476D01*
X146166667Y-156890476D01*
X146071429Y-156938095D01*
X146023810Y-156985714D01*
X145976190Y-157080952D01*
X145928571Y-157271429D01*
X145880952Y-157366667D01*
X145833333Y-157414286D01*
X145738095Y-157461905D01*
X145642857Y-157461905D01*
X145547619Y-157414286D01*
X145500000Y-157366667D01*
X145452381Y-157271429D01*
X145452381Y-157033333D01*
X145500000Y-156890476D01*
X146452381Y-156461905D02*
X145452381Y-156461905D01*
X145452381Y-156080952D01*
X145500000Y-155985714D01*
X145547619Y-155938095D01*
X145642857Y-155890476D01*
X145785714Y-155890476D01*
X145880952Y-155938095D01*
X145928571Y-155985714D01*
X145976190Y-156080952D01*
X145976190Y-156461905D01*
X146452381Y-154938095D02*
X146452381Y-155509524D01*
X146452381Y-155223810D02*
X145452381Y-155223810D01*
X145595238Y-155319048D01*
X145690476Y-155414286D01*
X145738095Y-155509524D01*
X143970981Y-130643401D02*
X144038325Y-130778088D01*
X144206684Y-130946447D01*
X144307699Y-130980119D01*
X144375043Y-130980119D01*
X144476058Y-130946447D01*
X144543401Y-130879104D01*
X144577073Y-130778089D01*
X144577073Y-130710745D01*
X144543402Y-130609729D01*
X144442386Y-130441370D01*
X144408714Y-130340355D01*
X144408714Y-130273012D01*
X144442386Y-130171996D01*
X144509729Y-130104653D01*
X144610745Y-130070981D01*
X144678088Y-130070981D01*
X144779103Y-130104653D01*
X144947462Y-130273012D01*
X145014806Y-130407699D01*
X145284180Y-130609729D02*
X144745431Y-131485195D01*
X145385196Y-131114806D01*
X145014806Y-131754569D01*
X145890271Y-131215821D01*
X145486210Y-132225973D02*
X145620897Y-132360660D01*
X145721913Y-132394333D01*
X145789256Y-132394333D01*
X145957615Y-132360661D01*
X146125973Y-132259646D01*
X146395348Y-131990271D01*
X146429019Y-131889256D01*
X146429019Y-131821913D01*
X146395348Y-131720898D01*
X146260660Y-131586210D01*
X146159645Y-131552538D01*
X146092302Y-131552538D01*
X145991286Y-131586210D01*
X145822928Y-131754569D01*
X145789256Y-131855584D01*
X145789255Y-131922928D01*
X145822927Y-132023943D01*
X145957615Y-132158631D01*
X146058630Y-132192302D01*
X146125974Y-132192302D01*
X146226989Y-132158630D01*
X155434263Y-118106683D02*
X155501607Y-118241370D01*
X155669966Y-118409729D01*
X155770981Y-118443401D01*
X155838325Y-118443401D01*
X155939340Y-118409729D01*
X156006683Y-118342386D01*
X156040355Y-118241371D01*
X156040355Y-118174027D01*
X156006684Y-118073012D01*
X155905668Y-117904652D01*
X155871996Y-117803637D01*
X155871996Y-117736294D01*
X155905668Y-117635279D01*
X155973012Y-117567935D01*
X156074027Y-117534263D01*
X156141370Y-117534263D01*
X156242385Y-117567935D01*
X156410745Y-117736294D01*
X156478088Y-117870981D01*
X156747462Y-118073012D02*
X156208714Y-118948477D01*
X156848478Y-118578088D01*
X156478088Y-119217851D01*
X157353553Y-118679103D01*
X157286210Y-120025973D02*
X156882149Y-119621912D01*
X157084179Y-119823942D02*
X157791286Y-119116836D01*
X157622927Y-119150507D01*
X157488240Y-119150507D01*
X157387225Y-119116836D01*
X158195347Y-119655584D02*
X158262690Y-119655584D01*
X158363706Y-119689255D01*
X158532065Y-119857615D01*
X158565737Y-119958630D01*
X158565737Y-120025973D01*
X158532065Y-120126988D01*
X158464721Y-120194332D01*
X158330035Y-120261675D01*
X157521912Y-120261675D01*
X157959645Y-120699408D01*
X129916667Y-143404762D02*
X130059524Y-143452381D01*
X130297620Y-143452381D01*
X130392858Y-143404762D01*
X130440477Y-143357143D01*
X130488096Y-143261905D01*
X130488096Y-143166667D01*
X130440477Y-143071429D01*
X130392858Y-143023810D01*
X130297620Y-142976190D01*
X130107143Y-142928571D01*
X130011905Y-142880952D01*
X129964286Y-142833333D01*
X129916667Y-142738095D01*
X129916667Y-142642857D01*
X129964286Y-142547619D01*
X130011905Y-142500000D01*
X130107143Y-142452381D01*
X130345239Y-142452381D01*
X130488096Y-142500000D01*
X130821429Y-142452381D02*
X131059524Y-143452381D01*
X131250001Y-142738095D01*
X131440477Y-143452381D01*
X131678572Y-142452381D01*
X132488096Y-142452381D02*
X132297619Y-142452381D01*
X132202381Y-142500000D01*
X132154762Y-142547619D01*
X132059524Y-142690476D01*
X132011905Y-142880952D01*
X132011905Y-143261905D01*
X132059524Y-143357143D01*
X132107143Y-143404762D01*
X132202381Y-143452381D01*
X132392858Y-143452381D01*
X132488096Y-143404762D01*
X132535715Y-143357143D01*
X132583334Y-143261905D01*
X132583334Y-143023810D01*
X132535715Y-142928571D01*
X132488096Y-142880952D01*
X132392858Y-142833333D01*
X132202381Y-142833333D01*
X132107143Y-142880952D01*
X132059524Y-142928571D01*
X132011905Y-143023810D01*
X139916667Y-143404762D02*
X140059524Y-143452381D01*
X140297620Y-143452381D01*
X140392858Y-143404762D01*
X140440477Y-143357143D01*
X140488096Y-143261905D01*
X140488096Y-143166667D01*
X140440477Y-143071429D01*
X140392858Y-143023810D01*
X140297620Y-142976190D01*
X140107143Y-142928571D01*
X140011905Y-142880952D01*
X139964286Y-142833333D01*
X139916667Y-142738095D01*
X139916667Y-142642857D01*
X139964286Y-142547619D01*
X140011905Y-142500000D01*
X140107143Y-142452381D01*
X140345239Y-142452381D01*
X140488096Y-142500000D01*
X140821429Y-142452381D02*
X141059524Y-143452381D01*
X141250001Y-142738095D01*
X141440477Y-143452381D01*
X141678572Y-142452381D01*
X141964286Y-142452381D02*
X142630953Y-142452381D01*
X142202381Y-143452381D01*
X123485714Y-63402381D02*
X123485714Y-62402381D01*
X123723809Y-62402381D01*
X123866667Y-62450000D01*
X123961905Y-62545238D01*
X124009524Y-62640476D01*
X124057143Y-62830952D01*
X124057143Y-62973810D01*
X124009524Y-63164286D01*
X123961905Y-63259524D01*
X123866667Y-63354762D01*
X123723809Y-63402381D01*
X123485714Y-63402381D01*
X125009524Y-63402381D02*
X124438095Y-63402381D01*
X124723809Y-63402381D02*
X124723809Y-62402381D01*
X124628571Y-62545238D01*
X124533333Y-62640476D01*
X124438095Y-62688095D01*
X125866667Y-62735714D02*
X125866667Y-63402381D01*
X125628571Y-62354762D02*
X125390476Y-63069048D01*
X126009524Y-63069048D01*
M02*
