G04 #@! TF.FileFunction,Soldermask,Top*
%FSLAX46Y46*%
G04 Gerber Fmt 4.6, Leading zero omitted, Abs format (unit mm)*
G04 Created by KiCad (PCBNEW 4.0.5) date 03/19/17 00:11:40*
%MOMM*%
%LPD*%
G01*
G04 APERTURE LIST*
%ADD10C,0.100000*%
%ADD11C,3.100000*%
%ADD12C,1.800000*%
%ADD13O,1.800000X2.500000*%
%ADD14C,1.400000*%
%ADD15R,1.900000X1.650000*%
%ADD16R,1.850000X0.850000*%
%ADD17R,1.575000X1.575000*%
%ADD18R,1.600000X1.100000*%
%ADD19R,1.573480X2.297380*%
%ADD20R,2.774900X2.297380*%
%ADD21R,1.873200X2.500580*%
%ADD22R,0.849580X1.779220*%
%ADD23O,3.414980X1.906220*%
%ADD24R,1.900000X1.700000*%
%ADD25R,1.700000X1.900000*%
%ADD26R,3.600000X1.900000*%
%ADD27R,1.650000X1.900000*%
%ADD28R,2.150000X0.850000*%
%ADD29R,2.400000X2.000000*%
%ADD30R,0.450000X2.200000*%
%ADD31R,3.900000X0.650000*%
%ADD32C,5.100000*%
%ADD33R,2.520000X0.270000*%
%ADD34R,3.500000X0.450000*%
%ADD35R,2.800000X0.450000*%
%ADD36R,0.900000X0.900000*%
%ADD37R,0.270000X0.270000*%
%ADD38R,0.650000X0.650000*%
%ADD39R,0.520000X0.270000*%
%ADD40R,1.150000X0.650000*%
%ADD41R,0.900000X0.650000*%
%ADD42R,0.170000X0.520000*%
%ADD43R,0.270000X0.520000*%
%ADD44R,0.220000X0.220000*%
%ADD45R,0.420000X0.250000*%
%ADD46R,0.420000X0.420000*%
%ADD47R,1.200000X0.630000*%
%ADD48R,1.400000X0.630000*%
%ADD49R,0.650000X0.800000*%
%ADD50R,0.270000X0.420000*%
%ADD51R,0.800000X0.650000*%
%ADD52C,0.220000*%
%ADD53C,0.600000*%
%ADD54R,1.050000X1.960000*%
%ADD55R,1.400000X1.400000*%
%ADD56R,0.800000X1.000000*%
G04 APERTURE END LIST*
D10*
D11*
X131500000Y-157750000D03*
D12*
X92785000Y-159260000D03*
X94785000Y-159260000D03*
D13*
X117285000Y-154760000D03*
X117285000Y-159760000D03*
X128535000Y-159760000D03*
X128535000Y-154760000D03*
D14*
X89785000Y-155260000D03*
D15*
X87849155Y-151548315D03*
X90349155Y-151548315D03*
D16*
X97499155Y-155948315D03*
X97499155Y-156598315D03*
X97499155Y-157248315D03*
X97499155Y-157898315D03*
X101899155Y-157898315D03*
X101899155Y-157248315D03*
X101899155Y-156598315D03*
X101899155Y-155948315D03*
D17*
X79095899Y-96394657D03*
X79095899Y-95219657D03*
X80270899Y-96394657D03*
X80270899Y-95219657D03*
D11*
X73500000Y-122250000D03*
D18*
X94950000Y-146600000D03*
X94950000Y-150000000D03*
X100050000Y-146600000D03*
X100050000Y-150000000D03*
D15*
X94976000Y-154686000D03*
X92476000Y-154686000D03*
D19*
X80160955Y-160848315D03*
X81837355Y-160848315D03*
D20*
X83912535Y-160848315D03*
X78085775Y-160848315D03*
D21*
X83460415Y-158549615D03*
X78537895Y-158549615D03*
D22*
X79698675Y-158188935D03*
X80348915Y-158188935D03*
X80999155Y-158188935D03*
X81649395Y-158188935D03*
X82299635Y-158188935D03*
D18*
X104950000Y-146550000D03*
X104950000Y-149950000D03*
X110050000Y-146550000D03*
X110050000Y-149950000D03*
D23*
X109728000Y-155702000D03*
X109728000Y-158242000D03*
D24*
X104250000Y-158100000D03*
X106950000Y-158100000D03*
X90449155Y-145248315D03*
X87749155Y-145248315D03*
D15*
X90349155Y-149448315D03*
X87849155Y-149448315D03*
X94976000Y-156718000D03*
X92476000Y-156718000D03*
X100950000Y-154000000D03*
X98450000Y-154000000D03*
D25*
X84599155Y-66120000D03*
X84599155Y-63420000D03*
D24*
X98350000Y-152000000D03*
X101050000Y-152000000D03*
D25*
X79999155Y-63398315D03*
X79999155Y-66098315D03*
D24*
X104250000Y-156100000D03*
X106950000Y-156100000D03*
X87749155Y-147348315D03*
X90449155Y-147348315D03*
X87549155Y-156748315D03*
X90249155Y-156748315D03*
X90449155Y-153648315D03*
X87749155Y-153648315D03*
D18*
X95650000Y-138800000D03*
X95650000Y-142200000D03*
X100750000Y-138800000D03*
X100750000Y-142200000D03*
X103650000Y-138800000D03*
X103650000Y-142200000D03*
X108750000Y-138800000D03*
X108750000Y-142200000D03*
D26*
X104000000Y-151900000D03*
X108000000Y-151900000D03*
D15*
X104250000Y-154100000D03*
X106750000Y-154100000D03*
X104250000Y-160100000D03*
X106750000Y-160100000D03*
D27*
X82885000Y-148610000D03*
X82885000Y-151110000D03*
D28*
X72285000Y-143035000D03*
X72285000Y-143685000D03*
X72285000Y-144335000D03*
X72285000Y-144985000D03*
X72285000Y-145635000D03*
X72285000Y-146285000D03*
X72285000Y-146935000D03*
X72285000Y-147585000D03*
X72285000Y-148235000D03*
X72285000Y-148885000D03*
X72285000Y-149535000D03*
X72285000Y-150185000D03*
X72285000Y-150835000D03*
X72285000Y-151485000D03*
X79485000Y-151485000D03*
X79485000Y-150835000D03*
X79485000Y-150185000D03*
X79485000Y-149535000D03*
X79485000Y-148885000D03*
X79485000Y-148235000D03*
X79485000Y-147585000D03*
X79485000Y-146935000D03*
X79485000Y-146285000D03*
X79485000Y-145635000D03*
X79485000Y-144985000D03*
X79485000Y-144335000D03*
X79485000Y-143685000D03*
X79485000Y-143035000D03*
D29*
X78985000Y-154860000D03*
X82985000Y-154860000D03*
D24*
X76635000Y-153710000D03*
X73935000Y-153710000D03*
D25*
X82296000Y-66120000D03*
X82296000Y-63420000D03*
D11*
X131500000Y-122250000D03*
X131500000Y-64250000D03*
X73500000Y-64250000D03*
X73500000Y-157750000D03*
D30*
X74235000Y-132260000D03*
X78235000Y-132260000D03*
D31*
X76435000Y-132260000D03*
D32*
X76235000Y-132260000D03*
D31*
X76108000Y-131760000D03*
D33*
X76175000Y-134260000D03*
D34*
X76489000Y-133260000D03*
D31*
X76108000Y-132760000D03*
D33*
X76175000Y-130260000D03*
D35*
X75925000Y-133760000D03*
D34*
X76489000Y-131260000D03*
D35*
X75925000Y-130760000D03*
D10*
G36*
X77214314Y-130297988D02*
X77421146Y-130124436D01*
X78375686Y-131262012D01*
X78168854Y-131435564D01*
X77214314Y-130297988D01*
X77214314Y-130297988D01*
G37*
G36*
X74310966Y-131562649D02*
X73966246Y-131273395D01*
X74609034Y-130507351D01*
X74953754Y-130796605D01*
X74310966Y-131562649D01*
X74310966Y-131562649D01*
G37*
G36*
X73966246Y-133246605D02*
X74310966Y-132957351D01*
X74953754Y-133723395D01*
X74609034Y-134012649D01*
X73966246Y-133246605D01*
X73966246Y-133246605D01*
G37*
G36*
X77421146Y-134395564D02*
X77214314Y-134222012D01*
X78168854Y-133084436D01*
X78375686Y-133257988D01*
X77421146Y-134395564D01*
X77421146Y-134395564D01*
G37*
D36*
X73885000Y-132260000D03*
X78585000Y-132260000D03*
D37*
X77295000Y-130260000D03*
D38*
X78065000Y-131260000D03*
D39*
X78005000Y-133260000D03*
D37*
X77295000Y-134260000D03*
D38*
X74745000Y-130760000D03*
D40*
X74485000Y-131760000D03*
D38*
X74755000Y-133760000D03*
D41*
X74395000Y-132760000D03*
D42*
X74265000Y-131420000D03*
D10*
G36*
X74130028Y-131263558D02*
X74271442Y-131095028D01*
X74439972Y-131236442D01*
X74298558Y-131404972D01*
X74130028Y-131263558D01*
X74130028Y-131263558D01*
G37*
D43*
X74235000Y-131600000D03*
D40*
X74955000Y-131760000D03*
X75455000Y-131760000D03*
X78375000Y-132260000D03*
D10*
G36*
X77887861Y-133806483D02*
X77719332Y-133665069D01*
X78182139Y-133113517D01*
X78350668Y-133254931D01*
X77887861Y-133806483D01*
X77887861Y-133806483D01*
G37*
D44*
X78125000Y-133300000D03*
X78225000Y-131330000D03*
D45*
X74345000Y-131750000D03*
D46*
X74075000Y-132270000D03*
D37*
X77165000Y-134260000D03*
X77065000Y-134260000D03*
D38*
X76925000Y-134260000D03*
X76785000Y-134260000D03*
X76605000Y-134260000D03*
D47*
X77985000Y-132260000D03*
D48*
X77495000Y-132260000D03*
D49*
X74235000Y-132760000D03*
D50*
X74235000Y-133060000D03*
D10*
G36*
X74634230Y-133901218D02*
X74364259Y-133579479D01*
X74555770Y-133418782D01*
X74825741Y-133740521D01*
X74634230Y-133901218D01*
X74634230Y-133901218D01*
G37*
D50*
X78235000Y-133060000D03*
D49*
X78235000Y-132780000D03*
X78235000Y-132510000D03*
D51*
X77745000Y-133260000D03*
D10*
G36*
X74096398Y-133237781D02*
X74287910Y-133077084D01*
X74493602Y-133322219D01*
X74302090Y-133482916D01*
X74096398Y-133237781D01*
X74096398Y-133237781D01*
G37*
D52*
X74245000Y-133200000D03*
D53*
X78215000Y-133190000D03*
D30*
X111735000Y-132260000D03*
X115735000Y-132260000D03*
D31*
X113935000Y-132260000D03*
D32*
X113735000Y-132260000D03*
D31*
X113608000Y-131760000D03*
D33*
X113675000Y-134260000D03*
D34*
X113989000Y-133260000D03*
D31*
X113608000Y-132760000D03*
D33*
X113675000Y-130260000D03*
D35*
X113425000Y-133760000D03*
D34*
X113989000Y-131260000D03*
D35*
X113425000Y-130760000D03*
D10*
G36*
X114714314Y-130297988D02*
X114921146Y-130124436D01*
X115875686Y-131262012D01*
X115668854Y-131435564D01*
X114714314Y-130297988D01*
X114714314Y-130297988D01*
G37*
G36*
X111810966Y-131562649D02*
X111466246Y-131273395D01*
X112109034Y-130507351D01*
X112453754Y-130796605D01*
X111810966Y-131562649D01*
X111810966Y-131562649D01*
G37*
G36*
X111466246Y-133246605D02*
X111810966Y-132957351D01*
X112453754Y-133723395D01*
X112109034Y-134012649D01*
X111466246Y-133246605D01*
X111466246Y-133246605D01*
G37*
G36*
X114921146Y-134395564D02*
X114714314Y-134222012D01*
X115668854Y-133084436D01*
X115875686Y-133257988D01*
X114921146Y-134395564D01*
X114921146Y-134395564D01*
G37*
D36*
X111385000Y-132260000D03*
X116085000Y-132260000D03*
D37*
X114795000Y-130260000D03*
D38*
X115565000Y-131260000D03*
D39*
X115505000Y-133260000D03*
D37*
X114795000Y-134260000D03*
D38*
X112245000Y-130760000D03*
D40*
X111985000Y-131760000D03*
D38*
X112255000Y-133760000D03*
D41*
X111895000Y-132760000D03*
D42*
X111765000Y-131420000D03*
D10*
G36*
X111630028Y-131263558D02*
X111771442Y-131095028D01*
X111939972Y-131236442D01*
X111798558Y-131404972D01*
X111630028Y-131263558D01*
X111630028Y-131263558D01*
G37*
D43*
X111735000Y-131600000D03*
D40*
X112455000Y-131760000D03*
X112955000Y-131760000D03*
X115875000Y-132260000D03*
D10*
G36*
X115387861Y-133806483D02*
X115219332Y-133665069D01*
X115682139Y-133113517D01*
X115850668Y-133254931D01*
X115387861Y-133806483D01*
X115387861Y-133806483D01*
G37*
D44*
X115625000Y-133300000D03*
X115725000Y-131330000D03*
D45*
X111845000Y-131750000D03*
D46*
X111575000Y-132270000D03*
D37*
X114665000Y-134260000D03*
X114565000Y-134260000D03*
D38*
X114425000Y-134260000D03*
X114285000Y-134260000D03*
X114105000Y-134260000D03*
D47*
X115485000Y-132260000D03*
D48*
X114995000Y-132260000D03*
D49*
X111735000Y-132760000D03*
D50*
X111735000Y-133060000D03*
D10*
G36*
X112134230Y-133901218D02*
X111864259Y-133579479D01*
X112055770Y-133418782D01*
X112325741Y-133740521D01*
X112134230Y-133901218D01*
X112134230Y-133901218D01*
G37*
D50*
X115735000Y-133060000D03*
D49*
X115735000Y-132780000D03*
X115735000Y-132510000D03*
D51*
X115245000Y-133260000D03*
D10*
G36*
X111596398Y-133237781D02*
X111787910Y-133077084D01*
X111993602Y-133322219D01*
X111802090Y-133482916D01*
X111596398Y-133237781D01*
X111596398Y-133237781D01*
G37*
D52*
X111745000Y-133200000D03*
D53*
X115715000Y-133190000D03*
D30*
X88235000Y-132260000D03*
X92235000Y-132260000D03*
D31*
X90435000Y-132260000D03*
D32*
X90235000Y-132260000D03*
D31*
X90108000Y-131760000D03*
D33*
X90175000Y-134260000D03*
D34*
X90489000Y-133260000D03*
D31*
X90108000Y-132760000D03*
D33*
X90175000Y-130260000D03*
D35*
X89925000Y-133760000D03*
D34*
X90489000Y-131260000D03*
D35*
X89925000Y-130760000D03*
D10*
G36*
X91214314Y-130297988D02*
X91421146Y-130124436D01*
X92375686Y-131262012D01*
X92168854Y-131435564D01*
X91214314Y-130297988D01*
X91214314Y-130297988D01*
G37*
G36*
X88310966Y-131562649D02*
X87966246Y-131273395D01*
X88609034Y-130507351D01*
X88953754Y-130796605D01*
X88310966Y-131562649D01*
X88310966Y-131562649D01*
G37*
G36*
X87966246Y-133246605D02*
X88310966Y-132957351D01*
X88953754Y-133723395D01*
X88609034Y-134012649D01*
X87966246Y-133246605D01*
X87966246Y-133246605D01*
G37*
G36*
X91421146Y-134395564D02*
X91214314Y-134222012D01*
X92168854Y-133084436D01*
X92375686Y-133257988D01*
X91421146Y-134395564D01*
X91421146Y-134395564D01*
G37*
D36*
X87885000Y-132260000D03*
X92585000Y-132260000D03*
D37*
X91295000Y-130260000D03*
D38*
X92065000Y-131260000D03*
D39*
X92005000Y-133260000D03*
D37*
X91295000Y-134260000D03*
D38*
X88745000Y-130760000D03*
D40*
X88485000Y-131760000D03*
D38*
X88755000Y-133760000D03*
D41*
X88395000Y-132760000D03*
D42*
X88265000Y-131420000D03*
D10*
G36*
X88130028Y-131263558D02*
X88271442Y-131095028D01*
X88439972Y-131236442D01*
X88298558Y-131404972D01*
X88130028Y-131263558D01*
X88130028Y-131263558D01*
G37*
D43*
X88235000Y-131600000D03*
D40*
X88955000Y-131760000D03*
X89455000Y-131760000D03*
X92375000Y-132260000D03*
D10*
G36*
X91887861Y-133806483D02*
X91719332Y-133665069D01*
X92182139Y-133113517D01*
X92350668Y-133254931D01*
X91887861Y-133806483D01*
X91887861Y-133806483D01*
G37*
D44*
X92125000Y-133300000D03*
X92225000Y-131330000D03*
D45*
X88345000Y-131750000D03*
D46*
X88075000Y-132270000D03*
D37*
X91165000Y-134260000D03*
X91065000Y-134260000D03*
D38*
X90925000Y-134260000D03*
X90785000Y-134260000D03*
X90605000Y-134260000D03*
D47*
X91985000Y-132260000D03*
D48*
X91495000Y-132260000D03*
D49*
X88235000Y-132760000D03*
D50*
X88235000Y-133060000D03*
D10*
G36*
X88634230Y-133901218D02*
X88364259Y-133579479D01*
X88555770Y-133418782D01*
X88825741Y-133740521D01*
X88634230Y-133901218D01*
X88634230Y-133901218D01*
G37*
D50*
X92235000Y-133060000D03*
D49*
X92235000Y-132780000D03*
X92235000Y-132510000D03*
D51*
X91745000Y-133260000D03*
D10*
G36*
X88096398Y-133237781D02*
X88287910Y-133077084D01*
X88493602Y-133322219D01*
X88302090Y-133482916D01*
X88096398Y-133237781D01*
X88096398Y-133237781D01*
G37*
D52*
X88245000Y-133200000D03*
D53*
X92215000Y-133190000D03*
D30*
X81235000Y-139260000D03*
X85235000Y-139260000D03*
D31*
X83435000Y-139260000D03*
D32*
X83235000Y-139260000D03*
D31*
X83108000Y-138760000D03*
D33*
X83175000Y-141260000D03*
D34*
X83489000Y-140260000D03*
D31*
X83108000Y-139760000D03*
D33*
X83175000Y-137260000D03*
D35*
X82925000Y-140760000D03*
D34*
X83489000Y-138260000D03*
D35*
X82925000Y-137760000D03*
D10*
G36*
X84214314Y-137297988D02*
X84421146Y-137124436D01*
X85375686Y-138262012D01*
X85168854Y-138435564D01*
X84214314Y-137297988D01*
X84214314Y-137297988D01*
G37*
G36*
X81310966Y-138562649D02*
X80966246Y-138273395D01*
X81609034Y-137507351D01*
X81953754Y-137796605D01*
X81310966Y-138562649D01*
X81310966Y-138562649D01*
G37*
G36*
X80966246Y-140246605D02*
X81310966Y-139957351D01*
X81953754Y-140723395D01*
X81609034Y-141012649D01*
X80966246Y-140246605D01*
X80966246Y-140246605D01*
G37*
G36*
X84421146Y-141395564D02*
X84214314Y-141222012D01*
X85168854Y-140084436D01*
X85375686Y-140257988D01*
X84421146Y-141395564D01*
X84421146Y-141395564D01*
G37*
D36*
X80885000Y-139260000D03*
X85585000Y-139260000D03*
D37*
X84295000Y-137260000D03*
D38*
X85065000Y-138260000D03*
D39*
X85005000Y-140260000D03*
D37*
X84295000Y-141260000D03*
D38*
X81745000Y-137760000D03*
D40*
X81485000Y-138760000D03*
D38*
X81755000Y-140760000D03*
D41*
X81395000Y-139760000D03*
D42*
X81265000Y-138420000D03*
D10*
G36*
X81130028Y-138263558D02*
X81271442Y-138095028D01*
X81439972Y-138236442D01*
X81298558Y-138404972D01*
X81130028Y-138263558D01*
X81130028Y-138263558D01*
G37*
D43*
X81235000Y-138600000D03*
D40*
X81955000Y-138760000D03*
X82455000Y-138760000D03*
X85375000Y-139260000D03*
D10*
G36*
X84887861Y-140806483D02*
X84719332Y-140665069D01*
X85182139Y-140113517D01*
X85350668Y-140254931D01*
X84887861Y-140806483D01*
X84887861Y-140806483D01*
G37*
D44*
X85125000Y-140300000D03*
X85225000Y-138330000D03*
D45*
X81345000Y-138750000D03*
D46*
X81075000Y-139270000D03*
D37*
X84165000Y-141260000D03*
X84065000Y-141260000D03*
D38*
X83925000Y-141260000D03*
X83785000Y-141260000D03*
X83605000Y-141260000D03*
D47*
X84985000Y-139260000D03*
D48*
X84495000Y-139260000D03*
D49*
X81235000Y-139760000D03*
D50*
X81235000Y-140060000D03*
D10*
G36*
X81634230Y-140901218D02*
X81364259Y-140579479D01*
X81555770Y-140418782D01*
X81825741Y-140740521D01*
X81634230Y-140901218D01*
X81634230Y-140901218D01*
G37*
D50*
X85235000Y-140060000D03*
D49*
X85235000Y-139780000D03*
X85235000Y-139510000D03*
D51*
X84745000Y-140260000D03*
D10*
G36*
X81096398Y-140237781D02*
X81287910Y-140077084D01*
X81493602Y-140322219D01*
X81302090Y-140482916D01*
X81096398Y-140237781D01*
X81096398Y-140237781D01*
G37*
D52*
X81245000Y-140200000D03*
D53*
X85215000Y-140190000D03*
D30*
X119235000Y-139760000D03*
X123235000Y-139760000D03*
D31*
X121435000Y-139760000D03*
D32*
X121235000Y-139760000D03*
D31*
X121108000Y-139260000D03*
D33*
X121175000Y-141760000D03*
D34*
X121489000Y-140760000D03*
D31*
X121108000Y-140260000D03*
D33*
X121175000Y-137760000D03*
D35*
X120925000Y-141260000D03*
D34*
X121489000Y-138760000D03*
D35*
X120925000Y-138260000D03*
D10*
G36*
X122214314Y-137797988D02*
X122421146Y-137624436D01*
X123375686Y-138762012D01*
X123168854Y-138935564D01*
X122214314Y-137797988D01*
X122214314Y-137797988D01*
G37*
G36*
X119310966Y-139062649D02*
X118966246Y-138773395D01*
X119609034Y-138007351D01*
X119953754Y-138296605D01*
X119310966Y-139062649D01*
X119310966Y-139062649D01*
G37*
G36*
X118966246Y-140746605D02*
X119310966Y-140457351D01*
X119953754Y-141223395D01*
X119609034Y-141512649D01*
X118966246Y-140746605D01*
X118966246Y-140746605D01*
G37*
G36*
X122421146Y-141895564D02*
X122214314Y-141722012D01*
X123168854Y-140584436D01*
X123375686Y-140757988D01*
X122421146Y-141895564D01*
X122421146Y-141895564D01*
G37*
D36*
X118885000Y-139760000D03*
X123585000Y-139760000D03*
D37*
X122295000Y-137760000D03*
D38*
X123065000Y-138760000D03*
D39*
X123005000Y-140760000D03*
D37*
X122295000Y-141760000D03*
D38*
X119745000Y-138260000D03*
D40*
X119485000Y-139260000D03*
D38*
X119755000Y-141260000D03*
D41*
X119395000Y-140260000D03*
D42*
X119265000Y-138920000D03*
D10*
G36*
X119130028Y-138763558D02*
X119271442Y-138595028D01*
X119439972Y-138736442D01*
X119298558Y-138904972D01*
X119130028Y-138763558D01*
X119130028Y-138763558D01*
G37*
D43*
X119235000Y-139100000D03*
D40*
X119955000Y-139260000D03*
X120455000Y-139260000D03*
X123375000Y-139760000D03*
D10*
G36*
X122887861Y-141306483D02*
X122719332Y-141165069D01*
X123182139Y-140613517D01*
X123350668Y-140754931D01*
X122887861Y-141306483D01*
X122887861Y-141306483D01*
G37*
D44*
X123125000Y-140800000D03*
X123225000Y-138830000D03*
D45*
X119345000Y-139250000D03*
D46*
X119075000Y-139770000D03*
D37*
X122165000Y-141760000D03*
X122065000Y-141760000D03*
D38*
X121925000Y-141760000D03*
X121785000Y-141760000D03*
X121605000Y-141760000D03*
D47*
X122985000Y-139760000D03*
D48*
X122495000Y-139760000D03*
D49*
X119235000Y-140260000D03*
D50*
X119235000Y-140560000D03*
D10*
G36*
X119634230Y-141401218D02*
X119364259Y-141079479D01*
X119555770Y-140918782D01*
X119825741Y-141240521D01*
X119634230Y-141401218D01*
X119634230Y-141401218D01*
G37*
D50*
X123235000Y-140560000D03*
D49*
X123235000Y-140280000D03*
X123235000Y-140010000D03*
D51*
X122745000Y-140760000D03*
D10*
G36*
X119096398Y-140737781D02*
X119287910Y-140577084D01*
X119493602Y-140822219D01*
X119302090Y-140982916D01*
X119096398Y-140737781D01*
X119096398Y-140737781D01*
G37*
D52*
X119245000Y-140700000D03*
D53*
X123215000Y-140690000D03*
D30*
X81235000Y-125260000D03*
X85235000Y-125260000D03*
D31*
X83435000Y-125260000D03*
D32*
X83235000Y-125260000D03*
D31*
X83108000Y-124760000D03*
D33*
X83175000Y-127260000D03*
D34*
X83489000Y-126260000D03*
D31*
X83108000Y-125760000D03*
D33*
X83175000Y-123260000D03*
D35*
X82925000Y-126760000D03*
D34*
X83489000Y-124260000D03*
D35*
X82925000Y-123760000D03*
D10*
G36*
X84214314Y-123297988D02*
X84421146Y-123124436D01*
X85375686Y-124262012D01*
X85168854Y-124435564D01*
X84214314Y-123297988D01*
X84214314Y-123297988D01*
G37*
G36*
X81310966Y-124562649D02*
X80966246Y-124273395D01*
X81609034Y-123507351D01*
X81953754Y-123796605D01*
X81310966Y-124562649D01*
X81310966Y-124562649D01*
G37*
G36*
X80966246Y-126246605D02*
X81310966Y-125957351D01*
X81953754Y-126723395D01*
X81609034Y-127012649D01*
X80966246Y-126246605D01*
X80966246Y-126246605D01*
G37*
G36*
X84421146Y-127395564D02*
X84214314Y-127222012D01*
X85168854Y-126084436D01*
X85375686Y-126257988D01*
X84421146Y-127395564D01*
X84421146Y-127395564D01*
G37*
D36*
X80885000Y-125260000D03*
X85585000Y-125260000D03*
D37*
X84295000Y-123260000D03*
D38*
X85065000Y-124260000D03*
D39*
X85005000Y-126260000D03*
D37*
X84295000Y-127260000D03*
D38*
X81745000Y-123760000D03*
D40*
X81485000Y-124760000D03*
D38*
X81755000Y-126760000D03*
D41*
X81395000Y-125760000D03*
D42*
X81265000Y-124420000D03*
D10*
G36*
X81130028Y-124263558D02*
X81271442Y-124095028D01*
X81439972Y-124236442D01*
X81298558Y-124404972D01*
X81130028Y-124263558D01*
X81130028Y-124263558D01*
G37*
D43*
X81235000Y-124600000D03*
D40*
X81955000Y-124760000D03*
X82455000Y-124760000D03*
X85375000Y-125260000D03*
D10*
G36*
X84887861Y-126806483D02*
X84719332Y-126665069D01*
X85182139Y-126113517D01*
X85350668Y-126254931D01*
X84887861Y-126806483D01*
X84887861Y-126806483D01*
G37*
D44*
X85125000Y-126300000D03*
X85225000Y-124330000D03*
D45*
X81345000Y-124750000D03*
D46*
X81075000Y-125270000D03*
D37*
X84165000Y-127260000D03*
X84065000Y-127260000D03*
D38*
X83925000Y-127260000D03*
X83785000Y-127260000D03*
X83605000Y-127260000D03*
D47*
X84985000Y-125260000D03*
D48*
X84495000Y-125260000D03*
D49*
X81235000Y-125760000D03*
D50*
X81235000Y-126060000D03*
D10*
G36*
X81634230Y-126901218D02*
X81364259Y-126579479D01*
X81555770Y-126418782D01*
X81825741Y-126740521D01*
X81634230Y-126901218D01*
X81634230Y-126901218D01*
G37*
D50*
X85235000Y-126060000D03*
D49*
X85235000Y-125780000D03*
X85235000Y-125510000D03*
D51*
X84745000Y-126260000D03*
D10*
G36*
X81096398Y-126237781D02*
X81287910Y-126077084D01*
X81493602Y-126322219D01*
X81302090Y-126482916D01*
X81096398Y-126237781D01*
X81096398Y-126237781D01*
G37*
D52*
X81245000Y-126200000D03*
D53*
X85215000Y-126190000D03*
D30*
X126735000Y-132260000D03*
X130735000Y-132260000D03*
D31*
X128935000Y-132260000D03*
D32*
X128735000Y-132260000D03*
D31*
X128608000Y-131760000D03*
D33*
X128675000Y-134260000D03*
D34*
X128989000Y-133260000D03*
D31*
X128608000Y-132760000D03*
D33*
X128675000Y-130260000D03*
D35*
X128425000Y-133760000D03*
D34*
X128989000Y-131260000D03*
D35*
X128425000Y-130760000D03*
D10*
G36*
X129714314Y-130297988D02*
X129921146Y-130124436D01*
X130875686Y-131262012D01*
X130668854Y-131435564D01*
X129714314Y-130297988D01*
X129714314Y-130297988D01*
G37*
G36*
X126810966Y-131562649D02*
X126466246Y-131273395D01*
X127109034Y-130507351D01*
X127453754Y-130796605D01*
X126810966Y-131562649D01*
X126810966Y-131562649D01*
G37*
G36*
X126466246Y-133246605D02*
X126810966Y-132957351D01*
X127453754Y-133723395D01*
X127109034Y-134012649D01*
X126466246Y-133246605D01*
X126466246Y-133246605D01*
G37*
G36*
X129921146Y-134395564D02*
X129714314Y-134222012D01*
X130668854Y-133084436D01*
X130875686Y-133257988D01*
X129921146Y-134395564D01*
X129921146Y-134395564D01*
G37*
D36*
X126385000Y-132260000D03*
X131085000Y-132260000D03*
D37*
X129795000Y-130260000D03*
D38*
X130565000Y-131260000D03*
D39*
X130505000Y-133260000D03*
D37*
X129795000Y-134260000D03*
D38*
X127245000Y-130760000D03*
D40*
X126985000Y-131760000D03*
D38*
X127255000Y-133760000D03*
D41*
X126895000Y-132760000D03*
D42*
X126765000Y-131420000D03*
D10*
G36*
X126630028Y-131263558D02*
X126771442Y-131095028D01*
X126939972Y-131236442D01*
X126798558Y-131404972D01*
X126630028Y-131263558D01*
X126630028Y-131263558D01*
G37*
D43*
X126735000Y-131600000D03*
D40*
X127455000Y-131760000D03*
X127955000Y-131760000D03*
X130875000Y-132260000D03*
D10*
G36*
X130387861Y-133806483D02*
X130219332Y-133665069D01*
X130682139Y-133113517D01*
X130850668Y-133254931D01*
X130387861Y-133806483D01*
X130387861Y-133806483D01*
G37*
D44*
X130625000Y-133300000D03*
X130725000Y-131330000D03*
D45*
X126845000Y-131750000D03*
D46*
X126575000Y-132270000D03*
D37*
X129665000Y-134260000D03*
X129565000Y-134260000D03*
D38*
X129425000Y-134260000D03*
X129285000Y-134260000D03*
X129105000Y-134260000D03*
D47*
X130485000Y-132260000D03*
D48*
X129995000Y-132260000D03*
D49*
X126735000Y-132760000D03*
D50*
X126735000Y-133060000D03*
D10*
G36*
X127134230Y-133901218D02*
X126864259Y-133579479D01*
X127055770Y-133418782D01*
X127325741Y-133740521D01*
X127134230Y-133901218D01*
X127134230Y-133901218D01*
G37*
D50*
X130735000Y-133060000D03*
D49*
X130735000Y-132780000D03*
X130735000Y-132510000D03*
D51*
X130245000Y-133260000D03*
D10*
G36*
X126596398Y-133237781D02*
X126787910Y-133077084D01*
X126993602Y-133322219D01*
X126802090Y-133482916D01*
X126596398Y-133237781D01*
X126596398Y-133237781D01*
G37*
D52*
X126745000Y-133200000D03*
D53*
X130715000Y-133190000D03*
D30*
X119235000Y-124760000D03*
X123235000Y-124760000D03*
D31*
X121435000Y-124760000D03*
D32*
X121235000Y-124760000D03*
D31*
X121108000Y-124260000D03*
D33*
X121175000Y-126760000D03*
D34*
X121489000Y-125760000D03*
D31*
X121108000Y-125260000D03*
D33*
X121175000Y-122760000D03*
D35*
X120925000Y-126260000D03*
D34*
X121489000Y-123760000D03*
D35*
X120925000Y-123260000D03*
D10*
G36*
X122214314Y-122797988D02*
X122421146Y-122624436D01*
X123375686Y-123762012D01*
X123168854Y-123935564D01*
X122214314Y-122797988D01*
X122214314Y-122797988D01*
G37*
G36*
X119310966Y-124062649D02*
X118966246Y-123773395D01*
X119609034Y-123007351D01*
X119953754Y-123296605D01*
X119310966Y-124062649D01*
X119310966Y-124062649D01*
G37*
G36*
X118966246Y-125746605D02*
X119310966Y-125457351D01*
X119953754Y-126223395D01*
X119609034Y-126512649D01*
X118966246Y-125746605D01*
X118966246Y-125746605D01*
G37*
G36*
X122421146Y-126895564D02*
X122214314Y-126722012D01*
X123168854Y-125584436D01*
X123375686Y-125757988D01*
X122421146Y-126895564D01*
X122421146Y-126895564D01*
G37*
D36*
X118885000Y-124760000D03*
X123585000Y-124760000D03*
D37*
X122295000Y-122760000D03*
D38*
X123065000Y-123760000D03*
D39*
X123005000Y-125760000D03*
D37*
X122295000Y-126760000D03*
D38*
X119745000Y-123260000D03*
D40*
X119485000Y-124260000D03*
D38*
X119755000Y-126260000D03*
D41*
X119395000Y-125260000D03*
D42*
X119265000Y-123920000D03*
D10*
G36*
X119130028Y-123763558D02*
X119271442Y-123595028D01*
X119439972Y-123736442D01*
X119298558Y-123904972D01*
X119130028Y-123763558D01*
X119130028Y-123763558D01*
G37*
D43*
X119235000Y-124100000D03*
D40*
X119955000Y-124260000D03*
X120455000Y-124260000D03*
X123375000Y-124760000D03*
D10*
G36*
X122887861Y-126306483D02*
X122719332Y-126165069D01*
X123182139Y-125613517D01*
X123350668Y-125754931D01*
X122887861Y-126306483D01*
X122887861Y-126306483D01*
G37*
D44*
X123125000Y-125800000D03*
X123225000Y-123830000D03*
D45*
X119345000Y-124250000D03*
D46*
X119075000Y-124770000D03*
D37*
X122165000Y-126760000D03*
X122065000Y-126760000D03*
D38*
X121925000Y-126760000D03*
X121785000Y-126760000D03*
X121605000Y-126760000D03*
D47*
X122985000Y-124760000D03*
D48*
X122495000Y-124760000D03*
D49*
X119235000Y-125260000D03*
D50*
X119235000Y-125560000D03*
D10*
G36*
X119634230Y-126401218D02*
X119364259Y-126079479D01*
X119555770Y-125918782D01*
X119825741Y-126240521D01*
X119634230Y-126401218D01*
X119634230Y-126401218D01*
G37*
D50*
X123235000Y-125560000D03*
D49*
X123235000Y-125280000D03*
X123235000Y-125010000D03*
D51*
X122745000Y-125760000D03*
D10*
G36*
X119096398Y-125737781D02*
X119287910Y-125577084D01*
X119493602Y-125822219D01*
X119302090Y-125982916D01*
X119096398Y-125737781D01*
X119096398Y-125737781D01*
G37*
D52*
X119245000Y-125700000D03*
D53*
X123215000Y-125690000D03*
D15*
X129849155Y-138148315D03*
X132349155Y-138148315D03*
D27*
X128399155Y-142998315D03*
X128399155Y-140498315D03*
D54*
X132049155Y-140048315D03*
X131099155Y-140048315D03*
X130149155Y-140048315D03*
X130149155Y-142748315D03*
X132049155Y-142748315D03*
D25*
X93799155Y-63398315D03*
X93799155Y-66098315D03*
X91499155Y-63398315D03*
X91499155Y-66098315D03*
X89199155Y-63398315D03*
X89199155Y-66098315D03*
X86899155Y-63420000D03*
X86899155Y-66120000D03*
X77724000Y-63398315D03*
X77724000Y-66098315D03*
D55*
X126599155Y-143248315D03*
X126599155Y-141748315D03*
X126599155Y-140248315D03*
D56*
X95299155Y-160723315D03*
X95899155Y-160723315D03*
X95899155Y-161525715D03*
X95299155Y-161525715D03*
M02*
