G04 #@! TF.FileFunction,Legend,Top*
%FSLAX46Y46*%
G04 Gerber Fmt 4.6, Leading zero omitted, Abs format (unit mm)*
G04 Created by KiCad (PCBNEW 4.0.5) date 03/19/17 00:11:40*
%MOMM*%
%LPD*%
G01*
G04 APERTURE LIST*
%ADD10C,0.100000*%
%ADD11C,0.150000*%
%ADD12C,0.200000*%
%ADD13C,0.180000*%
%ADD14C,0.300000*%
%ADD15C,0.120000*%
%ADD16C,0.200660*%
%ADD17C,0.010000*%
G04 APERTURE END LIST*
D10*
D11*
X86099153Y-161734029D02*
X86061058Y-161772125D01*
X85946772Y-161810220D01*
X85870582Y-161810220D01*
X85756296Y-161772125D01*
X85680105Y-161695934D01*
X85642010Y-161619744D01*
X85603915Y-161467363D01*
X85603915Y-161353077D01*
X85642010Y-161200696D01*
X85680105Y-161124505D01*
X85756296Y-161048315D01*
X85870582Y-161010220D01*
X85946772Y-161010220D01*
X86061058Y-161048315D01*
X86099153Y-161086410D01*
X86784867Y-161276886D02*
X86784867Y-161810220D01*
X86442010Y-161276886D02*
X86442010Y-161695934D01*
X86480105Y-161772125D01*
X86556296Y-161810220D01*
X86670582Y-161810220D01*
X86746772Y-161772125D01*
X86784867Y-161734029D01*
X87051534Y-161276886D02*
X87356296Y-161276886D01*
X87165820Y-161010220D02*
X87165820Y-161695934D01*
X87203915Y-161772125D01*
X87280106Y-161810220D01*
X87356296Y-161810220D01*
X88232487Y-161810220D02*
X88232487Y-161010220D01*
X88575344Y-161810220D02*
X88575344Y-161391172D01*
X88537249Y-161314982D01*
X88461059Y-161276886D01*
X88346773Y-161276886D01*
X88270582Y-161314982D01*
X88232487Y-161353077D01*
X89261059Y-161772125D02*
X89184869Y-161810220D01*
X89032488Y-161810220D01*
X88956297Y-161772125D01*
X88918202Y-161695934D01*
X88918202Y-161391172D01*
X88956297Y-161314982D01*
X89032488Y-161276886D01*
X89184869Y-161276886D01*
X89261059Y-161314982D01*
X89299154Y-161391172D01*
X89299154Y-161467363D01*
X88918202Y-161543553D01*
X89642011Y-161810220D02*
X89642011Y-161276886D01*
X89642011Y-161429267D02*
X89680106Y-161353077D01*
X89718202Y-161314982D01*
X89794392Y-161276886D01*
X89870583Y-161276886D01*
X90442011Y-161772125D02*
X90365821Y-161810220D01*
X90213440Y-161810220D01*
X90137249Y-161772125D01*
X90099154Y-161695934D01*
X90099154Y-161391172D01*
X90137249Y-161314982D01*
X90213440Y-161276886D01*
X90365821Y-161276886D01*
X90442011Y-161314982D01*
X90480106Y-161391172D01*
X90480106Y-161467363D01*
X90099154Y-161543553D01*
X91432487Y-161810220D02*
X91432487Y-161276886D01*
X91432487Y-161010220D02*
X91394392Y-161048315D01*
X91432487Y-161086410D01*
X91470582Y-161048315D01*
X91432487Y-161010220D01*
X91432487Y-161086410D01*
X91699153Y-161276886D02*
X92003915Y-161276886D01*
X91813439Y-161810220D02*
X91813439Y-161124505D01*
X91851534Y-161048315D01*
X91927725Y-161010220D01*
X92003915Y-161010220D01*
X92880106Y-161276886D02*
X92880106Y-161810220D01*
X92880106Y-161353077D02*
X92918201Y-161314982D01*
X92994392Y-161276886D01*
X93108678Y-161276886D01*
X93184868Y-161314982D01*
X93222963Y-161391172D01*
X93222963Y-161810220D01*
X93718202Y-161810220D02*
X93642011Y-161772125D01*
X93603916Y-161734029D01*
X93565821Y-161657839D01*
X93565821Y-161429267D01*
X93603916Y-161353077D01*
X93642011Y-161314982D01*
X93718202Y-161276886D01*
X93832488Y-161276886D01*
X93908678Y-161314982D01*
X93946773Y-161353077D01*
X93984869Y-161429267D01*
X93984869Y-161657839D01*
X93946773Y-161734029D01*
X93908678Y-161772125D01*
X93832488Y-161810220D01*
X93718202Y-161810220D01*
X94213440Y-161276886D02*
X94518202Y-161276886D01*
X94327726Y-161010220D02*
X94327726Y-161695934D01*
X94365821Y-161772125D01*
X94442012Y-161810220D01*
X94518202Y-161810220D01*
X96956298Y-161276886D02*
X96956298Y-161810220D01*
X96613441Y-161276886D02*
X96613441Y-161695934D01*
X96651536Y-161772125D01*
X96727727Y-161810220D01*
X96842013Y-161810220D01*
X96918203Y-161772125D01*
X96956298Y-161734029D01*
X97299156Y-161772125D02*
X97375346Y-161810220D01*
X97527727Y-161810220D01*
X97603918Y-161772125D01*
X97642013Y-161695934D01*
X97642013Y-161657839D01*
X97603918Y-161581648D01*
X97527727Y-161543553D01*
X97413442Y-161543553D01*
X97337251Y-161505458D01*
X97299156Y-161429267D01*
X97299156Y-161391172D01*
X97337251Y-161314982D01*
X97413442Y-161276886D01*
X97527727Y-161276886D01*
X97603918Y-161314982D01*
X97984870Y-161810220D02*
X97984870Y-161276886D01*
X97984870Y-161010220D02*
X97946775Y-161048315D01*
X97984870Y-161086410D01*
X98022965Y-161048315D01*
X97984870Y-161010220D01*
X97984870Y-161086410D01*
X98365822Y-161276886D02*
X98365822Y-161810220D01*
X98365822Y-161353077D02*
X98403917Y-161314982D01*
X98480108Y-161276886D01*
X98594394Y-161276886D01*
X98670584Y-161314982D01*
X98708679Y-161391172D01*
X98708679Y-161810220D01*
X99432489Y-161276886D02*
X99432489Y-161924505D01*
X99394394Y-162000696D01*
X99356299Y-162038791D01*
X99280108Y-162076886D01*
X99165823Y-162076886D01*
X99089632Y-162038791D01*
X99432489Y-161772125D02*
X99356299Y-161810220D01*
X99203918Y-161810220D01*
X99127727Y-161772125D01*
X99089632Y-161734029D01*
X99051537Y-161657839D01*
X99051537Y-161429267D01*
X99089632Y-161353077D01*
X99127727Y-161314982D01*
X99203918Y-161276886D01*
X99356299Y-161276886D01*
X99432489Y-161314982D01*
X100346776Y-161010220D02*
X100537252Y-161810220D01*
X100689633Y-161238791D01*
X100842014Y-161810220D01*
X101032490Y-161010220D01*
X101337252Y-161810220D02*
X101337252Y-161276886D01*
X101337252Y-161010220D02*
X101299157Y-161048315D01*
X101337252Y-161086410D01*
X101375347Y-161048315D01*
X101337252Y-161010220D01*
X101337252Y-161086410D01*
X101984871Y-161391172D02*
X101718204Y-161391172D01*
X101718204Y-161810220D02*
X101718204Y-161010220D01*
X102099157Y-161010220D01*
X102403918Y-161810220D02*
X102403918Y-161276886D01*
X102403918Y-161010220D02*
X102365823Y-161048315D01*
X102403918Y-161086410D01*
X102442013Y-161048315D01*
X102403918Y-161010220D01*
X102403918Y-161086410D01*
X103394394Y-161810220D02*
X103394394Y-161276886D01*
X103394394Y-161353077D02*
X103432489Y-161314982D01*
X103508680Y-161276886D01*
X103622966Y-161276886D01*
X103699156Y-161314982D01*
X103737251Y-161391172D01*
X103737251Y-161810220D01*
X103737251Y-161391172D02*
X103775347Y-161314982D01*
X103851537Y-161276886D01*
X103965823Y-161276886D01*
X104042013Y-161314982D01*
X104080108Y-161391172D01*
X104080108Y-161810220D01*
X104575347Y-161810220D02*
X104499156Y-161772125D01*
X104461061Y-161734029D01*
X104422966Y-161657839D01*
X104422966Y-161429267D01*
X104461061Y-161353077D01*
X104499156Y-161314982D01*
X104575347Y-161276886D01*
X104689633Y-161276886D01*
X104765823Y-161314982D01*
X104803918Y-161353077D01*
X104842014Y-161429267D01*
X104842014Y-161657839D01*
X104803918Y-161734029D01*
X104765823Y-161772125D01*
X104689633Y-161810220D01*
X104575347Y-161810220D01*
X105527728Y-161810220D02*
X105527728Y-161010220D01*
X105527728Y-161772125D02*
X105451538Y-161810220D01*
X105299157Y-161810220D01*
X105222966Y-161772125D01*
X105184871Y-161734029D01*
X105146776Y-161657839D01*
X105146776Y-161429267D01*
X105184871Y-161353077D01*
X105222966Y-161314982D01*
X105299157Y-161276886D01*
X105451538Y-161276886D01*
X105527728Y-161314982D01*
X106251538Y-161276886D02*
X106251538Y-161810220D01*
X105908681Y-161276886D02*
X105908681Y-161695934D01*
X105946776Y-161772125D01*
X106022967Y-161810220D01*
X106137253Y-161810220D01*
X106213443Y-161772125D01*
X106251538Y-161734029D01*
X106746777Y-161810220D02*
X106670586Y-161772125D01*
X106632491Y-161695934D01*
X106632491Y-161010220D01*
X107356301Y-161772125D02*
X107280111Y-161810220D01*
X107127730Y-161810220D01*
X107051539Y-161772125D01*
X107013444Y-161695934D01*
X107013444Y-161391172D01*
X107051539Y-161314982D01*
X107127730Y-161276886D01*
X107280111Y-161276886D01*
X107356301Y-161314982D01*
X107394396Y-161391172D01*
X107394396Y-161467363D01*
X107013444Y-161543553D01*
D12*
X95599155Y-162148315D02*
X95599155Y-159948315D01*
X125749155Y-140998315D02*
X125499155Y-141248315D01*
X125749155Y-140998315D02*
X125499155Y-140748315D01*
X125249155Y-140998315D02*
X125749155Y-140998315D01*
X123749155Y-144998315D02*
X125249155Y-140998315D01*
X115066121Y-152248315D02*
G75*
G03X129499155Y-149748315I7433034J0D01*
G01*
D11*
X120706298Y-145784029D02*
X120668203Y-145822125D01*
X120553917Y-145860220D01*
X120477727Y-145860220D01*
X120363441Y-145822125D01*
X120287250Y-145745934D01*
X120249155Y-145669744D01*
X120211060Y-145517363D01*
X120211060Y-145403077D01*
X120249155Y-145250696D01*
X120287250Y-145174505D01*
X120363441Y-145098315D01*
X120477727Y-145060220D01*
X120553917Y-145060220D01*
X120668203Y-145098315D01*
X120706298Y-145136410D01*
X121392012Y-145326886D02*
X121392012Y-145860220D01*
X121049155Y-145326886D02*
X121049155Y-145745934D01*
X121087250Y-145822125D01*
X121163441Y-145860220D01*
X121277727Y-145860220D01*
X121353917Y-145822125D01*
X121392012Y-145784029D01*
X121658679Y-145326886D02*
X121963441Y-145326886D01*
X121772965Y-145060220D02*
X121772965Y-145745934D01*
X121811060Y-145822125D01*
X121887251Y-145860220D01*
X121963441Y-145860220D01*
X122839632Y-145860220D02*
X122839632Y-145060220D01*
X123182489Y-145860220D02*
X123182489Y-145441172D01*
X123144394Y-145364982D01*
X123068204Y-145326886D01*
X122953918Y-145326886D01*
X122877727Y-145364982D01*
X122839632Y-145403077D01*
X123868204Y-145822125D02*
X123792014Y-145860220D01*
X123639633Y-145860220D01*
X123563442Y-145822125D01*
X123525347Y-145745934D01*
X123525347Y-145441172D01*
X123563442Y-145364982D01*
X123639633Y-145326886D01*
X123792014Y-145326886D01*
X123868204Y-145364982D01*
X123906299Y-145441172D01*
X123906299Y-145517363D01*
X123525347Y-145593553D01*
X124249156Y-145860220D02*
X124249156Y-145326886D01*
X124249156Y-145479267D02*
X124287251Y-145403077D01*
X124325347Y-145364982D01*
X124401537Y-145326886D01*
X124477728Y-145326886D01*
X125049156Y-145822125D02*
X124972966Y-145860220D01*
X124820585Y-145860220D01*
X124744394Y-145822125D01*
X124706299Y-145745934D01*
X124706299Y-145441172D01*
X124744394Y-145364982D01*
X124820585Y-145326886D01*
X124972966Y-145326886D01*
X125049156Y-145364982D01*
X125087251Y-145441172D01*
X125087251Y-145517363D01*
X124706299Y-145593553D01*
X120515821Y-147210220D02*
X120515821Y-146676886D01*
X120515821Y-146410220D02*
X120477726Y-146448315D01*
X120515821Y-146486410D01*
X120553916Y-146448315D01*
X120515821Y-146410220D01*
X120515821Y-146486410D01*
X120782487Y-146676886D02*
X121087249Y-146676886D01*
X120896773Y-147210220D02*
X120896773Y-146524505D01*
X120934868Y-146448315D01*
X121011059Y-146410220D01*
X121087249Y-146410220D01*
X122306297Y-146676886D02*
X122306297Y-147210220D01*
X121963440Y-146676886D02*
X121963440Y-147095934D01*
X122001535Y-147172125D01*
X122077726Y-147210220D01*
X122192012Y-147210220D01*
X122268202Y-147172125D01*
X122306297Y-147134029D01*
X122649155Y-147172125D02*
X122725345Y-147210220D01*
X122877726Y-147210220D01*
X122953917Y-147172125D01*
X122992012Y-147095934D01*
X122992012Y-147057839D01*
X122953917Y-146981648D01*
X122877726Y-146943553D01*
X122763441Y-146943553D01*
X122687250Y-146905458D01*
X122649155Y-146829267D01*
X122649155Y-146791172D01*
X122687250Y-146714982D01*
X122763441Y-146676886D01*
X122877726Y-146676886D01*
X122953917Y-146714982D01*
X123334869Y-147210220D02*
X123334869Y-146676886D01*
X123334869Y-146410220D02*
X123296774Y-146448315D01*
X123334869Y-146486410D01*
X123372964Y-146448315D01*
X123334869Y-146410220D01*
X123334869Y-146486410D01*
X123715821Y-146676886D02*
X123715821Y-147210220D01*
X123715821Y-146753077D02*
X123753916Y-146714982D01*
X123830107Y-146676886D01*
X123944393Y-146676886D01*
X124020583Y-146714982D01*
X124058678Y-146791172D01*
X124058678Y-147210220D01*
X124782488Y-146676886D02*
X124782488Y-147324505D01*
X124744393Y-147400696D01*
X124706298Y-147438791D01*
X124630107Y-147476886D01*
X124515822Y-147476886D01*
X124439631Y-147438791D01*
X124782488Y-147172125D02*
X124706298Y-147210220D01*
X124553917Y-147210220D01*
X124477726Y-147172125D01*
X124439631Y-147134029D01*
X124401536Y-147057839D01*
X124401536Y-146829267D01*
X124439631Y-146753077D01*
X124477726Y-146714982D01*
X124553917Y-146676886D01*
X124706298Y-146676886D01*
X124782488Y-146714982D01*
X122077727Y-148560220D02*
X121696774Y-148560220D01*
X121696774Y-147760220D01*
X122344393Y-148560220D02*
X122344393Y-147760220D01*
X122534869Y-147760220D01*
X122649155Y-147798315D01*
X122725346Y-147874505D01*
X122763441Y-147950696D01*
X122801536Y-148103077D01*
X122801536Y-148217363D01*
X122763441Y-148369744D01*
X122725346Y-148445934D01*
X122649155Y-148522125D01*
X122534869Y-148560220D01*
X122344393Y-148560220D01*
X123296774Y-147760220D02*
X123449155Y-147760220D01*
X123525346Y-147798315D01*
X123601536Y-147874505D01*
X123639631Y-148026886D01*
X123639631Y-148293553D01*
X123601536Y-148445934D01*
X123525346Y-148522125D01*
X123449155Y-148560220D01*
X123296774Y-148560220D01*
X123220584Y-148522125D01*
X123144393Y-148445934D01*
X123106298Y-148293553D01*
X123106298Y-148026886D01*
X123144393Y-147874505D01*
X123220584Y-147798315D01*
X123296774Y-147760220D01*
D13*
X76649155Y-67998315D02*
X75549155Y-67998315D01*
X75499155Y-67548315D02*
X76649155Y-67548315D01*
X76099155Y-67598315D02*
X76649155Y-67998315D01*
X75549155Y-67998315D02*
X76099155Y-67598315D01*
X86799155Y-69098315D02*
X85699155Y-69098315D01*
X85649155Y-68648315D02*
X86799155Y-68648315D01*
X86249155Y-68698315D02*
X86799155Y-69098315D01*
X85699155Y-69098315D02*
X86249155Y-68698315D01*
X89199155Y-69098315D02*
X88099155Y-69098315D01*
X88049155Y-68648315D02*
X89199155Y-68648315D01*
X88649155Y-68698315D02*
X89199155Y-69098315D01*
X88099155Y-69098315D02*
X88649155Y-68698315D01*
X91449155Y-69098315D02*
X90349155Y-69098315D01*
X90299155Y-68648315D02*
X91449155Y-68648315D01*
X90899155Y-68698315D02*
X91449155Y-69098315D01*
X90349155Y-69098315D02*
X90899155Y-68698315D01*
X92499155Y-68648315D02*
X93649155Y-68648315D01*
X93649155Y-69098315D02*
X92549155Y-69098315D01*
X93099155Y-68698315D02*
X93649155Y-69098315D01*
X92549155Y-69098315D02*
X93099155Y-68698315D01*
D12*
X128749155Y-144598315D02*
X128749155Y-148748315D01*
D11*
X126289631Y-145010220D02*
X126289631Y-145657839D01*
X126327726Y-145734029D01*
X126365822Y-145772125D01*
X126442012Y-145810220D01*
X126594393Y-145810220D01*
X126670584Y-145772125D01*
X126708679Y-145734029D01*
X126746774Y-145657839D01*
X126746774Y-145010220D01*
X127051536Y-145010220D02*
X127584869Y-145010220D01*
X127242012Y-145810220D01*
X129489632Y-145810220D02*
X129108679Y-145810220D01*
X129108679Y-145010220D01*
X129756298Y-145810220D02*
X129756298Y-145010220D01*
X130061060Y-145010220D01*
X130137251Y-145048315D01*
X130175346Y-145086410D01*
X130213441Y-145162601D01*
X130213441Y-145276886D01*
X130175346Y-145353077D01*
X130137251Y-145391172D01*
X130061060Y-145429267D01*
X129756298Y-145429267D01*
X130937251Y-145010220D02*
X130556298Y-145010220D01*
X130518203Y-145391172D01*
X130556298Y-145353077D01*
X130632489Y-145314982D01*
X130822965Y-145314982D01*
X130899155Y-145353077D01*
X130937251Y-145391172D01*
X130975346Y-145467363D01*
X130975346Y-145657839D01*
X130937251Y-145734029D01*
X130899155Y-145772125D01*
X130822965Y-145810220D01*
X130632489Y-145810220D01*
X130556298Y-145772125D01*
X130518203Y-145734029D01*
X131356298Y-145810220D02*
X131508679Y-145810220D01*
X131584870Y-145772125D01*
X131622965Y-145734029D01*
X131699156Y-145619744D01*
X131737251Y-145467363D01*
X131737251Y-145162601D01*
X131699156Y-145086410D01*
X131661060Y-145048315D01*
X131584870Y-145010220D01*
X131432489Y-145010220D01*
X131356298Y-145048315D01*
X131318203Y-145086410D01*
X131280108Y-145162601D01*
X131280108Y-145353077D01*
X131318203Y-145429267D01*
X131356298Y-145467363D01*
X131432489Y-145505458D01*
X131584870Y-145505458D01*
X131661060Y-145467363D01*
X131699156Y-145429267D01*
X131737251Y-145353077D01*
X132232489Y-145010220D02*
X132308680Y-145010220D01*
X132384870Y-145048315D01*
X132422965Y-145086410D01*
X132461061Y-145162601D01*
X132499156Y-145314982D01*
X132499156Y-145505458D01*
X132461061Y-145657839D01*
X132422965Y-145734029D01*
X132384870Y-145772125D01*
X132308680Y-145810220D01*
X132232489Y-145810220D01*
X132156299Y-145772125D01*
X132118203Y-145734029D01*
X132080108Y-145657839D01*
X132042013Y-145505458D01*
X132042013Y-145314982D01*
X132080108Y-145162601D01*
X132118203Y-145086410D01*
X132156299Y-145048315D01*
X132232489Y-145010220D01*
X132765823Y-145010220D02*
X133299156Y-145010220D01*
X132956299Y-145810220D01*
X126746774Y-147084029D02*
X126708679Y-147122125D01*
X126594393Y-147160220D01*
X126518203Y-147160220D01*
X126403917Y-147122125D01*
X126327726Y-147045934D01*
X126289631Y-146969744D01*
X126251536Y-146817363D01*
X126251536Y-146703077D01*
X126289631Y-146550696D01*
X126327726Y-146474505D01*
X126403917Y-146398315D01*
X126518203Y-146360220D01*
X126594393Y-146360220D01*
X126708679Y-146398315D01*
X126746774Y-146436410D01*
X127051536Y-146436410D02*
X127089631Y-146398315D01*
X127165822Y-146360220D01*
X127356298Y-146360220D01*
X127432488Y-146398315D01*
X127470584Y-146436410D01*
X127508679Y-146512601D01*
X127508679Y-146588791D01*
X127470584Y-146703077D01*
X127013441Y-147160220D01*
X127508679Y-147160220D01*
X128232489Y-146360220D02*
X127851536Y-146360220D01*
X127813441Y-146741172D01*
X127851536Y-146703077D01*
X127927727Y-146664982D01*
X128118203Y-146664982D01*
X128194393Y-146703077D01*
X128232489Y-146741172D01*
X128270584Y-146817363D01*
X128270584Y-147007839D01*
X128232489Y-147084029D01*
X128194393Y-147122125D01*
X128118203Y-147160220D01*
X127927727Y-147160220D01*
X127851536Y-147122125D01*
X127813441Y-147084029D01*
X129642013Y-147160220D02*
X129184870Y-147160220D01*
X129413441Y-147160220D02*
X129413441Y-146360220D01*
X129337251Y-146474505D01*
X129261060Y-146550696D01*
X129184870Y-146588791D01*
X130327727Y-146626886D02*
X130327727Y-147160220D01*
X129984870Y-146626886D02*
X129984870Y-147045934D01*
X130022965Y-147122125D01*
X130099156Y-147160220D01*
X130213442Y-147160220D01*
X130289632Y-147122125D01*
X130327727Y-147084029D01*
X130975347Y-146741172D02*
X130708680Y-146741172D01*
X130708680Y-147160220D02*
X130708680Y-146360220D01*
X131089633Y-146360220D01*
X126746774Y-148434029D02*
X126708679Y-148472125D01*
X126594393Y-148510220D01*
X126518203Y-148510220D01*
X126403917Y-148472125D01*
X126327726Y-148395934D01*
X126289631Y-148319744D01*
X126251536Y-148167363D01*
X126251536Y-148053077D01*
X126289631Y-147900696D01*
X126327726Y-147824505D01*
X126403917Y-147748315D01*
X126518203Y-147710220D01*
X126594393Y-147710220D01*
X126708679Y-147748315D01*
X126746774Y-147786410D01*
X127051536Y-147786410D02*
X127089631Y-147748315D01*
X127165822Y-147710220D01*
X127356298Y-147710220D01*
X127432488Y-147748315D01*
X127470584Y-147786410D01*
X127508679Y-147862601D01*
X127508679Y-147938791D01*
X127470584Y-148053077D01*
X127013441Y-148510220D01*
X127508679Y-148510220D01*
X128194393Y-147710220D02*
X128042012Y-147710220D01*
X127965822Y-147748315D01*
X127927727Y-147786410D01*
X127851536Y-147900696D01*
X127813441Y-148053077D01*
X127813441Y-148357839D01*
X127851536Y-148434029D01*
X127889631Y-148472125D01*
X127965822Y-148510220D01*
X128118203Y-148510220D01*
X128194393Y-148472125D01*
X128232489Y-148434029D01*
X128270584Y-148357839D01*
X128270584Y-148167363D01*
X128232489Y-148091172D01*
X128194393Y-148053077D01*
X128118203Y-148014982D01*
X127965822Y-148014982D01*
X127889631Y-148053077D01*
X127851536Y-148091172D01*
X127813441Y-148167363D01*
X129642013Y-148510220D02*
X129184870Y-148510220D01*
X129413441Y-148510220D02*
X129413441Y-147710220D01*
X129337251Y-147824505D01*
X129261060Y-147900696D01*
X129184870Y-147938791D01*
X130327727Y-147976886D02*
X130327727Y-148510220D01*
X129984870Y-147976886D02*
X129984870Y-148395934D01*
X130022965Y-148472125D01*
X130099156Y-148510220D01*
X130213442Y-148510220D01*
X130289632Y-148472125D01*
X130327727Y-148434029D01*
X130975347Y-148091172D02*
X130708680Y-148091172D01*
X130708680Y-148510220D02*
X130708680Y-147710220D01*
X131089633Y-147710220D01*
D12*
X125899155Y-144598315D02*
X133599155Y-144598315D01*
X125899155Y-148748315D02*
X125899155Y-144598315D01*
X133599155Y-148748315D02*
X125899155Y-148748315D01*
X133599155Y-144598315D02*
X133599155Y-148748315D01*
X70612000Y-109260000D02*
X131612000Y-109260000D01*
X114299155Y-141048315D02*
X114299155Y-150748315D01*
X118499155Y-141048315D02*
X111399155Y-141048315D01*
X118499155Y-150748315D02*
X118499155Y-141048315D01*
X111399155Y-150748315D02*
X118499155Y-150748315D01*
X111399155Y-141048315D02*
X111399155Y-150748315D01*
D11*
X112346774Y-142284029D02*
X112308679Y-142322125D01*
X112194393Y-142360220D01*
X112118203Y-142360220D01*
X112003917Y-142322125D01*
X111927726Y-142245934D01*
X111889631Y-142169744D01*
X111851536Y-142017363D01*
X111851536Y-141903077D01*
X111889631Y-141750696D01*
X111927726Y-141674505D01*
X112003917Y-141598315D01*
X112118203Y-141560220D01*
X112194393Y-141560220D01*
X112308679Y-141598315D01*
X112346774Y-141636410D01*
X113032488Y-141560220D02*
X112880107Y-141560220D01*
X112803917Y-141598315D01*
X112765822Y-141636410D01*
X112689631Y-141750696D01*
X112651536Y-141903077D01*
X112651536Y-142207839D01*
X112689631Y-142284029D01*
X112727726Y-142322125D01*
X112803917Y-142360220D01*
X112956298Y-142360220D01*
X113032488Y-142322125D01*
X113070584Y-142284029D01*
X113108679Y-142207839D01*
X113108679Y-142017363D01*
X113070584Y-141941172D01*
X113032488Y-141903077D01*
X112956298Y-141864982D01*
X112803917Y-141864982D01*
X112727726Y-141903077D01*
X112689631Y-141941172D01*
X112651536Y-142017363D01*
X115089632Y-142360220D02*
X114632489Y-142360220D01*
X114861060Y-142360220D02*
X114861060Y-141560220D01*
X114784870Y-141674505D01*
X114708679Y-141750696D01*
X114632489Y-141788791D01*
X115775346Y-141826886D02*
X115775346Y-142360220D01*
X115432489Y-141826886D02*
X115432489Y-142245934D01*
X115470584Y-142322125D01*
X115546775Y-142360220D01*
X115661061Y-142360220D01*
X115737251Y-142322125D01*
X115775346Y-142284029D01*
X116422966Y-141941172D02*
X116156299Y-141941172D01*
X116156299Y-142360220D02*
X116156299Y-141560220D01*
X116537252Y-141560220D01*
X112346774Y-143634029D02*
X112308679Y-143672125D01*
X112194393Y-143710220D01*
X112118203Y-143710220D01*
X112003917Y-143672125D01*
X111927726Y-143595934D01*
X111889631Y-143519744D01*
X111851536Y-143367363D01*
X111851536Y-143253077D01*
X111889631Y-143100696D01*
X111927726Y-143024505D01*
X112003917Y-142948315D01*
X112118203Y-142910220D01*
X112194393Y-142910220D01*
X112308679Y-142948315D01*
X112346774Y-142986410D01*
X112613441Y-142910220D02*
X113146774Y-142910220D01*
X112803917Y-143710220D01*
X115089632Y-143710220D02*
X114632489Y-143710220D01*
X114861060Y-143710220D02*
X114861060Y-142910220D01*
X114784870Y-143024505D01*
X114708679Y-143100696D01*
X114632489Y-143138791D01*
X115775346Y-143176886D02*
X115775346Y-143710220D01*
X115432489Y-143176886D02*
X115432489Y-143595934D01*
X115470584Y-143672125D01*
X115546775Y-143710220D01*
X115661061Y-143710220D01*
X115737251Y-143672125D01*
X115775346Y-143634029D01*
X116422966Y-143291172D02*
X116156299Y-143291172D01*
X116156299Y-143710220D02*
X116156299Y-142910220D01*
X116537252Y-142910220D01*
X112346774Y-145060220D02*
X112080107Y-144679267D01*
X111889631Y-145060220D02*
X111889631Y-144260220D01*
X112194393Y-144260220D01*
X112270584Y-144298315D01*
X112308679Y-144336410D01*
X112346774Y-144412601D01*
X112346774Y-144526886D01*
X112308679Y-144603077D01*
X112270584Y-144641172D01*
X112194393Y-144679267D01*
X111889631Y-144679267D01*
X113108679Y-145060220D02*
X112651536Y-145060220D01*
X112880107Y-145060220D02*
X112880107Y-144260220D01*
X112803917Y-144374505D01*
X112727726Y-144450696D01*
X112651536Y-144488791D01*
X113832489Y-144260220D02*
X113451536Y-144260220D01*
X113413441Y-144641172D01*
X113451536Y-144603077D01*
X113527727Y-144564982D01*
X113718203Y-144564982D01*
X113794393Y-144603077D01*
X113832489Y-144641172D01*
X113870584Y-144717363D01*
X113870584Y-144907839D01*
X113832489Y-144984029D01*
X113794393Y-145022125D01*
X113718203Y-145060220D01*
X113527727Y-145060220D01*
X113451536Y-145022125D01*
X113413441Y-144984029D01*
X115242013Y-145060220D02*
X114784870Y-145060220D01*
X115013441Y-145060220D02*
X115013441Y-144260220D01*
X114937251Y-144374505D01*
X114861060Y-144450696D01*
X114784870Y-144488791D01*
X115737251Y-144260220D02*
X115813442Y-144260220D01*
X115889632Y-144298315D01*
X115927727Y-144336410D01*
X115965823Y-144412601D01*
X116003918Y-144564982D01*
X116003918Y-144755458D01*
X115965823Y-144907839D01*
X115927727Y-144984029D01*
X115889632Y-145022125D01*
X115813442Y-145060220D01*
X115737251Y-145060220D01*
X115661061Y-145022125D01*
X115622965Y-144984029D01*
X115584870Y-144907839D01*
X115546775Y-144755458D01*
X115546775Y-144564982D01*
X115584870Y-144412601D01*
X115622965Y-144336410D01*
X115661061Y-144298315D01*
X115737251Y-144260220D01*
X116346775Y-145060220D02*
X116346775Y-144260220D01*
X116422966Y-144755458D02*
X116651537Y-145060220D01*
X116651537Y-144526886D02*
X116346775Y-144831648D01*
X112346774Y-146334029D02*
X112308679Y-146372125D01*
X112194393Y-146410220D01*
X112118203Y-146410220D01*
X112003917Y-146372125D01*
X111927726Y-146295934D01*
X111889631Y-146219744D01*
X111851536Y-146067363D01*
X111851536Y-145953077D01*
X111889631Y-145800696D01*
X111927726Y-145724505D01*
X112003917Y-145648315D01*
X112118203Y-145610220D01*
X112194393Y-145610220D01*
X112308679Y-145648315D01*
X112346774Y-145686410D01*
X113108679Y-146410220D02*
X112651536Y-146410220D01*
X112880107Y-146410220D02*
X112880107Y-145610220D01*
X112803917Y-145724505D01*
X112727726Y-145800696D01*
X112651536Y-145838791D01*
X113603917Y-145610220D02*
X113680108Y-145610220D01*
X113756298Y-145648315D01*
X113794393Y-145686410D01*
X113832489Y-145762601D01*
X113870584Y-145914982D01*
X113870584Y-146105458D01*
X113832489Y-146257839D01*
X113794393Y-146334029D01*
X113756298Y-146372125D01*
X113680108Y-146410220D01*
X113603917Y-146410220D01*
X113527727Y-146372125D01*
X113489631Y-146334029D01*
X113451536Y-146257839D01*
X113413441Y-146105458D01*
X113413441Y-145914982D01*
X113451536Y-145762601D01*
X113489631Y-145686410D01*
X113527727Y-145648315D01*
X113603917Y-145610220D01*
X115242013Y-146410220D02*
X114784870Y-146410220D01*
X115013441Y-146410220D02*
X115013441Y-145610220D01*
X114937251Y-145724505D01*
X114861060Y-145800696D01*
X114784870Y-145838791D01*
X115737251Y-145610220D02*
X115813442Y-145610220D01*
X115889632Y-145648315D01*
X115927727Y-145686410D01*
X115965823Y-145762601D01*
X116003918Y-145914982D01*
X116003918Y-146105458D01*
X115965823Y-146257839D01*
X115927727Y-146334029D01*
X115889632Y-146372125D01*
X115813442Y-146410220D01*
X115737251Y-146410220D01*
X115661061Y-146372125D01*
X115622965Y-146334029D01*
X115584870Y-146257839D01*
X115546775Y-146105458D01*
X115546775Y-145914982D01*
X115584870Y-145762601D01*
X115622965Y-145686410D01*
X115661061Y-145648315D01*
X115737251Y-145610220D01*
X116689632Y-145876886D02*
X116689632Y-146410220D01*
X116346775Y-145876886D02*
X116346775Y-146295934D01*
X116384870Y-146372125D01*
X116461061Y-146410220D01*
X116575347Y-146410220D01*
X116651537Y-146372125D01*
X116689632Y-146334029D01*
X117337252Y-145991172D02*
X117070585Y-145991172D01*
X117070585Y-146410220D02*
X117070585Y-145610220D01*
X117451538Y-145610220D01*
X112346774Y-147684029D02*
X112308679Y-147722125D01*
X112194393Y-147760220D01*
X112118203Y-147760220D01*
X112003917Y-147722125D01*
X111927726Y-147645934D01*
X111889631Y-147569744D01*
X111851536Y-147417363D01*
X111851536Y-147303077D01*
X111889631Y-147150696D01*
X111927726Y-147074505D01*
X112003917Y-146998315D01*
X112118203Y-146960220D01*
X112194393Y-146960220D01*
X112308679Y-146998315D01*
X112346774Y-147036410D01*
X113108679Y-147760220D02*
X112651536Y-147760220D01*
X112880107Y-147760220D02*
X112880107Y-146960220D01*
X112803917Y-147074505D01*
X112727726Y-147150696D01*
X112651536Y-147188791D01*
X113870584Y-147760220D02*
X113413441Y-147760220D01*
X113642012Y-147760220D02*
X113642012Y-146960220D01*
X113565822Y-147074505D01*
X113489631Y-147150696D01*
X113413441Y-147188791D01*
X115165822Y-147226886D02*
X115165822Y-147760220D01*
X114975346Y-146922125D02*
X114784870Y-147493553D01*
X115280108Y-147493553D01*
X115508680Y-146960220D02*
X116042013Y-146960220D01*
X115699156Y-147760220D01*
X116689632Y-147226886D02*
X116689632Y-147760220D01*
X116346775Y-147226886D02*
X116346775Y-147645934D01*
X116384870Y-147722125D01*
X116461061Y-147760220D01*
X116575347Y-147760220D01*
X116651537Y-147722125D01*
X116689632Y-147684029D01*
X117337252Y-147341172D02*
X117070585Y-147341172D01*
X117070585Y-147760220D02*
X117070585Y-146960220D01*
X117451538Y-146960220D01*
X112346774Y-149034029D02*
X112308679Y-149072125D01*
X112194393Y-149110220D01*
X112118203Y-149110220D01*
X112003917Y-149072125D01*
X111927726Y-148995934D01*
X111889631Y-148919744D01*
X111851536Y-148767363D01*
X111851536Y-148653077D01*
X111889631Y-148500696D01*
X111927726Y-148424505D01*
X112003917Y-148348315D01*
X112118203Y-148310220D01*
X112194393Y-148310220D01*
X112308679Y-148348315D01*
X112346774Y-148386410D01*
X113108679Y-149110220D02*
X112651536Y-149110220D01*
X112880107Y-149110220D02*
X112880107Y-148310220D01*
X112803917Y-148424505D01*
X112727726Y-148500696D01*
X112651536Y-148538791D01*
X113413441Y-148386410D02*
X113451536Y-148348315D01*
X113527727Y-148310220D01*
X113718203Y-148310220D01*
X113794393Y-148348315D01*
X113832489Y-148386410D01*
X113870584Y-148462601D01*
X113870584Y-148538791D01*
X113832489Y-148653077D01*
X113375346Y-149110220D01*
X113870584Y-149110220D01*
X114784870Y-148386410D02*
X114822965Y-148348315D01*
X114899156Y-148310220D01*
X115089632Y-148310220D01*
X115165822Y-148348315D01*
X115203918Y-148386410D01*
X115242013Y-148462601D01*
X115242013Y-148538791D01*
X115203918Y-148653077D01*
X114746775Y-149110220D01*
X115242013Y-149110220D01*
X115546775Y-148386410D02*
X115584870Y-148348315D01*
X115661061Y-148310220D01*
X115851537Y-148310220D01*
X115927727Y-148348315D01*
X115965823Y-148386410D01*
X116003918Y-148462601D01*
X116003918Y-148538791D01*
X115965823Y-148653077D01*
X115508680Y-149110220D01*
X116003918Y-149110220D01*
X116499156Y-148310220D02*
X116575347Y-148310220D01*
X116651537Y-148348315D01*
X116689632Y-148386410D01*
X116727728Y-148462601D01*
X116765823Y-148614982D01*
X116765823Y-148805458D01*
X116727728Y-148957839D01*
X116689632Y-149034029D01*
X116651537Y-149072125D01*
X116575347Y-149110220D01*
X116499156Y-149110220D01*
X116422966Y-149072125D01*
X116384870Y-149034029D01*
X116346775Y-148957839D01*
X116308680Y-148805458D01*
X116308680Y-148614982D01*
X116346775Y-148462601D01*
X116384870Y-148386410D01*
X116422966Y-148348315D01*
X116499156Y-148310220D01*
X117108680Y-148576886D02*
X117108680Y-149376886D01*
X117108680Y-148614982D02*
X117184871Y-148576886D01*
X117337252Y-148576886D01*
X117413442Y-148614982D01*
X117451537Y-148653077D01*
X117489633Y-148729267D01*
X117489633Y-148957839D01*
X117451537Y-149034029D01*
X117413442Y-149072125D01*
X117337252Y-149110220D01*
X117184871Y-149110220D01*
X117108680Y-149072125D01*
X118099157Y-148691172D02*
X117832490Y-148691172D01*
X117832490Y-149110220D02*
X117832490Y-148310220D01*
X118213443Y-148310220D01*
X112346774Y-150384029D02*
X112308679Y-150422125D01*
X112194393Y-150460220D01*
X112118203Y-150460220D01*
X112003917Y-150422125D01*
X111927726Y-150345934D01*
X111889631Y-150269744D01*
X111851536Y-150117363D01*
X111851536Y-150003077D01*
X111889631Y-149850696D01*
X111927726Y-149774505D01*
X112003917Y-149698315D01*
X112118203Y-149660220D01*
X112194393Y-149660220D01*
X112308679Y-149698315D01*
X112346774Y-149736410D01*
X113108679Y-150460220D02*
X112651536Y-150460220D01*
X112880107Y-150460220D02*
X112880107Y-149660220D01*
X112803917Y-149774505D01*
X112727726Y-149850696D01*
X112651536Y-149888791D01*
X113375346Y-149660220D02*
X113870584Y-149660220D01*
X113603917Y-149964982D01*
X113718203Y-149964982D01*
X113794393Y-150003077D01*
X113832489Y-150041172D01*
X113870584Y-150117363D01*
X113870584Y-150307839D01*
X113832489Y-150384029D01*
X113794393Y-150422125D01*
X113718203Y-150460220D01*
X113489631Y-150460220D01*
X113413441Y-150422125D01*
X113375346Y-150384029D01*
X114784870Y-149736410D02*
X114822965Y-149698315D01*
X114899156Y-149660220D01*
X115089632Y-149660220D01*
X115165822Y-149698315D01*
X115203918Y-149736410D01*
X115242013Y-149812601D01*
X115242013Y-149888791D01*
X115203918Y-150003077D01*
X114746775Y-150460220D01*
X115242013Y-150460220D01*
X115546775Y-149736410D02*
X115584870Y-149698315D01*
X115661061Y-149660220D01*
X115851537Y-149660220D01*
X115927727Y-149698315D01*
X115965823Y-149736410D01*
X116003918Y-149812601D01*
X116003918Y-149888791D01*
X115965823Y-150003077D01*
X115508680Y-150460220D01*
X116003918Y-150460220D01*
X116499156Y-149660220D02*
X116575347Y-149660220D01*
X116651537Y-149698315D01*
X116689632Y-149736410D01*
X116727728Y-149812601D01*
X116765823Y-149964982D01*
X116765823Y-150155458D01*
X116727728Y-150307839D01*
X116689632Y-150384029D01*
X116651537Y-150422125D01*
X116575347Y-150460220D01*
X116499156Y-150460220D01*
X116422966Y-150422125D01*
X116384870Y-150384029D01*
X116346775Y-150307839D01*
X116308680Y-150155458D01*
X116308680Y-149964982D01*
X116346775Y-149812601D01*
X116384870Y-149736410D01*
X116422966Y-149698315D01*
X116499156Y-149660220D01*
X117108680Y-149926886D02*
X117108680Y-150726886D01*
X117108680Y-149964982D02*
X117184871Y-149926886D01*
X117337252Y-149926886D01*
X117413442Y-149964982D01*
X117451537Y-150003077D01*
X117489633Y-150079267D01*
X117489633Y-150307839D01*
X117451537Y-150384029D01*
X117413442Y-150422125D01*
X117337252Y-150460220D01*
X117184871Y-150460220D01*
X117108680Y-150422125D01*
X118099157Y-150041172D02*
X117832490Y-150041172D01*
X117832490Y-150460220D02*
X117832490Y-149660220D01*
X118213443Y-149660220D01*
D12*
X73299155Y-135648315D02*
X73299155Y-141348315D01*
X79999155Y-135648315D02*
X70499155Y-135648315D01*
X79999155Y-141348315D02*
X79999155Y-135648315D01*
X70499155Y-141348315D02*
X79999155Y-141348315D01*
X70499155Y-135648315D02*
X70499155Y-141348315D01*
D11*
X70889631Y-135985220D02*
X70889631Y-136632839D01*
X70927726Y-136709029D01*
X70965822Y-136747125D01*
X71042012Y-136785220D01*
X71194393Y-136785220D01*
X71270584Y-136747125D01*
X71308679Y-136709029D01*
X71346774Y-136632839D01*
X71346774Y-135985220D01*
X72108679Y-135985220D02*
X71727726Y-135985220D01*
X71689631Y-136366172D01*
X71727726Y-136328077D01*
X71803917Y-136289982D01*
X71994393Y-136289982D01*
X72070583Y-136328077D01*
X72108679Y-136366172D01*
X72146774Y-136442363D01*
X72146774Y-136632839D01*
X72108679Y-136709029D01*
X72070583Y-136747125D01*
X71994393Y-136785220D01*
X71803917Y-136785220D01*
X71727726Y-136747125D01*
X71689631Y-136709029D01*
X73708679Y-136785220D02*
X73708679Y-135985220D01*
X73975346Y-136556648D01*
X74242013Y-135985220D01*
X74242013Y-136785220D01*
X75080108Y-136709029D02*
X75042013Y-136747125D01*
X74927727Y-136785220D01*
X74851537Y-136785220D01*
X74737251Y-136747125D01*
X74661060Y-136670934D01*
X74622965Y-136594744D01*
X74584870Y-136442363D01*
X74584870Y-136328077D01*
X74622965Y-136175696D01*
X74661060Y-136099505D01*
X74737251Y-136023315D01*
X74851537Y-135985220D01*
X74927727Y-135985220D01*
X75042013Y-136023315D01*
X75080108Y-136061410D01*
X75422965Y-136785220D02*
X75422965Y-135985220D01*
X75727727Y-135985220D01*
X75803918Y-136023315D01*
X75842013Y-136061410D01*
X75880108Y-136137601D01*
X75880108Y-136251886D01*
X75842013Y-136328077D01*
X75803918Y-136366172D01*
X75727727Y-136404267D01*
X75422965Y-136404267D01*
X76184870Y-136061410D02*
X76222965Y-136023315D01*
X76299156Y-135985220D01*
X76489632Y-135985220D01*
X76565822Y-136023315D01*
X76603918Y-136061410D01*
X76642013Y-136137601D01*
X76642013Y-136213791D01*
X76603918Y-136328077D01*
X76146775Y-136785220D01*
X76642013Y-136785220D01*
X76908680Y-135985220D02*
X77403918Y-135985220D01*
X77137251Y-136289982D01*
X77251537Y-136289982D01*
X77327727Y-136328077D01*
X77365823Y-136366172D01*
X77403918Y-136442363D01*
X77403918Y-136632839D01*
X77365823Y-136709029D01*
X77327727Y-136747125D01*
X77251537Y-136785220D01*
X77022965Y-136785220D01*
X76946775Y-136747125D01*
X76908680Y-136709029D01*
X77708680Y-136747125D02*
X77822966Y-136785220D01*
X78013442Y-136785220D01*
X78089632Y-136747125D01*
X78127728Y-136709029D01*
X78165823Y-136632839D01*
X78165823Y-136556648D01*
X78127728Y-136480458D01*
X78089632Y-136442363D01*
X78013442Y-136404267D01*
X77861061Y-136366172D01*
X77784870Y-136328077D01*
X77746775Y-136289982D01*
X77708680Y-136213791D01*
X77708680Y-136137601D01*
X77746775Y-136061410D01*
X77784870Y-136023315D01*
X77861061Y-135985220D01*
X78051537Y-135985220D01*
X78165823Y-136023315D01*
X78927728Y-136785220D02*
X78470585Y-136785220D01*
X78699156Y-136785220D02*
X78699156Y-135985220D01*
X78622966Y-136099505D01*
X78546775Y-136175696D01*
X78470585Y-136213791D01*
X79194395Y-135985220D02*
X79727728Y-135985220D01*
X79384871Y-136785220D01*
X71346774Y-138059029D02*
X71308679Y-138097125D01*
X71194393Y-138135220D01*
X71118203Y-138135220D01*
X71003917Y-138097125D01*
X70927726Y-138020934D01*
X70889631Y-137944744D01*
X70851536Y-137792363D01*
X70851536Y-137678077D01*
X70889631Y-137525696D01*
X70927726Y-137449505D01*
X71003917Y-137373315D01*
X71118203Y-137335220D01*
X71194393Y-137335220D01*
X71308679Y-137373315D01*
X71346774Y-137411410D01*
X72108679Y-138135220D02*
X71651536Y-138135220D01*
X71880107Y-138135220D02*
X71880107Y-137335220D01*
X71803917Y-137449505D01*
X71727726Y-137525696D01*
X71651536Y-137563791D01*
X72794393Y-137335220D02*
X72642012Y-137335220D01*
X72565822Y-137373315D01*
X72527727Y-137411410D01*
X72451536Y-137525696D01*
X72413441Y-137678077D01*
X72413441Y-137982839D01*
X72451536Y-138059029D01*
X72489631Y-138097125D01*
X72565822Y-138135220D01*
X72718203Y-138135220D01*
X72794393Y-138097125D01*
X72832489Y-138059029D01*
X72870584Y-137982839D01*
X72870584Y-137792363D01*
X72832489Y-137716172D01*
X72794393Y-137678077D01*
X72718203Y-137639982D01*
X72565822Y-137639982D01*
X72489631Y-137678077D01*
X72451536Y-137716172D01*
X72413441Y-137792363D01*
X74242013Y-138135220D02*
X73784870Y-138135220D01*
X74013441Y-138135220D02*
X74013441Y-137335220D01*
X73937251Y-137449505D01*
X73861060Y-137525696D01*
X73784870Y-137563791D01*
X74737251Y-137335220D02*
X74813442Y-137335220D01*
X74889632Y-137373315D01*
X74927727Y-137411410D01*
X74965823Y-137487601D01*
X75003918Y-137639982D01*
X75003918Y-137830458D01*
X74965823Y-137982839D01*
X74927727Y-138059029D01*
X74889632Y-138097125D01*
X74813442Y-138135220D01*
X74737251Y-138135220D01*
X74661061Y-138097125D01*
X74622965Y-138059029D01*
X74584870Y-137982839D01*
X74546775Y-137830458D01*
X74546775Y-137639982D01*
X74584870Y-137487601D01*
X74622965Y-137411410D01*
X74661061Y-137373315D01*
X74737251Y-137335220D01*
X75499156Y-137335220D02*
X75575347Y-137335220D01*
X75651537Y-137373315D01*
X75689632Y-137411410D01*
X75727728Y-137487601D01*
X75765823Y-137639982D01*
X75765823Y-137830458D01*
X75727728Y-137982839D01*
X75689632Y-138059029D01*
X75651537Y-138097125D01*
X75575347Y-138135220D01*
X75499156Y-138135220D01*
X75422966Y-138097125D01*
X75384870Y-138059029D01*
X75346775Y-137982839D01*
X75308680Y-137830458D01*
X75308680Y-137639982D01*
X75346775Y-137487601D01*
X75384870Y-137411410D01*
X75422966Y-137373315D01*
X75499156Y-137335220D01*
X76108680Y-137601886D02*
X76108680Y-138135220D01*
X76108680Y-137678077D02*
X76146775Y-137639982D01*
X76222966Y-137601886D01*
X76337252Y-137601886D01*
X76413442Y-137639982D01*
X76451537Y-137716172D01*
X76451537Y-138135220D01*
X77099157Y-137716172D02*
X76832490Y-137716172D01*
X76832490Y-138135220D02*
X76832490Y-137335220D01*
X77213443Y-137335220D01*
X71346774Y-139485220D02*
X71080107Y-139104267D01*
X70889631Y-139485220D02*
X70889631Y-138685220D01*
X71194393Y-138685220D01*
X71270584Y-138723315D01*
X71308679Y-138761410D01*
X71346774Y-138837601D01*
X71346774Y-138951886D01*
X71308679Y-139028077D01*
X71270584Y-139066172D01*
X71194393Y-139104267D01*
X70889631Y-139104267D01*
X71651536Y-138761410D02*
X71689631Y-138723315D01*
X71765822Y-138685220D01*
X71956298Y-138685220D01*
X72032488Y-138723315D01*
X72070584Y-138761410D01*
X72108679Y-138837601D01*
X72108679Y-138913791D01*
X72070584Y-139028077D01*
X71613441Y-139485220D01*
X72108679Y-139485220D01*
X72603917Y-138685220D02*
X72680108Y-138685220D01*
X72756298Y-138723315D01*
X72794393Y-138761410D01*
X72832489Y-138837601D01*
X72870584Y-138989982D01*
X72870584Y-139180458D01*
X72832489Y-139332839D01*
X72794393Y-139409029D01*
X72756298Y-139447125D01*
X72680108Y-139485220D01*
X72603917Y-139485220D01*
X72527727Y-139447125D01*
X72489631Y-139409029D01*
X72451536Y-139332839D01*
X72413441Y-139180458D01*
X72413441Y-138989982D01*
X72451536Y-138837601D01*
X72489631Y-138761410D01*
X72527727Y-138723315D01*
X72603917Y-138685220D01*
X74242013Y-139485220D02*
X73784870Y-139485220D01*
X74013441Y-139485220D02*
X74013441Y-138685220D01*
X73937251Y-138799505D01*
X73861060Y-138875696D01*
X73784870Y-138913791D01*
X74737251Y-138685220D02*
X74813442Y-138685220D01*
X74889632Y-138723315D01*
X74927727Y-138761410D01*
X74965823Y-138837601D01*
X75003918Y-138989982D01*
X75003918Y-139180458D01*
X74965823Y-139332839D01*
X74927727Y-139409029D01*
X74889632Y-139447125D01*
X74813442Y-139485220D01*
X74737251Y-139485220D01*
X74661061Y-139447125D01*
X74622965Y-139409029D01*
X74584870Y-139332839D01*
X74546775Y-139180458D01*
X74546775Y-138989982D01*
X74584870Y-138837601D01*
X74622965Y-138761410D01*
X74661061Y-138723315D01*
X74737251Y-138685220D01*
X75346775Y-139485220D02*
X75346775Y-138685220D01*
X75422966Y-139180458D02*
X75651537Y-139485220D01*
X75651537Y-138951886D02*
X75346775Y-139256648D01*
X71346774Y-140759029D02*
X71308679Y-140797125D01*
X71194393Y-140835220D01*
X71118203Y-140835220D01*
X71003917Y-140797125D01*
X70927726Y-140720934D01*
X70889631Y-140644744D01*
X70851536Y-140492363D01*
X70851536Y-140378077D01*
X70889631Y-140225696D01*
X70927726Y-140149505D01*
X71003917Y-140073315D01*
X71118203Y-140035220D01*
X71194393Y-140035220D01*
X71308679Y-140073315D01*
X71346774Y-140111410D01*
X71613441Y-140035220D02*
X72108679Y-140035220D01*
X71842012Y-140339982D01*
X71956298Y-140339982D01*
X72032488Y-140378077D01*
X72070584Y-140416172D01*
X72108679Y-140492363D01*
X72108679Y-140682839D01*
X72070584Y-140759029D01*
X72032488Y-140797125D01*
X71956298Y-140835220D01*
X71727726Y-140835220D01*
X71651536Y-140797125D01*
X71613441Y-140759029D01*
X74013441Y-140301886D02*
X74013441Y-140835220D01*
X73822965Y-139997125D02*
X73632489Y-140568553D01*
X74127727Y-140568553D01*
X74356299Y-140035220D02*
X74889632Y-140035220D01*
X74546775Y-140835220D01*
X75537251Y-140301886D02*
X75537251Y-140835220D01*
X75194394Y-140301886D02*
X75194394Y-140720934D01*
X75232489Y-140797125D01*
X75308680Y-140835220D01*
X75422966Y-140835220D01*
X75499156Y-140797125D01*
X75537251Y-140759029D01*
X76184871Y-140416172D02*
X75918204Y-140416172D01*
X75918204Y-140835220D02*
X75918204Y-140035220D01*
X76299157Y-140035220D01*
D14*
X110713572Y-155667143D02*
X111856429Y-155667143D01*
X110713572Y-158267143D02*
X111856429Y-158267143D01*
X111285000Y-158838571D02*
X111285000Y-157695714D01*
D12*
X78361000Y-73026402D02*
X78361000Y-73534402D01*
X78361000Y-73280402D02*
X78361000Y-68962402D01*
X81155000Y-73534402D02*
X81155000Y-73280402D01*
X75313000Y-73534402D02*
X81155000Y-73534402D01*
X75313000Y-68962402D02*
X75313000Y-73534402D01*
X81155000Y-68962402D02*
X75313000Y-68962402D01*
X81155000Y-73280402D02*
X81155000Y-68962402D01*
D11*
X76346774Y-70260220D02*
X76080107Y-69879267D01*
X75889631Y-70260220D02*
X75889631Y-69460220D01*
X76194393Y-69460220D01*
X76270584Y-69498315D01*
X76308679Y-69536410D01*
X76346774Y-69612601D01*
X76346774Y-69726886D01*
X76308679Y-69803077D01*
X76270584Y-69841172D01*
X76194393Y-69879267D01*
X75889631Y-69879267D01*
X77108679Y-70260220D02*
X76651536Y-70260220D01*
X76880107Y-70260220D02*
X76880107Y-69460220D01*
X76803917Y-69574505D01*
X76727726Y-69650696D01*
X76651536Y-69688791D01*
X79089632Y-70260220D02*
X78632489Y-70260220D01*
X78861060Y-70260220D02*
X78861060Y-69460220D01*
X78784870Y-69574505D01*
X78708679Y-69650696D01*
X78632489Y-69688791D01*
X79432489Y-70260220D02*
X79432489Y-69460220D01*
X79508680Y-69955458D02*
X79737251Y-70260220D01*
X79737251Y-69726886D02*
X79432489Y-70031648D01*
X76346774Y-71610220D02*
X76080107Y-71229267D01*
X75889631Y-71610220D02*
X75889631Y-70810220D01*
X76194393Y-70810220D01*
X76270584Y-70848315D01*
X76308679Y-70886410D01*
X76346774Y-70962601D01*
X76346774Y-71076886D01*
X76308679Y-71153077D01*
X76270584Y-71191172D01*
X76194393Y-71229267D01*
X75889631Y-71229267D01*
X77108679Y-71610220D02*
X76651536Y-71610220D01*
X76880107Y-71610220D02*
X76880107Y-70810220D01*
X76803917Y-70924505D01*
X76727726Y-71000696D01*
X76651536Y-71038791D01*
X77375346Y-70810220D02*
X77870584Y-70810220D01*
X77603917Y-71114982D01*
X77718203Y-71114982D01*
X77794393Y-71153077D01*
X77832489Y-71191172D01*
X77870584Y-71267363D01*
X77870584Y-71457839D01*
X77832489Y-71534029D01*
X77794393Y-71572125D01*
X77718203Y-71610220D01*
X77489631Y-71610220D01*
X77413441Y-71572125D01*
X77375346Y-71534029D01*
X79242013Y-71610220D02*
X78784870Y-71610220D01*
X79013441Y-71610220D02*
X79013441Y-70810220D01*
X78937251Y-70924505D01*
X78861060Y-71000696D01*
X78784870Y-71038791D01*
X79584870Y-71610220D02*
X79584870Y-70810220D01*
X79661061Y-71305458D02*
X79889632Y-71610220D01*
X79889632Y-71076886D02*
X79584870Y-71381648D01*
X76346774Y-72960220D02*
X76080107Y-72579267D01*
X75889631Y-72960220D02*
X75889631Y-72160220D01*
X76194393Y-72160220D01*
X76270584Y-72198315D01*
X76308679Y-72236410D01*
X76346774Y-72312601D01*
X76346774Y-72426886D01*
X76308679Y-72503077D01*
X76270584Y-72541172D01*
X76194393Y-72579267D01*
X75889631Y-72579267D01*
X77108679Y-72960220D02*
X76651536Y-72960220D01*
X76880107Y-72960220D02*
X76880107Y-72160220D01*
X76803917Y-72274505D01*
X76727726Y-72350696D01*
X76651536Y-72388791D01*
X77794393Y-72426886D02*
X77794393Y-72960220D01*
X77603917Y-72122125D02*
X77413441Y-72693553D01*
X77908679Y-72693553D01*
X79242013Y-72960220D02*
X78784870Y-72960220D01*
X79013441Y-72960220D02*
X79013441Y-72160220D01*
X78937251Y-72274505D01*
X78861060Y-72350696D01*
X78784870Y-72388791D01*
X79584870Y-72960220D02*
X79584870Y-72160220D01*
X79661061Y-72655458D02*
X79889632Y-72960220D01*
X79889632Y-72426886D02*
X79584870Y-72731648D01*
D12*
X89899155Y-135848315D02*
X89899155Y-144348315D01*
X93703155Y-135848315D02*
X87099155Y-135848315D01*
X93799155Y-144348315D02*
X93799000Y-135922000D01*
X87095155Y-144348315D02*
X93799155Y-144348315D01*
X87099155Y-135848315D02*
X87099155Y-144348315D01*
D11*
X88046774Y-137235220D02*
X87780107Y-136854267D01*
X87589631Y-137235220D02*
X87589631Y-136435220D01*
X87894393Y-136435220D01*
X87970584Y-136473315D01*
X88008679Y-136511410D01*
X88046774Y-136587601D01*
X88046774Y-136701886D01*
X88008679Y-136778077D01*
X87970584Y-136816172D01*
X87894393Y-136854267D01*
X87589631Y-136854267D01*
X88427726Y-137235220D02*
X88580107Y-137235220D01*
X88656298Y-137197125D01*
X88694393Y-137159029D01*
X88770584Y-137044744D01*
X88808679Y-136892363D01*
X88808679Y-136587601D01*
X88770584Y-136511410D01*
X88732488Y-136473315D01*
X88656298Y-136435220D01*
X88503917Y-136435220D01*
X88427726Y-136473315D01*
X88389631Y-136511410D01*
X88351536Y-136587601D01*
X88351536Y-136778077D01*
X88389631Y-136854267D01*
X88427726Y-136892363D01*
X88503917Y-136930458D01*
X88656298Y-136930458D01*
X88732488Y-136892363D01*
X88770584Y-136854267D01*
X88808679Y-136778077D01*
X90332489Y-136511410D02*
X90370584Y-136473315D01*
X90446775Y-136435220D01*
X90637251Y-136435220D01*
X90713441Y-136473315D01*
X90751537Y-136511410D01*
X90789632Y-136587601D01*
X90789632Y-136663791D01*
X90751537Y-136778077D01*
X90294394Y-137235220D01*
X90789632Y-137235220D01*
X91056299Y-136435220D02*
X91589632Y-136435220D01*
X91246775Y-137235220D01*
X92046775Y-136435220D02*
X92122966Y-136435220D01*
X92199156Y-136473315D01*
X92237251Y-136511410D01*
X92275347Y-136587601D01*
X92313442Y-136739982D01*
X92313442Y-136930458D01*
X92275347Y-137082839D01*
X92237251Y-137159029D01*
X92199156Y-137197125D01*
X92122966Y-137235220D01*
X92046775Y-137235220D01*
X91970585Y-137197125D01*
X91932489Y-137159029D01*
X91894394Y-137082839D01*
X91856299Y-136930458D01*
X91856299Y-136739982D01*
X91894394Y-136587601D01*
X91932489Y-136511410D01*
X91970585Y-136473315D01*
X92046775Y-136435220D01*
X93113442Y-137235220D02*
X92846775Y-136854267D01*
X92656299Y-137235220D02*
X92656299Y-136435220D01*
X92961061Y-136435220D01*
X93037252Y-136473315D01*
X93075347Y-136511410D01*
X93113442Y-136587601D01*
X93113442Y-136701886D01*
X93075347Y-136778077D01*
X93037252Y-136816172D01*
X92961061Y-136854267D01*
X92656299Y-136854267D01*
X88046774Y-138585220D02*
X87780107Y-138204267D01*
X87589631Y-138585220D02*
X87589631Y-137785220D01*
X87894393Y-137785220D01*
X87970584Y-137823315D01*
X88008679Y-137861410D01*
X88046774Y-137937601D01*
X88046774Y-138051886D01*
X88008679Y-138128077D01*
X87970584Y-138166172D01*
X87894393Y-138204267D01*
X87589631Y-138204267D01*
X88808679Y-138585220D02*
X88351536Y-138585220D01*
X88580107Y-138585220D02*
X88580107Y-137785220D01*
X88503917Y-137899505D01*
X88427726Y-137975696D01*
X88351536Y-138013791D01*
X89303917Y-137785220D02*
X89380108Y-137785220D01*
X89456298Y-137823315D01*
X89494393Y-137861410D01*
X89532489Y-137937601D01*
X89570584Y-138089982D01*
X89570584Y-138280458D01*
X89532489Y-138432839D01*
X89494393Y-138509029D01*
X89456298Y-138547125D01*
X89380108Y-138585220D01*
X89303917Y-138585220D01*
X89227727Y-138547125D01*
X89189631Y-138509029D01*
X89151536Y-138432839D01*
X89113441Y-138280458D01*
X89113441Y-138089982D01*
X89151536Y-137937601D01*
X89189631Y-137861410D01*
X89227727Y-137823315D01*
X89303917Y-137785220D01*
X90942013Y-138585220D02*
X90484870Y-138585220D01*
X90713441Y-138585220D02*
X90713441Y-137785220D01*
X90637251Y-137899505D01*
X90561060Y-137975696D01*
X90484870Y-138013791D01*
X91665823Y-137785220D02*
X91284870Y-137785220D01*
X91246775Y-138166172D01*
X91284870Y-138128077D01*
X91361061Y-138089982D01*
X91551537Y-138089982D01*
X91627727Y-138128077D01*
X91665823Y-138166172D01*
X91703918Y-138242363D01*
X91703918Y-138432839D01*
X91665823Y-138509029D01*
X91627727Y-138547125D01*
X91551537Y-138585220D01*
X91361061Y-138585220D01*
X91284870Y-138547125D01*
X91246775Y-138509029D01*
X92199156Y-137785220D02*
X92275347Y-137785220D01*
X92351537Y-137823315D01*
X92389632Y-137861410D01*
X92427728Y-137937601D01*
X92465823Y-138089982D01*
X92465823Y-138280458D01*
X92427728Y-138432839D01*
X92389632Y-138509029D01*
X92351537Y-138547125D01*
X92275347Y-138585220D01*
X92199156Y-138585220D01*
X92122966Y-138547125D01*
X92084870Y-138509029D01*
X92046775Y-138432839D01*
X92008680Y-138280458D01*
X92008680Y-138089982D01*
X92046775Y-137937601D01*
X92084870Y-137861410D01*
X92122966Y-137823315D01*
X92199156Y-137785220D01*
X93265823Y-138585220D02*
X92999156Y-138204267D01*
X92808680Y-138585220D02*
X92808680Y-137785220D01*
X93113442Y-137785220D01*
X93189633Y-137823315D01*
X93227728Y-137861410D01*
X93265823Y-137937601D01*
X93265823Y-138051886D01*
X93227728Y-138128077D01*
X93189633Y-138166172D01*
X93113442Y-138204267D01*
X92808680Y-138204267D01*
X88046774Y-139859029D02*
X88008679Y-139897125D01*
X87894393Y-139935220D01*
X87818203Y-139935220D01*
X87703917Y-139897125D01*
X87627726Y-139820934D01*
X87589631Y-139744744D01*
X87551536Y-139592363D01*
X87551536Y-139478077D01*
X87589631Y-139325696D01*
X87627726Y-139249505D01*
X87703917Y-139173315D01*
X87818203Y-139135220D01*
X87894393Y-139135220D01*
X88008679Y-139173315D01*
X88046774Y-139211410D01*
X88351536Y-139211410D02*
X88389631Y-139173315D01*
X88465822Y-139135220D01*
X88656298Y-139135220D01*
X88732488Y-139173315D01*
X88770584Y-139211410D01*
X88808679Y-139287601D01*
X88808679Y-139363791D01*
X88770584Y-139478077D01*
X88313441Y-139935220D01*
X88808679Y-139935220D01*
X90294394Y-139135220D02*
X90789632Y-139135220D01*
X90522965Y-139439982D01*
X90637251Y-139439982D01*
X90713441Y-139478077D01*
X90751537Y-139516172D01*
X90789632Y-139592363D01*
X90789632Y-139782839D01*
X90751537Y-139859029D01*
X90713441Y-139897125D01*
X90637251Y-139935220D01*
X90408679Y-139935220D01*
X90332489Y-139897125D01*
X90294394Y-139859029D01*
X91056299Y-139135220D02*
X91551537Y-139135220D01*
X91284870Y-139439982D01*
X91399156Y-139439982D01*
X91475346Y-139478077D01*
X91513442Y-139516172D01*
X91551537Y-139592363D01*
X91551537Y-139782839D01*
X91513442Y-139859029D01*
X91475346Y-139897125D01*
X91399156Y-139935220D01*
X91170584Y-139935220D01*
X91094394Y-139897125D01*
X91056299Y-139859029D01*
X91894394Y-139401886D02*
X91894394Y-139935220D01*
X91894394Y-139478077D02*
X91932489Y-139439982D01*
X92008680Y-139401886D01*
X92122966Y-139401886D01*
X92199156Y-139439982D01*
X92237251Y-139516172D01*
X92237251Y-139935220D01*
X88046774Y-141209029D02*
X88008679Y-141247125D01*
X87894393Y-141285220D01*
X87818203Y-141285220D01*
X87703917Y-141247125D01*
X87627726Y-141170934D01*
X87589631Y-141094744D01*
X87551536Y-140942363D01*
X87551536Y-140828077D01*
X87589631Y-140675696D01*
X87627726Y-140599505D01*
X87703917Y-140523315D01*
X87818203Y-140485220D01*
X87894393Y-140485220D01*
X88008679Y-140523315D01*
X88046774Y-140561410D01*
X88732488Y-140751886D02*
X88732488Y-141285220D01*
X88542012Y-140447125D02*
X88351536Y-141018553D01*
X88846774Y-141018553D01*
X90789632Y-141285220D02*
X90332489Y-141285220D01*
X90561060Y-141285220D02*
X90561060Y-140485220D01*
X90484870Y-140599505D01*
X90408679Y-140675696D01*
X90332489Y-140713791D01*
X91284870Y-140485220D02*
X91361061Y-140485220D01*
X91437251Y-140523315D01*
X91475346Y-140561410D01*
X91513442Y-140637601D01*
X91551537Y-140789982D01*
X91551537Y-140980458D01*
X91513442Y-141132839D01*
X91475346Y-141209029D01*
X91437251Y-141247125D01*
X91361061Y-141285220D01*
X91284870Y-141285220D01*
X91208680Y-141247125D01*
X91170584Y-141209029D01*
X91132489Y-141132839D01*
X91094394Y-140980458D01*
X91094394Y-140789982D01*
X91132489Y-140637601D01*
X91170584Y-140561410D01*
X91208680Y-140523315D01*
X91284870Y-140485220D01*
X92237251Y-140751886D02*
X92237251Y-141285220D01*
X91894394Y-140751886D02*
X91894394Y-141170934D01*
X91932489Y-141247125D01*
X92008680Y-141285220D01*
X92122966Y-141285220D01*
X92199156Y-141247125D01*
X92237251Y-141209029D01*
X92884871Y-140866172D02*
X92618204Y-140866172D01*
X92618204Y-141285220D02*
X92618204Y-140485220D01*
X92999157Y-140485220D01*
X88046774Y-142635220D02*
X87780107Y-142254267D01*
X87589631Y-142635220D02*
X87589631Y-141835220D01*
X87894393Y-141835220D01*
X87970584Y-141873315D01*
X88008679Y-141911410D01*
X88046774Y-141987601D01*
X88046774Y-142101886D01*
X88008679Y-142178077D01*
X87970584Y-142216172D01*
X87894393Y-142254267D01*
X87589631Y-142254267D01*
X88808679Y-142635220D02*
X88351536Y-142635220D01*
X88580107Y-142635220D02*
X88580107Y-141835220D01*
X88503917Y-141949505D01*
X88427726Y-142025696D01*
X88351536Y-142063791D01*
X89113441Y-141911410D02*
X89151536Y-141873315D01*
X89227727Y-141835220D01*
X89418203Y-141835220D01*
X89494393Y-141873315D01*
X89532489Y-141911410D01*
X89570584Y-141987601D01*
X89570584Y-142063791D01*
X89532489Y-142178077D01*
X89075346Y-142635220D01*
X89570584Y-142635220D01*
X90942013Y-142635220D02*
X90484870Y-142635220D01*
X90713441Y-142635220D02*
X90713441Y-141835220D01*
X90637251Y-141949505D01*
X90561060Y-142025696D01*
X90484870Y-142063791D01*
X91437251Y-141835220D02*
X91513442Y-141835220D01*
X91589632Y-141873315D01*
X91627727Y-141911410D01*
X91665823Y-141987601D01*
X91703918Y-142139982D01*
X91703918Y-142330458D01*
X91665823Y-142482839D01*
X91627727Y-142559029D01*
X91589632Y-142597125D01*
X91513442Y-142635220D01*
X91437251Y-142635220D01*
X91361061Y-142597125D01*
X91322965Y-142559029D01*
X91284870Y-142482839D01*
X91246775Y-142330458D01*
X91246775Y-142139982D01*
X91284870Y-141987601D01*
X91322965Y-141911410D01*
X91361061Y-141873315D01*
X91437251Y-141835220D01*
X92199156Y-141835220D02*
X92275347Y-141835220D01*
X92351537Y-141873315D01*
X92389632Y-141911410D01*
X92427728Y-141987601D01*
X92465823Y-142139982D01*
X92465823Y-142330458D01*
X92427728Y-142482839D01*
X92389632Y-142559029D01*
X92351537Y-142597125D01*
X92275347Y-142635220D01*
X92199156Y-142635220D01*
X92122966Y-142597125D01*
X92084870Y-142559029D01*
X92046775Y-142482839D01*
X92008680Y-142330458D01*
X92008680Y-142139982D01*
X92046775Y-141987601D01*
X92084870Y-141911410D01*
X92122966Y-141873315D01*
X92199156Y-141835220D01*
X93265823Y-142635220D02*
X92999156Y-142254267D01*
X92808680Y-142635220D02*
X92808680Y-141835220D01*
X93113442Y-141835220D01*
X93189633Y-141873315D01*
X93227728Y-141911410D01*
X93265823Y-141987601D01*
X93265823Y-142101886D01*
X93227728Y-142178077D01*
X93189633Y-142216172D01*
X93113442Y-142254267D01*
X92808680Y-142254267D01*
X88046774Y-143985220D02*
X87780107Y-143604267D01*
X87589631Y-143985220D02*
X87589631Y-143185220D01*
X87894393Y-143185220D01*
X87970584Y-143223315D01*
X88008679Y-143261410D01*
X88046774Y-143337601D01*
X88046774Y-143451886D01*
X88008679Y-143528077D01*
X87970584Y-143566172D01*
X87894393Y-143604267D01*
X87589631Y-143604267D01*
X88808679Y-143985220D02*
X88351536Y-143985220D01*
X88580107Y-143985220D02*
X88580107Y-143185220D01*
X88503917Y-143299505D01*
X88427726Y-143375696D01*
X88351536Y-143413791D01*
X89570584Y-143985220D02*
X89113441Y-143985220D01*
X89342012Y-143985220D02*
X89342012Y-143185220D01*
X89265822Y-143299505D01*
X89189631Y-143375696D01*
X89113441Y-143413791D01*
X90942013Y-143985220D02*
X90484870Y-143985220D01*
X90713441Y-143985220D02*
X90713441Y-143185220D01*
X90637251Y-143299505D01*
X90561060Y-143375696D01*
X90484870Y-143413791D01*
X91437251Y-143185220D02*
X91513442Y-143185220D01*
X91589632Y-143223315D01*
X91627727Y-143261410D01*
X91665823Y-143337601D01*
X91703918Y-143489982D01*
X91703918Y-143680458D01*
X91665823Y-143832839D01*
X91627727Y-143909029D01*
X91589632Y-143947125D01*
X91513442Y-143985220D01*
X91437251Y-143985220D01*
X91361061Y-143947125D01*
X91322965Y-143909029D01*
X91284870Y-143832839D01*
X91246775Y-143680458D01*
X91246775Y-143489982D01*
X91284870Y-143337601D01*
X91322965Y-143261410D01*
X91361061Y-143223315D01*
X91437251Y-143185220D01*
X92199156Y-143185220D02*
X92275347Y-143185220D01*
X92351537Y-143223315D01*
X92389632Y-143261410D01*
X92427728Y-143337601D01*
X92465823Y-143489982D01*
X92465823Y-143680458D01*
X92427728Y-143832839D01*
X92389632Y-143909029D01*
X92351537Y-143947125D01*
X92275347Y-143985220D01*
X92199156Y-143985220D01*
X92122966Y-143947125D01*
X92084870Y-143909029D01*
X92046775Y-143832839D01*
X92008680Y-143680458D01*
X92008680Y-143489982D01*
X92046775Y-143337601D01*
X92084870Y-143261410D01*
X92122966Y-143223315D01*
X92199156Y-143185220D01*
X93265823Y-143985220D02*
X92999156Y-143604267D01*
X92808680Y-143985220D02*
X92808680Y-143185220D01*
X93113442Y-143185220D01*
X93189633Y-143223315D01*
X93227728Y-143261410D01*
X93265823Y-143337601D01*
X93265823Y-143451886D01*
X93227728Y-143528077D01*
X93189633Y-143566172D01*
X93113442Y-143604267D01*
X92808680Y-143604267D01*
D14*
X103806429Y-145092143D02*
X104020715Y-145163571D01*
X104377858Y-145163571D01*
X104520715Y-145092143D01*
X104592144Y-145020714D01*
X104663572Y-144877857D01*
X104663572Y-144735000D01*
X104592144Y-144592143D01*
X104520715Y-144520714D01*
X104377858Y-144449286D01*
X104092144Y-144377857D01*
X103949286Y-144306429D01*
X103877858Y-144235000D01*
X103806429Y-144092143D01*
X103806429Y-143949286D01*
X103877858Y-143806429D01*
X103949286Y-143735000D01*
X104092144Y-143663571D01*
X104449286Y-143663571D01*
X104663572Y-143735000D01*
X105092143Y-144163571D02*
X105663572Y-144163571D01*
X105306429Y-143663571D02*
X105306429Y-144949286D01*
X105377857Y-145092143D01*
X105520715Y-145163571D01*
X105663572Y-145163571D01*
X106806429Y-145163571D02*
X106806429Y-144377857D01*
X106735000Y-144235000D01*
X106592143Y-144163571D01*
X106306429Y-144163571D01*
X106163572Y-144235000D01*
X106806429Y-145092143D02*
X106663572Y-145163571D01*
X106306429Y-145163571D01*
X106163572Y-145092143D01*
X106092143Y-144949286D01*
X106092143Y-144806429D01*
X106163572Y-144663571D01*
X106306429Y-144592143D01*
X106663572Y-144592143D01*
X106806429Y-144520714D01*
X107520715Y-145163571D02*
X107520715Y-144163571D01*
X107520715Y-144449286D02*
X107592143Y-144306429D01*
X107663572Y-144235000D01*
X107806429Y-144163571D01*
X107949286Y-144163571D01*
X108235000Y-144163571D02*
X108806429Y-144163571D01*
X108449286Y-143663571D02*
X108449286Y-144949286D01*
X108520714Y-145092143D01*
X108663572Y-145163571D01*
X108806429Y-145163571D01*
X94581429Y-144917143D02*
X94795715Y-144988571D01*
X95152858Y-144988571D01*
X95295715Y-144917143D01*
X95367144Y-144845714D01*
X95438572Y-144702857D01*
X95438572Y-144560000D01*
X95367144Y-144417143D01*
X95295715Y-144345714D01*
X95152858Y-144274286D01*
X94867144Y-144202857D01*
X94724286Y-144131429D01*
X94652858Y-144060000D01*
X94581429Y-143917143D01*
X94581429Y-143774286D01*
X94652858Y-143631429D01*
X94724286Y-143560000D01*
X94867144Y-143488571D01*
X95224286Y-143488571D01*
X95438572Y-143560000D01*
X96652857Y-144917143D02*
X96510000Y-144988571D01*
X96224286Y-144988571D01*
X96081429Y-144917143D01*
X96010000Y-144774286D01*
X96010000Y-144202857D01*
X96081429Y-144060000D01*
X96224286Y-143988571D01*
X96510000Y-143988571D01*
X96652857Y-144060000D01*
X96724286Y-144202857D01*
X96724286Y-144345714D01*
X96010000Y-144488571D01*
X97581429Y-144988571D02*
X97438571Y-144917143D01*
X97367143Y-144774286D01*
X97367143Y-143488571D01*
X98724285Y-144917143D02*
X98581428Y-144988571D01*
X98295714Y-144988571D01*
X98152857Y-144917143D01*
X98081428Y-144774286D01*
X98081428Y-144202857D01*
X98152857Y-144060000D01*
X98295714Y-143988571D01*
X98581428Y-143988571D01*
X98724285Y-144060000D01*
X98795714Y-144202857D01*
X98795714Y-144345714D01*
X98081428Y-144488571D01*
X100081428Y-144917143D02*
X99938571Y-144988571D01*
X99652857Y-144988571D01*
X99509999Y-144917143D01*
X99438571Y-144845714D01*
X99367142Y-144702857D01*
X99367142Y-144274286D01*
X99438571Y-144131429D01*
X99509999Y-144060000D01*
X99652857Y-143988571D01*
X99938571Y-143988571D01*
X100081428Y-144060000D01*
X100509999Y-143988571D02*
X101081428Y-143988571D01*
X100724285Y-143488571D02*
X100724285Y-144774286D01*
X100795713Y-144917143D01*
X100938571Y-144988571D01*
X101081428Y-144988571D01*
X121286143Y-143452857D02*
X121500429Y-143524286D01*
X121571857Y-143595714D01*
X121643286Y-143738571D01*
X121643286Y-143952857D01*
X121571857Y-144095714D01*
X121500429Y-144167143D01*
X121357571Y-144238571D01*
X120786143Y-144238571D01*
X120786143Y-142738571D01*
X121286143Y-142738571D01*
X121429000Y-142810000D01*
X121500429Y-142881429D01*
X121571857Y-143024286D01*
X121571857Y-143167143D01*
X121500429Y-143310000D01*
X121429000Y-143381429D01*
X121286143Y-143452857D01*
X120786143Y-143452857D01*
X131927857Y-132558000D02*
X132642143Y-132558000D01*
X131785000Y-132986571D02*
X132285000Y-131486571D01*
X132785000Y-132986571D01*
X120785001Y-120488571D02*
X121785001Y-121988571D01*
X121785001Y-120488571D02*
X120785001Y-121988571D01*
X110285000Y-132274286D02*
X110285000Y-132988571D01*
X109785000Y-131488571D02*
X110285000Y-132274286D01*
X110785000Y-131488571D01*
X80749286Y-136488571D02*
X80749286Y-134988571D01*
X81106429Y-134988571D01*
X81320714Y-135060000D01*
X81463572Y-135202857D01*
X81535000Y-135345714D01*
X81606429Y-135631429D01*
X81606429Y-135845714D01*
X81535000Y-136131429D01*
X81463572Y-136274286D01*
X81320714Y-136417143D01*
X81106429Y-136488571D01*
X80749286Y-136488571D01*
X82463572Y-136488571D02*
X82320714Y-136417143D01*
X82249286Y-136345714D01*
X82177857Y-136202857D01*
X82177857Y-135774286D01*
X82249286Y-135631429D01*
X82320714Y-135560000D01*
X82463572Y-135488571D01*
X82677857Y-135488571D01*
X82820714Y-135560000D01*
X82892143Y-135631429D01*
X82963572Y-135774286D01*
X82963572Y-136202857D01*
X82892143Y-136345714D01*
X82820714Y-136417143D01*
X82677857Y-136488571D01*
X82463572Y-136488571D01*
X83463572Y-135488571D02*
X83749286Y-136488571D01*
X84035000Y-135774286D01*
X84320715Y-136488571D01*
X84606429Y-135488571D01*
X85177858Y-135488571D02*
X85177858Y-136488571D01*
X85177858Y-135631429D02*
X85249286Y-135560000D01*
X85392144Y-135488571D01*
X85606429Y-135488571D01*
X85749286Y-135560000D01*
X85820715Y-135702857D01*
X85820715Y-136488571D01*
X75249286Y-129238571D02*
X74535000Y-129238571D01*
X74535000Y-127738571D01*
X76320714Y-129167143D02*
X76177857Y-129238571D01*
X75892143Y-129238571D01*
X75749286Y-129167143D01*
X75677857Y-129024286D01*
X75677857Y-128452857D01*
X75749286Y-128310000D01*
X75892143Y-128238571D01*
X76177857Y-128238571D01*
X76320714Y-128310000D01*
X76392143Y-128452857D01*
X76392143Y-128595714D01*
X75677857Y-128738571D01*
X76820714Y-128238571D02*
X77392143Y-128238571D01*
X77035000Y-129238571D02*
X77035000Y-127952857D01*
X77106428Y-127810000D01*
X77249286Y-127738571D01*
X77392143Y-127738571D01*
X77677857Y-128238571D02*
X78249286Y-128238571D01*
X77892143Y-127738571D02*
X77892143Y-129024286D01*
X77963571Y-129167143D01*
X78106429Y-129238571D01*
X78249286Y-129238571D01*
X88606429Y-128988571D02*
X88106429Y-128274286D01*
X87749286Y-128988571D02*
X87749286Y-127488571D01*
X88320714Y-127488571D01*
X88463572Y-127560000D01*
X88535000Y-127631429D01*
X88606429Y-127774286D01*
X88606429Y-127988571D01*
X88535000Y-128131429D01*
X88463572Y-128202857D01*
X88320714Y-128274286D01*
X87749286Y-128274286D01*
X89249286Y-128988571D02*
X89249286Y-127988571D01*
X89249286Y-127488571D02*
X89177857Y-127560000D01*
X89249286Y-127631429D01*
X89320714Y-127560000D01*
X89249286Y-127488571D01*
X89249286Y-127631429D01*
X90606429Y-127988571D02*
X90606429Y-129202857D01*
X90535000Y-129345714D01*
X90463572Y-129417143D01*
X90320715Y-129488571D01*
X90106429Y-129488571D01*
X89963572Y-129417143D01*
X90606429Y-128917143D02*
X90463572Y-128988571D01*
X90177858Y-128988571D01*
X90035000Y-128917143D01*
X89963572Y-128845714D01*
X89892143Y-128702857D01*
X89892143Y-128274286D01*
X89963572Y-128131429D01*
X90035000Y-128060000D01*
X90177858Y-127988571D01*
X90463572Y-127988571D01*
X90606429Y-128060000D01*
X91320715Y-128988571D02*
X91320715Y-127488571D01*
X91963572Y-128988571D02*
X91963572Y-128202857D01*
X91892143Y-128060000D01*
X91749286Y-127988571D01*
X91535001Y-127988571D01*
X91392143Y-128060000D01*
X91320715Y-128131429D01*
X92463572Y-127988571D02*
X93035001Y-127988571D01*
X92677858Y-127488571D02*
X92677858Y-128774286D01*
X92749286Y-128917143D01*
X92892144Y-128988571D01*
X93035001Y-128988571D01*
X82175057Y-121021771D02*
X82175057Y-122236057D01*
X82246485Y-122378914D01*
X82317914Y-122450343D01*
X82460771Y-122521771D01*
X82746485Y-122521771D01*
X82889343Y-122450343D01*
X82960771Y-122378914D01*
X83032200Y-122236057D01*
X83032200Y-121021771D01*
X83746486Y-121521771D02*
X83746486Y-123021771D01*
X83746486Y-121593200D02*
X83889343Y-121521771D01*
X84175057Y-121521771D01*
X84317914Y-121593200D01*
X84389343Y-121664629D01*
X84460772Y-121807486D01*
X84460772Y-122236057D01*
X84389343Y-122378914D01*
X84317914Y-122450343D01*
X84175057Y-122521771D01*
X83889343Y-122521771D01*
X83746486Y-122450343D01*
X109222144Y-63486000D02*
X109079287Y-63414571D01*
X108865001Y-63414571D01*
X108650716Y-63486000D01*
X108507858Y-63628857D01*
X108436430Y-63771714D01*
X108365001Y-64057429D01*
X108365001Y-64271714D01*
X108436430Y-64557429D01*
X108507858Y-64700286D01*
X108650716Y-64843143D01*
X108865001Y-64914571D01*
X109007858Y-64914571D01*
X109222144Y-64843143D01*
X109293573Y-64771714D01*
X109293573Y-64271714D01*
X109007858Y-64271714D01*
X110579287Y-64914571D02*
X110579287Y-64128857D01*
X110507858Y-63986000D01*
X110365001Y-63914571D01*
X110079287Y-63914571D01*
X109936430Y-63986000D01*
X110579287Y-64843143D02*
X110436430Y-64914571D01*
X110079287Y-64914571D01*
X109936430Y-64843143D01*
X109865001Y-64700286D01*
X109865001Y-64557429D01*
X109936430Y-64414571D01*
X110079287Y-64343143D01*
X110436430Y-64343143D01*
X110579287Y-64271714D01*
X111293573Y-64914571D02*
X111293573Y-63914571D01*
X111293573Y-64057429D02*
X111365001Y-63986000D01*
X111507859Y-63914571D01*
X111722144Y-63914571D01*
X111865001Y-63986000D01*
X111936430Y-64128857D01*
X111936430Y-64914571D01*
X111936430Y-64128857D02*
X112007859Y-63986000D01*
X112150716Y-63914571D01*
X112365001Y-63914571D01*
X112507859Y-63986000D01*
X112579287Y-64128857D01*
X112579287Y-64914571D01*
X113865001Y-64843143D02*
X113722144Y-64914571D01*
X113436430Y-64914571D01*
X113293573Y-64843143D01*
X113222144Y-64700286D01*
X113222144Y-64128857D01*
X113293573Y-63986000D01*
X113436430Y-63914571D01*
X113722144Y-63914571D01*
X113865001Y-63986000D01*
X113936430Y-64128857D01*
X113936430Y-64271714D01*
X113222144Y-64414571D01*
X115365001Y-63486000D02*
X115222144Y-63414571D01*
X115007858Y-63414571D01*
X114793573Y-63486000D01*
X114650715Y-63628857D01*
X114579287Y-63771714D01*
X114507858Y-64057429D01*
X114507858Y-64271714D01*
X114579287Y-64557429D01*
X114650715Y-64700286D01*
X114793573Y-64843143D01*
X115007858Y-64914571D01*
X115150715Y-64914571D01*
X115365001Y-64843143D01*
X115436430Y-64771714D01*
X115436430Y-64271714D01*
X115150715Y-64271714D01*
X116079287Y-64914571D02*
X116079287Y-63914571D01*
X116079287Y-63414571D02*
X116007858Y-63486000D01*
X116079287Y-63557429D01*
X116150715Y-63486000D01*
X116079287Y-63414571D01*
X116079287Y-63557429D01*
X116793573Y-64914571D02*
X116793573Y-63914571D01*
X116793573Y-64200286D02*
X116865001Y-64057429D01*
X116936430Y-63986000D01*
X117079287Y-63914571D01*
X117222144Y-63914571D01*
X117936430Y-64914571D02*
X117793572Y-64843143D01*
X117722144Y-64700286D01*
X117722144Y-63414571D01*
X119507858Y-63914571D02*
X119865001Y-64914571D01*
X120222143Y-63914571D01*
X121079286Y-63414571D02*
X121222143Y-63414571D01*
X121365000Y-63486000D01*
X121436429Y-63557429D01*
X121507858Y-63700286D01*
X121579286Y-63986000D01*
X121579286Y-64343143D01*
X121507858Y-64628857D01*
X121436429Y-64771714D01*
X121365000Y-64843143D01*
X121222143Y-64914571D01*
X121079286Y-64914571D01*
X120936429Y-64843143D01*
X120865000Y-64771714D01*
X120793572Y-64628857D01*
X120722143Y-64343143D01*
X120722143Y-63986000D01*
X120793572Y-63700286D01*
X120865000Y-63557429D01*
X120936429Y-63486000D01*
X121079286Y-63414571D01*
X122222143Y-64771714D02*
X122293571Y-64843143D01*
X122222143Y-64914571D01*
X122150714Y-64843143D01*
X122222143Y-64771714D01*
X122222143Y-64914571D01*
X122865000Y-63557429D02*
X122936429Y-63486000D01*
X123079286Y-63414571D01*
X123436429Y-63414571D01*
X123579286Y-63486000D01*
X123650715Y-63557429D01*
X123722143Y-63700286D01*
X123722143Y-63843143D01*
X123650715Y-64057429D01*
X122793572Y-64914571D01*
X123722143Y-64914571D01*
X124365000Y-64771714D02*
X124436428Y-64843143D01*
X124365000Y-64914571D01*
X124293571Y-64843143D01*
X124365000Y-64771714D01*
X124365000Y-64914571D01*
X125865000Y-64914571D02*
X125007857Y-64914571D01*
X125436429Y-64914571D02*
X125436429Y-63414571D01*
X125293572Y-63628857D01*
X125150714Y-63771714D01*
X125007857Y-63843143D01*
D12*
X131612000Y-109260000D02*
X131612000Y-66260000D01*
X70612000Y-66260000D02*
X70612000Y-109260000D01*
X131612000Y-66260000D02*
X70612000Y-66260000D01*
D14*
X118356298Y-152855458D02*
X118570584Y-152926886D01*
X118927727Y-152926886D01*
X119070584Y-152855458D01*
X119142013Y-152784029D01*
X119213441Y-152641172D01*
X119213441Y-152498315D01*
X119142013Y-152355458D01*
X119070584Y-152284029D01*
X118927727Y-152212601D01*
X118642013Y-152141172D01*
X118499155Y-152069744D01*
X118427727Y-151998315D01*
X118356298Y-151855458D01*
X118356298Y-151712601D01*
X118427727Y-151569744D01*
X118499155Y-151498315D01*
X118642013Y-151426886D01*
X118999155Y-151426886D01*
X119213441Y-151498315D01*
X119856298Y-151926886D02*
X119856298Y-153426886D01*
X119856298Y-151998315D02*
X119999155Y-151926886D01*
X120284869Y-151926886D01*
X120427726Y-151998315D01*
X120499155Y-152069744D01*
X120570584Y-152212601D01*
X120570584Y-152641172D01*
X120499155Y-152784029D01*
X120427726Y-152855458D01*
X120284869Y-152926886D01*
X119999155Y-152926886D01*
X119856298Y-152855458D01*
X121784869Y-152855458D02*
X121642012Y-152926886D01*
X121356298Y-152926886D01*
X121213441Y-152855458D01*
X121142012Y-152712601D01*
X121142012Y-152141172D01*
X121213441Y-151998315D01*
X121356298Y-151926886D01*
X121642012Y-151926886D01*
X121784869Y-151998315D01*
X121856298Y-152141172D01*
X121856298Y-152284029D01*
X121142012Y-152426886D01*
X123142012Y-152926886D02*
X123142012Y-152141172D01*
X123070583Y-151998315D01*
X122927726Y-151926886D01*
X122642012Y-151926886D01*
X122499155Y-151998315D01*
X123142012Y-152855458D02*
X122999155Y-152926886D01*
X122642012Y-152926886D01*
X122499155Y-152855458D01*
X122427726Y-152712601D01*
X122427726Y-152569744D01*
X122499155Y-152426886D01*
X122642012Y-152355458D01*
X122999155Y-152355458D01*
X123142012Y-152284029D01*
X123856298Y-152926886D02*
X123856298Y-151426886D01*
X123999155Y-152355458D02*
X124427726Y-152926886D01*
X124427726Y-151926886D02*
X123856298Y-152498315D01*
X125642012Y-152855458D02*
X125499155Y-152926886D01*
X125213441Y-152926886D01*
X125070584Y-152855458D01*
X124999155Y-152712601D01*
X124999155Y-152141172D01*
X125070584Y-151998315D01*
X125213441Y-151926886D01*
X125499155Y-151926886D01*
X125642012Y-151998315D01*
X125713441Y-152141172D01*
X125713441Y-152284029D01*
X124999155Y-152426886D01*
X126356298Y-152926886D02*
X126356298Y-151926886D01*
X126356298Y-152212601D02*
X126427726Y-152069744D01*
X126499155Y-151998315D01*
X126642012Y-151926886D01*
X126784869Y-151926886D01*
D15*
X89599155Y-150698315D02*
X88599155Y-150698315D01*
X88599155Y-152398315D02*
X89599155Y-152398315D01*
D11*
X98024155Y-155248315D02*
X98024155Y-155423315D01*
X101374155Y-155248315D02*
X101374155Y-155498315D01*
X101374155Y-158598315D02*
X101374155Y-158348315D01*
X98024155Y-158598315D02*
X98024155Y-158348315D01*
X98024155Y-155248315D02*
X101374155Y-155248315D01*
X98024155Y-158598315D02*
X101374155Y-158598315D01*
X98024155Y-155423315D02*
X96774155Y-155423315D01*
X99151000Y-146204500D02*
X95785500Y-146204500D01*
X99214500Y-150395500D02*
X95785500Y-150395500D01*
X100230500Y-147157000D02*
X100230500Y-149379500D01*
X94769500Y-147093500D02*
X94769500Y-149443000D01*
X98500000Y-148300000D02*
X96500000Y-148300000D01*
X97500000Y-147300000D02*
X97500000Y-149300000D01*
D15*
X93226000Y-155536000D02*
X94226000Y-155536000D01*
X94226000Y-153836000D02*
X93226000Y-153836000D01*
D16*
X76797995Y-162847295D02*
X85200315Y-162847295D01*
X76797995Y-162948895D02*
X85200315Y-162948895D01*
X85200315Y-162948895D02*
X85200315Y-162748235D01*
X85200315Y-162748235D02*
X76797995Y-162748235D01*
X76797995Y-162748235D02*
X76797995Y-162948895D01*
X77100255Y-162948895D02*
X77100255Y-157947635D01*
X77100255Y-157947635D02*
X84898055Y-157947635D01*
X84898055Y-157947635D02*
X84898055Y-162948895D01*
D11*
X109151000Y-146154500D02*
X105785500Y-146154500D01*
X109214500Y-150345500D02*
X105785500Y-150345500D01*
X110230500Y-147107000D02*
X110230500Y-149329500D01*
X104769500Y-147043500D02*
X104769500Y-149393000D01*
X108500000Y-148250000D02*
X106500000Y-148250000D01*
X107500000Y-147250000D02*
X107500000Y-149250000D01*
X110998000Y-159512000D02*
X110998000Y-154432000D01*
X106553000Y-159512000D02*
X106553000Y-154432000D01*
X112903000Y-154432000D02*
X112903000Y-159512000D01*
X112903000Y-154432000D02*
X106553000Y-154432000D01*
X112903000Y-159512000D02*
X106553000Y-159512000D01*
X106200000Y-158975000D02*
X105000000Y-158975000D01*
X105000000Y-157225000D02*
X106200000Y-157225000D01*
X88499155Y-144373315D02*
X89699155Y-144373315D01*
X89699155Y-146123315D02*
X88499155Y-146123315D01*
D15*
X88599155Y-150298315D02*
X89599155Y-150298315D01*
X89599155Y-148598315D02*
X88599155Y-148598315D01*
X93226000Y-157568000D02*
X94226000Y-157568000D01*
X94226000Y-155868000D02*
X93226000Y-155868000D01*
X99200000Y-154850000D02*
X100200000Y-154850000D01*
X100200000Y-153150000D02*
X99200000Y-153150000D01*
D11*
X85474155Y-64170000D02*
X85474155Y-65370000D01*
X83724155Y-65370000D02*
X83724155Y-64170000D01*
X100300000Y-152875000D02*
X99100000Y-152875000D01*
X99100000Y-151125000D02*
X100300000Y-151125000D01*
X79124155Y-65348315D02*
X79124155Y-64148315D01*
X80874155Y-64148315D02*
X80874155Y-65348315D01*
X106200000Y-156975000D02*
X105000000Y-156975000D01*
X105000000Y-155225000D02*
X106200000Y-155225000D01*
X89699155Y-148223315D02*
X88499155Y-148223315D01*
X88499155Y-146473315D02*
X89699155Y-146473315D01*
X89499155Y-157623315D02*
X88299155Y-157623315D01*
X88299155Y-155873315D02*
X89499155Y-155873315D01*
X88499155Y-152773315D02*
X89699155Y-152773315D01*
X89699155Y-154523315D02*
X88499155Y-154523315D01*
X99851000Y-138404500D02*
X96485500Y-138404500D01*
X99914500Y-142595500D02*
X96485500Y-142595500D01*
X100930500Y-139357000D02*
X100930500Y-141579500D01*
X95469500Y-139293500D02*
X95469500Y-141643000D01*
X99200000Y-140500000D02*
X97200000Y-140500000D01*
X98200000Y-139500000D02*
X98200000Y-141500000D01*
X107851000Y-138404500D02*
X104485500Y-138404500D01*
X107914500Y-142595500D02*
X104485500Y-142595500D01*
X108930500Y-139357000D02*
X108930500Y-141579500D01*
X103469500Y-139293500D02*
X103469500Y-141643000D01*
X107200000Y-140500000D02*
X105200000Y-140500000D01*
X106200000Y-139500000D02*
X106200000Y-141500000D01*
D15*
X102100000Y-150850000D02*
X107600000Y-150850000D01*
X102100000Y-152950000D02*
X107600000Y-152950000D01*
X102100000Y-150850000D02*
X102100000Y-152950000D01*
X106000000Y-153250000D02*
X105000000Y-153250000D01*
X105000000Y-154950000D02*
X106000000Y-154950000D01*
X106000000Y-159250000D02*
X105000000Y-159250000D01*
X105000000Y-160950000D02*
X106000000Y-160950000D01*
X83735000Y-150360000D02*
X83735000Y-149360000D01*
X82035000Y-149360000D02*
X82035000Y-150360000D01*
D11*
X73010000Y-141935000D02*
X73010000Y-142510000D01*
X78760000Y-141935000D02*
X78760000Y-142585000D01*
X78760000Y-152585000D02*
X78760000Y-151935000D01*
X73010000Y-152585000D02*
X73010000Y-151935000D01*
X73010000Y-141935000D02*
X78760000Y-141935000D01*
X73010000Y-152585000D02*
X78760000Y-152585000D01*
X73010000Y-142510000D02*
X71410000Y-142510000D01*
D15*
X81985000Y-153835000D02*
X79985000Y-153835000D01*
X79985000Y-155885000D02*
X81985000Y-155885000D01*
D11*
X74685000Y-152835000D02*
X75885000Y-152835000D01*
X75885000Y-154585000D02*
X74685000Y-154585000D01*
X83171000Y-64170000D02*
X83171000Y-65370000D01*
X81421000Y-65370000D02*
X81421000Y-64170000D01*
D15*
X131599155Y-137298315D02*
X130599155Y-137298315D01*
X130599155Y-138998315D02*
X131599155Y-138998315D01*
X127549155Y-141248315D02*
X127549155Y-142248315D01*
X129249155Y-142248315D02*
X129249155Y-141248315D01*
X129489155Y-140498315D02*
X129489155Y-142298315D01*
X132709155Y-142298315D02*
X132709155Y-139848315D01*
D11*
X94299155Y-64498315D02*
X93299155Y-64498315D01*
X93799155Y-64498315D02*
X94299155Y-64998315D01*
X93299155Y-64998315D02*
X93799155Y-64498315D01*
X94299155Y-64998315D02*
X93299155Y-64998315D01*
X92924155Y-65348315D02*
X92924155Y-64148315D01*
X94674155Y-64148315D02*
X94674155Y-65348315D01*
X91999155Y-64498315D02*
X90999155Y-64498315D01*
X91499155Y-64498315D02*
X91999155Y-64998315D01*
X90999155Y-64998315D02*
X91499155Y-64498315D01*
X91999155Y-64998315D02*
X90999155Y-64998315D01*
X90624155Y-65348315D02*
X90624155Y-64148315D01*
X92374155Y-64148315D02*
X92374155Y-65348315D01*
X89699155Y-64498315D02*
X88699155Y-64498315D01*
X89199155Y-64498315D02*
X89699155Y-64998315D01*
X88699155Y-64998315D02*
X89199155Y-64498315D01*
X89699155Y-64998315D02*
X88699155Y-64998315D01*
X88324155Y-65348315D02*
X88324155Y-64148315D01*
X90074155Y-64148315D02*
X90074155Y-65348315D01*
X87399155Y-64520000D02*
X86399155Y-64520000D01*
X86899155Y-64520000D02*
X87399155Y-65020000D01*
X86399155Y-65020000D02*
X86899155Y-64520000D01*
X87399155Y-65020000D02*
X86399155Y-65020000D01*
X86024155Y-65370000D02*
X86024155Y-64170000D01*
X87774155Y-64170000D02*
X87774155Y-65370000D01*
X78224000Y-64498315D02*
X77224000Y-64498315D01*
X77724000Y-64498315D02*
X78224000Y-64998315D01*
X77224000Y-64998315D02*
X77724000Y-64498315D01*
X78224000Y-64998315D02*
X77224000Y-64998315D01*
X76849000Y-65348315D02*
X76849000Y-64148315D01*
X78599000Y-64148315D02*
X78599000Y-65348315D01*
D17*
G36*
X102683821Y-129696981D02*
X102690814Y-129756951D01*
X102723801Y-129779054D01*
X102768488Y-129781648D01*
X102828457Y-129774655D01*
X102850561Y-129741668D01*
X102853155Y-129696981D01*
X102853155Y-129612315D01*
X103361155Y-129612315D01*
X103361155Y-129696981D01*
X103368148Y-129756951D01*
X103401134Y-129779054D01*
X103445821Y-129781648D01*
X103505791Y-129788641D01*
X103527894Y-129821628D01*
X103530488Y-129866315D01*
X103537481Y-129926284D01*
X103570468Y-129948387D01*
X103615155Y-129950981D01*
X103699821Y-129950981D01*
X103699821Y-130458981D01*
X103530488Y-130458981D01*
X103530488Y-131474981D01*
X103445821Y-131474981D01*
X103385852Y-131481974D01*
X103363748Y-131514961D01*
X103361155Y-131559648D01*
X103358937Y-131606514D01*
X103343416Y-131631810D01*
X103301286Y-131642187D01*
X103219244Y-131644299D01*
X103191821Y-131644315D01*
X103098089Y-131645423D01*
X103047498Y-131653184D01*
X103026743Y-131674249D01*
X103022520Y-131715270D01*
X103022488Y-131728981D01*
X103015495Y-131788951D01*
X102982508Y-131811054D01*
X102937821Y-131813648D01*
X102877852Y-131820641D01*
X102855748Y-131853628D01*
X102853155Y-131898315D01*
X102860148Y-131958284D01*
X102893134Y-131980387D01*
X102937821Y-131982981D01*
X102997791Y-131989974D01*
X103019894Y-132022961D01*
X103022488Y-132067648D01*
X103029481Y-132127617D01*
X103062468Y-132149721D01*
X103107155Y-132152315D01*
X103154020Y-132154532D01*
X103179316Y-132170053D01*
X103189694Y-132212183D01*
X103191805Y-132294225D01*
X103191821Y-132321648D01*
X103192930Y-132415380D01*
X103200691Y-132465971D01*
X103221755Y-132486726D01*
X103262776Y-132490949D01*
X103276488Y-132490981D01*
X103323354Y-132493199D01*
X103348650Y-132508720D01*
X103359027Y-132550850D01*
X103361139Y-132632891D01*
X103361155Y-132660315D01*
X103362263Y-132754046D01*
X103370024Y-132804638D01*
X103391089Y-132825393D01*
X103432110Y-132829616D01*
X103445821Y-132829648D01*
X103505791Y-132836641D01*
X103527894Y-132869628D01*
X103530488Y-132914315D01*
X103537481Y-132974284D01*
X103570468Y-132996387D01*
X103615155Y-132998981D01*
X103662020Y-133001199D01*
X103687316Y-133016720D01*
X103697694Y-133058850D01*
X103699805Y-133140891D01*
X103699821Y-133168315D01*
X103698712Y-133262046D01*
X103690952Y-133312638D01*
X103669887Y-133333393D01*
X103628866Y-133337616D01*
X103615155Y-133337648D01*
X103555185Y-133344641D01*
X103533082Y-133377628D01*
X103530488Y-133422315D01*
X103523495Y-133482284D01*
X103490508Y-133504387D01*
X103445821Y-133506981D01*
X103385852Y-133513974D01*
X103363748Y-133546961D01*
X103361155Y-133591648D01*
X103368148Y-133651617D01*
X103401134Y-133673721D01*
X103445821Y-133676315D01*
X103530488Y-133676315D01*
X103530488Y-134353648D01*
X103615155Y-134353648D01*
X103662020Y-134355865D01*
X103687316Y-134371387D01*
X103697694Y-134413516D01*
X103699805Y-134495558D01*
X103699821Y-134522981D01*
X103698712Y-134616713D01*
X103690952Y-134667305D01*
X103669887Y-134688060D01*
X103628866Y-134692283D01*
X103615155Y-134692315D01*
X103568289Y-134694532D01*
X103542993Y-134710053D01*
X103532615Y-134752183D01*
X103530504Y-134834225D01*
X103530488Y-134861648D01*
X103531597Y-134955380D01*
X103539357Y-135005971D01*
X103560422Y-135026726D01*
X103601443Y-135030949D01*
X103615155Y-135030981D01*
X103675124Y-135037974D01*
X103697227Y-135070961D01*
X103699821Y-135115648D01*
X103692828Y-135175617D01*
X103659841Y-135197721D01*
X103615155Y-135200315D01*
X103555185Y-135207308D01*
X103533082Y-135240294D01*
X103530488Y-135284981D01*
X103530488Y-135369648D01*
X102853155Y-135369648D01*
X102853155Y-135284981D01*
X102846161Y-135225012D01*
X102813175Y-135202908D01*
X102768488Y-135200315D01*
X102721622Y-135198097D01*
X102696326Y-135182576D01*
X102685949Y-135140446D01*
X102683837Y-135058404D01*
X102683821Y-135030981D01*
X102684930Y-134937249D01*
X102692691Y-134886658D01*
X102713755Y-134865903D01*
X102754776Y-134861680D01*
X102768488Y-134861648D01*
X102853155Y-134861648D01*
X102853155Y-135200315D01*
X103530488Y-135200315D01*
X103530488Y-135115648D01*
X103528270Y-135068782D01*
X103512749Y-135043486D01*
X103470619Y-135033109D01*
X103388578Y-135030997D01*
X103361155Y-135030981D01*
X103267423Y-135029872D01*
X103216831Y-135022112D01*
X103196076Y-135001047D01*
X103191853Y-134960026D01*
X103191821Y-134946315D01*
X103189604Y-134899449D01*
X103174082Y-134874153D01*
X103131953Y-134863775D01*
X103049911Y-134861664D01*
X103022488Y-134861648D01*
X102853155Y-134861648D01*
X102768488Y-134861648D01*
X102828457Y-134854655D01*
X102850561Y-134821668D01*
X102853155Y-134776981D01*
X102846161Y-134717012D01*
X102813175Y-134694908D01*
X102768488Y-134692315D01*
X102708518Y-134685321D01*
X102686415Y-134652335D01*
X102683821Y-134607648D01*
X102681604Y-134560782D01*
X102666082Y-134535486D01*
X102623953Y-134525109D01*
X102541911Y-134522997D01*
X102514488Y-134522981D01*
X102420756Y-134524090D01*
X102370164Y-134531851D01*
X102349409Y-134552915D01*
X102345186Y-134593936D01*
X102345155Y-134607648D01*
X102338161Y-134667617D01*
X102305175Y-134689721D01*
X102260488Y-134692315D01*
X102213622Y-134694532D01*
X102188326Y-134710053D01*
X102177949Y-134752183D01*
X102175837Y-134834225D01*
X102175821Y-134861648D01*
X102176930Y-134955380D01*
X102184691Y-135005971D01*
X102205755Y-135026726D01*
X102246776Y-135030949D01*
X102260488Y-135030981D01*
X102320457Y-135037974D01*
X102342561Y-135070961D01*
X102345155Y-135115648D01*
X102338161Y-135175617D01*
X102305175Y-135197721D01*
X102260488Y-135200315D01*
X102200518Y-135207308D01*
X102178415Y-135240294D01*
X102175821Y-135284981D01*
X102175821Y-135369648D01*
X101498488Y-135369648D01*
X101498488Y-135284981D01*
X101491495Y-135225012D01*
X101458508Y-135202908D01*
X101413821Y-135200315D01*
X101366955Y-135198097D01*
X101341659Y-135182576D01*
X101331282Y-135140446D01*
X101329170Y-135058404D01*
X101329155Y-135030981D01*
X101498488Y-135030981D01*
X101498488Y-135200315D01*
X102175821Y-135200315D01*
X102175821Y-135030981D01*
X101667821Y-135030981D01*
X101667821Y-134946315D01*
X101660828Y-134886345D01*
X101627841Y-134864242D01*
X101583155Y-134861648D01*
X101536289Y-134863865D01*
X101510993Y-134879387D01*
X101500615Y-134921516D01*
X101498504Y-135003558D01*
X101498488Y-135030981D01*
X101329155Y-135030981D01*
X101330263Y-134937249D01*
X101338024Y-134886658D01*
X101359089Y-134865903D01*
X101400110Y-134861680D01*
X101413821Y-134861648D01*
X101473791Y-134854655D01*
X101495894Y-134821668D01*
X101498488Y-134776981D01*
X101491495Y-134717012D01*
X101458508Y-134694908D01*
X101413821Y-134692315D01*
X101329155Y-134692315D01*
X101329155Y-133845648D01*
X101413821Y-133845648D01*
X101473791Y-133838655D01*
X101495894Y-133805668D01*
X101498488Y-133760981D01*
X101491495Y-133701012D01*
X101458508Y-133678908D01*
X101413821Y-133676315D01*
X101353852Y-133669321D01*
X101331748Y-133636335D01*
X101329155Y-133591648D01*
X101322161Y-133531678D01*
X101289175Y-133509575D01*
X101244488Y-133506981D01*
X101184518Y-133499988D01*
X101162415Y-133467001D01*
X101159821Y-133422315D01*
X101152828Y-133362345D01*
X101119841Y-133340242D01*
X101075155Y-133337648D01*
X100990488Y-133337648D01*
X100990488Y-132829648D01*
X101075155Y-132829648D01*
X101135124Y-132822655D01*
X101157227Y-132789668D01*
X101159821Y-132744981D01*
X101166814Y-132685012D01*
X101199801Y-132662908D01*
X101244488Y-132660315D01*
X101291354Y-132658097D01*
X101316650Y-132642576D01*
X101327027Y-132600446D01*
X101329139Y-132518404D01*
X101329155Y-132490981D01*
X101330263Y-132397249D01*
X101338024Y-132346658D01*
X101359089Y-132325903D01*
X101400110Y-132321680D01*
X101413821Y-132321648D01*
X101460687Y-132319430D01*
X101485983Y-132303909D01*
X101496360Y-132261779D01*
X101498472Y-132179738D01*
X101498488Y-132152315D01*
X101499597Y-132058583D01*
X101507357Y-132007991D01*
X101528422Y-131987236D01*
X101569443Y-131983013D01*
X101583155Y-131982981D01*
X101643124Y-131975988D01*
X101665227Y-131943001D01*
X101667821Y-131898315D01*
X101660828Y-131838345D01*
X101627841Y-131816242D01*
X101583155Y-131813648D01*
X101523185Y-131806655D01*
X101501082Y-131773668D01*
X101498488Y-131728981D01*
X101491495Y-131669012D01*
X101458508Y-131646908D01*
X101413821Y-131644315D01*
X101353852Y-131637321D01*
X101331748Y-131604335D01*
X101329155Y-131559648D01*
X101322161Y-131499678D01*
X101289175Y-131477575D01*
X101244488Y-131474981D01*
X101184518Y-131467988D01*
X101162415Y-131435001D01*
X101159821Y-131390315D01*
X101152828Y-131330345D01*
X101119841Y-131308242D01*
X101075155Y-131305648D01*
X100990488Y-131305648D01*
X100990488Y-130628315D01*
X101159821Y-130628315D01*
X101159821Y-131305648D01*
X101244488Y-131305648D01*
X101304457Y-131312641D01*
X101326561Y-131345628D01*
X101329155Y-131390315D01*
X101336148Y-131450284D01*
X101369134Y-131472387D01*
X101413821Y-131474981D01*
X101473791Y-131481974D01*
X101495894Y-131514961D01*
X101498488Y-131559648D01*
X101500705Y-131606514D01*
X101516227Y-131631810D01*
X101558356Y-131642187D01*
X101640398Y-131644299D01*
X101667821Y-131644315D01*
X101761553Y-131645423D01*
X101812145Y-131653184D01*
X101832900Y-131674249D01*
X101837123Y-131715270D01*
X101837155Y-131728981D01*
X101844148Y-131788951D01*
X101877134Y-131811054D01*
X101921821Y-131813648D01*
X101981791Y-131820641D01*
X102003894Y-131853628D01*
X102006488Y-131898315D01*
X102004270Y-131945180D01*
X101988749Y-131970476D01*
X101946619Y-131980854D01*
X101864578Y-131982965D01*
X101837155Y-131982981D01*
X101667821Y-131982981D01*
X101667821Y-132152315D01*
X101666712Y-132246046D01*
X101658952Y-132296638D01*
X101637887Y-132317393D01*
X101596866Y-132321616D01*
X101583155Y-132321648D01*
X101536289Y-132323865D01*
X101510993Y-132339387D01*
X101500615Y-132381516D01*
X101498504Y-132463558D01*
X101498488Y-132490981D01*
X101497379Y-132584713D01*
X101489618Y-132635305D01*
X101468554Y-132656060D01*
X101427533Y-132660283D01*
X101413821Y-132660315D01*
X101353852Y-132667308D01*
X101331748Y-132700294D01*
X101329155Y-132744981D01*
X101322161Y-132804951D01*
X101289175Y-132827054D01*
X101244488Y-132829648D01*
X101159821Y-132829648D01*
X101159821Y-133337648D01*
X101244488Y-133337648D01*
X101304457Y-133344641D01*
X101326561Y-133377628D01*
X101329155Y-133422315D01*
X101336148Y-133482284D01*
X101369134Y-133504387D01*
X101413821Y-133506981D01*
X101473791Y-133499988D01*
X101495894Y-133467001D01*
X101498488Y-133422315D01*
X101498488Y-133337648D01*
X103191821Y-133337648D01*
X103191821Y-133506981D01*
X102683821Y-133506981D01*
X102683821Y-133591648D01*
X102676828Y-133651617D01*
X102643841Y-133673721D01*
X102599155Y-133676315D01*
X102539185Y-133669321D01*
X102517082Y-133636335D01*
X102514488Y-133591648D01*
X102514488Y-133506981D01*
X101667821Y-133506981D01*
X101667821Y-133676315D01*
X101666712Y-133770046D01*
X101658952Y-133820638D01*
X101637887Y-133841393D01*
X101596866Y-133845616D01*
X101583155Y-133845648D01*
X101498488Y-133845648D01*
X101498488Y-134692315D01*
X102175821Y-134692315D01*
X102175821Y-134607648D01*
X102182814Y-134547678D01*
X102215801Y-134525575D01*
X102260488Y-134522981D01*
X102345155Y-134522981D01*
X102345155Y-133676315D01*
X102514488Y-133676315D01*
X102514488Y-134184315D01*
X102599155Y-134184315D01*
X102646020Y-134186532D01*
X102671316Y-134202053D01*
X102681694Y-134244183D01*
X102683805Y-134326225D01*
X102683821Y-134353648D01*
X102684930Y-134447380D01*
X102692691Y-134497971D01*
X102713755Y-134518726D01*
X102754776Y-134522949D01*
X102768488Y-134522981D01*
X102828457Y-134529974D01*
X102850561Y-134562961D01*
X102853155Y-134607648D01*
X102853155Y-134692315D01*
X103530488Y-134692315D01*
X103530488Y-134522981D01*
X103529379Y-134429249D01*
X103521618Y-134378658D01*
X103500554Y-134357903D01*
X103459533Y-134353680D01*
X103445821Y-134353648D01*
X103361155Y-134353648D01*
X103361155Y-133676315D01*
X103276488Y-133676315D01*
X103216518Y-133669321D01*
X103194415Y-133636335D01*
X103191821Y-133591648D01*
X103198814Y-133531678D01*
X103231801Y-133509575D01*
X103276488Y-133506981D01*
X103336457Y-133499988D01*
X103358561Y-133467001D01*
X103361155Y-133422315D01*
X103368148Y-133362345D01*
X103401134Y-133340242D01*
X103445821Y-133337648D01*
X103492687Y-133335430D01*
X103517983Y-133319909D01*
X103528360Y-133277779D01*
X103530472Y-133195738D01*
X103530488Y-133168315D01*
X103530488Y-132998981D01*
X103022488Y-132998981D01*
X103022488Y-132914315D01*
X103015495Y-132854345D01*
X102982508Y-132832242D01*
X102937821Y-132829648D01*
X102877852Y-132822655D01*
X102855748Y-132789668D01*
X102853155Y-132744981D01*
X102855372Y-132698115D01*
X102870893Y-132672819D01*
X102913023Y-132662442D01*
X102995065Y-132660330D01*
X103022488Y-132660315D01*
X103116220Y-132659206D01*
X103166811Y-132651445D01*
X103187566Y-132630380D01*
X103191789Y-132589359D01*
X103191821Y-132575648D01*
X103184828Y-132515678D01*
X103151841Y-132493575D01*
X103107155Y-132490981D01*
X103060289Y-132488764D01*
X103034993Y-132473242D01*
X103024615Y-132431113D01*
X103022504Y-132349071D01*
X103022488Y-132321648D01*
X103021379Y-132227916D01*
X103013618Y-132177324D01*
X102992554Y-132156569D01*
X102951533Y-132152346D01*
X102937821Y-132152315D01*
X102877852Y-132145321D01*
X102855748Y-132112335D01*
X102853155Y-132067648D01*
X102850937Y-132020782D01*
X102835416Y-131995486D01*
X102793286Y-131985109D01*
X102711244Y-131982997D01*
X102683821Y-131982981D01*
X102590089Y-131981872D01*
X102539498Y-131974112D01*
X102518743Y-131953047D01*
X102514520Y-131912026D01*
X102514488Y-131898315D01*
X102514488Y-131813648D01*
X102006488Y-131813648D01*
X102006488Y-131728981D01*
X101999495Y-131669012D01*
X101966508Y-131646908D01*
X101921821Y-131644315D01*
X101837155Y-131644315D01*
X101837155Y-130966981D01*
X102006488Y-130966981D01*
X102006488Y-131474981D01*
X102175821Y-131474981D01*
X102175821Y-130966981D01*
X102091155Y-130966981D01*
X102031185Y-130959988D01*
X102009082Y-130927001D01*
X102006488Y-130882315D01*
X102006488Y-130797648D01*
X102514488Y-130797648D01*
X102514488Y-130712981D01*
X102521481Y-130653012D01*
X102554468Y-130630908D01*
X102599155Y-130628315D01*
X102659124Y-130635308D01*
X102681227Y-130668294D01*
X102683821Y-130712981D01*
X102686039Y-130759847D01*
X102701560Y-130785143D01*
X102743690Y-130795520D01*
X102825731Y-130797632D01*
X102853155Y-130797648D01*
X102946886Y-130798757D01*
X102997478Y-130806517D01*
X103018233Y-130827582D01*
X103022456Y-130868603D01*
X103022488Y-130882315D01*
X103015495Y-130942284D01*
X102982508Y-130964387D01*
X102937821Y-130966981D01*
X102853155Y-130966981D01*
X102853155Y-131474981D01*
X103022488Y-131474981D01*
X103022488Y-130966981D01*
X103191821Y-130966981D01*
X103191821Y-131474981D01*
X103361155Y-131474981D01*
X103361155Y-130458981D01*
X103530488Y-130458981D01*
X103530488Y-129950981D01*
X103445821Y-129950981D01*
X103385852Y-129943988D01*
X103363748Y-129911001D01*
X103361155Y-129866315D01*
X103361155Y-129781648D01*
X102853155Y-129781648D01*
X102853155Y-129866315D01*
X102846161Y-129926284D01*
X102813175Y-129948387D01*
X102768488Y-129950981D01*
X102708518Y-129943988D01*
X102686415Y-129911001D01*
X102683821Y-129866315D01*
X102683821Y-129781648D01*
X101837155Y-129781648D01*
X101837155Y-129866315D01*
X101830161Y-129926284D01*
X101797175Y-129948387D01*
X101752488Y-129950981D01*
X101667821Y-129950981D01*
X101667821Y-130458981D01*
X101498488Y-130458981D01*
X101498488Y-130543648D01*
X101496270Y-130590514D01*
X101480749Y-130615810D01*
X101438619Y-130626187D01*
X101356578Y-130628299D01*
X101329155Y-130628315D01*
X101159821Y-130628315D01*
X100990488Y-130628315D01*
X100990488Y-130458981D01*
X100821155Y-130458981D01*
X100821155Y-129950981D01*
X100905821Y-129950981D01*
X100990488Y-129950981D01*
X100990488Y-130458981D01*
X101498488Y-130458981D01*
X101498488Y-129781648D01*
X101329155Y-129781648D01*
X101235423Y-129782757D01*
X101184831Y-129790517D01*
X101164076Y-129811582D01*
X101159853Y-129852603D01*
X101159821Y-129866315D01*
X101152828Y-129926284D01*
X101119841Y-129948387D01*
X101075155Y-129950981D01*
X100990488Y-129950981D01*
X100905821Y-129950981D01*
X100965791Y-129943988D01*
X100987894Y-129911001D01*
X100990488Y-129866315D01*
X100997481Y-129806345D01*
X101030468Y-129784242D01*
X101075155Y-129781648D01*
X101135124Y-129774655D01*
X101157227Y-129741668D01*
X101159821Y-129696981D01*
X101162039Y-129650115D01*
X101177560Y-129624819D01*
X101219690Y-129614442D01*
X101301731Y-129612330D01*
X101329155Y-129612315D01*
X101422886Y-129613423D01*
X101473478Y-129621184D01*
X101494233Y-129642249D01*
X101498456Y-129683270D01*
X101498488Y-129696981D01*
X101500705Y-129743847D01*
X101516227Y-129769143D01*
X101558356Y-129779520D01*
X101640398Y-129781632D01*
X101667821Y-129781648D01*
X101761553Y-129780539D01*
X101812145Y-129772778D01*
X101832900Y-129751714D01*
X101837123Y-129710693D01*
X101837155Y-129696981D01*
X101837155Y-129612315D01*
X102683821Y-129612315D01*
X102683821Y-129696981D01*
X102683821Y-129696981D01*
G37*
X102683821Y-129696981D02*
X102690814Y-129756951D01*
X102723801Y-129779054D01*
X102768488Y-129781648D01*
X102828457Y-129774655D01*
X102850561Y-129741668D01*
X102853155Y-129696981D01*
X102853155Y-129612315D01*
X103361155Y-129612315D01*
X103361155Y-129696981D01*
X103368148Y-129756951D01*
X103401134Y-129779054D01*
X103445821Y-129781648D01*
X103505791Y-129788641D01*
X103527894Y-129821628D01*
X103530488Y-129866315D01*
X103537481Y-129926284D01*
X103570468Y-129948387D01*
X103615155Y-129950981D01*
X103699821Y-129950981D01*
X103699821Y-130458981D01*
X103530488Y-130458981D01*
X103530488Y-131474981D01*
X103445821Y-131474981D01*
X103385852Y-131481974D01*
X103363748Y-131514961D01*
X103361155Y-131559648D01*
X103358937Y-131606514D01*
X103343416Y-131631810D01*
X103301286Y-131642187D01*
X103219244Y-131644299D01*
X103191821Y-131644315D01*
X103098089Y-131645423D01*
X103047498Y-131653184D01*
X103026743Y-131674249D01*
X103022520Y-131715270D01*
X103022488Y-131728981D01*
X103015495Y-131788951D01*
X102982508Y-131811054D01*
X102937821Y-131813648D01*
X102877852Y-131820641D01*
X102855748Y-131853628D01*
X102853155Y-131898315D01*
X102860148Y-131958284D01*
X102893134Y-131980387D01*
X102937821Y-131982981D01*
X102997791Y-131989974D01*
X103019894Y-132022961D01*
X103022488Y-132067648D01*
X103029481Y-132127617D01*
X103062468Y-132149721D01*
X103107155Y-132152315D01*
X103154020Y-132154532D01*
X103179316Y-132170053D01*
X103189694Y-132212183D01*
X103191805Y-132294225D01*
X103191821Y-132321648D01*
X103192930Y-132415380D01*
X103200691Y-132465971D01*
X103221755Y-132486726D01*
X103262776Y-132490949D01*
X103276488Y-132490981D01*
X103323354Y-132493199D01*
X103348650Y-132508720D01*
X103359027Y-132550850D01*
X103361139Y-132632891D01*
X103361155Y-132660315D01*
X103362263Y-132754046D01*
X103370024Y-132804638D01*
X103391089Y-132825393D01*
X103432110Y-132829616D01*
X103445821Y-132829648D01*
X103505791Y-132836641D01*
X103527894Y-132869628D01*
X103530488Y-132914315D01*
X103537481Y-132974284D01*
X103570468Y-132996387D01*
X103615155Y-132998981D01*
X103662020Y-133001199D01*
X103687316Y-133016720D01*
X103697694Y-133058850D01*
X103699805Y-133140891D01*
X103699821Y-133168315D01*
X103698712Y-133262046D01*
X103690952Y-133312638D01*
X103669887Y-133333393D01*
X103628866Y-133337616D01*
X103615155Y-133337648D01*
X103555185Y-133344641D01*
X103533082Y-133377628D01*
X103530488Y-133422315D01*
X103523495Y-133482284D01*
X103490508Y-133504387D01*
X103445821Y-133506981D01*
X103385852Y-133513974D01*
X103363748Y-133546961D01*
X103361155Y-133591648D01*
X103368148Y-133651617D01*
X103401134Y-133673721D01*
X103445821Y-133676315D01*
X103530488Y-133676315D01*
X103530488Y-134353648D01*
X103615155Y-134353648D01*
X103662020Y-134355865D01*
X103687316Y-134371387D01*
X103697694Y-134413516D01*
X103699805Y-134495558D01*
X103699821Y-134522981D01*
X103698712Y-134616713D01*
X103690952Y-134667305D01*
X103669887Y-134688060D01*
X103628866Y-134692283D01*
X103615155Y-134692315D01*
X103568289Y-134694532D01*
X103542993Y-134710053D01*
X103532615Y-134752183D01*
X103530504Y-134834225D01*
X103530488Y-134861648D01*
X103531597Y-134955380D01*
X103539357Y-135005971D01*
X103560422Y-135026726D01*
X103601443Y-135030949D01*
X103615155Y-135030981D01*
X103675124Y-135037974D01*
X103697227Y-135070961D01*
X103699821Y-135115648D01*
X103692828Y-135175617D01*
X103659841Y-135197721D01*
X103615155Y-135200315D01*
X103555185Y-135207308D01*
X103533082Y-135240294D01*
X103530488Y-135284981D01*
X103530488Y-135369648D01*
X102853155Y-135369648D01*
X102853155Y-135284981D01*
X102846161Y-135225012D01*
X102813175Y-135202908D01*
X102768488Y-135200315D01*
X102721622Y-135198097D01*
X102696326Y-135182576D01*
X102685949Y-135140446D01*
X102683837Y-135058404D01*
X102683821Y-135030981D01*
X102684930Y-134937249D01*
X102692691Y-134886658D01*
X102713755Y-134865903D01*
X102754776Y-134861680D01*
X102768488Y-134861648D01*
X102853155Y-134861648D01*
X102853155Y-135200315D01*
X103530488Y-135200315D01*
X103530488Y-135115648D01*
X103528270Y-135068782D01*
X103512749Y-135043486D01*
X103470619Y-135033109D01*
X103388578Y-135030997D01*
X103361155Y-135030981D01*
X103267423Y-135029872D01*
X103216831Y-135022112D01*
X103196076Y-135001047D01*
X103191853Y-134960026D01*
X103191821Y-134946315D01*
X103189604Y-134899449D01*
X103174082Y-134874153D01*
X103131953Y-134863775D01*
X103049911Y-134861664D01*
X103022488Y-134861648D01*
X102853155Y-134861648D01*
X102768488Y-134861648D01*
X102828457Y-134854655D01*
X102850561Y-134821668D01*
X102853155Y-134776981D01*
X102846161Y-134717012D01*
X102813175Y-134694908D01*
X102768488Y-134692315D01*
X102708518Y-134685321D01*
X102686415Y-134652335D01*
X102683821Y-134607648D01*
X102681604Y-134560782D01*
X102666082Y-134535486D01*
X102623953Y-134525109D01*
X102541911Y-134522997D01*
X102514488Y-134522981D01*
X102420756Y-134524090D01*
X102370164Y-134531851D01*
X102349409Y-134552915D01*
X102345186Y-134593936D01*
X102345155Y-134607648D01*
X102338161Y-134667617D01*
X102305175Y-134689721D01*
X102260488Y-134692315D01*
X102213622Y-134694532D01*
X102188326Y-134710053D01*
X102177949Y-134752183D01*
X102175837Y-134834225D01*
X102175821Y-134861648D01*
X102176930Y-134955380D01*
X102184691Y-135005971D01*
X102205755Y-135026726D01*
X102246776Y-135030949D01*
X102260488Y-135030981D01*
X102320457Y-135037974D01*
X102342561Y-135070961D01*
X102345155Y-135115648D01*
X102338161Y-135175617D01*
X102305175Y-135197721D01*
X102260488Y-135200315D01*
X102200518Y-135207308D01*
X102178415Y-135240294D01*
X102175821Y-135284981D01*
X102175821Y-135369648D01*
X101498488Y-135369648D01*
X101498488Y-135284981D01*
X101491495Y-135225012D01*
X101458508Y-135202908D01*
X101413821Y-135200315D01*
X101366955Y-135198097D01*
X101341659Y-135182576D01*
X101331282Y-135140446D01*
X101329170Y-135058404D01*
X101329155Y-135030981D01*
X101498488Y-135030981D01*
X101498488Y-135200315D01*
X102175821Y-135200315D01*
X102175821Y-135030981D01*
X101667821Y-135030981D01*
X101667821Y-134946315D01*
X101660828Y-134886345D01*
X101627841Y-134864242D01*
X101583155Y-134861648D01*
X101536289Y-134863865D01*
X101510993Y-134879387D01*
X101500615Y-134921516D01*
X101498504Y-135003558D01*
X101498488Y-135030981D01*
X101329155Y-135030981D01*
X101330263Y-134937249D01*
X101338024Y-134886658D01*
X101359089Y-134865903D01*
X101400110Y-134861680D01*
X101413821Y-134861648D01*
X101473791Y-134854655D01*
X101495894Y-134821668D01*
X101498488Y-134776981D01*
X101491495Y-134717012D01*
X101458508Y-134694908D01*
X101413821Y-134692315D01*
X101329155Y-134692315D01*
X101329155Y-133845648D01*
X101413821Y-133845648D01*
X101473791Y-133838655D01*
X101495894Y-133805668D01*
X101498488Y-133760981D01*
X101491495Y-133701012D01*
X101458508Y-133678908D01*
X101413821Y-133676315D01*
X101353852Y-133669321D01*
X101331748Y-133636335D01*
X101329155Y-133591648D01*
X101322161Y-133531678D01*
X101289175Y-133509575D01*
X101244488Y-133506981D01*
X101184518Y-133499988D01*
X101162415Y-133467001D01*
X101159821Y-133422315D01*
X101152828Y-133362345D01*
X101119841Y-133340242D01*
X101075155Y-133337648D01*
X100990488Y-133337648D01*
X100990488Y-132829648D01*
X101075155Y-132829648D01*
X101135124Y-132822655D01*
X101157227Y-132789668D01*
X101159821Y-132744981D01*
X101166814Y-132685012D01*
X101199801Y-132662908D01*
X101244488Y-132660315D01*
X101291354Y-132658097D01*
X101316650Y-132642576D01*
X101327027Y-132600446D01*
X101329139Y-132518404D01*
X101329155Y-132490981D01*
X101330263Y-132397249D01*
X101338024Y-132346658D01*
X101359089Y-132325903D01*
X101400110Y-132321680D01*
X101413821Y-132321648D01*
X101460687Y-132319430D01*
X101485983Y-132303909D01*
X101496360Y-132261779D01*
X101498472Y-132179738D01*
X101498488Y-132152315D01*
X101499597Y-132058583D01*
X101507357Y-132007991D01*
X101528422Y-131987236D01*
X101569443Y-131983013D01*
X101583155Y-131982981D01*
X101643124Y-131975988D01*
X101665227Y-131943001D01*
X101667821Y-131898315D01*
X101660828Y-131838345D01*
X101627841Y-131816242D01*
X101583155Y-131813648D01*
X101523185Y-131806655D01*
X101501082Y-131773668D01*
X101498488Y-131728981D01*
X101491495Y-131669012D01*
X101458508Y-131646908D01*
X101413821Y-131644315D01*
X101353852Y-131637321D01*
X101331748Y-131604335D01*
X101329155Y-131559648D01*
X101322161Y-131499678D01*
X101289175Y-131477575D01*
X101244488Y-131474981D01*
X101184518Y-131467988D01*
X101162415Y-131435001D01*
X101159821Y-131390315D01*
X101152828Y-131330345D01*
X101119841Y-131308242D01*
X101075155Y-131305648D01*
X100990488Y-131305648D01*
X100990488Y-130628315D01*
X101159821Y-130628315D01*
X101159821Y-131305648D01*
X101244488Y-131305648D01*
X101304457Y-131312641D01*
X101326561Y-131345628D01*
X101329155Y-131390315D01*
X101336148Y-131450284D01*
X101369134Y-131472387D01*
X101413821Y-131474981D01*
X101473791Y-131481974D01*
X101495894Y-131514961D01*
X101498488Y-131559648D01*
X101500705Y-131606514D01*
X101516227Y-131631810D01*
X101558356Y-131642187D01*
X101640398Y-131644299D01*
X101667821Y-131644315D01*
X101761553Y-131645423D01*
X101812145Y-131653184D01*
X101832900Y-131674249D01*
X101837123Y-131715270D01*
X101837155Y-131728981D01*
X101844148Y-131788951D01*
X101877134Y-131811054D01*
X101921821Y-131813648D01*
X101981791Y-131820641D01*
X102003894Y-131853628D01*
X102006488Y-131898315D01*
X102004270Y-131945180D01*
X101988749Y-131970476D01*
X101946619Y-131980854D01*
X101864578Y-131982965D01*
X101837155Y-131982981D01*
X101667821Y-131982981D01*
X101667821Y-132152315D01*
X101666712Y-132246046D01*
X101658952Y-132296638D01*
X101637887Y-132317393D01*
X101596866Y-132321616D01*
X101583155Y-132321648D01*
X101536289Y-132323865D01*
X101510993Y-132339387D01*
X101500615Y-132381516D01*
X101498504Y-132463558D01*
X101498488Y-132490981D01*
X101497379Y-132584713D01*
X101489618Y-132635305D01*
X101468554Y-132656060D01*
X101427533Y-132660283D01*
X101413821Y-132660315D01*
X101353852Y-132667308D01*
X101331748Y-132700294D01*
X101329155Y-132744981D01*
X101322161Y-132804951D01*
X101289175Y-132827054D01*
X101244488Y-132829648D01*
X101159821Y-132829648D01*
X101159821Y-133337648D01*
X101244488Y-133337648D01*
X101304457Y-133344641D01*
X101326561Y-133377628D01*
X101329155Y-133422315D01*
X101336148Y-133482284D01*
X101369134Y-133504387D01*
X101413821Y-133506981D01*
X101473791Y-133499988D01*
X101495894Y-133467001D01*
X101498488Y-133422315D01*
X101498488Y-133337648D01*
X103191821Y-133337648D01*
X103191821Y-133506981D01*
X102683821Y-133506981D01*
X102683821Y-133591648D01*
X102676828Y-133651617D01*
X102643841Y-133673721D01*
X102599155Y-133676315D01*
X102539185Y-133669321D01*
X102517082Y-133636335D01*
X102514488Y-133591648D01*
X102514488Y-133506981D01*
X101667821Y-133506981D01*
X101667821Y-133676315D01*
X101666712Y-133770046D01*
X101658952Y-133820638D01*
X101637887Y-133841393D01*
X101596866Y-133845616D01*
X101583155Y-133845648D01*
X101498488Y-133845648D01*
X101498488Y-134692315D01*
X102175821Y-134692315D01*
X102175821Y-134607648D01*
X102182814Y-134547678D01*
X102215801Y-134525575D01*
X102260488Y-134522981D01*
X102345155Y-134522981D01*
X102345155Y-133676315D01*
X102514488Y-133676315D01*
X102514488Y-134184315D01*
X102599155Y-134184315D01*
X102646020Y-134186532D01*
X102671316Y-134202053D01*
X102681694Y-134244183D01*
X102683805Y-134326225D01*
X102683821Y-134353648D01*
X102684930Y-134447380D01*
X102692691Y-134497971D01*
X102713755Y-134518726D01*
X102754776Y-134522949D01*
X102768488Y-134522981D01*
X102828457Y-134529974D01*
X102850561Y-134562961D01*
X102853155Y-134607648D01*
X102853155Y-134692315D01*
X103530488Y-134692315D01*
X103530488Y-134522981D01*
X103529379Y-134429249D01*
X103521618Y-134378658D01*
X103500554Y-134357903D01*
X103459533Y-134353680D01*
X103445821Y-134353648D01*
X103361155Y-134353648D01*
X103361155Y-133676315D01*
X103276488Y-133676315D01*
X103216518Y-133669321D01*
X103194415Y-133636335D01*
X103191821Y-133591648D01*
X103198814Y-133531678D01*
X103231801Y-133509575D01*
X103276488Y-133506981D01*
X103336457Y-133499988D01*
X103358561Y-133467001D01*
X103361155Y-133422315D01*
X103368148Y-133362345D01*
X103401134Y-133340242D01*
X103445821Y-133337648D01*
X103492687Y-133335430D01*
X103517983Y-133319909D01*
X103528360Y-133277779D01*
X103530472Y-133195738D01*
X103530488Y-133168315D01*
X103530488Y-132998981D01*
X103022488Y-132998981D01*
X103022488Y-132914315D01*
X103015495Y-132854345D01*
X102982508Y-132832242D01*
X102937821Y-132829648D01*
X102877852Y-132822655D01*
X102855748Y-132789668D01*
X102853155Y-132744981D01*
X102855372Y-132698115D01*
X102870893Y-132672819D01*
X102913023Y-132662442D01*
X102995065Y-132660330D01*
X103022488Y-132660315D01*
X103116220Y-132659206D01*
X103166811Y-132651445D01*
X103187566Y-132630380D01*
X103191789Y-132589359D01*
X103191821Y-132575648D01*
X103184828Y-132515678D01*
X103151841Y-132493575D01*
X103107155Y-132490981D01*
X103060289Y-132488764D01*
X103034993Y-132473242D01*
X103024615Y-132431113D01*
X103022504Y-132349071D01*
X103022488Y-132321648D01*
X103021379Y-132227916D01*
X103013618Y-132177324D01*
X102992554Y-132156569D01*
X102951533Y-132152346D01*
X102937821Y-132152315D01*
X102877852Y-132145321D01*
X102855748Y-132112335D01*
X102853155Y-132067648D01*
X102850937Y-132020782D01*
X102835416Y-131995486D01*
X102793286Y-131985109D01*
X102711244Y-131982997D01*
X102683821Y-131982981D01*
X102590089Y-131981872D01*
X102539498Y-131974112D01*
X102518743Y-131953047D01*
X102514520Y-131912026D01*
X102514488Y-131898315D01*
X102514488Y-131813648D01*
X102006488Y-131813648D01*
X102006488Y-131728981D01*
X101999495Y-131669012D01*
X101966508Y-131646908D01*
X101921821Y-131644315D01*
X101837155Y-131644315D01*
X101837155Y-130966981D01*
X102006488Y-130966981D01*
X102006488Y-131474981D01*
X102175821Y-131474981D01*
X102175821Y-130966981D01*
X102091155Y-130966981D01*
X102031185Y-130959988D01*
X102009082Y-130927001D01*
X102006488Y-130882315D01*
X102006488Y-130797648D01*
X102514488Y-130797648D01*
X102514488Y-130712981D01*
X102521481Y-130653012D01*
X102554468Y-130630908D01*
X102599155Y-130628315D01*
X102659124Y-130635308D01*
X102681227Y-130668294D01*
X102683821Y-130712981D01*
X102686039Y-130759847D01*
X102701560Y-130785143D01*
X102743690Y-130795520D01*
X102825731Y-130797632D01*
X102853155Y-130797648D01*
X102946886Y-130798757D01*
X102997478Y-130806517D01*
X103018233Y-130827582D01*
X103022456Y-130868603D01*
X103022488Y-130882315D01*
X103015495Y-130942284D01*
X102982508Y-130964387D01*
X102937821Y-130966981D01*
X102853155Y-130966981D01*
X102853155Y-131474981D01*
X103022488Y-131474981D01*
X103022488Y-130966981D01*
X103191821Y-130966981D01*
X103191821Y-131474981D01*
X103361155Y-131474981D01*
X103361155Y-130458981D01*
X103530488Y-130458981D01*
X103530488Y-129950981D01*
X103445821Y-129950981D01*
X103385852Y-129943988D01*
X103363748Y-129911001D01*
X103361155Y-129866315D01*
X103361155Y-129781648D01*
X102853155Y-129781648D01*
X102853155Y-129866315D01*
X102846161Y-129926284D01*
X102813175Y-129948387D01*
X102768488Y-129950981D01*
X102708518Y-129943988D01*
X102686415Y-129911001D01*
X102683821Y-129866315D01*
X102683821Y-129781648D01*
X101837155Y-129781648D01*
X101837155Y-129866315D01*
X101830161Y-129926284D01*
X101797175Y-129948387D01*
X101752488Y-129950981D01*
X101667821Y-129950981D01*
X101667821Y-130458981D01*
X101498488Y-130458981D01*
X101498488Y-130543648D01*
X101496270Y-130590514D01*
X101480749Y-130615810D01*
X101438619Y-130626187D01*
X101356578Y-130628299D01*
X101329155Y-130628315D01*
X101159821Y-130628315D01*
X100990488Y-130628315D01*
X100990488Y-130458981D01*
X100821155Y-130458981D01*
X100821155Y-129950981D01*
X100905821Y-129950981D01*
X100990488Y-129950981D01*
X100990488Y-130458981D01*
X101498488Y-130458981D01*
X101498488Y-129781648D01*
X101329155Y-129781648D01*
X101235423Y-129782757D01*
X101184831Y-129790517D01*
X101164076Y-129811582D01*
X101159853Y-129852603D01*
X101159821Y-129866315D01*
X101152828Y-129926284D01*
X101119841Y-129948387D01*
X101075155Y-129950981D01*
X100990488Y-129950981D01*
X100905821Y-129950981D01*
X100965791Y-129943988D01*
X100987894Y-129911001D01*
X100990488Y-129866315D01*
X100997481Y-129806345D01*
X101030468Y-129784242D01*
X101075155Y-129781648D01*
X101135124Y-129774655D01*
X101157227Y-129741668D01*
X101159821Y-129696981D01*
X101162039Y-129650115D01*
X101177560Y-129624819D01*
X101219690Y-129614442D01*
X101301731Y-129612330D01*
X101329155Y-129612315D01*
X101422886Y-129613423D01*
X101473478Y-129621184D01*
X101494233Y-129642249D01*
X101498456Y-129683270D01*
X101498488Y-129696981D01*
X101500705Y-129743847D01*
X101516227Y-129769143D01*
X101558356Y-129779520D01*
X101640398Y-129781632D01*
X101667821Y-129781648D01*
X101761553Y-129780539D01*
X101812145Y-129772778D01*
X101832900Y-129751714D01*
X101837123Y-129710693D01*
X101837155Y-129696981D01*
X101837155Y-129612315D01*
X102683821Y-129612315D01*
X102683821Y-129696981D01*
G36*
X102815354Y-133678532D02*
X102840650Y-133694053D01*
X102851027Y-133736183D01*
X102853139Y-133818225D01*
X102853155Y-133845648D01*
X102852046Y-133939380D01*
X102844285Y-133989971D01*
X102823220Y-134010726D01*
X102782199Y-134014949D01*
X102768488Y-134014981D01*
X102721622Y-134012764D01*
X102696326Y-133997242D01*
X102685949Y-133955113D01*
X102683837Y-133873071D01*
X102683821Y-133845648D01*
X102684930Y-133751916D01*
X102692691Y-133701324D01*
X102713755Y-133680569D01*
X102754776Y-133676346D01*
X102768488Y-133676315D01*
X102815354Y-133678532D01*
X102815354Y-133678532D01*
G37*
X102815354Y-133678532D02*
X102840650Y-133694053D01*
X102851027Y-133736183D01*
X102853139Y-133818225D01*
X102853155Y-133845648D01*
X102852046Y-133939380D01*
X102844285Y-133989971D01*
X102823220Y-134010726D01*
X102782199Y-134014949D01*
X102768488Y-134014981D01*
X102721622Y-134012764D01*
X102696326Y-133997242D01*
X102685949Y-133955113D01*
X102683837Y-133873071D01*
X102683821Y-133845648D01*
X102684930Y-133751916D01*
X102692691Y-133701324D01*
X102713755Y-133680569D01*
X102754776Y-133676346D01*
X102768488Y-133676315D01*
X102815354Y-133678532D01*
G36*
X102269553Y-131984090D02*
X102320145Y-131991851D01*
X102340900Y-132012915D01*
X102345123Y-132053936D01*
X102345155Y-132067648D01*
X102352148Y-132127617D01*
X102385134Y-132149721D01*
X102429821Y-132152315D01*
X102489791Y-132159308D01*
X102511894Y-132192294D01*
X102514488Y-132236981D01*
X102521481Y-132296951D01*
X102554468Y-132319054D01*
X102599155Y-132321648D01*
X102659124Y-132328641D01*
X102681227Y-132361628D01*
X102683821Y-132406315D01*
X102690814Y-132466284D01*
X102723801Y-132488387D01*
X102768488Y-132490981D01*
X102828457Y-132497974D01*
X102850561Y-132530961D01*
X102853155Y-132575648D01*
X102846161Y-132635617D01*
X102813175Y-132657721D01*
X102768488Y-132660315D01*
X102708518Y-132653321D01*
X102686415Y-132620335D01*
X102683821Y-132575648D01*
X102676828Y-132515678D01*
X102643841Y-132493575D01*
X102599155Y-132490981D01*
X102539185Y-132483988D01*
X102517082Y-132451001D01*
X102514488Y-132406315D01*
X102507495Y-132346345D01*
X102474508Y-132324242D01*
X102429821Y-132321648D01*
X102369852Y-132314655D01*
X102347748Y-132281668D01*
X102345155Y-132236981D01*
X102342937Y-132190115D01*
X102327416Y-132164819D01*
X102285286Y-132154442D01*
X102203244Y-132152330D01*
X102175821Y-132152315D01*
X102082089Y-132151206D01*
X102031498Y-132143445D01*
X102010743Y-132122380D01*
X102006520Y-132081359D01*
X102006488Y-132067648D01*
X102008705Y-132020782D01*
X102024227Y-131995486D01*
X102066356Y-131985109D01*
X102148398Y-131982997D01*
X102175821Y-131982981D01*
X102269553Y-131984090D01*
X102269553Y-131984090D01*
G37*
X102269553Y-131984090D02*
X102320145Y-131991851D01*
X102340900Y-132012915D01*
X102345123Y-132053936D01*
X102345155Y-132067648D01*
X102352148Y-132127617D01*
X102385134Y-132149721D01*
X102429821Y-132152315D01*
X102489791Y-132159308D01*
X102511894Y-132192294D01*
X102514488Y-132236981D01*
X102521481Y-132296951D01*
X102554468Y-132319054D01*
X102599155Y-132321648D01*
X102659124Y-132328641D01*
X102681227Y-132361628D01*
X102683821Y-132406315D01*
X102690814Y-132466284D01*
X102723801Y-132488387D01*
X102768488Y-132490981D01*
X102828457Y-132497974D01*
X102850561Y-132530961D01*
X102853155Y-132575648D01*
X102846161Y-132635617D01*
X102813175Y-132657721D01*
X102768488Y-132660315D01*
X102708518Y-132653321D01*
X102686415Y-132620335D01*
X102683821Y-132575648D01*
X102676828Y-132515678D01*
X102643841Y-132493575D01*
X102599155Y-132490981D01*
X102539185Y-132483988D01*
X102517082Y-132451001D01*
X102514488Y-132406315D01*
X102507495Y-132346345D01*
X102474508Y-132324242D01*
X102429821Y-132321648D01*
X102369852Y-132314655D01*
X102347748Y-132281668D01*
X102345155Y-132236981D01*
X102342937Y-132190115D01*
X102327416Y-132164819D01*
X102285286Y-132154442D01*
X102203244Y-132152330D01*
X102175821Y-132152315D01*
X102082089Y-132151206D01*
X102031498Y-132143445D01*
X102010743Y-132122380D01*
X102006520Y-132081359D01*
X102006488Y-132067648D01*
X102008705Y-132020782D01*
X102024227Y-131995486D01*
X102066356Y-131985109D01*
X102148398Y-131982997D01*
X102175821Y-131982981D01*
X102269553Y-131984090D01*
G36*
X103167124Y-129957974D02*
X103189227Y-129990961D01*
X103191821Y-130035648D01*
X103198814Y-130095617D01*
X103231801Y-130117721D01*
X103276488Y-130120315D01*
X103336457Y-130127308D01*
X103358561Y-130160294D01*
X103361155Y-130204981D01*
X103354161Y-130264951D01*
X103321175Y-130287054D01*
X103276488Y-130289648D01*
X103216518Y-130282655D01*
X103194415Y-130249668D01*
X103191821Y-130204981D01*
X103184828Y-130145012D01*
X103151841Y-130122908D01*
X103107155Y-130120315D01*
X103047185Y-130113321D01*
X103025082Y-130080335D01*
X103022488Y-130035648D01*
X103029481Y-129975678D01*
X103062468Y-129953575D01*
X103107155Y-129950981D01*
X103167124Y-129957974D01*
X103167124Y-129957974D01*
G37*
X103167124Y-129957974D02*
X103189227Y-129990961D01*
X103191821Y-130035648D01*
X103198814Y-130095617D01*
X103231801Y-130117721D01*
X103276488Y-130120315D01*
X103336457Y-130127308D01*
X103358561Y-130160294D01*
X103361155Y-130204981D01*
X103354161Y-130264951D01*
X103321175Y-130287054D01*
X103276488Y-130289648D01*
X103216518Y-130282655D01*
X103194415Y-130249668D01*
X103191821Y-130204981D01*
X103184828Y-130145012D01*
X103151841Y-130122908D01*
X103107155Y-130120315D01*
X103047185Y-130113321D01*
X103025082Y-130080335D01*
X103022488Y-130035648D01*
X103029481Y-129975678D01*
X103062468Y-129953575D01*
X103107155Y-129950981D01*
X103167124Y-129957974D01*
D11*
X85884489Y-151905458D02*
X85836870Y-151953077D01*
X85694013Y-152000696D01*
X85598775Y-152000696D01*
X85455917Y-151953077D01*
X85360679Y-151857839D01*
X85313060Y-151762601D01*
X85265441Y-151572125D01*
X85265441Y-151429267D01*
X85313060Y-151238791D01*
X85360679Y-151143553D01*
X85455917Y-151048315D01*
X85598775Y-151000696D01*
X85694013Y-151000696D01*
X85836870Y-151048315D01*
X85884489Y-151095934D01*
X86741632Y-151334029D02*
X86741632Y-152000696D01*
X86503536Y-150953077D02*
X86265441Y-151667363D01*
X86884489Y-151667363D01*
X98937250Y-158824011D02*
X98937250Y-159633535D01*
X98984869Y-159728773D01*
X99032488Y-159776392D01*
X99127726Y-159824011D01*
X99318203Y-159824011D01*
X99413441Y-159776392D01*
X99461060Y-159728773D01*
X99508679Y-159633535D01*
X99508679Y-158824011D01*
X99889631Y-158824011D02*
X100508679Y-158824011D01*
X100175345Y-159204963D01*
X100318203Y-159204963D01*
X100413441Y-159252582D01*
X100461060Y-159300201D01*
X100508679Y-159395440D01*
X100508679Y-159633535D01*
X100461060Y-159728773D01*
X100413441Y-159776392D01*
X100318203Y-159824011D01*
X100032488Y-159824011D01*
X99937250Y-159776392D01*
X99889631Y-159728773D01*
X92832489Y-152205458D02*
X92784870Y-152253077D01*
X92642013Y-152300696D01*
X92546775Y-152300696D01*
X92403917Y-152253077D01*
X92308679Y-152157839D01*
X92261060Y-152062601D01*
X92213441Y-151872125D01*
X92213441Y-151729267D01*
X92261060Y-151538791D01*
X92308679Y-151443553D01*
X92403917Y-151348315D01*
X92546775Y-151300696D01*
X92642013Y-151300696D01*
X92784870Y-151348315D01*
X92832489Y-151395934D01*
X93689632Y-151300696D02*
X93499155Y-151300696D01*
X93403917Y-151348315D01*
X93356298Y-151395934D01*
X93261060Y-151538791D01*
X93213441Y-151729267D01*
X93213441Y-152110220D01*
X93261060Y-152205458D01*
X93308679Y-152253077D01*
X93403917Y-152300696D01*
X93594394Y-152300696D01*
X93689632Y-152253077D01*
X93737251Y-152205458D01*
X93784870Y-152110220D01*
X93784870Y-151872125D01*
X93737251Y-151776886D01*
X93689632Y-151729267D01*
X93594394Y-151681648D01*
X93403917Y-151681648D01*
X93308679Y-151729267D01*
X93261060Y-151776886D01*
X93213441Y-151872125D01*
X75257834Y-161208535D02*
X75257834Y-160408535D01*
X75562596Y-160408535D01*
X75638787Y-160446630D01*
X75676882Y-160484725D01*
X75714977Y-160560916D01*
X75714977Y-160675201D01*
X75676882Y-160751392D01*
X75638787Y-160789487D01*
X75562596Y-160827582D01*
X75257834Y-160827582D01*
X76476882Y-161208535D02*
X76019739Y-161208535D01*
X76248310Y-161208535D02*
X76248310Y-160408535D01*
X76172120Y-160522820D01*
X76095929Y-160599011D01*
X76019739Y-160637106D01*
X101932489Y-158791172D02*
X101665822Y-158791172D01*
X101665822Y-159210220D02*
X101665822Y-158410220D01*
X102046775Y-158410220D01*
X102618203Y-158791172D02*
X102732489Y-158829267D01*
X102770584Y-158867363D01*
X102808679Y-158943553D01*
X102808679Y-159057839D01*
X102770584Y-159134029D01*
X102732489Y-159172125D01*
X102656298Y-159210220D01*
X102351536Y-159210220D01*
X102351536Y-158410220D01*
X102618203Y-158410220D01*
X102694393Y-158448315D01*
X102732489Y-158486410D01*
X102770584Y-158562601D01*
X102770584Y-158638791D01*
X102732489Y-158714982D01*
X102694393Y-158753077D01*
X102618203Y-158791172D01*
X102351536Y-158791172D01*
X103113441Y-158486410D02*
X103151536Y-158448315D01*
X103227727Y-158410220D01*
X103418203Y-158410220D01*
X103494393Y-158448315D01*
X103532489Y-158486410D01*
X103570584Y-158562601D01*
X103570584Y-158638791D01*
X103532489Y-158753077D01*
X103075346Y-159210220D01*
X103570584Y-159210220D01*
X85630489Y-145700696D02*
X85297155Y-145224505D01*
X85059060Y-145700696D02*
X85059060Y-144700696D01*
X85440013Y-144700696D01*
X85535251Y-144748315D01*
X85582870Y-144795934D01*
X85630489Y-144891172D01*
X85630489Y-145034029D01*
X85582870Y-145129267D01*
X85535251Y-145176886D01*
X85440013Y-145224505D01*
X85059060Y-145224505D01*
X86106679Y-145700696D02*
X86297155Y-145700696D01*
X86392394Y-145653077D01*
X86440013Y-145605458D01*
X86535251Y-145462601D01*
X86582870Y-145272125D01*
X86582870Y-144891172D01*
X86535251Y-144795934D01*
X86487632Y-144748315D01*
X86392394Y-144700696D01*
X86201917Y-144700696D01*
X86106679Y-144748315D01*
X86059060Y-144795934D01*
X86011441Y-144891172D01*
X86011441Y-145129267D01*
X86059060Y-145224505D01*
X86106679Y-145272125D01*
X86201917Y-145319744D01*
X86392394Y-145319744D01*
X86487632Y-145272125D01*
X86535251Y-145224505D01*
X86582870Y-145129267D01*
X85630489Y-149805458D02*
X85582870Y-149853077D01*
X85440013Y-149900696D01*
X85344775Y-149900696D01*
X85201917Y-149853077D01*
X85106679Y-149757839D01*
X85059060Y-149662601D01*
X85011441Y-149472125D01*
X85011441Y-149329267D01*
X85059060Y-149138791D01*
X85106679Y-149043553D01*
X85201917Y-148948315D01*
X85344775Y-148900696D01*
X85440013Y-148900696D01*
X85582870Y-148948315D01*
X85630489Y-148995934D01*
X86011441Y-148995934D02*
X86059060Y-148948315D01*
X86154298Y-148900696D01*
X86392394Y-148900696D01*
X86487632Y-148948315D01*
X86535251Y-148995934D01*
X86582870Y-149091172D01*
X86582870Y-149186410D01*
X86535251Y-149329267D01*
X85963822Y-149900696D01*
X86582870Y-149900696D01*
X92832489Y-153505458D02*
X92784870Y-153553077D01*
X92642013Y-153600696D01*
X92546775Y-153600696D01*
X92403917Y-153553077D01*
X92308679Y-153457839D01*
X92261060Y-153362601D01*
X92213441Y-153172125D01*
X92213441Y-153029267D01*
X92261060Y-152838791D01*
X92308679Y-152743553D01*
X92403917Y-152648315D01*
X92546775Y-152600696D01*
X92642013Y-152600696D01*
X92784870Y-152648315D01*
X92832489Y-152695934D01*
X93165822Y-152600696D02*
X93832489Y-152600696D01*
X93403917Y-153600696D01*
X95369143Y-153519143D02*
X95321524Y-153566762D01*
X95178667Y-153614381D01*
X95083429Y-153614381D01*
X94940571Y-153566762D01*
X94845333Y-153471524D01*
X94797714Y-153376286D01*
X94750095Y-153185810D01*
X94750095Y-153042952D01*
X94797714Y-152852476D01*
X94845333Y-152757238D01*
X94940571Y-152662000D01*
X95083429Y-152614381D01*
X95178667Y-152614381D01*
X95321524Y-152662000D01*
X95369143Y-152709619D01*
X96321524Y-153614381D02*
X95750095Y-153614381D01*
X96035809Y-153614381D02*
X96035809Y-152614381D01*
X95940571Y-152757238D01*
X95845333Y-152852476D01*
X95750095Y-152900095D01*
X96940571Y-152614381D02*
X97035810Y-152614381D01*
X97131048Y-152662000D01*
X97178667Y-152709619D01*
X97226286Y-152804857D01*
X97273905Y-152995333D01*
X97273905Y-153233429D01*
X97226286Y-153423905D01*
X97178667Y-153519143D01*
X97131048Y-153566762D01*
X97035810Y-153614381D01*
X96940571Y-153614381D01*
X96845333Y-153566762D01*
X96797714Y-153519143D01*
X96750095Y-153423905D01*
X96702476Y-153233429D01*
X96702476Y-152995333D01*
X96750095Y-152804857D01*
X96797714Y-152709619D01*
X96845333Y-152662000D01*
X96940571Y-152614381D01*
X85051536Y-69222857D02*
X84575345Y-69556191D01*
X85051536Y-69794286D02*
X84051536Y-69794286D01*
X84051536Y-69413333D01*
X84099155Y-69318095D01*
X84146774Y-69270476D01*
X84242012Y-69222857D01*
X84384869Y-69222857D01*
X84480107Y-69270476D01*
X84527726Y-69318095D01*
X84575345Y-69413333D01*
X84575345Y-69794286D01*
X85051536Y-68270476D02*
X85051536Y-68841905D01*
X85051536Y-68556191D02*
X84051536Y-68556191D01*
X84194393Y-68651429D01*
X84289631Y-68746667D01*
X84337250Y-68841905D01*
X84051536Y-67937143D02*
X84051536Y-67318095D01*
X84432488Y-67651429D01*
X84432488Y-67508571D01*
X84480107Y-67413333D01*
X84527726Y-67365714D01*
X84622965Y-67318095D01*
X84861060Y-67318095D01*
X84956298Y-67365714D01*
X85003917Y-67413333D01*
X85051536Y-67508571D01*
X85051536Y-67794286D01*
X85003917Y-67889524D01*
X84956298Y-67937143D01*
X95369143Y-152344381D02*
X95035809Y-151868190D01*
X94797714Y-152344381D02*
X94797714Y-151344381D01*
X95178667Y-151344381D01*
X95273905Y-151392000D01*
X95321524Y-151439619D01*
X95369143Y-151534857D01*
X95369143Y-151677714D01*
X95321524Y-151772952D01*
X95273905Y-151820571D01*
X95178667Y-151868190D01*
X94797714Y-151868190D01*
X96321524Y-152344381D02*
X95750095Y-152344381D01*
X96035809Y-152344381D02*
X96035809Y-151344381D01*
X95940571Y-151487238D01*
X95845333Y-151582476D01*
X95750095Y-151630095D01*
X97226286Y-151344381D02*
X96750095Y-151344381D01*
X96702476Y-151820571D01*
X96750095Y-151772952D01*
X96845333Y-151725333D01*
X97083429Y-151725333D01*
X97178667Y-151772952D01*
X97226286Y-151820571D01*
X97273905Y-151915810D01*
X97273905Y-152153905D01*
X97226286Y-152249143D01*
X97178667Y-152296762D01*
X97083429Y-152344381D01*
X96845333Y-152344381D01*
X96750095Y-152296762D01*
X96702476Y-152249143D01*
X79832489Y-68248696D02*
X79499155Y-67772505D01*
X79261060Y-68248696D02*
X79261060Y-67248696D01*
X79642013Y-67248696D01*
X79737251Y-67296315D01*
X79784870Y-67343934D01*
X79832489Y-67439172D01*
X79832489Y-67582029D01*
X79784870Y-67677267D01*
X79737251Y-67724886D01*
X79642013Y-67772505D01*
X79261060Y-67772505D01*
X80784870Y-68248696D02*
X80213441Y-68248696D01*
X80499155Y-68248696D02*
X80499155Y-67248696D01*
X80403917Y-67391553D01*
X80308679Y-67486791D01*
X80213441Y-67534410D01*
X101982489Y-155141172D02*
X101715822Y-155141172D01*
X101715822Y-155560220D02*
X101715822Y-154760220D01*
X102096775Y-154760220D01*
X102668203Y-155141172D02*
X102782489Y-155179267D01*
X102820584Y-155217363D01*
X102858679Y-155293553D01*
X102858679Y-155407839D01*
X102820584Y-155484029D01*
X102782489Y-155522125D01*
X102706298Y-155560220D01*
X102401536Y-155560220D01*
X102401536Y-154760220D01*
X102668203Y-154760220D01*
X102744393Y-154798315D01*
X102782489Y-154836410D01*
X102820584Y-154912601D01*
X102820584Y-154988791D01*
X102782489Y-155064982D01*
X102744393Y-155103077D01*
X102668203Y-155141172D01*
X102401536Y-155141172D01*
X103620584Y-155560220D02*
X103163441Y-155560220D01*
X103392012Y-155560220D02*
X103392012Y-154760220D01*
X103315822Y-154874505D01*
X103239631Y-154950696D01*
X103163441Y-154988791D01*
X84646298Y-147800696D02*
X84312964Y-147324505D01*
X84074869Y-147800696D02*
X84074869Y-146800696D01*
X84455822Y-146800696D01*
X84551060Y-146848315D01*
X84598679Y-146895934D01*
X84646298Y-146991172D01*
X84646298Y-147134029D01*
X84598679Y-147229267D01*
X84551060Y-147276886D01*
X84455822Y-147324505D01*
X84074869Y-147324505D01*
X85598679Y-147800696D02*
X85027250Y-147800696D01*
X85312964Y-147800696D02*
X85312964Y-146800696D01*
X85217726Y-146943553D01*
X85122488Y-147038791D01*
X85027250Y-147086410D01*
X86217726Y-146800696D02*
X86312965Y-146800696D01*
X86408203Y-146848315D01*
X86455822Y-146895934D01*
X86503441Y-146991172D01*
X86551060Y-147181648D01*
X86551060Y-147419744D01*
X86503441Y-147610220D01*
X86455822Y-147705458D01*
X86408203Y-147753077D01*
X86312965Y-147800696D01*
X86217726Y-147800696D01*
X86122488Y-147753077D01*
X86074869Y-147705458D01*
X86027250Y-147610220D01*
X85979631Y-147419744D01*
X85979631Y-147181648D01*
X86027250Y-146991172D01*
X86074869Y-146895934D01*
X86122488Y-146848315D01*
X86217726Y-146800696D01*
X88256298Y-158978696D02*
X87922964Y-158502505D01*
X87684869Y-158978696D02*
X87684869Y-157978696D01*
X88065822Y-157978696D01*
X88161060Y-158026315D01*
X88208679Y-158073934D01*
X88256298Y-158169172D01*
X88256298Y-158312029D01*
X88208679Y-158407267D01*
X88161060Y-158454886D01*
X88065822Y-158502505D01*
X87684869Y-158502505D01*
X89208679Y-158978696D02*
X88637250Y-158978696D01*
X88922964Y-158978696D02*
X88922964Y-157978696D01*
X88827726Y-158121553D01*
X88732488Y-158216791D01*
X88637250Y-158264410D01*
X90161060Y-158978696D02*
X89589631Y-158978696D01*
X89875345Y-158978696D02*
X89875345Y-157978696D01*
X89780107Y-158121553D01*
X89684869Y-158216791D01*
X89589631Y-158264410D01*
X84856298Y-154100696D02*
X84522964Y-153624505D01*
X84284869Y-154100696D02*
X84284869Y-153100696D01*
X84665822Y-153100696D01*
X84761060Y-153148315D01*
X84808679Y-153195934D01*
X84856298Y-153291172D01*
X84856298Y-153434029D01*
X84808679Y-153529267D01*
X84761060Y-153576886D01*
X84665822Y-153624505D01*
X84284869Y-153624505D01*
X85808679Y-154100696D02*
X85237250Y-154100696D01*
X85522964Y-154100696D02*
X85522964Y-153100696D01*
X85427726Y-153243553D01*
X85332488Y-153338791D01*
X85237250Y-153386410D01*
X86189631Y-153195934D02*
X86237250Y-153148315D01*
X86332488Y-153100696D01*
X86570584Y-153100696D01*
X86665822Y-153148315D01*
X86713441Y-153195934D01*
X86761060Y-153291172D01*
X86761060Y-153386410D01*
X86713441Y-153529267D01*
X86142012Y-154100696D01*
X86761060Y-154100696D01*
X96816667Y-137904762D02*
X96959524Y-137952381D01*
X97197620Y-137952381D01*
X97292858Y-137904762D01*
X97340477Y-137857143D01*
X97388096Y-137761905D01*
X97388096Y-137666667D01*
X97340477Y-137571429D01*
X97292858Y-137523810D01*
X97197620Y-137476190D01*
X97007143Y-137428571D01*
X96911905Y-137380952D01*
X96864286Y-137333333D01*
X96816667Y-137238095D01*
X96816667Y-137142857D01*
X96864286Y-137047619D01*
X96911905Y-137000000D01*
X97007143Y-136952381D01*
X97245239Y-136952381D01*
X97388096Y-137000000D01*
X97721429Y-136952381D02*
X97959524Y-137952381D01*
X98150001Y-137238095D01*
X98340477Y-137952381D01*
X98578572Y-136952381D01*
X98864286Y-136952381D02*
X99530953Y-136952381D01*
X99102381Y-137952381D01*
X104816667Y-137904762D02*
X104959524Y-137952381D01*
X105197620Y-137952381D01*
X105292858Y-137904762D01*
X105340477Y-137857143D01*
X105388096Y-137761905D01*
X105388096Y-137666667D01*
X105340477Y-137571429D01*
X105292858Y-137523810D01*
X105197620Y-137476190D01*
X105007143Y-137428571D01*
X104911905Y-137380952D01*
X104864286Y-137333333D01*
X104816667Y-137238095D01*
X104816667Y-137142857D01*
X104864286Y-137047619D01*
X104911905Y-137000000D01*
X105007143Y-136952381D01*
X105245239Y-136952381D01*
X105388096Y-137000000D01*
X105721429Y-136952381D02*
X105959524Y-137952381D01*
X106150001Y-137238095D01*
X106340477Y-137952381D01*
X106578572Y-136952381D01*
X107388096Y-136952381D02*
X107197619Y-136952381D01*
X107102381Y-137000000D01*
X107054762Y-137047619D01*
X106959524Y-137190476D01*
X106911905Y-137380952D01*
X106911905Y-137761905D01*
X106959524Y-137857143D01*
X107007143Y-137904762D01*
X107102381Y-137952381D01*
X107292858Y-137952381D01*
X107388096Y-137904762D01*
X107435715Y-137857143D01*
X107483334Y-137761905D01*
X107483334Y-137523810D01*
X107435715Y-137428571D01*
X107388096Y-137380952D01*
X107292858Y-137333333D01*
X107102381Y-137333333D01*
X107007143Y-137380952D01*
X106959524Y-137428571D01*
X106911905Y-137523810D01*
X110956298Y-152305458D02*
X110908679Y-152353077D01*
X110765822Y-152400696D01*
X110670584Y-152400696D01*
X110527726Y-152353077D01*
X110432488Y-152257839D01*
X110384869Y-152162601D01*
X110337250Y-151972125D01*
X110337250Y-151829267D01*
X110384869Y-151638791D01*
X110432488Y-151543553D01*
X110527726Y-151448315D01*
X110670584Y-151400696D01*
X110765822Y-151400696D01*
X110908679Y-151448315D01*
X110956298Y-151495934D01*
X111908679Y-152400696D02*
X111337250Y-152400696D01*
X111622964Y-152400696D02*
X111622964Y-151400696D01*
X111527726Y-151543553D01*
X111432488Y-151638791D01*
X111337250Y-151686410D01*
X112861060Y-152400696D02*
X112289631Y-152400696D01*
X112575345Y-152400696D02*
X112575345Y-151400696D01*
X112480107Y-151543553D01*
X112384869Y-151638791D01*
X112289631Y-151686410D01*
X108356298Y-154055458D02*
X108308679Y-154103077D01*
X108165822Y-154150696D01*
X108070584Y-154150696D01*
X107927726Y-154103077D01*
X107832488Y-154007839D01*
X107784869Y-153912601D01*
X107737250Y-153722125D01*
X107737250Y-153579267D01*
X107784869Y-153388791D01*
X107832488Y-153293553D01*
X107927726Y-153198315D01*
X108070584Y-153150696D01*
X108165822Y-153150696D01*
X108308679Y-153198315D01*
X108356298Y-153245934D01*
X109308679Y-154150696D02*
X108737250Y-154150696D01*
X109022964Y-154150696D02*
X109022964Y-153150696D01*
X108927726Y-153293553D01*
X108832488Y-153388791D01*
X108737250Y-153436410D01*
X109689631Y-153245934D02*
X109737250Y-153198315D01*
X109832488Y-153150696D01*
X110070584Y-153150696D01*
X110165822Y-153198315D01*
X110213441Y-153245934D01*
X110261060Y-153341172D01*
X110261060Y-153436410D01*
X110213441Y-153579267D01*
X109642012Y-154150696D01*
X110261060Y-154150696D01*
X108406298Y-160655458D02*
X108358679Y-160703077D01*
X108215822Y-160750696D01*
X108120584Y-160750696D01*
X107977726Y-160703077D01*
X107882488Y-160607839D01*
X107834869Y-160512601D01*
X107787250Y-160322125D01*
X107787250Y-160179267D01*
X107834869Y-159988791D01*
X107882488Y-159893553D01*
X107977726Y-159798315D01*
X108120584Y-159750696D01*
X108215822Y-159750696D01*
X108358679Y-159798315D01*
X108406298Y-159845934D01*
X109358679Y-160750696D02*
X108787250Y-160750696D01*
X109072964Y-160750696D02*
X109072964Y-159750696D01*
X108977726Y-159893553D01*
X108882488Y-159988791D01*
X108787250Y-160036410D01*
X109692012Y-159750696D02*
X110311060Y-159750696D01*
X109977726Y-160131648D01*
X110120584Y-160131648D01*
X110215822Y-160179267D01*
X110263441Y-160226886D01*
X110311060Y-160322125D01*
X110311060Y-160560220D01*
X110263441Y-160655458D01*
X110215822Y-160703077D01*
X110120584Y-160750696D01*
X109834869Y-160750696D01*
X109739631Y-160703077D01*
X109692012Y-160655458D01*
X81637143Y-150502857D02*
X81684762Y-150550476D01*
X81732381Y-150693333D01*
X81732381Y-150788571D01*
X81684762Y-150931429D01*
X81589524Y-151026667D01*
X81494286Y-151074286D01*
X81303810Y-151121905D01*
X81160952Y-151121905D01*
X80970476Y-151074286D01*
X80875238Y-151026667D01*
X80780000Y-150931429D01*
X80732381Y-150788571D01*
X80732381Y-150693333D01*
X80780000Y-150550476D01*
X80827619Y-150502857D01*
X81732381Y-149550476D02*
X81732381Y-150121905D01*
X81732381Y-149836191D02*
X80732381Y-149836191D01*
X80875238Y-149931429D01*
X80970476Y-150026667D01*
X81018095Y-150121905D01*
X80732381Y-148693333D02*
X80732381Y-148883810D01*
X80780000Y-148979048D01*
X80827619Y-149026667D01*
X80970476Y-149121905D01*
X81160952Y-149169524D01*
X81541905Y-149169524D01*
X81637143Y-149121905D01*
X81684762Y-149074286D01*
X81732381Y-148979048D01*
X81732381Y-148788571D01*
X81684762Y-148693333D01*
X81637143Y-148645714D01*
X81541905Y-148598095D01*
X81303810Y-148598095D01*
X81208571Y-148645714D01*
X81160952Y-148693333D01*
X81113333Y-148788571D01*
X81113333Y-148979048D01*
X81160952Y-149074286D01*
X81208571Y-149121905D01*
X81303810Y-149169524D01*
X80837250Y-145200696D02*
X80837250Y-146010220D01*
X80884869Y-146105458D01*
X80932488Y-146153077D01*
X81027726Y-146200696D01*
X81218203Y-146200696D01*
X81313441Y-146153077D01*
X81361060Y-146105458D01*
X81408679Y-146010220D01*
X81408679Y-145200696D01*
X82361060Y-145200696D02*
X81884869Y-145200696D01*
X81837250Y-145676886D01*
X81884869Y-145629267D01*
X81980107Y-145581648D01*
X82218203Y-145581648D01*
X82313441Y-145629267D01*
X82361060Y-145676886D01*
X82408679Y-145772125D01*
X82408679Y-146010220D01*
X82361060Y-146105458D01*
X82313441Y-146153077D01*
X82218203Y-146200696D01*
X81980107Y-146200696D01*
X81884869Y-146153077D01*
X81837250Y-146105458D01*
X80818334Y-153519143D02*
X80770715Y-153566762D01*
X80627858Y-153614381D01*
X80532620Y-153614381D01*
X80389762Y-153566762D01*
X80294524Y-153471524D01*
X80246905Y-153376286D01*
X80199286Y-153185810D01*
X80199286Y-153042952D01*
X80246905Y-152852476D01*
X80294524Y-152757238D01*
X80389762Y-152662000D01*
X80532620Y-152614381D01*
X80627858Y-152614381D01*
X80770715Y-152662000D01*
X80818334Y-152709619D01*
X81151667Y-152614381D02*
X81770715Y-152614381D01*
X81437381Y-152995333D01*
X81580239Y-152995333D01*
X81675477Y-153042952D01*
X81723096Y-153090571D01*
X81770715Y-153185810D01*
X81770715Y-153423905D01*
X81723096Y-153519143D01*
X81675477Y-153566762D01*
X81580239Y-153614381D01*
X81294524Y-153614381D01*
X81199286Y-153566762D01*
X81151667Y-153519143D01*
X74642143Y-155900381D02*
X74308809Y-155424190D01*
X74070714Y-155900381D02*
X74070714Y-154900381D01*
X74451667Y-154900381D01*
X74546905Y-154948000D01*
X74594524Y-154995619D01*
X74642143Y-155090857D01*
X74642143Y-155233714D01*
X74594524Y-155328952D01*
X74546905Y-155376571D01*
X74451667Y-155424190D01*
X74070714Y-155424190D01*
X75023095Y-154995619D02*
X75070714Y-154948000D01*
X75165952Y-154900381D01*
X75404048Y-154900381D01*
X75499286Y-154948000D01*
X75546905Y-154995619D01*
X75594524Y-155090857D01*
X75594524Y-155186095D01*
X75546905Y-155328952D01*
X74975476Y-155900381D01*
X75594524Y-155900381D01*
X76213571Y-154900381D02*
X76308810Y-154900381D01*
X76404048Y-154948000D01*
X76451667Y-154995619D01*
X76499286Y-155090857D01*
X76546905Y-155281333D01*
X76546905Y-155519429D01*
X76499286Y-155709905D01*
X76451667Y-155805143D01*
X76404048Y-155852762D01*
X76308810Y-155900381D01*
X76213571Y-155900381D01*
X76118333Y-155852762D01*
X76070714Y-155805143D01*
X76023095Y-155709905D01*
X75975476Y-155519429D01*
X75975476Y-155281333D01*
X76023095Y-155090857D01*
X76070714Y-154995619D01*
X76118333Y-154948000D01*
X76213571Y-154900381D01*
X82748381Y-69222857D02*
X82272190Y-69556191D01*
X82748381Y-69794286D02*
X81748381Y-69794286D01*
X81748381Y-69413333D01*
X81796000Y-69318095D01*
X81843619Y-69270476D01*
X81938857Y-69222857D01*
X82081714Y-69222857D01*
X82176952Y-69270476D01*
X82224571Y-69318095D01*
X82272190Y-69413333D01*
X82272190Y-69794286D01*
X82748381Y-68270476D02*
X82748381Y-68841905D01*
X82748381Y-68556191D02*
X81748381Y-68556191D01*
X81891238Y-68651429D01*
X81986476Y-68746667D01*
X82034095Y-68841905D01*
X82081714Y-67413333D02*
X82748381Y-67413333D01*
X81700762Y-67651429D02*
X82415048Y-67889524D01*
X82415048Y-67270476D01*
X130456298Y-136905458D02*
X130408679Y-136953077D01*
X130265822Y-137000696D01*
X130170584Y-137000696D01*
X130027726Y-136953077D01*
X129932488Y-136857839D01*
X129884869Y-136762601D01*
X129837250Y-136572125D01*
X129837250Y-136429267D01*
X129884869Y-136238791D01*
X129932488Y-136143553D01*
X130027726Y-136048315D01*
X130170584Y-136000696D01*
X130265822Y-136000696D01*
X130408679Y-136048315D01*
X130456298Y-136095934D01*
X130837250Y-136095934D02*
X130884869Y-136048315D01*
X130980107Y-136000696D01*
X131218203Y-136000696D01*
X131313441Y-136048315D01*
X131361060Y-136095934D01*
X131408679Y-136191172D01*
X131408679Y-136286410D01*
X131361060Y-136429267D01*
X130789631Y-137000696D01*
X131408679Y-137000696D01*
X132313441Y-136000696D02*
X131837250Y-136000696D01*
X131789631Y-136476886D01*
X131837250Y-136429267D01*
X131932488Y-136381648D01*
X132170584Y-136381648D01*
X132265822Y-136429267D01*
X132313441Y-136476886D01*
X132361060Y-136572125D01*
X132361060Y-136810220D01*
X132313441Y-136905458D01*
X132265822Y-136953077D01*
X132170584Y-137000696D01*
X131932488Y-137000696D01*
X131837250Y-136953077D01*
X131789631Y-136905458D01*
X126856298Y-139305458D02*
X126808679Y-139353077D01*
X126665822Y-139400696D01*
X126570584Y-139400696D01*
X126427726Y-139353077D01*
X126332488Y-139257839D01*
X126284869Y-139162601D01*
X126237250Y-138972125D01*
X126237250Y-138829267D01*
X126284869Y-138638791D01*
X126332488Y-138543553D01*
X126427726Y-138448315D01*
X126570584Y-138400696D01*
X126665822Y-138400696D01*
X126808679Y-138448315D01*
X126856298Y-138495934D01*
X127237250Y-138495934D02*
X127284869Y-138448315D01*
X127380107Y-138400696D01*
X127618203Y-138400696D01*
X127713441Y-138448315D01*
X127761060Y-138495934D01*
X127808679Y-138591172D01*
X127808679Y-138686410D01*
X127761060Y-138829267D01*
X127189631Y-139400696D01*
X127808679Y-139400696D01*
X128665822Y-138400696D02*
X128475345Y-138400696D01*
X128380107Y-138448315D01*
X128332488Y-138495934D01*
X128237250Y-138638791D01*
X128189631Y-138829267D01*
X128189631Y-139210220D01*
X128237250Y-139305458D01*
X128284869Y-139353077D01*
X128380107Y-139400696D01*
X128570584Y-139400696D01*
X128665822Y-139353077D01*
X128713441Y-139305458D01*
X128761060Y-139210220D01*
X128761060Y-138972125D01*
X128713441Y-138876886D01*
X128665822Y-138829267D01*
X128570584Y-138781648D01*
X128380107Y-138781648D01*
X128284869Y-138829267D01*
X128237250Y-138876886D01*
X128189631Y-138972125D01*
X133037250Y-140700696D02*
X133037250Y-141510220D01*
X133084869Y-141605458D01*
X133132488Y-141653077D01*
X133227726Y-141700696D01*
X133418203Y-141700696D01*
X133513441Y-141653077D01*
X133561060Y-141605458D01*
X133608679Y-141510220D01*
X133608679Y-140700696D01*
X133989631Y-140700696D02*
X134656298Y-140700696D01*
X134227726Y-141700696D01*
X92992215Y-68149011D02*
X92992215Y-67149011D01*
X93230310Y-67149011D01*
X93373168Y-67196630D01*
X93468406Y-67291868D01*
X93516025Y-67387106D01*
X93563644Y-67577582D01*
X93563644Y-67720440D01*
X93516025Y-67910916D01*
X93468406Y-68006154D01*
X93373168Y-68101392D01*
X93230310Y-68149011D01*
X92992215Y-68149011D01*
X94468406Y-67149011D02*
X93992215Y-67149011D01*
X93944596Y-67625201D01*
X93992215Y-67577582D01*
X94087453Y-67529963D01*
X94325549Y-67529963D01*
X94420787Y-67577582D01*
X94468406Y-67625201D01*
X94516025Y-67720440D01*
X94516025Y-67958535D01*
X94468406Y-68053773D01*
X94420787Y-68101392D01*
X94325549Y-68149011D01*
X94087453Y-68149011D01*
X93992215Y-68101392D01*
X93944596Y-68053773D01*
X90751060Y-68218696D02*
X90751060Y-67218696D01*
X90989155Y-67218696D01*
X91132013Y-67266315D01*
X91227251Y-67361553D01*
X91274870Y-67456791D01*
X91322489Y-67647267D01*
X91322489Y-67790125D01*
X91274870Y-67980601D01*
X91227251Y-68075839D01*
X91132013Y-68171077D01*
X90989155Y-68218696D01*
X90751060Y-68218696D01*
X91703441Y-67313934D02*
X91751060Y-67266315D01*
X91846298Y-67218696D01*
X92084394Y-67218696D01*
X92179632Y-67266315D01*
X92227251Y-67313934D01*
X92274870Y-67409172D01*
X92274870Y-67504410D01*
X92227251Y-67647267D01*
X91655822Y-68218696D01*
X92274870Y-68218696D01*
X88451060Y-68218696D02*
X88451060Y-67218696D01*
X88689155Y-67218696D01*
X88832013Y-67266315D01*
X88927251Y-67361553D01*
X88974870Y-67456791D01*
X89022489Y-67647267D01*
X89022489Y-67790125D01*
X88974870Y-67980601D01*
X88927251Y-68075839D01*
X88832013Y-68171077D01*
X88689155Y-68218696D01*
X88451060Y-68218696D01*
X89879632Y-67552029D02*
X89879632Y-68218696D01*
X89641536Y-67171077D02*
X89403441Y-67885363D01*
X90022489Y-67885363D01*
X86151060Y-68240381D02*
X86151060Y-67240381D01*
X86389155Y-67240381D01*
X86532013Y-67288000D01*
X86627251Y-67383238D01*
X86674870Y-67478476D01*
X86722489Y-67668952D01*
X86722489Y-67811810D01*
X86674870Y-68002286D01*
X86627251Y-68097524D01*
X86532013Y-68192762D01*
X86389155Y-68240381D01*
X86151060Y-68240381D01*
X87579632Y-67240381D02*
X87389155Y-67240381D01*
X87293917Y-67288000D01*
X87246298Y-67335619D01*
X87151060Y-67478476D01*
X87103441Y-67668952D01*
X87103441Y-68049905D01*
X87151060Y-68145143D01*
X87198679Y-68192762D01*
X87293917Y-68240381D01*
X87484394Y-68240381D01*
X87579632Y-68192762D01*
X87627251Y-68145143D01*
X87674870Y-68049905D01*
X87674870Y-67811810D01*
X87627251Y-67716571D01*
X87579632Y-67668952D01*
X87484394Y-67621333D01*
X87293917Y-67621333D01*
X87198679Y-67668952D01*
X87151060Y-67716571D01*
X87103441Y-67811810D01*
X76975905Y-68218696D02*
X76975905Y-67218696D01*
X77214000Y-67218696D01*
X77356858Y-67266315D01*
X77452096Y-67361553D01*
X77499715Y-67456791D01*
X77547334Y-67647267D01*
X77547334Y-67790125D01*
X77499715Y-67980601D01*
X77452096Y-68075839D01*
X77356858Y-68171077D01*
X77214000Y-68218696D01*
X76975905Y-68218696D01*
X78499715Y-68218696D02*
X77928286Y-68218696D01*
X78214000Y-68218696D02*
X78214000Y-67218696D01*
X78118762Y-67361553D01*
X78023524Y-67456791D01*
X77928286Y-67504410D01*
M02*
