G04 #@! TF.FileFunction,Soldermask,Bot*
%FSLAX46Y46*%
G04 Gerber Fmt 4.6, Leading zero omitted, Abs format (unit mm)*
G04 Created by KiCad (PCBNEW 4.0.5) date 03/19/17 00:11:40*
%MOMM*%
%LPD*%
G01*
G04 APERTURE LIST*
%ADD10C,0.100000*%
%ADD11R,2.100000X1.300000*%
%ADD12R,1.200000X2.000000*%
%ADD13R,1.600000X2.000000*%
%ADD14C,3.100000*%
%ADD15R,2.400000X2.400000*%
%ADD16C,1.800000*%
%ADD17O,1.800000X2.500000*%
%ADD18C,1.400000*%
%ADD19O,1.700000X2.200000*%
%ADD20O,1.009600X1.873200*%
%ADD21R,1.950000X1.000000*%
%ADD22R,1.575000X1.575000*%
%ADD23R,1.200000X2.300000*%
%ADD24R,1.700000X1.900000*%
%ADD25R,1.650000X1.900000*%
%ADD26R,1.900000X1.700000*%
%ADD27R,1.650000X0.700000*%
%ADD28R,3.400000X2.400000*%
%ADD29R,1.900000X1.650000*%
%ADD30R,25.780000X1.610000*%
%ADD31R,7.400000X2.610000*%
%ADD32R,2.580000X6.370000*%
%ADD33R,10.380000X1.690000*%
%ADD34R,3.400000X1.610000*%
%ADD35R,3.600000X1.410000*%
%ADD36R,1.600000X4.620000*%
%ADD37R,1.550000X2.430000*%
%ADD38R,1.550000X2.330000*%
%ADD39R,0.860000X2.766000*%
%ADD40C,0.600000*%
%ADD41R,1.980000X1.410000*%
%ADD42R,0.600000X0.600000*%
%ADD43R,0.450000X2.200000*%
%ADD44R,3.900000X0.650000*%
%ADD45C,5.100000*%
%ADD46R,2.520000X0.270000*%
%ADD47R,3.500000X0.450000*%
%ADD48R,2.800000X0.450000*%
%ADD49R,0.900000X0.900000*%
%ADD50R,0.270000X0.270000*%
%ADD51R,0.650000X0.650000*%
%ADD52R,0.520000X0.270000*%
%ADD53R,1.150000X0.650000*%
%ADD54R,0.900000X0.650000*%
%ADD55R,0.170000X0.520000*%
%ADD56R,0.270000X0.520000*%
%ADD57R,0.220000X0.220000*%
%ADD58R,0.420000X0.250000*%
%ADD59R,0.420000X0.420000*%
%ADD60R,1.200000X0.630000*%
%ADD61R,1.400000X0.630000*%
%ADD62R,0.650000X0.800000*%
%ADD63R,0.270000X0.420000*%
%ADD64R,0.800000X0.650000*%
%ADD65C,0.220000*%
%ADD66R,1.250000X2.700000*%
%ADD67R,1.400000X0.800000*%
%ADD68R,1.400000X1.000000*%
%ADD69R,3.600000X1.900000*%
%ADD70R,1.400000X3.900000*%
%ADD71R,2.400000X3.800000*%
G04 APERTURE END LIST*
D10*
D11*
X84060000Y-64510000D03*
X76460000Y-64510000D03*
D12*
X81960000Y-66310000D03*
D13*
X80260000Y-66310000D03*
D12*
X78560000Y-66310000D03*
D14*
X131500000Y-157750000D03*
D15*
X126645000Y-133560000D03*
X126645000Y-136100000D03*
X124105000Y-136100000D03*
X121565000Y-136100000D03*
X119025000Y-136100000D03*
X116485000Y-136100000D03*
X113945000Y-136100000D03*
X111405000Y-136100000D03*
X108865000Y-136100000D03*
X106325000Y-136100000D03*
X103785000Y-136100000D03*
X101245000Y-136100000D03*
X98705000Y-136100000D03*
X96165000Y-136100000D03*
X93625000Y-136100000D03*
X91085000Y-136100000D03*
X88545000Y-136100000D03*
X86005000Y-136100000D03*
X83465000Y-136100000D03*
X80925000Y-136100000D03*
X78385000Y-136100000D03*
X124105000Y-133560000D03*
X121565000Y-133560000D03*
X119025000Y-133560000D03*
X116485000Y-133560000D03*
X113945000Y-133560000D03*
X111405000Y-133560000D03*
X108865000Y-133560000D03*
X106325000Y-133560000D03*
X103785000Y-133560000D03*
X101245000Y-133560000D03*
X98705000Y-133560000D03*
X96165000Y-133560000D03*
X93625000Y-133560000D03*
X91085000Y-133560000D03*
X88545000Y-133560000D03*
X83465000Y-133560000D03*
X86005000Y-133560000D03*
X80925000Y-133560000D03*
X78385000Y-133560000D03*
D16*
X92785000Y-159260000D03*
X94785000Y-159260000D03*
D17*
X117285000Y-154760000D03*
X117285000Y-159760000D03*
X128535000Y-159760000D03*
X128535000Y-154760000D03*
D18*
X89785000Y-155260000D03*
D19*
X125065000Y-89460000D03*
X122265000Y-89460000D03*
X118765000Y-89460000D03*
X116285000Y-89460000D03*
X115785000Y-77060000D03*
X117785000Y-77060000D03*
D20*
X75106299Y-75536865D03*
X76376299Y-75536865D03*
X77646299Y-75536865D03*
X78916299Y-75536865D03*
X78916299Y-81124865D03*
X77646299Y-81124865D03*
X76376299Y-81124865D03*
X75106299Y-81124865D03*
D21*
X82383399Y-93902157D03*
X82383399Y-95172157D03*
X82383399Y-96442157D03*
X82383399Y-97712157D03*
X76983399Y-97712157D03*
X76983399Y-96442157D03*
X76983399Y-95172157D03*
X76983399Y-93902157D03*
D22*
X79095899Y-96394657D03*
X79095899Y-95219657D03*
X80270899Y-96394657D03*
X80270899Y-95219657D03*
D23*
X81249155Y-110748315D03*
X83149155Y-110748315D03*
X82199155Y-113748315D03*
X83803299Y-72148315D03*
X81903299Y-72148315D03*
X82853299Y-69148315D03*
D14*
X73500000Y-122250000D03*
D24*
X88199155Y-108098315D03*
X88199155Y-105398315D03*
D25*
X72830000Y-95600000D03*
X72830000Y-93100000D03*
D24*
X81499155Y-108098315D03*
X81499155Y-105398315D03*
X85999155Y-108098315D03*
X85999155Y-105398315D03*
D26*
X76949155Y-99648315D03*
X79649155Y-99648315D03*
D27*
X93235000Y-101010000D03*
X93235000Y-100510000D03*
D28*
X90910000Y-102550000D03*
D27*
X93235000Y-99510000D03*
X93235000Y-100010000D03*
X93235000Y-99010000D03*
X93235000Y-98010000D03*
X93235000Y-98510000D03*
X93235000Y-97510000D03*
X93235000Y-96510000D03*
X93235000Y-97010000D03*
X93235000Y-94510000D03*
X93235000Y-94010000D03*
X93235000Y-93510000D03*
X93235000Y-93010000D03*
X93235000Y-92010000D03*
X93235000Y-92510000D03*
X93235000Y-91510000D03*
X93235000Y-95010000D03*
X93235000Y-95510000D03*
X93235000Y-96010000D03*
X93235000Y-82510000D03*
X93235000Y-81510000D03*
X93235000Y-82010000D03*
X93235000Y-83510000D03*
X93235000Y-83010000D03*
X93235000Y-84010000D03*
X93235000Y-91010000D03*
X93235000Y-90010000D03*
X93235000Y-90510000D03*
X93235000Y-88510000D03*
X93235000Y-87510000D03*
X93235000Y-88010000D03*
X93235000Y-89510000D03*
X93235000Y-89010000D03*
X93235000Y-86510000D03*
X93235000Y-85510000D03*
X93235000Y-87010000D03*
X93235000Y-86010000D03*
X93235000Y-84510000D03*
X93235000Y-85010000D03*
X93235000Y-80010000D03*
X93235000Y-81010000D03*
X93235000Y-80510000D03*
X93235000Y-79010000D03*
X93235000Y-79510000D03*
X93235000Y-78510000D03*
X93235000Y-76510000D03*
X93235000Y-78010000D03*
X93235000Y-77010000D03*
X93235000Y-77510000D03*
D28*
X90910000Y-74970000D03*
D29*
X75149155Y-98448315D03*
X72649155Y-98448315D03*
D26*
X87849155Y-112448315D03*
X85149155Y-112448315D03*
X85149155Y-110348315D03*
X87849155Y-110348315D03*
D29*
X90464000Y-105918000D03*
X92964000Y-105918000D03*
D26*
X72999155Y-125498315D03*
X75699155Y-125498315D03*
D29*
X122535000Y-74560000D03*
X120035000Y-74560000D03*
X122535000Y-71810000D03*
X120035000Y-71810000D03*
D24*
X117785000Y-74510000D03*
X117785000Y-71810000D03*
X83799155Y-108098315D03*
X83799155Y-105398315D03*
D29*
X128250000Y-91694000D03*
X125750000Y-91694000D03*
D25*
X80059299Y-72468865D03*
X80059299Y-69968865D03*
D29*
X75253299Y-73250865D03*
X77753299Y-73250865D03*
D25*
X75233299Y-83684865D03*
X75233299Y-86184865D03*
D23*
X82549155Y-78748315D03*
X80649155Y-78748315D03*
X81599155Y-75748315D03*
D26*
X77853299Y-68678865D03*
X75153299Y-68678865D03*
X77853299Y-70964865D03*
X75153299Y-70964865D03*
D24*
X79805299Y-83584865D03*
X79805299Y-86284865D03*
X82091299Y-81044865D03*
X82091299Y-83744865D03*
X77519299Y-86284865D03*
X77519299Y-83584865D03*
D25*
X74862000Y-95600000D03*
X74862000Y-93100000D03*
X77321166Y-91921750D03*
X77321166Y-89421750D03*
D14*
X131500000Y-122250000D03*
X131500000Y-64250000D03*
X73500000Y-64250000D03*
X73500000Y-157750000D03*
D30*
X115875000Y-63985000D03*
D31*
X122985000Y-64485000D03*
D32*
X127575000Y-66465000D03*
D33*
X123575000Y-68905000D03*
D34*
X120085000Y-66995000D03*
D35*
X120085000Y-66995000D03*
D36*
X120085000Y-65490000D03*
D37*
X121110000Y-69275000D03*
D38*
X119060000Y-69325000D03*
D39*
X117805000Y-69107000D03*
D10*
G36*
X119093005Y-67298107D02*
X117929107Y-68462005D01*
X117320995Y-67853893D01*
X118484893Y-66689995D01*
X119093005Y-67298107D01*
X119093005Y-67298107D01*
G37*
D40*
X128565000Y-63480000D03*
X128565000Y-69450000D03*
X118585000Y-68360000D03*
X117675000Y-67924000D03*
X118585000Y-66490000D03*
X121585000Y-67500000D03*
X121585000Y-66490000D03*
D41*
X103875000Y-63985000D03*
D40*
X103185000Y-63480000D03*
X103185000Y-64490000D03*
D42*
X118585000Y-67500000D03*
D43*
X93485000Y-127260000D03*
X97485000Y-127260000D03*
D44*
X95685000Y-127260000D03*
D45*
X95485000Y-127260000D03*
D44*
X95358000Y-127760000D03*
D46*
X95425000Y-125260000D03*
D47*
X95739000Y-126260000D03*
D44*
X95358000Y-126760000D03*
D46*
X95425000Y-129260000D03*
D48*
X95175000Y-125760000D03*
D47*
X95739000Y-128260000D03*
D48*
X95175000Y-128760000D03*
D10*
G36*
X96671146Y-129395564D02*
X96464314Y-129222012D01*
X97418854Y-128084436D01*
X97625686Y-128257988D01*
X96671146Y-129395564D01*
X96671146Y-129395564D01*
G37*
G36*
X93216246Y-128246605D02*
X93560966Y-127957351D01*
X94203754Y-128723395D01*
X93859034Y-129012649D01*
X93216246Y-128246605D01*
X93216246Y-128246605D01*
G37*
G36*
X93560966Y-126562649D02*
X93216246Y-126273395D01*
X93859034Y-125507351D01*
X94203754Y-125796605D01*
X93560966Y-126562649D01*
X93560966Y-126562649D01*
G37*
G36*
X96464314Y-125297988D02*
X96671146Y-125124436D01*
X97625686Y-126262012D01*
X97418854Y-126435564D01*
X96464314Y-125297988D01*
X96464314Y-125297988D01*
G37*
D49*
X93135000Y-127260000D03*
X97835000Y-127260000D03*
D50*
X96545000Y-129260000D03*
D51*
X97315000Y-128260000D03*
D52*
X97255000Y-126260000D03*
D50*
X96545000Y-125260000D03*
D51*
X93995000Y-128760000D03*
D53*
X93735000Y-127760000D03*
D51*
X94005000Y-125760000D03*
D54*
X93645000Y-126760000D03*
D55*
X93515000Y-128100000D03*
D10*
G36*
X93521442Y-128424972D02*
X93380028Y-128256442D01*
X93548558Y-128115028D01*
X93689972Y-128283558D01*
X93521442Y-128424972D01*
X93521442Y-128424972D01*
G37*
D56*
X93485000Y-127920000D03*
D53*
X94205000Y-127760000D03*
X94705000Y-127760000D03*
X97625000Y-127260000D03*
D10*
G36*
X96969332Y-125854931D02*
X97137861Y-125713517D01*
X97600668Y-126265069D01*
X97432139Y-126406483D01*
X96969332Y-125854931D01*
X96969332Y-125854931D01*
G37*
D57*
X97375000Y-126220000D03*
X97475000Y-128190000D03*
D58*
X93595000Y-127770000D03*
D59*
X93325000Y-127250000D03*
D50*
X96415000Y-125260000D03*
X96315000Y-125260000D03*
D51*
X96175000Y-125260000D03*
X96035000Y-125260000D03*
X95855000Y-125260000D03*
D60*
X97235000Y-127260000D03*
D61*
X96745000Y-127260000D03*
D62*
X93485000Y-126760000D03*
D63*
X93485000Y-126460000D03*
D10*
G36*
X93614259Y-125940521D02*
X93884230Y-125618782D01*
X94075741Y-125779479D01*
X93805770Y-126101218D01*
X93614259Y-125940521D01*
X93614259Y-125940521D01*
G37*
D63*
X97485000Y-126460000D03*
D62*
X97485000Y-126740000D03*
X97485000Y-127010000D03*
D64*
X96995000Y-126260000D03*
D10*
G36*
X93537910Y-126442916D02*
X93346398Y-126282219D01*
X93552090Y-126037084D01*
X93743602Y-126197781D01*
X93537910Y-126442916D01*
X93537910Y-126442916D01*
G37*
D65*
X93495000Y-126320000D03*
D40*
X97465000Y-126330000D03*
D43*
X107485000Y-127260000D03*
X111485000Y-127260000D03*
D44*
X109685000Y-127260000D03*
D45*
X109485000Y-127260000D03*
D44*
X109358000Y-127760000D03*
D46*
X109425000Y-125260000D03*
D47*
X109739000Y-126260000D03*
D44*
X109358000Y-126760000D03*
D46*
X109425000Y-129260000D03*
D48*
X109175000Y-125760000D03*
D47*
X109739000Y-128260000D03*
D48*
X109175000Y-128760000D03*
D10*
G36*
X110671146Y-129395564D02*
X110464314Y-129222012D01*
X111418854Y-128084436D01*
X111625686Y-128257988D01*
X110671146Y-129395564D01*
X110671146Y-129395564D01*
G37*
G36*
X107216246Y-128246605D02*
X107560966Y-127957351D01*
X108203754Y-128723395D01*
X107859034Y-129012649D01*
X107216246Y-128246605D01*
X107216246Y-128246605D01*
G37*
G36*
X107560966Y-126562649D02*
X107216246Y-126273395D01*
X107859034Y-125507351D01*
X108203754Y-125796605D01*
X107560966Y-126562649D01*
X107560966Y-126562649D01*
G37*
G36*
X110464314Y-125297988D02*
X110671146Y-125124436D01*
X111625686Y-126262012D01*
X111418854Y-126435564D01*
X110464314Y-125297988D01*
X110464314Y-125297988D01*
G37*
D49*
X107135000Y-127260000D03*
X111835000Y-127260000D03*
D50*
X110545000Y-129260000D03*
D51*
X111315000Y-128260000D03*
D52*
X111255000Y-126260000D03*
D50*
X110545000Y-125260000D03*
D51*
X107995000Y-128760000D03*
D53*
X107735000Y-127760000D03*
D51*
X108005000Y-125760000D03*
D54*
X107645000Y-126760000D03*
D55*
X107515000Y-128100000D03*
D10*
G36*
X107521442Y-128424972D02*
X107380028Y-128256442D01*
X107548558Y-128115028D01*
X107689972Y-128283558D01*
X107521442Y-128424972D01*
X107521442Y-128424972D01*
G37*
D56*
X107485000Y-127920000D03*
D53*
X108205000Y-127760000D03*
X108705000Y-127760000D03*
X111625000Y-127260000D03*
D10*
G36*
X110969332Y-125854931D02*
X111137861Y-125713517D01*
X111600668Y-126265069D01*
X111432139Y-126406483D01*
X110969332Y-125854931D01*
X110969332Y-125854931D01*
G37*
D57*
X111375000Y-126220000D03*
X111475000Y-128190000D03*
D58*
X107595000Y-127770000D03*
D59*
X107325000Y-127250000D03*
D50*
X110415000Y-125260000D03*
X110315000Y-125260000D03*
D51*
X110175000Y-125260000D03*
X110035000Y-125260000D03*
X109855000Y-125260000D03*
D60*
X111235000Y-127260000D03*
D61*
X110745000Y-127260000D03*
D62*
X107485000Y-126760000D03*
D63*
X107485000Y-126460000D03*
D10*
G36*
X107614259Y-125940521D02*
X107884230Y-125618782D01*
X108075741Y-125779479D01*
X107805770Y-126101218D01*
X107614259Y-125940521D01*
X107614259Y-125940521D01*
G37*
D63*
X111485000Y-126460000D03*
D62*
X111485000Y-126740000D03*
X111485000Y-127010000D03*
D64*
X110995000Y-126260000D03*
D10*
G36*
X107537910Y-126442916D02*
X107346398Y-126282219D01*
X107552090Y-126037084D01*
X107743602Y-126197781D01*
X107537910Y-126442916D01*
X107537910Y-126442916D01*
G37*
D65*
X107495000Y-126320000D03*
D40*
X111465000Y-126330000D03*
D66*
X82182399Y-91489157D03*
X80232399Y-91489157D03*
D29*
X127782000Y-81534000D03*
X130282000Y-81534000D03*
X121432000Y-129794000D03*
X123932000Y-129794000D03*
D23*
X128082000Y-86360000D03*
X129982000Y-86360000D03*
X129032000Y-89360000D03*
D26*
X127682000Y-83820000D03*
X130382000Y-83820000D03*
D29*
X71099155Y-100498315D03*
X73599155Y-100498315D03*
D26*
X75249155Y-115798315D03*
X72549155Y-115798315D03*
D24*
X76849155Y-120548315D03*
X76849155Y-117848315D03*
D67*
X75049155Y-117798315D03*
D68*
X75049155Y-118998315D03*
D67*
X72749155Y-119098315D03*
X72749155Y-117798315D03*
D69*
X120749155Y-125248315D03*
X124749155Y-125248315D03*
D70*
X80699155Y-129148315D03*
X82699155Y-129148315D03*
D71*
X78099155Y-123598315D03*
X85299155Y-123598315D03*
M02*
