M48
;DRILL file {KiCad 4.0.5} date 03/19/17 00:11:42
;FORMAT={-:-/ absolute / inch / decimal}
FMAT,2
INCH,TZ
T1C0.012
T2C0.013
T3C0.016
T4C0.024
T5C0.028
T6C0.047
T7C0.106
%
G90
G05
M72
T1
X2.7992Y-2.6239
X2.7992Y-2.7893
X2.7992Y-2.9625
X2.7992Y-3.1869
X2.7992Y-3.4468
X2.8504Y-3.5806
X2.8504Y-3.6161
X2.8504Y-3.6515
X2.8504Y-3.6869
X2.8504Y-3.9862
X2.8504Y-4.1594
X2.8504Y-4.3287
X2.8897Y-3.5806
X2.8897Y-3.6161
X2.8897Y-3.6515
X2.8897Y-3.6869
X2.9074Y-3.9862
X2.9074Y-4.1594
X2.9074Y-4.3287
X2.9252Y-3.5806
X2.9252Y-3.6161
X2.9252Y-3.6515
X2.9252Y-3.6869
X2.9488Y-3.1476
X2.9488Y-3.2421
X2.9606Y-3.5806
X2.9606Y-3.6161
X2.9606Y-3.6515
X2.9921Y-3.5806
X2.9921Y-3.6161
X2.9921Y-3.6476
X3.0078Y-2.6239
X3.0078Y-4.1594
X3.0078Y-4.3287
X3.0236Y-3.9862
X3.059Y-3.0964
X3.063Y-3.9862
X3.0826Y-3.683
X3.0826Y-3.7106
X3.0826Y-3.7381
X3.0826Y-3.7657
X3.0826Y-3.7932
X3.0826Y-3.8208
X3.0826Y-3.8484
X3.0945Y-3.0964
X3.1023Y-3.9074
X3.1023Y-3.9468
X3.1023Y-3.9862
X3.1102Y-3.683
X3.1102Y-3.7106
X3.1102Y-3.7381
X3.1102Y-3.7657
X3.1102Y-3.7932
X3.1102Y-3.8208
X3.1102Y-3.8484
X3.122Y-2.8051
X3.1378Y-3.683
X3.1378Y-3.7106
X3.1378Y-3.7381
X3.1378Y-3.7657
X3.1378Y-3.7932
X3.1378Y-3.8208
X3.1378Y-3.8484
X3.1378Y-4.1594
X3.1378Y-4.3287
X3.1417Y-3.9074
X3.1417Y-3.9468
X3.1417Y-3.9862
X3.1456Y-3.494
X3.1653Y-3.683
X3.1653Y-3.7106
X3.1653Y-3.7381
X3.1653Y-3.7657
X3.1653Y-3.7932
X3.1653Y-3.8208
X3.1653Y-3.8484
X3.1771Y-3.9074
X3.1771Y-3.9468
X3.1771Y-3.9862
X3.1929Y-2.8051
X3.1929Y-3.683
X3.1929Y-3.7106
X3.1929Y-3.7381
X3.1929Y-3.7657
X3.1929Y-3.7932
X3.1929Y-3.8208
X3.1929Y-3.8484
X3.1968Y-3.3956
X3.2086Y-3.0491
X3.2086Y-3.1358
X3.2086Y-3.2381
X3.2126Y-3.9074
X3.2126Y-3.9468
X3.2126Y-3.9862
X3.2441Y-3.9074
X3.2441Y-3.9468
X3.2441Y-3.9862
X3.2559Y-3.494
X3.2795Y-3.9074
X3.2795Y-3.9468
X3.2795Y-3.9862
X3.3031Y-2.7106
X3.3031Y-2.7342
X3.311Y-3.9074
X3.311Y-3.9468
X3.3149Y-4.0531
T2
X2.8287Y-4.6889
X2.8425Y-4.3759
X2.8981Y-5.9018
X2.9Y-5.31
X2.9035Y-4.4507
X2.9035Y-4.6377
X2.92Y-5.95
X2.9417Y-5.92
X2.9424Y-5.7524
X2.9686Y-4.9785
X2.9724Y-3.4507
X3.Y-5.05
X3.0169Y-4.5855
X3.03Y-5.38
X3.1378Y-3.0925
X3.1673Y-6.1594
X3.186Y-2.9666
X3.1948Y-6.1594
X3.2086Y-6.1121
X3.2227Y-5.5959
X3.2244Y-5.8523
X3.2382Y-4.3602
X3.2618Y-2.8471
X3.2697Y-4.6377
X3.2705Y-5.6105
X3.2815Y-2.9821
X3.2874Y-2.498
X3.2959Y-4.6072
X3.3047Y-5.6123
X3.3096Y-5.6949
X3.31Y-5.64
X3.31Y-5.7224
X3.3114Y-2.7854
X3.3119Y-2.9428
X3.3123Y-5.6675
X3.3149Y-4.7072
X3.3206Y-4.5859
X3.3228Y-3.9862
X3.3297Y-2.9953
X3.3582Y-4.7106
X3.3622Y-4.0531
X3.3641Y-4.6759
X3.37Y-5.12
X3.3721Y-2.923
X3.374Y-2.498
X3.3846Y-5.4272
X3.3877Y-5.1948
X3.3917Y-5.9695
X3.4193Y-5.4251
X3.4212Y-2.5598
X3.4302Y-5.4504
X3.4606Y-5.1082
X3.4645Y-2.557
X3.4685Y-2.498
X3.5393Y-5.557
X3.563Y-3.872
X3.563Y-4.1003
X3.5866Y-3.1909
X3.5905Y-2.555
X3.5984Y-5.4213
X3.6025Y-4.8899
X3.64Y-5.12
X3.65Y-5.02
X3.6535Y-5.4232
X3.685Y-2.8011
X3.685Y-2.8247
X3.685Y-2.9547
X3.6929Y-2.557
X3.7047Y-2.9743
X3.7165Y-3.1909
X3.7166Y-3.7561
X3.717Y-3.7837
X3.72Y-3.24
X3.7216Y-3.8128
X3.7241Y-5.4447
X3.7244Y-5.5848
X3.7244Y-3.5827
X3.7285Y-3.6538
X3.7288Y-3.6971
X3.7384Y-3.5397
X3.7473Y-3.6767
X3.7497Y-3.7266
X3.7628Y-3.4491
X3.7913Y-3.4854
X3.811Y-5.4232
X3.82Y-5.9706
X3.8248Y-4.6045
X3.8582Y-4.9822
X3.8799Y-3.7283
X3.8964Y-6.1126
X3.9272Y-5.189
X3.9465Y-5.1296
X3.9527Y-5.1751
X3.9527Y-6.2224
X3.9685Y-5.4252
X3.9741Y-5.0871
X3.9784Y-5.1643
X4.Y-5.4154
X4.0032Y-5.1459
X4.0241Y-5.4564
X4.0462Y-5.1889
X4.0583Y-3.6621
X4.0583Y-3.7072
X4.06Y-3.54
X4.06Y-3.59
X4.0624Y-6.0654
X4.0886Y-3.8409
X4.1181Y-3.6772
X4.1462Y-5.5848
X4.1483Y-5.1753
X4.15Y-5.51
X4.1574Y-5.6674
X4.1596Y-5.7224
X4.1599Y-5.64
X4.1603Y-5.6949
X4.1634Y-3.7598
X4.1634Y-4.6063
X4.1756Y-5.1701
X4.19Y-5.01
X4.1929Y-3.7835
X4.1962Y-5.1519
X4.2205Y-5.4291
X4.2835Y-5.4173
X4.3858Y-5.4173
X4.4Y-5.11
X4.4272Y-5.0866
X4.4583Y-5.4211
X4.5511Y-3.0846
X4.5511Y-3.1751
X4.5708Y-3.0846
X4.5708Y-3.1751
X4.59Y-5.42
X4.6617Y-5.1974
X4.685Y-5.1827
X4.7303Y-3.5885
X4.7578Y-3.5885
X4.7808Y-5.0688
X4.8465Y-5.4173
X4.8858Y-5.4213
X4.9645Y-3.2972
X4.9842Y-5.4862
X5.0984Y-5.5157
X5.2126Y-5.3917
T3
X2.9055Y-3.8247
X2.937Y-3.8247
X2.9685Y-3.8247
X2.9921Y-3.2578
X3.0118Y-3.2578
X3.0511Y-3.0314
X3.0669Y-3.1594
X3.0708Y-3.0314
X3.0945Y-6.0373
X3.0984Y-3.1594
X3.0984Y-3.5688
X3.0984Y-3.6043
X3.0984Y-3.6397
X3.1299Y-6.0373
X3.1598Y-2.66
X3.95Y-6.15
T4
X3.5348Y-6.1126
T5
X3.653Y-6.2701
X3.7317Y-6.2701
T7
X2.8937Y-2.5295
X2.8937Y-4.813
X2.8937Y-6.2106
X5.1772Y-2.5295
X5.1772Y-4.813
X5.1772Y-6.2106
T6
X4.6175Y-6.1067G85X4.6175Y-6.0791
G05
X4.6175Y-6.3035G85X4.6175Y-6.276
G05
X5.0604Y-6.1067G85X5.0604Y-6.0791
G05
X5.0604Y-6.3035G85X5.0604Y-6.276
G05
T0
M30
