G04 #@! TF.FileFunction,Copper,L2,Bot,Signal*
%FSLAX46Y46*%
G04 Gerber Fmt 4.6, Leading zero omitted, Abs format (unit mm)*
G04 Created by KiCad (PCBNEW 4.0.5) date 03/19/17 00:11:40*
%MOMM*%
%LPD*%
G01*
G04 APERTURE LIST*
%ADD10C,0.100000*%
%ADD11C,0.200000*%
%ADD12R,1.700000X0.900000*%
%ADD13R,0.800000X1.600000*%
%ADD14R,1.200000X1.600000*%
%ADD15R,2.000000X2.000000*%
%ADD16C,1.400000*%
%ADD17O,1.400000X2.100000*%
%ADD18C,1.000000*%
%ADD19C,0.600000*%
%ADD20O,1.300000X1.800000*%
%ADD21O,0.609600X1.473200*%
%ADD22R,1.550000X0.600000*%
%ADD23R,1.175000X1.175000*%
%ADD24R,0.800000X1.900000*%
%ADD25R,1.300000X1.500000*%
%ADD26R,1.250000X1.500000*%
%ADD27R,1.500000X1.300000*%
%ADD28R,1.250000X0.300000*%
%ADD29R,3.000000X2.000000*%
%ADD30R,1.500000X1.250000*%
%ADD31R,25.380000X1.210000*%
%ADD32R,7.000000X2.210000*%
%ADD33R,2.180000X5.970000*%
%ADD34R,9.980000X1.290000*%
%ADD35R,3.000000X1.210000*%
%ADD36R,3.200000X1.010000*%
%ADD37R,1.200000X4.220000*%
%ADD38R,1.150000X2.030000*%
%ADD39R,1.150000X1.930000*%
%ADD40R,0.460000X2.366000*%
%ADD41C,0.200000*%
%ADD42R,1.580000X1.010000*%
%ADD43R,0.200000X0.200000*%
%ADD44R,0.250000X2.000000*%
%ADD45R,3.500000X0.250000*%
%ADD46R,2.500000X0.250000*%
%ADD47R,3.300000X0.250000*%
%ADD48R,2.600000X0.250000*%
%ADD49R,0.500000X0.500000*%
%ADD50R,0.250000X0.250000*%
%ADD51R,0.500000X0.250000*%
%ADD52R,0.750000X0.250000*%
%ADD53R,0.150000X0.500000*%
%ADD54R,0.250000X0.500000*%
%ADD55R,0.400000X0.230000*%
%ADD56R,0.400000X0.400000*%
%ADD57R,0.800000X0.230000*%
%ADD58R,1.000000X0.230000*%
%ADD59R,0.250000X0.400000*%
%ADD60R,0.400000X0.250000*%
%ADD61R,0.850000X2.300000*%
%ADD62R,1.200000X0.600000*%
%ADD63R,1.200000X0.800000*%
%ADD64R,3.200000X1.500000*%
%ADD65R,1.000000X3.500000*%
%ADD66R,2.000000X3.400000*%
%ADD67C,0.500000*%
%ADD68C,0.900000*%
%ADD69C,1.000000*%
%ADD70C,0.500000*%
%ADD71C,0.300000*%
%ADD72C,0.750000*%
%ADD73C,0.152400*%
%ADD74C,0.254000*%
G04 APERTURE END LIST*
D10*
D11*
X101299155Y-132198315D02*
X101249155Y-132198315D01*
D12*
X84060000Y-64510000D03*
X76460000Y-64510000D03*
D13*
X81960000Y-66310000D03*
D14*
X80260000Y-66310000D03*
D13*
X78560000Y-66310000D03*
D15*
X126645000Y-133560000D03*
X126645000Y-136100000D03*
X124105000Y-136100000D03*
X121565000Y-136100000D03*
X119025000Y-136100000D03*
X116485000Y-136100000D03*
X113945000Y-136100000D03*
X111405000Y-136100000D03*
X108865000Y-136100000D03*
X106325000Y-136100000D03*
X103785000Y-136100000D03*
X101245000Y-136100000D03*
X98705000Y-136100000D03*
X96165000Y-136100000D03*
X93625000Y-136100000D03*
X91085000Y-136100000D03*
X88545000Y-136100000D03*
X86005000Y-136100000D03*
X83465000Y-136100000D03*
X80925000Y-136100000D03*
X78385000Y-136100000D03*
X124105000Y-133560000D03*
X121565000Y-133560000D03*
X119025000Y-133560000D03*
X116485000Y-133560000D03*
X113945000Y-133560000D03*
X111405000Y-133560000D03*
X108865000Y-133560000D03*
X106325000Y-133560000D03*
X103785000Y-133560000D03*
X101245000Y-133560000D03*
X98705000Y-133560000D03*
X96165000Y-133560000D03*
X93625000Y-133560000D03*
X91085000Y-133560000D03*
X88545000Y-133560000D03*
X83465000Y-133560000D03*
X86005000Y-133560000D03*
X80925000Y-133560000D03*
X78385000Y-133560000D03*
D16*
X92785000Y-159260000D03*
X94785000Y-159260000D03*
D17*
X117285000Y-154760000D03*
X117285000Y-159760000D03*
X128535000Y-159760000D03*
X128535000Y-154760000D03*
D18*
X89785000Y-155260000D03*
D19*
X73849155Y-101248315D03*
X73849155Y-105648315D03*
X73849155Y-109948315D03*
X83899155Y-69448315D03*
X83899155Y-68848315D03*
X81199155Y-86248315D03*
X81499155Y-82248315D03*
X81499155Y-79648315D03*
X81499155Y-77448315D03*
X82699155Y-88748315D03*
X79899155Y-88748315D03*
D20*
X125065000Y-89460000D03*
X122265000Y-89460000D03*
X118765000Y-89460000D03*
X116285000Y-89460000D03*
X115785000Y-77060000D03*
X117785000Y-77060000D03*
D19*
X84199155Y-102948315D03*
X79699155Y-105648315D03*
X76399155Y-105648315D03*
X76399155Y-109948315D03*
X72399155Y-105648315D03*
X74299155Y-93648315D03*
X73399155Y-93648315D03*
X72399155Y-93648315D03*
X75999155Y-92648315D03*
X75199155Y-92748315D03*
X74299155Y-92748315D03*
X73399155Y-92748315D03*
X72399155Y-92748315D03*
X78799155Y-100248315D03*
X78799155Y-99248315D03*
X79799155Y-99248315D03*
X79799155Y-100248315D03*
X80699155Y-100248315D03*
X80699155Y-99248315D03*
X74899155Y-79948315D03*
D21*
X75106299Y-75536865D03*
X76376299Y-75536865D03*
X77646299Y-75536865D03*
X78916299Y-75536865D03*
X78916299Y-81124865D03*
X77646299Y-81124865D03*
X76376299Y-81124865D03*
X75106299Y-81124865D03*
D19*
X81099155Y-71248315D03*
X79299155Y-71248315D03*
X76399155Y-66648315D03*
X71099155Y-66648315D03*
X71099155Y-70848315D03*
X71099155Y-75248315D03*
X71099155Y-80948315D03*
X74899155Y-82348315D03*
X77699155Y-78648315D03*
X78599155Y-78648315D03*
X71099155Y-87548315D03*
X72399155Y-101248315D03*
X72399155Y-109948315D03*
X84099155Y-100248315D03*
X84099155Y-99248315D03*
X83299155Y-100248315D03*
X83299155Y-99248315D03*
X75999155Y-90948315D03*
X75199155Y-90948315D03*
X74299155Y-90948315D03*
X73399155Y-90948315D03*
X72399155Y-90948315D03*
X72399155Y-91848315D03*
X73399155Y-91848315D03*
X74299155Y-91848315D03*
X75199155Y-91848315D03*
X75999155Y-91848315D03*
X83299155Y-101248315D03*
X82399155Y-101248315D03*
X81599155Y-101248315D03*
X80699155Y-101248315D03*
X76799155Y-101248315D03*
X77799155Y-101248315D03*
X78799155Y-101248315D03*
X81099155Y-97748315D03*
X80399155Y-97748315D03*
X79699155Y-97748315D03*
X78999155Y-97748315D03*
X78299155Y-97748315D03*
X81099155Y-93548315D03*
X80399155Y-93548315D03*
X79699155Y-93548315D03*
X78999155Y-93548315D03*
X78299155Y-93548315D03*
X81099155Y-94248315D03*
X78299155Y-94248315D03*
X78999155Y-94248315D03*
X79699155Y-94248315D03*
X79699155Y-94948315D03*
X78999155Y-94948315D03*
X78299155Y-94948315D03*
X78299155Y-95648315D03*
X80399155Y-95648315D03*
X79699155Y-95648315D03*
X78999155Y-95648315D03*
D22*
X82383399Y-93902157D03*
X82383399Y-95172157D03*
X82383399Y-96442157D03*
X82383399Y-97712157D03*
X76983399Y-97712157D03*
X76983399Y-96442157D03*
X76983399Y-95172157D03*
X76983399Y-93902157D03*
D23*
X79095899Y-96394657D03*
X79095899Y-95219657D03*
X80270899Y-96394657D03*
X80270899Y-95219657D03*
D19*
X80399155Y-94248315D03*
X80399155Y-94948315D03*
X81099155Y-94948315D03*
X81099155Y-95648315D03*
X81099155Y-96348315D03*
X80399155Y-96348315D03*
X79699155Y-96348315D03*
X78999155Y-96348315D03*
X78299155Y-96348315D03*
X78299155Y-97048315D03*
X81099155Y-97048315D03*
X80399155Y-97048315D03*
X79699155Y-97048315D03*
X78999155Y-97048315D03*
X82399155Y-99248315D03*
X82399155Y-100248315D03*
X81599155Y-100248315D03*
X81599155Y-99248315D03*
X79799155Y-101248315D03*
D24*
X81249155Y-110748315D03*
X83149155Y-110748315D03*
X82199155Y-113748315D03*
X83803299Y-72148315D03*
X81903299Y-72148315D03*
X82853299Y-69148315D03*
D25*
X88199155Y-108098315D03*
X88199155Y-105398315D03*
D26*
X72830000Y-95600000D03*
X72830000Y-93100000D03*
D25*
X81499155Y-108098315D03*
X81499155Y-105398315D03*
X85999155Y-108098315D03*
X85999155Y-105398315D03*
D27*
X76949155Y-99648315D03*
X79649155Y-99648315D03*
D28*
X93235000Y-101010000D03*
X93235000Y-100510000D03*
D29*
X90910000Y-102550000D03*
D28*
X93235000Y-99510000D03*
X93235000Y-100010000D03*
X93235000Y-99010000D03*
X93235000Y-98010000D03*
X93235000Y-98510000D03*
X93235000Y-97510000D03*
X93235000Y-96510000D03*
X93235000Y-97010000D03*
X93235000Y-94510000D03*
X93235000Y-94010000D03*
X93235000Y-93510000D03*
X93235000Y-93010000D03*
X93235000Y-92010000D03*
X93235000Y-92510000D03*
X93235000Y-91510000D03*
X93235000Y-95010000D03*
X93235000Y-95510000D03*
X93235000Y-96010000D03*
X93235000Y-82510000D03*
X93235000Y-81510000D03*
X93235000Y-82010000D03*
X93235000Y-83510000D03*
X93235000Y-83010000D03*
X93235000Y-84010000D03*
X93235000Y-91010000D03*
X93235000Y-90010000D03*
X93235000Y-90510000D03*
X93235000Y-88510000D03*
X93235000Y-87510000D03*
X93235000Y-88010000D03*
X93235000Y-89510000D03*
X93235000Y-89010000D03*
X93235000Y-86510000D03*
X93235000Y-85510000D03*
X93235000Y-87010000D03*
X93235000Y-86010000D03*
X93235000Y-84510000D03*
X93235000Y-85010000D03*
X93235000Y-80010000D03*
X93235000Y-81010000D03*
X93235000Y-80510000D03*
X93235000Y-79010000D03*
X93235000Y-79510000D03*
X93235000Y-78510000D03*
X93235000Y-76510000D03*
X93235000Y-78010000D03*
X93235000Y-77010000D03*
X93235000Y-77510000D03*
D29*
X90910000Y-74970000D03*
D30*
X75149155Y-98448315D03*
X72649155Y-98448315D03*
D27*
X87849155Y-112448315D03*
X85149155Y-112448315D03*
X85149155Y-110348315D03*
X87849155Y-110348315D03*
D30*
X90464000Y-105918000D03*
X92964000Y-105918000D03*
D27*
X72999155Y-125498315D03*
X75699155Y-125498315D03*
D30*
X122535000Y-74560000D03*
X120035000Y-74560000D03*
X122535000Y-71810000D03*
X120035000Y-71810000D03*
D25*
X117785000Y-74510000D03*
X117785000Y-71810000D03*
X83799155Y-108098315D03*
X83799155Y-105398315D03*
D30*
X128250000Y-91694000D03*
X125750000Y-91694000D03*
D26*
X80059299Y-72468865D03*
X80059299Y-69968865D03*
D30*
X75253299Y-73250865D03*
X77753299Y-73250865D03*
D26*
X75233299Y-83684865D03*
X75233299Y-86184865D03*
D24*
X82549155Y-78748315D03*
X80649155Y-78748315D03*
X81599155Y-75748315D03*
D27*
X77853299Y-68678865D03*
X75153299Y-68678865D03*
X77853299Y-70964865D03*
X75153299Y-70964865D03*
D25*
X79805299Y-83584865D03*
X79805299Y-86284865D03*
X82091299Y-81044865D03*
X82091299Y-83744865D03*
X77519299Y-86284865D03*
X77519299Y-83584865D03*
D26*
X74862000Y-95600000D03*
X74862000Y-93100000D03*
X77321166Y-91921750D03*
X77321166Y-89421750D03*
D31*
X115875000Y-63985000D03*
D32*
X122985000Y-64485000D03*
D33*
X127575000Y-66465000D03*
D34*
X123575000Y-68905000D03*
D35*
X120085000Y-66995000D03*
D36*
X120085000Y-66995000D03*
D37*
X120085000Y-65490000D03*
D38*
X121110000Y-69275000D03*
D39*
X119060000Y-69325000D03*
D40*
X117805000Y-69107000D03*
D10*
G36*
X118810162Y-67298107D02*
X117929107Y-68179162D01*
X117603838Y-67853893D01*
X118484893Y-66972838D01*
X118810162Y-67298107D01*
X118810162Y-67298107D01*
G37*
D41*
X128565000Y-63480000D03*
X128565000Y-69450000D03*
X118585000Y-68360000D03*
X117675000Y-67924000D03*
X118585000Y-66490000D03*
X121585000Y-67500000D03*
X121585000Y-66490000D03*
D42*
X103875000Y-63985000D03*
D41*
X103185000Y-63480000D03*
X103185000Y-64490000D03*
D43*
X118585000Y-67500000D03*
D44*
X93485000Y-127260000D03*
X97485000Y-127260000D03*
D45*
X95685000Y-127260000D03*
X95358000Y-127760000D03*
D46*
X95425000Y-125260000D03*
D47*
X95739000Y-126260000D03*
D45*
X95358000Y-126760000D03*
D46*
X95425000Y-129260000D03*
D48*
X95175000Y-125760000D03*
D47*
X95739000Y-128260000D03*
D48*
X95175000Y-128760000D03*
D10*
G36*
X96669914Y-129381476D02*
X96478403Y-129220779D01*
X97420086Y-128098524D01*
X97611597Y-128259221D01*
X96669914Y-129381476D01*
X96669914Y-129381476D01*
G37*
G36*
X93357129Y-128258931D02*
X93548641Y-128098234D01*
X94062871Y-128711069D01*
X93871359Y-128871766D01*
X93357129Y-128258931D01*
X93357129Y-128258931D01*
G37*
G36*
X93548641Y-126421766D02*
X93357129Y-126261069D01*
X93871359Y-125648234D01*
X94062871Y-125808931D01*
X93548641Y-126421766D01*
X93548641Y-126421766D01*
G37*
G36*
X96478403Y-125299221D02*
X96669914Y-125138524D01*
X97611597Y-126260779D01*
X97420086Y-126421476D01*
X96478403Y-125299221D01*
X96478403Y-125299221D01*
G37*
D49*
X93135000Y-127260000D03*
X97835000Y-127260000D03*
D50*
X96545000Y-129260000D03*
X97315000Y-128260000D03*
D51*
X97255000Y-126260000D03*
D50*
X96545000Y-125260000D03*
X93995000Y-128760000D03*
D52*
X93735000Y-127760000D03*
D50*
X94005000Y-125760000D03*
D51*
X93645000Y-126760000D03*
D53*
X93515000Y-128100000D03*
D10*
G36*
X93522674Y-128410883D02*
X93394117Y-128257674D01*
X93547326Y-128129117D01*
X93675883Y-128282326D01*
X93522674Y-128410883D01*
X93522674Y-128410883D01*
G37*
D54*
X93485000Y-127920000D03*
D52*
X94205000Y-127760000D03*
X94705000Y-127760000D03*
X97625000Y-127260000D03*
D10*
G36*
X96983420Y-125856163D02*
X97136629Y-125727606D01*
X97586580Y-126263837D01*
X97433371Y-126392394D01*
X96983420Y-125856163D01*
X96983420Y-125856163D01*
G37*
D43*
X97375000Y-126220000D03*
X97475000Y-128190000D03*
D55*
X93595000Y-127770000D03*
D56*
X93325000Y-127250000D03*
D50*
X96415000Y-125260000D03*
X96315000Y-125260000D03*
X96175000Y-125260000D03*
X96035000Y-125260000D03*
X95855000Y-125260000D03*
D57*
X97235000Y-127260000D03*
D58*
X96745000Y-127260000D03*
D59*
X93485000Y-126760000D03*
X93485000Y-126460000D03*
D10*
G36*
X93628347Y-125939288D02*
X93885462Y-125632871D01*
X94061653Y-125780712D01*
X93804538Y-126087129D01*
X93628347Y-125939288D01*
X93628347Y-125939288D01*
G37*
D59*
X97485000Y-126460000D03*
X97485000Y-126740000D03*
X97485000Y-127010000D03*
D60*
X96995000Y-126260000D03*
D10*
G36*
X93536677Y-126428827D02*
X93360487Y-126280986D01*
X93553323Y-126051173D01*
X93729513Y-126199014D01*
X93536677Y-126428827D01*
X93536677Y-126428827D01*
G37*
D41*
X93495000Y-126320000D03*
X97465000Y-126330000D03*
D44*
X107485000Y-127260000D03*
X111485000Y-127260000D03*
D45*
X109685000Y-127260000D03*
X109358000Y-127760000D03*
D46*
X109425000Y-125260000D03*
D47*
X109739000Y-126260000D03*
D45*
X109358000Y-126760000D03*
D46*
X109425000Y-129260000D03*
D48*
X109175000Y-125760000D03*
D47*
X109739000Y-128260000D03*
D48*
X109175000Y-128760000D03*
D10*
G36*
X110669914Y-129381476D02*
X110478403Y-129220779D01*
X111420086Y-128098524D01*
X111611597Y-128259221D01*
X110669914Y-129381476D01*
X110669914Y-129381476D01*
G37*
G36*
X107357129Y-128258931D02*
X107548641Y-128098234D01*
X108062871Y-128711069D01*
X107871359Y-128871766D01*
X107357129Y-128258931D01*
X107357129Y-128258931D01*
G37*
G36*
X107548641Y-126421766D02*
X107357129Y-126261069D01*
X107871359Y-125648234D01*
X108062871Y-125808931D01*
X107548641Y-126421766D01*
X107548641Y-126421766D01*
G37*
G36*
X110478403Y-125299221D02*
X110669914Y-125138524D01*
X111611597Y-126260779D01*
X111420086Y-126421476D01*
X110478403Y-125299221D01*
X110478403Y-125299221D01*
G37*
D49*
X107135000Y-127260000D03*
X111835000Y-127260000D03*
D50*
X110545000Y-129260000D03*
X111315000Y-128260000D03*
D51*
X111255000Y-126260000D03*
D50*
X110545000Y-125260000D03*
X107995000Y-128760000D03*
D52*
X107735000Y-127760000D03*
D50*
X108005000Y-125760000D03*
D51*
X107645000Y-126760000D03*
D53*
X107515000Y-128100000D03*
D10*
G36*
X107522674Y-128410883D02*
X107394117Y-128257674D01*
X107547326Y-128129117D01*
X107675883Y-128282326D01*
X107522674Y-128410883D01*
X107522674Y-128410883D01*
G37*
D54*
X107485000Y-127920000D03*
D52*
X108205000Y-127760000D03*
X108705000Y-127760000D03*
X111625000Y-127260000D03*
D10*
G36*
X110983420Y-125856163D02*
X111136629Y-125727606D01*
X111586580Y-126263837D01*
X111433371Y-126392394D01*
X110983420Y-125856163D01*
X110983420Y-125856163D01*
G37*
D43*
X111375000Y-126220000D03*
X111475000Y-128190000D03*
D55*
X107595000Y-127770000D03*
D56*
X107325000Y-127250000D03*
D50*
X110415000Y-125260000D03*
X110315000Y-125260000D03*
X110175000Y-125260000D03*
X110035000Y-125260000D03*
X109855000Y-125260000D03*
D57*
X111235000Y-127260000D03*
D58*
X110745000Y-127260000D03*
D59*
X107485000Y-126760000D03*
X107485000Y-126460000D03*
D10*
G36*
X107628347Y-125939288D02*
X107885462Y-125632871D01*
X108061653Y-125780712D01*
X107804538Y-126087129D01*
X107628347Y-125939288D01*
X107628347Y-125939288D01*
G37*
D59*
X111485000Y-126460000D03*
X111485000Y-126740000D03*
X111485000Y-127010000D03*
D60*
X110995000Y-126260000D03*
D10*
G36*
X107536677Y-126428827D02*
X107360487Y-126280986D01*
X107553323Y-126051173D01*
X107729513Y-126199014D01*
X107536677Y-126428827D01*
X107536677Y-126428827D01*
G37*
D41*
X107495000Y-126320000D03*
X111465000Y-126330000D03*
D61*
X82182399Y-91489157D03*
X80232399Y-91489157D03*
D30*
X127782000Y-81534000D03*
X130282000Y-81534000D03*
X121432000Y-129794000D03*
X123932000Y-129794000D03*
D24*
X128082000Y-86360000D03*
X129982000Y-86360000D03*
X129032000Y-89360000D03*
D27*
X127682000Y-83820000D03*
X130382000Y-83820000D03*
D19*
X79699155Y-109948315D03*
D30*
X71099155Y-100498315D03*
X73599155Y-100498315D03*
D27*
X75249155Y-115798315D03*
X72549155Y-115798315D03*
D25*
X76849155Y-120548315D03*
X76849155Y-117848315D03*
D62*
X75049155Y-117798315D03*
D63*
X75049155Y-118998315D03*
D62*
X72749155Y-119098315D03*
X72749155Y-117798315D03*
D43*
X101399155Y-132198315D03*
X101149155Y-132198315D03*
D64*
X120749155Y-125248315D03*
X124749155Y-125248315D03*
D65*
X80699155Y-129148315D03*
X82699155Y-129148315D03*
D66*
X78099155Y-123598315D03*
X85299155Y-123598315D03*
D67*
X76628354Y-116472826D03*
X82249155Y-110748315D03*
X98967990Y-155260087D03*
X97999155Y-126548315D03*
X86849155Y-137798315D03*
X121432000Y-128748315D03*
X100399155Y-158048313D03*
X116099155Y-80648315D03*
X115599155Y-80648315D03*
X116099155Y-78348315D03*
X115599155Y-78348315D03*
X93599155Y-71748315D03*
X93599155Y-71148315D03*
X94099155Y-75548315D03*
X93599155Y-75048315D03*
X90499155Y-98348315D03*
X90499155Y-104148311D03*
X85399155Y-102948315D03*
X96799155Y-137748315D03*
D68*
X80260000Y-67564000D03*
D67*
X76200038Y-128270000D03*
X100330000Y-156210114D03*
X111760000Y-129794000D03*
X116586000Y-137668000D03*
X92456000Y-130048000D03*
X76962000Y-136652000D03*
X103185000Y-154060000D03*
X83049155Y-117798315D03*
X73749155Y-117798315D03*
X81899155Y-148648315D03*
X126599155Y-139348315D03*
X132399155Y-136948315D03*
X87899155Y-129748315D03*
X89899155Y-141148315D03*
X91099155Y-81048315D03*
X94399155Y-81048315D03*
X100941382Y-129212710D03*
X107200000Y-137900000D03*
X100241810Y-130292787D03*
X91400000Y-137700000D03*
X99750000Y-131800000D03*
X94592705Y-138294663D03*
X95575385Y-87607431D03*
X96298842Y-88528642D03*
X85447336Y-118768664D03*
X112449990Y-129200000D03*
X91503419Y-124203419D03*
X92800000Y-137749990D03*
X95243231Y-94656769D03*
X98549967Y-94700004D03*
X87126727Y-138440943D03*
X106500002Y-96100000D03*
X118998417Y-131640135D03*
X94410581Y-96106069D03*
X124100000Y-137700000D03*
X105750000Y-95500000D03*
X118406010Y-132013055D03*
X94400751Y-95406126D03*
X123100000Y-137600000D03*
X105750010Y-117000000D03*
X97150043Y-116955101D03*
X103124000Y-89916000D03*
X94954441Y-89907475D03*
X103124000Y-91186000D03*
X113241990Y-137695916D03*
X106584533Y-130857365D03*
X94600000Y-91000000D03*
X103849968Y-97559452D03*
X106059082Y-131319878D03*
X94527619Y-96845354D03*
X111400000Y-137599989D03*
X103081990Y-93016237D03*
X94704218Y-92806092D03*
X105365721Y-131452288D03*
X108800000Y-137599989D03*
X104600008Y-93400000D03*
X95181302Y-93387566D03*
X103081990Y-94162329D03*
X94711052Y-93906103D03*
X101050937Y-131174365D03*
X74168000Y-151130000D03*
X100800000Y-137800000D03*
X85969824Y-137849814D03*
X86047632Y-131948034D03*
D68*
X77899155Y-80248315D03*
X78699155Y-80248315D03*
X73799155Y-97148315D03*
X74599155Y-97148315D03*
X78699155Y-90648345D03*
X78699155Y-92448315D03*
X78699155Y-91548315D03*
X75399155Y-97148319D03*
X79499155Y-153348315D03*
X78599155Y-153348315D03*
D67*
X74718010Y-150368000D03*
X101680874Y-130705154D03*
X101600000Y-137550022D03*
X73612562Y-149906783D03*
X102212154Y-138593418D03*
X102774015Y-131798294D03*
X129499155Y-140098315D03*
X86149145Y-151626091D03*
X97028000Y-151653010D03*
X85597990Y-130048000D03*
X74737384Y-146111384D03*
X92710000Y-127508000D03*
X105313110Y-141854153D03*
X83938110Y-142553055D03*
X83069651Y-142505651D03*
X94599988Y-141854153D03*
X81857684Y-142136484D03*
X106426000Y-127254000D03*
X105410000Y-139954000D03*
X105598253Y-143953072D03*
X84132422Y-143953570D03*
X105654826Y-145349773D03*
X84074405Y-145350002D03*
X105670486Y-144649936D03*
X84062584Y-144650090D03*
X105662490Y-143256019D03*
X84074000Y-143256000D03*
D68*
X77999155Y-76998315D03*
X77499155Y-76998315D03*
X76499155Y-82748315D03*
X75999155Y-82748315D03*
D67*
X91199155Y-64898265D03*
X87999155Y-64948315D03*
X93799155Y-64948315D03*
X82849145Y-72317508D03*
X80924164Y-75350807D03*
X79699155Y-78548329D03*
X83715333Y-117022836D03*
X84199165Y-119562231D03*
X73660000Y-134874000D03*
X73749155Y-113048315D03*
X75499155Y-87648313D03*
X72199155Y-111148315D03*
X84573131Y-76079533D03*
X84109034Y-70748315D03*
X84399169Y-101248315D03*
X84342334Y-116481128D03*
X85299155Y-119648315D03*
X100399155Y-131448315D03*
X75402018Y-126454449D03*
X94488006Y-82296000D03*
X84121322Y-74748326D03*
X80449155Y-156448315D03*
X81149155Y-156448315D03*
X88099155Y-63448315D03*
X86899155Y-65020015D03*
X85650481Y-74245037D03*
X83499155Y-63448315D03*
X85699155Y-63448315D03*
X83349151Y-75745689D03*
X126099155Y-83748315D03*
X81499155Y-155248315D03*
X120849155Y-91148315D03*
X120149155Y-91148315D03*
X71849999Y-119098315D03*
D11*
X76849155Y-117848315D02*
X76849155Y-116693627D01*
X76849155Y-116693627D02*
X76628354Y-116472826D01*
D69*
X93599155Y-75048315D02*
X94099155Y-75548315D01*
X94099155Y-75548315D02*
X93599155Y-75048315D01*
D11*
X83149155Y-110748315D02*
X82249155Y-110748315D01*
D70*
X115599155Y-78348315D02*
X116099155Y-78348315D01*
X115599155Y-80648315D02*
X116099155Y-80648315D01*
D71*
X99217989Y-155510086D02*
X98967990Y-155260087D01*
X99918017Y-156210114D02*
X99217989Y-155510086D01*
X100330000Y-156210114D02*
X99918017Y-156210114D01*
D11*
X97999155Y-126548315D02*
X97999155Y-127095845D01*
X97999155Y-127095845D02*
X97835000Y-127260000D01*
X88849155Y-138848315D02*
X95699155Y-138848315D01*
X95699155Y-138848315D02*
X96799155Y-137748315D01*
X87899155Y-137898315D02*
X88849155Y-138848315D01*
X87899155Y-137798315D02*
X87899155Y-137898315D01*
X86849155Y-137798315D02*
X87899155Y-137798315D01*
D69*
X82699155Y-119148315D02*
X76699155Y-113148315D01*
X76699155Y-113148315D02*
X76699155Y-110248315D01*
X82699155Y-129148315D02*
X82699155Y-119148315D01*
D11*
X75049155Y-118998315D02*
X75249155Y-118998315D01*
X75249155Y-118998315D02*
X76399155Y-117848315D01*
X76399155Y-117848315D02*
X76849155Y-117848315D01*
D69*
X93599155Y-71148315D02*
X94499155Y-71148315D01*
X94499155Y-71148315D02*
X96899155Y-71148315D01*
X93599155Y-71748315D02*
X94199155Y-71148315D01*
X94199155Y-71148315D02*
X94499155Y-71148315D01*
D71*
X96799155Y-137748315D02*
X96799155Y-136734155D01*
X96799155Y-136734155D02*
X96165000Y-136100000D01*
D69*
X121432000Y-129794000D02*
X121432000Y-128748315D01*
X121432000Y-128748315D02*
X121432000Y-128169000D01*
X96899155Y-71148315D02*
X99899155Y-71148315D01*
X97699155Y-62948315D02*
X98599155Y-62948315D01*
X96899155Y-71148315D02*
X97699155Y-71148315D01*
X97699155Y-71148315D02*
X97699155Y-62948315D01*
X98599155Y-71148315D02*
X99899155Y-71148315D01*
X98599155Y-71148315D02*
X98599155Y-62948315D01*
D71*
X100330000Y-157979158D02*
X100399155Y-158048313D01*
X100330000Y-156210114D02*
X100330000Y-157979158D01*
D70*
X127782000Y-81534000D02*
X127907000Y-81534000D01*
X127907000Y-81534000D02*
X129032000Y-82659000D01*
X129882001Y-90670001D02*
X129792001Y-90760001D01*
X129032000Y-82659000D02*
X129032000Y-87481160D01*
X129510839Y-87959999D02*
X129792001Y-87959999D01*
X129711999Y-90760001D02*
X128778000Y-91694000D01*
X129032000Y-87481160D02*
X129510839Y-87959999D01*
X129792001Y-87959999D02*
X129882001Y-88049999D01*
X129882001Y-88049999D02*
X129882001Y-90670001D01*
X129792001Y-90760001D02*
X129711999Y-90760001D01*
X128778000Y-91694000D02*
X128250000Y-91694000D01*
X116351624Y-80898314D02*
X116601625Y-81148315D01*
X116099155Y-81148315D02*
X116601625Y-81148315D01*
X116601625Y-81148315D02*
X119899155Y-84445845D01*
X115599155Y-80648315D02*
X116099155Y-81148315D01*
X122811000Y-81534000D02*
X119899155Y-84445845D01*
X119899155Y-84445845D02*
X116285000Y-88060000D01*
X116099155Y-80648315D02*
X116349154Y-80898314D01*
X116349154Y-80898314D02*
X116351624Y-80898314D01*
X115599155Y-78348315D02*
X115599155Y-77245845D01*
X115599155Y-77245845D02*
X115785000Y-77060000D01*
X116099155Y-78348315D02*
X116099155Y-77374155D01*
X116099155Y-77374155D02*
X115785000Y-77060000D01*
X116099155Y-78348315D02*
X115849154Y-78098316D01*
X115849154Y-78098316D02*
X115785000Y-78162470D01*
X115785000Y-77060000D02*
X115785000Y-78162470D01*
X115785000Y-78162470D02*
X115599155Y-78348315D01*
D69*
X115785000Y-77060000D02*
X115785000Y-75160000D01*
X115785000Y-75160000D02*
X115785000Y-75060000D01*
X93599155Y-71148315D02*
X92699155Y-71148315D01*
X92699155Y-71148315D02*
X86599155Y-71148315D01*
X92999155Y-71148315D02*
X92699155Y-71148315D01*
X93599155Y-71748315D02*
X92999155Y-71148315D01*
X86299155Y-71148315D02*
X86599155Y-71148315D01*
X93599155Y-71148315D02*
X93599155Y-71748315D01*
X95999155Y-77448315D02*
X94099155Y-75548315D01*
X121399155Y-102848315D02*
X95999155Y-77448315D01*
D71*
X94210001Y-77560001D02*
X95887469Y-77560001D01*
X95887469Y-77560001D02*
X95999155Y-77448315D01*
D69*
X121399155Y-128136155D02*
X121399155Y-102848315D01*
X121432000Y-128169000D02*
X121399155Y-128136155D01*
D70*
X76983399Y-93902157D02*
X77778399Y-93902157D01*
X77778399Y-93902157D02*
X79095899Y-95219657D01*
D71*
X93235000Y-98510000D02*
X90660840Y-98510000D01*
X90660840Y-98510000D02*
X90499155Y-98348315D01*
X90464000Y-105918000D02*
X90464000Y-104183466D01*
X90464000Y-104183466D02*
X90499155Y-104148311D01*
X85399155Y-102948315D02*
X84599155Y-102948315D01*
X90464000Y-105918000D02*
X90464000Y-105513160D01*
D11*
X85249155Y-112448315D02*
X85149155Y-112448315D01*
X83149155Y-110748315D02*
X83149155Y-111298315D01*
X83149155Y-111298315D02*
X84299155Y-112448315D01*
X84299155Y-112448315D02*
X85149155Y-112448315D01*
D71*
X100330000Y-156210114D02*
X102480114Y-154060000D01*
X102480114Y-154060000D02*
X103185000Y-154060000D01*
D69*
X80633299Y-78306865D02*
X81249157Y-78922723D01*
X81249157Y-78922723D02*
X81249157Y-80202723D01*
X81249157Y-80202723D02*
X82091299Y-81044865D01*
X121565000Y-133560000D02*
X121565000Y-129927000D01*
X121565000Y-129927000D02*
X121432000Y-129794000D01*
D70*
X76983399Y-92259517D02*
X77321166Y-91921750D01*
D11*
X73172000Y-125241962D02*
X75950039Y-128020001D01*
X73172000Y-125222000D02*
X73172000Y-125241962D01*
X75950039Y-128020001D02*
X76200038Y-128270000D01*
D70*
X80260000Y-67564000D02*
X80260000Y-66310000D01*
D11*
X92456000Y-130048000D02*
X94962000Y-130048000D01*
X94962000Y-130048000D02*
X95425000Y-129585000D01*
X95425000Y-129585000D02*
X95425000Y-129260000D01*
X111760000Y-129032000D02*
X112268000Y-128524000D01*
X112448000Y-127508000D02*
X112448000Y-128344000D01*
X112448000Y-128344000D02*
X112268000Y-128524000D01*
X111625000Y-127260000D02*
X112200000Y-127260000D01*
X112200000Y-127260000D02*
X112448000Y-127508000D01*
X111760000Y-129794000D02*
X111760000Y-129032000D01*
X73172000Y-125222000D02*
X73072000Y-125222000D01*
D70*
X116285000Y-88060000D02*
X116285000Y-89460000D01*
X127782000Y-81534000D02*
X122811000Y-81534000D01*
D11*
X82091299Y-81144865D02*
X82091299Y-81044865D01*
X116485000Y-136100000D02*
X116485000Y-137567000D01*
X116485000Y-137567000D02*
X116586000Y-137668000D01*
X121565000Y-133560000D02*
X121565000Y-131927000D01*
X121565000Y-131927000D02*
X121920000Y-131572000D01*
X91085000Y-131419000D02*
X92456000Y-130048000D01*
X91085000Y-133560000D02*
X91085000Y-131419000D01*
D71*
X76962000Y-136652000D02*
X77833000Y-136652000D01*
X77833000Y-136652000D02*
X78385000Y-136100000D01*
X93235000Y-85510000D02*
X92310000Y-85510000D01*
X92310000Y-85510000D02*
X92259999Y-85459999D01*
X92259999Y-85459999D02*
X92259999Y-80060001D01*
X92259999Y-80060001D02*
X92310000Y-80010000D01*
X92310000Y-80010000D02*
X93235000Y-80010000D01*
X93235000Y-77510000D02*
X94160000Y-77510000D01*
X94160000Y-77510000D02*
X94210001Y-77560001D01*
X94210001Y-77560001D02*
X94210001Y-79959999D01*
X94210001Y-79959999D02*
X94160000Y-80010000D01*
X94160000Y-80010000D02*
X93235000Y-80010000D01*
X93235000Y-76510000D02*
X93235000Y-77510000D01*
D11*
X93235000Y-77010000D02*
X93698000Y-77010000D01*
X97483698Y-127323500D02*
X97453500Y-127323500D01*
X83049155Y-117798315D02*
X83649155Y-118398315D01*
X83649155Y-118398315D02*
X83649155Y-120090149D01*
X83649155Y-120090149D02*
X84007321Y-120448315D01*
X84007321Y-120448315D02*
X87899155Y-120448315D01*
X73749155Y-117798315D02*
X72749155Y-117798315D01*
D71*
X87899155Y-120448315D02*
X87899155Y-115748315D01*
X87899155Y-129748315D02*
X87899155Y-120448315D01*
D11*
X83599155Y-141198315D02*
X81899155Y-142898315D01*
X81899155Y-142898315D02*
X81899155Y-148648315D01*
X89495602Y-141198315D02*
X83599155Y-141198315D01*
X89899155Y-141148315D02*
X89545602Y-141148315D01*
X89545602Y-141148315D02*
X89495602Y-141198315D01*
D71*
X126645000Y-136100000D02*
X126645000Y-139302470D01*
X126645000Y-139302470D02*
X126599155Y-139348315D01*
X126645000Y-136100000D02*
X131550840Y-136100000D01*
X131550840Y-136100000D02*
X132399155Y-136948315D01*
X87899155Y-115748315D02*
X92964000Y-110683470D01*
X92964000Y-110683470D02*
X92964000Y-105918000D01*
X106299155Y-140648315D02*
X105799155Y-141148315D01*
X105799155Y-141148315D02*
X89899155Y-141148315D01*
X106299155Y-137425845D02*
X106299155Y-140648315D01*
X106325000Y-136100000D02*
X106325000Y-137400000D01*
X106325000Y-137400000D02*
X106299155Y-137425845D01*
X91099155Y-81048315D02*
X91099155Y-96848315D01*
X91099155Y-96848315D02*
X91760840Y-97510000D01*
X91760840Y-97510000D02*
X93235000Y-97510000D01*
X93235000Y-97010000D02*
X93710000Y-97010000D01*
X94210000Y-97510000D02*
X94290000Y-97510000D01*
X93235000Y-97510000D02*
X94290000Y-97510000D01*
X93235000Y-81010000D02*
X94360840Y-81010000D01*
X94360840Y-81010000D02*
X94399155Y-81048315D01*
X93235000Y-101010000D02*
X93235000Y-105647000D01*
X93235000Y-105647000D02*
X93218000Y-105664000D01*
X93218000Y-105664000D02*
X92964000Y-105918000D01*
X94200000Y-97500000D02*
X94300000Y-97500000D01*
X94300000Y-97500000D02*
X94300000Y-98100000D01*
D11*
X94290000Y-97510000D02*
X94300000Y-97500000D01*
D71*
X94300000Y-100870000D02*
X94300000Y-98100000D01*
X93710000Y-97510000D02*
X93235000Y-97510000D01*
X93235000Y-101010000D02*
X94160000Y-101010000D01*
X94160000Y-101010000D02*
X94300000Y-100870000D01*
X93235000Y-80510000D02*
X93235000Y-81510000D01*
X93235000Y-97010000D02*
X93235000Y-98010000D01*
D11*
X93235000Y-81010000D02*
X93698000Y-81010000D01*
X93235000Y-97510000D02*
X93698000Y-97510000D01*
X96291304Y-86010000D02*
X100857848Y-90576544D01*
X100857848Y-129129176D02*
X100941382Y-129212710D01*
X93235000Y-86010000D02*
X96291304Y-86010000D01*
X100857848Y-90576544D02*
X100857848Y-129129176D01*
X119025000Y-137300000D02*
X119025000Y-136100000D01*
X118079082Y-138245918D02*
X119025000Y-137300000D01*
X107545918Y-138245918D02*
X118079082Y-138245918D01*
X107200000Y-137900000D02*
X107545918Y-138245918D01*
X96225604Y-86510000D02*
X100349145Y-90633541D01*
X93235000Y-86510000D02*
X96225604Y-86510000D01*
X100349145Y-90633541D02*
X100349145Y-130185452D01*
X100349145Y-130185452D02*
X100241810Y-130292787D01*
X91400000Y-137700000D02*
X91400000Y-136415000D01*
X91400000Y-136415000D02*
X91085000Y-136100000D01*
X99500001Y-131550001D02*
X99750000Y-131800000D01*
X93235000Y-87010000D02*
X96159904Y-87010000D01*
X99500001Y-130201160D02*
X99500001Y-131550001D01*
X99899990Y-129801171D02*
X99500001Y-130201160D01*
X96159904Y-87010000D02*
X99899990Y-90750086D01*
X99899990Y-90750086D02*
X99899990Y-129801171D01*
X89545000Y-138300000D02*
X94587368Y-138300000D01*
X94587368Y-138300000D02*
X94592705Y-138294663D01*
X88545000Y-137300000D02*
X89545000Y-138300000D01*
X88545000Y-136100000D02*
X88545000Y-137300000D01*
X96165000Y-133560000D02*
X96165000Y-132360000D01*
X96165000Y-132360000D02*
X99099968Y-129425032D01*
X96548841Y-88778641D02*
X96298842Y-88528642D01*
X99099968Y-129425032D02*
X99099968Y-91329768D01*
X99099968Y-91329768D02*
X96548841Y-88778641D01*
X93235000Y-87510000D02*
X95477954Y-87510000D01*
X95477954Y-87510000D02*
X95575385Y-87607431D01*
X94984532Y-88010000D02*
X94060000Y-88010000D01*
X99499979Y-90915775D02*
X96562844Y-87978640D01*
X95856039Y-88157441D02*
X95131973Y-88157441D01*
X99499979Y-129635482D02*
X99499979Y-90915775D01*
X95131973Y-88157441D02*
X94984532Y-88010000D01*
X98705000Y-130430461D02*
X99499979Y-129635482D01*
X94060000Y-88010000D02*
X93235000Y-88010000D01*
X96562844Y-87978640D02*
X96034840Y-87978640D01*
X98705000Y-133560000D02*
X98705000Y-130430461D01*
X96034840Y-87978640D02*
X95856039Y-88157441D01*
X88999155Y-113348315D02*
X85447336Y-116900134D01*
X85447336Y-118415111D02*
X85447336Y-118768664D01*
X87849155Y-110348315D02*
X87949155Y-110348315D01*
X88999155Y-111398315D02*
X88999155Y-113348315D01*
X87949155Y-110348315D02*
X88999155Y-111398315D01*
X85447336Y-116900134D02*
X85447336Y-118415111D01*
X113945000Y-132360000D02*
X112449990Y-130864990D01*
X112449990Y-130864990D02*
X112449990Y-129200000D01*
X113945000Y-133560000D02*
X113945000Y-132360000D01*
X95400000Y-120306838D02*
X91753418Y-123953420D01*
X94664753Y-94856124D02*
X95400000Y-95591371D01*
X94136749Y-94856124D02*
X94664753Y-94856124D01*
X93982873Y-95010000D02*
X94136749Y-94856124D01*
X93235000Y-95010000D02*
X93982873Y-95010000D01*
X95400000Y-95591371D02*
X95400000Y-120306838D01*
X91753418Y-123953420D02*
X91503419Y-124203419D01*
X93175010Y-137749990D02*
X93153553Y-137749990D01*
X93625000Y-136100000D02*
X93625000Y-137300000D01*
X93153553Y-137749990D02*
X92800000Y-137749990D01*
X93625000Y-137300000D02*
X93175010Y-137749990D01*
X93971060Y-94456113D02*
X95042575Y-94456113D01*
X95042575Y-94456113D02*
X95243231Y-94656769D01*
X93235000Y-94510000D02*
X93917173Y-94510000D01*
X93917173Y-94510000D02*
X93971060Y-94456113D01*
X93625000Y-133560000D02*
X98549946Y-128635054D01*
X98549967Y-95053557D02*
X98549967Y-94700004D01*
X98549946Y-95053578D02*
X98549967Y-95053557D01*
X98549946Y-128635054D02*
X98549946Y-95053578D01*
X93235000Y-94510000D02*
X93241000Y-94515700D01*
X83465000Y-136100000D02*
X83465000Y-137300000D01*
X83465000Y-137300000D02*
X84605943Y-138440943D01*
X84605943Y-138440943D02*
X86773174Y-138440943D01*
X86773174Y-138440943D02*
X87126727Y-138440943D01*
X83465000Y-137100000D02*
X83485000Y-137120000D01*
X83485000Y-137120000D02*
X83475000Y-137110000D01*
X83475000Y-137110000D02*
X83465000Y-137100000D01*
X83475000Y-137110000D02*
X83424400Y-137160600D01*
X118998417Y-130748417D02*
X118998417Y-131286582D01*
X118998417Y-131286582D02*
X118998417Y-131640135D01*
X107000000Y-116549160D02*
X107000000Y-118750000D01*
X107000000Y-118750000D02*
X118998417Y-130748417D01*
X106299155Y-115848315D02*
X107000000Y-116549160D01*
X106299155Y-96300847D02*
X106299155Y-115848315D01*
X106500002Y-96100000D02*
X106299155Y-96300847D01*
X94314512Y-96010000D02*
X94410581Y-96106069D01*
X93235000Y-96010000D02*
X94314512Y-96010000D01*
X124100000Y-137700000D02*
X124100000Y-136105000D01*
X124100000Y-136105000D02*
X124105000Y-136100000D01*
X105750000Y-95853553D02*
X105750000Y-95500000D01*
X106500000Y-116750000D02*
X105750000Y-116000000D01*
X106500000Y-119000000D02*
X106500000Y-116750000D01*
X118406010Y-130906010D02*
X106500000Y-119000000D01*
X105750000Y-116000000D02*
X105750000Y-95853553D01*
X118406010Y-132013055D02*
X118406010Y-130906010D01*
X94296877Y-95510000D02*
X94400751Y-95406126D01*
X93235000Y-95510000D02*
X94296877Y-95510000D01*
X123100000Y-137600000D02*
X121600000Y-136100000D01*
X121600000Y-136100000D02*
X121565000Y-136100000D01*
X119025000Y-133560000D02*
X113499989Y-128034989D01*
X106000009Y-117249999D02*
X105750010Y-117000000D01*
X113499989Y-128034989D02*
X113499989Y-126749989D01*
X113499989Y-126749989D02*
X106000009Y-119250009D01*
X106000009Y-119250009D02*
X106000009Y-117249999D01*
X95189256Y-89357474D02*
X97150043Y-91318261D01*
X94537914Y-89510000D02*
X94690440Y-89357474D01*
X94690440Y-89357474D02*
X95189256Y-89357474D01*
X93235000Y-89510000D02*
X94537914Y-89510000D01*
X97150043Y-91318261D02*
X97150043Y-116601548D01*
X97150043Y-116601548D02*
X97150043Y-116955101D01*
X105200000Y-91992000D02*
X103373999Y-90165999D01*
X105200000Y-119197100D02*
X105200000Y-91992000D01*
X103373999Y-90165999D02*
X103124000Y-89916000D01*
X113000000Y-126997100D02*
X105200000Y-119197100D01*
X116485000Y-133560000D02*
X116485000Y-132360000D01*
X116485000Y-132360000D02*
X113000000Y-128875000D01*
X113000000Y-128875000D02*
X113000000Y-126997100D01*
X93235000Y-90010000D02*
X94851916Y-90010000D01*
X94851916Y-90010000D02*
X94954441Y-89907475D01*
X104399978Y-116458783D02*
X104399978Y-94113982D01*
X104399978Y-94113982D02*
X103632000Y-93346004D01*
X104349970Y-116508791D02*
X104399978Y-116458783D01*
X106584533Y-130857365D02*
X104349970Y-128622802D01*
X104349970Y-128622802D02*
X104349970Y-116508791D01*
X103632000Y-93346004D02*
X103632000Y-91694000D01*
X103632000Y-91694000D02*
X103124000Y-91186000D01*
X113945000Y-137300000D02*
X113549084Y-137695916D01*
X113549084Y-137695916D02*
X113241990Y-137695916D01*
X113945000Y-136100000D02*
X113945000Y-137300000D01*
X94600000Y-91000000D02*
X93245000Y-91000000D01*
X93245000Y-91000000D02*
X93235000Y-91010000D01*
X103891450Y-97954487D02*
X103849968Y-97913005D01*
X106059082Y-131319878D02*
X103891450Y-129152246D01*
X103891450Y-129152246D02*
X103891450Y-97954487D01*
X103849968Y-97913005D02*
X103849968Y-97559452D01*
X93235000Y-96510000D02*
X93995996Y-96510000D01*
X94331350Y-96845354D02*
X94527619Y-96845354D01*
X93995996Y-96510000D02*
X94331350Y-96845354D01*
X111405000Y-137594989D02*
X111400000Y-137599989D01*
X111405000Y-136100000D02*
X111405000Y-137594989D01*
X103299967Y-95074033D02*
X103632000Y-94742000D01*
X103632000Y-94742000D02*
X103632000Y-93919800D01*
X103491439Y-129578006D02*
X103491439Y-128120263D01*
X103491439Y-128120263D02*
X103299967Y-127928791D01*
X105365721Y-131452288D02*
X103491439Y-129578006D01*
X103081990Y-93369790D02*
X103081990Y-93016237D01*
X103632000Y-93919800D02*
X103081990Y-93369790D01*
X103299967Y-127928791D02*
X103299967Y-95074033D01*
X94227453Y-93010000D02*
X94281362Y-92956091D01*
X94554219Y-92956091D02*
X94704218Y-92806092D01*
X93235000Y-93010000D02*
X94227453Y-93010000D01*
X94281362Y-92956091D02*
X94554219Y-92956091D01*
X108865000Y-136100000D02*
X108865000Y-137534989D01*
X108865000Y-137534989D02*
X108800000Y-137599989D01*
X108865000Y-133560000D02*
X108865000Y-132360000D01*
X104799989Y-128294989D02*
X104799989Y-93599981D01*
X108865000Y-132360000D02*
X104799989Y-128294989D01*
X104799989Y-93599981D02*
X104600008Y-93400000D01*
X95149838Y-93356102D02*
X95181302Y-93387566D01*
X93235000Y-93510000D02*
X94293153Y-93510000D01*
X94293153Y-93510000D02*
X94447051Y-93356102D01*
X94447051Y-93356102D02*
X95149838Y-93356102D01*
X102899956Y-128094480D02*
X102899956Y-94697916D01*
X103091428Y-130326428D02*
X103091428Y-128285952D01*
X103091428Y-128285952D02*
X102899956Y-128094480D01*
X106325000Y-133560000D02*
X103091428Y-130326428D01*
X102899956Y-94697916D02*
X103081990Y-94515882D01*
X103081990Y-94515882D02*
X103081990Y-94162329D01*
X93235000Y-94010000D02*
X94607155Y-94010000D01*
X94607155Y-94010000D02*
X94711052Y-93906103D01*
X101257859Y-90410855D02*
X101257859Y-128715183D01*
X101257859Y-128715183D02*
X101491384Y-128948708D01*
X101050937Y-130820812D02*
X101050937Y-131174365D01*
X101050937Y-130360934D02*
X101050937Y-130820812D01*
X101491384Y-129920487D02*
X101050937Y-130360934D01*
X101491384Y-128948708D02*
X101491384Y-129920487D01*
X95857004Y-85010000D02*
X101257859Y-90410855D01*
X93235000Y-85010000D02*
X95857004Y-85010000D01*
X82494016Y-139698284D02*
X74168000Y-148024300D01*
X101176000Y-138176000D02*
X101854000Y-138176000D01*
X74168000Y-150776447D02*
X74168000Y-151130000D01*
X102109716Y-139698284D02*
X82494016Y-139698284D01*
X102870000Y-138938000D02*
X102109716Y-139698284D01*
X74168000Y-148024300D02*
X74168000Y-150776447D01*
X102870000Y-138176000D02*
X102870000Y-138938000D01*
X101854000Y-138176000D02*
X102108000Y-137922000D01*
X102616000Y-137922000D02*
X102870000Y-138176000D01*
X102108000Y-137922000D02*
X102616000Y-137922000D01*
X100800000Y-137800000D02*
X101176000Y-138176000D01*
X100800000Y-137800000D02*
X100800000Y-136545000D01*
X100800000Y-136545000D02*
X101245000Y-136100000D01*
X88545000Y-133560000D02*
X88545000Y-132360000D01*
X88545000Y-132360000D02*
X92159999Y-128745001D01*
X95549820Y-88557452D02*
X94107452Y-88557452D01*
X94107452Y-88557452D02*
X94060000Y-88510000D01*
X92159999Y-128745001D02*
X92159999Y-126587471D01*
X92159999Y-126587471D02*
X98100056Y-120647414D01*
X98100056Y-120647414D02*
X98100056Y-95665854D01*
X98100056Y-95665854D02*
X97999955Y-95565753D01*
X97999955Y-95565753D02*
X97999955Y-91007587D01*
X97999955Y-91007587D02*
X95549820Y-88557452D01*
X94060000Y-88510000D02*
X93235000Y-88510000D01*
X86005000Y-136100000D02*
X86005000Y-137814638D01*
X86005000Y-137814638D02*
X85969824Y-137849814D01*
X88385477Y-131948034D02*
X86401185Y-131948034D01*
X86401185Y-131948034D02*
X86047632Y-131948034D01*
X91759988Y-128573523D02*
X88385477Y-131948034D01*
X97700045Y-120481725D02*
X91759988Y-126421782D01*
X97700045Y-95831543D02*
X97700045Y-120481725D01*
X97599944Y-91173276D02*
X97599944Y-95731442D01*
X93235000Y-89010000D02*
X94060000Y-89010000D01*
X94112537Y-88957463D02*
X95384131Y-88957463D01*
X95384131Y-88957463D02*
X97599944Y-91173276D01*
X94060000Y-89010000D02*
X94112537Y-88957463D01*
X91759988Y-126421782D02*
X91759988Y-128573523D01*
X97599944Y-95731442D02*
X97700045Y-95831543D01*
X86040000Y-137100000D02*
X86031300Y-137100000D01*
X86031300Y-137100000D02*
X86005000Y-137100000D01*
X83465000Y-133560000D02*
X85626976Y-131398024D01*
X85626976Y-131398024D02*
X88369787Y-131398024D01*
X96600033Y-92186031D02*
X94864001Y-90449999D01*
X88369787Y-131398024D02*
X91359977Y-128407834D01*
X96600033Y-121016037D02*
X96600033Y-92186031D01*
X91359977Y-126256093D02*
X96600033Y-121016037D01*
X94864001Y-90449999D02*
X94120001Y-90449999D01*
X94060000Y-90510000D02*
X93235000Y-90510000D01*
X94120001Y-90449999D02*
X94060000Y-90510000D01*
X91359977Y-128407834D02*
X91359977Y-126256093D01*
X94213920Y-91856080D02*
X94060000Y-92010000D01*
X96200022Y-120850348D02*
X96200022Y-92922194D01*
X94060000Y-92010000D02*
X93235000Y-92010000D01*
X88204098Y-130998013D02*
X90959966Y-128242145D01*
X84275500Y-132148337D02*
X85425824Y-130998013D01*
X81136663Y-132148337D02*
X84275500Y-132148337D01*
X90959966Y-126090404D02*
X96200022Y-120850348D01*
X80925000Y-132360000D02*
X81136663Y-132148337D01*
X80925000Y-133560000D02*
X80925000Y-132360000D01*
X95133908Y-91856080D02*
X94213920Y-91856080D01*
X90959966Y-128242145D02*
X90959966Y-126090404D01*
X96200022Y-92922194D02*
X95133908Y-91856080D01*
X85425824Y-130998013D02*
X88204098Y-130998013D01*
X78996674Y-131748326D02*
X84109811Y-131748326D01*
X94968219Y-92256091D02*
X94440217Y-92256091D01*
X85260135Y-130598002D02*
X88038409Y-130598002D01*
X94440217Y-92256091D02*
X94186308Y-92510000D01*
X78385000Y-132360000D02*
X78996674Y-131748326D01*
X94060000Y-92510000D02*
X93235000Y-92510000D01*
X95800011Y-120684659D02*
X95800011Y-93087883D01*
X90559955Y-128076456D02*
X90559955Y-125924715D01*
X78385000Y-133560000D02*
X78385000Y-132360000D01*
X84109811Y-131748326D02*
X85260135Y-130598002D01*
X88038409Y-130598002D02*
X90559955Y-128076456D01*
X94186308Y-92510000D02*
X94060000Y-92510000D01*
X95800011Y-93087883D02*
X94968219Y-92256091D01*
X90559955Y-125924715D02*
X95800011Y-120684659D01*
D69*
X78699155Y-90648345D02*
X78699155Y-92448315D01*
X75399151Y-97148315D02*
X75399155Y-97148319D01*
X75399151Y-97148315D02*
X75399155Y-97148319D01*
X77899155Y-80248315D02*
X78699155Y-80248315D01*
X75099155Y-113548315D02*
X76199155Y-114648315D01*
X76199155Y-114648315D02*
X80699155Y-119148315D01*
D11*
X75249155Y-115798315D02*
X75349155Y-115798315D01*
X75349155Y-115798315D02*
X76199155Y-114948315D01*
X76199155Y-114948315D02*
X76199155Y-114648315D01*
D72*
X75599151Y-97148319D02*
X76305313Y-96442157D01*
X76305313Y-96442157D02*
X76983399Y-96442157D01*
X75399155Y-97148319D02*
X75599151Y-97148319D01*
D69*
X75099155Y-98248315D02*
X75099155Y-113548315D01*
X80699155Y-119148315D02*
X80699155Y-126398315D01*
X80699155Y-126398315D02*
X80699155Y-129148315D01*
X74599155Y-97148315D02*
X75099155Y-97648315D01*
X75099155Y-97648315D02*
X75099155Y-98248315D01*
X73799155Y-97148315D02*
X74899155Y-98248315D01*
X74899155Y-98248315D02*
X75099155Y-98248315D01*
X75399155Y-97148319D02*
X75399155Y-97948315D01*
X75399155Y-97948315D02*
X75099155Y-98248315D01*
X75128299Y-73250865D02*
X75253299Y-73250865D01*
X72599144Y-75780020D02*
X75128299Y-73250865D01*
X72599144Y-86324728D02*
X72599144Y-75780020D01*
X75696166Y-89421750D02*
X72599144Y-86324728D01*
X77321166Y-89421750D02*
X75696166Y-89421750D01*
X78699155Y-92448315D02*
X79273241Y-92448315D01*
X79273241Y-92448315D02*
X80232399Y-91489157D01*
X78699155Y-90648345D02*
X79391587Y-90648345D01*
X79391587Y-90648345D02*
X80232399Y-91489157D01*
X78699155Y-90648345D02*
X78547761Y-90648345D01*
X78547761Y-90648345D02*
X77321166Y-89421750D01*
X80232399Y-91489157D02*
X78758313Y-91489157D01*
X78758313Y-91489157D02*
X78699155Y-91548315D01*
X78699155Y-80248315D02*
X78699155Y-80907721D01*
X78699155Y-80907721D02*
X78916299Y-81124865D01*
X77899155Y-80248315D02*
X77899155Y-80872009D01*
X77899155Y-80872009D02*
X77646299Y-81124865D01*
X77646299Y-81124865D02*
X78916299Y-81124865D01*
X75153299Y-70964865D02*
X75153299Y-68678865D01*
X75253299Y-73250865D02*
X75253299Y-71064865D01*
X75253299Y-71064865D02*
X75153299Y-70964865D01*
D72*
X73799155Y-97148315D02*
X74599155Y-97148315D01*
D70*
X77321166Y-89546750D02*
X77597560Y-89546750D01*
X78249156Y-90198346D02*
X78699155Y-90648345D01*
X77597560Y-89546750D02*
X78249156Y-90198346D01*
X77321166Y-89421750D02*
X77321166Y-89546750D01*
X77321166Y-89546750D02*
X78699155Y-90924739D01*
X78699155Y-90924739D02*
X78699155Y-91548315D01*
D69*
X75099155Y-98248315D02*
X75099155Y-97348315D01*
X75099155Y-98248315D02*
X75099155Y-97300002D01*
D11*
X86299167Y-103948303D02*
X82849167Y-103948303D01*
X82849167Y-103948303D02*
X81499155Y-105298315D01*
X89408000Y-99314898D02*
X87630000Y-101092898D01*
X93235000Y-99010000D02*
X89712000Y-99010000D01*
X89712000Y-99010000D02*
X89408000Y-99314000D01*
X87630000Y-102617470D02*
X86299167Y-103948303D01*
X89408000Y-99314000D02*
X89408000Y-99314898D01*
X87630000Y-101092898D02*
X87630000Y-102617470D01*
X81499155Y-105298315D02*
X81499155Y-105398315D01*
X84749156Y-104348314D02*
X83799155Y-105298315D01*
X86464856Y-104348314D02*
X84749156Y-104348314D01*
X93235000Y-99510000D02*
X89778598Y-99510000D01*
X83799155Y-105298315D02*
X83799155Y-105398315D01*
X88030011Y-102783159D02*
X86464856Y-104348314D01*
X88030011Y-101258587D02*
X88030011Y-102783159D01*
X89778598Y-99510000D02*
X88030011Y-101258587D01*
X88499989Y-101354309D02*
X88499989Y-102897481D01*
X89844298Y-100010000D02*
X88499989Y-101354309D01*
X93235000Y-100010000D02*
X89844298Y-100010000D01*
X88499989Y-102897481D02*
X85999155Y-105398315D01*
X88900000Y-103147470D02*
X88199155Y-103848315D01*
X88199155Y-103848315D02*
X88199155Y-105398315D01*
X93235000Y-100510000D02*
X89990000Y-100510000D01*
X89990000Y-100510000D02*
X88900000Y-101600000D01*
X88900000Y-101600000D02*
X88900000Y-103147470D01*
X81249155Y-110748315D02*
X81249155Y-110198315D01*
X81249155Y-110198315D02*
X81949156Y-109498314D01*
X81949156Y-109498314D02*
X84199155Y-109498315D01*
X84199155Y-109498315D02*
X85049155Y-110348315D01*
X85049155Y-110348315D02*
X85149155Y-110348315D01*
X87849155Y-112448315D02*
X87749155Y-112448315D01*
X87749155Y-112448315D02*
X85649155Y-110348315D01*
X85649155Y-110348315D02*
X85149155Y-110348315D01*
X82199155Y-113748315D02*
X81599155Y-113748315D01*
X81599155Y-113748315D02*
X80549154Y-112698314D01*
X80549154Y-109148316D02*
X81499155Y-108198315D01*
X80549154Y-112698314D02*
X80549154Y-109148316D01*
X81499155Y-108198315D02*
X81499155Y-108098315D01*
X85999155Y-108098315D02*
X88199155Y-108098315D01*
X83799155Y-108098315D02*
X85999155Y-108098315D01*
X81499155Y-108098315D02*
X82349155Y-108098315D01*
X82349155Y-108098315D02*
X83799155Y-108098315D01*
D69*
X77999155Y-152748315D02*
X72999155Y-152748315D01*
X72999155Y-152748315D02*
X70899155Y-150648315D01*
X70899155Y-97655845D02*
X72830000Y-95725000D01*
X70899155Y-150648315D02*
X70899155Y-97655845D01*
X72830000Y-95725000D02*
X72830000Y-95600000D01*
X76983399Y-95172157D02*
X75289843Y-95172157D01*
X75289843Y-95172157D02*
X74862000Y-95600000D01*
X72830000Y-95600000D02*
X74862000Y-95600000D01*
X79199155Y-152748315D02*
X77999155Y-152748315D01*
X78599155Y-153348315D02*
X78149156Y-152898316D01*
X78149156Y-152898316D02*
X77999155Y-152748315D01*
X79499155Y-152711919D02*
X79235551Y-152711919D01*
X79235551Y-152711919D02*
X79199155Y-152748315D01*
X79499155Y-153348315D02*
X79499155Y-152711919D01*
X79499155Y-153348315D02*
X78599155Y-153348315D01*
D11*
X93235000Y-84510000D02*
X95922704Y-84510000D01*
X101891395Y-130141080D02*
X101680874Y-130351601D01*
X95922704Y-84510000D02*
X101680874Y-90268170D01*
X101680874Y-90268170D02*
X101680874Y-128572498D01*
X101680874Y-130351601D02*
X101680874Y-130705154D01*
X101891395Y-128783019D02*
X101891395Y-130141080D01*
X101680874Y-128572498D02*
X101891395Y-128783019D01*
X103534978Y-139035022D02*
X102471705Y-140098295D01*
X74718010Y-148039990D02*
X74718010Y-150014447D01*
X74718010Y-150014447D02*
X74718010Y-150368000D01*
X82659705Y-140098295D02*
X74718010Y-148039990D01*
X102471705Y-140098295D02*
X82659705Y-140098295D01*
X103534978Y-137550022D02*
X103534978Y-139035022D01*
X103534978Y-137550022D02*
X103506945Y-137521989D01*
X101953553Y-137550022D02*
X101600000Y-137550022D01*
X103506945Y-137521989D02*
X101981586Y-137521989D01*
X101981586Y-137521989D02*
X101953553Y-137550022D01*
X103785000Y-137300000D02*
X103534978Y-137550022D01*
X103785000Y-136100000D02*
X103785000Y-137300000D01*
X102774015Y-131444741D02*
X102774015Y-131798294D01*
X95554104Y-83010000D02*
X102499945Y-89955841D01*
X102691417Y-128451641D02*
X102691417Y-131362143D01*
X102499945Y-89955841D02*
X102499945Y-128260169D01*
X102499945Y-128260169D02*
X102691417Y-128451641D01*
X102691417Y-131362143D02*
X102774015Y-131444741D01*
X93235000Y-83010000D02*
X95554104Y-83010000D01*
X73612562Y-148014038D02*
X73612562Y-149553230D01*
X98458727Y-139298273D02*
X82328327Y-139298273D01*
X99581000Y-138176000D02*
X98458727Y-139298273D01*
X73612562Y-149553230D02*
X73612562Y-149906783D01*
X82328327Y-139298273D02*
X73612562Y-148014038D01*
X99581000Y-138176000D02*
X99998418Y-138593418D01*
X101858601Y-138593418D02*
X102212154Y-138593418D01*
X99998418Y-138593418D02*
X101858601Y-138593418D01*
X98705000Y-137300000D02*
X99581000Y-138176000D01*
X98705000Y-136100000D02*
X98705000Y-137300000D01*
X102291406Y-128617330D02*
X102099934Y-128425858D01*
X101245000Y-133560000D02*
X101245000Y-132360000D01*
X101245000Y-132360000D02*
X102291406Y-131313594D01*
X102291406Y-131313594D02*
X102291406Y-128617330D01*
X95488404Y-83510000D02*
X94060000Y-83510000D01*
X94060000Y-83510000D02*
X93235000Y-83510000D01*
X102099934Y-128425858D02*
X102099934Y-90121530D01*
X102099934Y-90121530D02*
X95488404Y-83510000D01*
X114394460Y-151653010D02*
X125949155Y-140098315D01*
X125949155Y-140098315D02*
X129499155Y-140098315D01*
X97028000Y-151653010D02*
X114394460Y-151653010D01*
X86176064Y-151653010D02*
X86149145Y-151626091D01*
X97028000Y-151653010D02*
X86176064Y-151653010D01*
X73109998Y-134609998D02*
X74115996Y-133604000D01*
X74737384Y-146111384D02*
X73109998Y-144483998D01*
X73109998Y-144483998D02*
X73109998Y-134609998D01*
X74115996Y-133604000D02*
X75438000Y-133604000D01*
X75438000Y-133604000D02*
X77693685Y-131348315D01*
X77693685Y-131348315D02*
X83944122Y-131348315D01*
X83944122Y-131348315D02*
X85244437Y-130048000D01*
X85244437Y-130048000D02*
X85597990Y-130048000D01*
X92710000Y-127508000D02*
X92887000Y-127508000D01*
X92887000Y-127508000D02*
X93135000Y-127260000D01*
X104614208Y-142553055D02*
X105063111Y-142104152D01*
X83938110Y-142553055D02*
X104614208Y-142553055D01*
X105063111Y-142104152D02*
X105313110Y-141854153D01*
X83319650Y-142255652D02*
X83069651Y-142505651D01*
X83721149Y-141854153D02*
X83319650Y-142255652D01*
X94599988Y-141854153D02*
X83721149Y-141854153D01*
X83495862Y-140498306D02*
X82107683Y-141886485D01*
X104865694Y-140498306D02*
X83495862Y-140498306D01*
X105410000Y-139954000D02*
X104865694Y-140498306D01*
X82107683Y-141886485D02*
X81857684Y-142136484D01*
X106426000Y-127254000D02*
X107129000Y-127254000D01*
X107129000Y-127254000D02*
X107135000Y-127260000D01*
X84132422Y-143953570D02*
X105597755Y-143953570D01*
X105597755Y-143953570D02*
X105598253Y-143953072D01*
X105654597Y-145350002D02*
X105654826Y-145349773D01*
X84074405Y-145350002D02*
X105654597Y-145350002D01*
X105670332Y-144650090D02*
X105670486Y-144649936D01*
X84062584Y-144650090D02*
X105670332Y-144650090D01*
X84074000Y-143256000D02*
X105662471Y-143256000D01*
X105662471Y-143256000D02*
X105662490Y-143256019D01*
X120035000Y-71810000D02*
X117785000Y-71810000D01*
X117785000Y-71810000D02*
X117785000Y-69127000D01*
X117785000Y-69127000D02*
X117805000Y-69107000D01*
D71*
X117735000Y-69202000D02*
X117755000Y-69182000D01*
D70*
X75106299Y-75536865D02*
X75106299Y-75191171D01*
X75106299Y-75191171D02*
X75947215Y-74350255D01*
X75947215Y-74350255D02*
X76653909Y-74350255D01*
X76653909Y-74350255D02*
X77753299Y-73250865D01*
X78916299Y-75536865D02*
X78916299Y-74413865D01*
X78916299Y-74413865D02*
X77753299Y-73250865D01*
X80059299Y-72468865D02*
X80087135Y-72468865D01*
X80087135Y-72468865D02*
X80108000Y-72448000D01*
X80108000Y-72448000D02*
X79854000Y-72194000D01*
X79854000Y-72194000D02*
X77753299Y-72194000D01*
X77753299Y-73250865D02*
X77753299Y-72194000D01*
X77753299Y-72194000D02*
X77753299Y-71064865D01*
X77753299Y-71064865D02*
X77853299Y-70964865D01*
D11*
X77853299Y-70964865D02*
X77853299Y-72194000D01*
X77853299Y-72194000D02*
X77853299Y-73150865D01*
X77853299Y-73150865D02*
X77753299Y-73250865D01*
X81960000Y-66310000D02*
X81960000Y-67287470D01*
X81960000Y-67287470D02*
X81249155Y-67998315D01*
X81249155Y-67998315D02*
X81249155Y-69968865D01*
X80059299Y-69968865D02*
X81249155Y-69968865D01*
X81249155Y-69968865D02*
X82603299Y-69968865D01*
X82603299Y-69968865D02*
X82853299Y-69718865D01*
X77853299Y-68678865D02*
X78894299Y-68678865D01*
X78894299Y-68678865D02*
X80059299Y-69843865D01*
X80059299Y-69843865D02*
X80059299Y-69968865D01*
X80059299Y-70524865D02*
X80059299Y-69968865D01*
D69*
X75999155Y-82748315D02*
X76499155Y-82748315D01*
X99999155Y-79498315D02*
X93649155Y-73148315D01*
X93649155Y-73148315D02*
X85199155Y-73148315D01*
X85199155Y-73148315D02*
X85099155Y-73248315D01*
X99999155Y-79498315D02*
X99999155Y-79515470D01*
X99999155Y-79515470D02*
X123999155Y-103515470D01*
X123999155Y-103515470D02*
X123999155Y-129736155D01*
X123999155Y-129736155D02*
X124057000Y-129794000D01*
X124057000Y-129794000D02*
X123932000Y-129794000D01*
X99999155Y-79498315D02*
X100049155Y-79498315D01*
X82843298Y-73798316D02*
X81364850Y-73798316D01*
X84763300Y-73798316D02*
X82843298Y-73798316D01*
X79307664Y-76998315D02*
X77499155Y-76998315D01*
X81364850Y-73798316D02*
X81244300Y-73918866D01*
X81244300Y-73918866D02*
X80818602Y-73918866D01*
X80818602Y-73918866D02*
X79974154Y-74763314D01*
X79974154Y-74763314D02*
X79974154Y-76331825D01*
X79974154Y-76331825D02*
X79307664Y-76998315D01*
X79307664Y-76998315D02*
X79249155Y-76998315D01*
X84763300Y-73798316D02*
X84903300Y-73248315D01*
X84903300Y-73248315D02*
X84903300Y-73658316D01*
D72*
X81364850Y-73798316D02*
X80987144Y-73793866D01*
D69*
X84903300Y-73658316D02*
X84763300Y-73798316D01*
D72*
X77999155Y-76998315D02*
X79249155Y-76998315D01*
X83205691Y-73781855D02*
X83214230Y-73773316D01*
X84565615Y-73781855D02*
X85099155Y-73248315D01*
X82599155Y-73781855D02*
X84565615Y-73781855D01*
D69*
X128121315Y-79498315D02*
X99999155Y-79498315D01*
X130282000Y-81534000D02*
X130157000Y-81534000D01*
X130157000Y-81534000D02*
X128121315Y-79498315D01*
X130382000Y-83820000D02*
X130382000Y-85960000D01*
X130282000Y-81534000D02*
X130282000Y-83720000D01*
X130282000Y-83720000D02*
X130382000Y-83820000D01*
X124105000Y-133560000D02*
X126645000Y-133560000D01*
X123932000Y-129794000D02*
X123932000Y-133387000D01*
X123932000Y-133387000D02*
X124105000Y-133560000D01*
X77646299Y-75536865D02*
X77646299Y-76851171D01*
X77646299Y-76851171D02*
X77499155Y-76998315D01*
X77646299Y-75536865D02*
X77646299Y-76645459D01*
X77646299Y-76645459D02*
X77999155Y-76998315D01*
D72*
X75233299Y-83684865D02*
X76699155Y-83684865D01*
X76699155Y-83684865D02*
X77419299Y-83684865D01*
X76499155Y-83384711D02*
X76699155Y-83584711D01*
X76499155Y-82748315D02*
X76499155Y-83384711D01*
X76699155Y-83584711D02*
X76699155Y-83684865D01*
X75999155Y-82748315D02*
X75999155Y-82919009D01*
X75999155Y-82919009D02*
X75233299Y-83684865D01*
X77419299Y-83684865D02*
X77519299Y-83584865D01*
X82599155Y-73781855D02*
X83205691Y-73781855D01*
X80999155Y-73781855D02*
X82599155Y-73781855D01*
D70*
X84963151Y-73248315D02*
X85099155Y-73248315D01*
X77646299Y-76498315D02*
X77646299Y-76851171D01*
X77646299Y-75536865D02*
X77646299Y-76498315D01*
X77646299Y-76498315D02*
X77646299Y-76645459D01*
X76499155Y-82748315D02*
X76249155Y-82998315D01*
X76249155Y-83584865D02*
X75333299Y-83584865D01*
X77519299Y-83584865D02*
X76249155Y-83584865D01*
X76249155Y-82998315D02*
X75999155Y-82748315D01*
X76249155Y-83584865D02*
X76249155Y-82998315D01*
X75333299Y-83584865D02*
X75233299Y-83684865D01*
D69*
X75233299Y-86184865D02*
X75098297Y-86184865D01*
X73799155Y-79001245D02*
X76376299Y-76424101D01*
X75098297Y-86184865D02*
X73799155Y-84885723D01*
X73799155Y-84885723D02*
X73799155Y-79001245D01*
X76376299Y-76424101D02*
X76376299Y-75536865D01*
D11*
X120035000Y-74560000D02*
X117835000Y-74560000D01*
X117835000Y-74560000D02*
X117785000Y-74510000D01*
X117785000Y-77060000D02*
X117785000Y-74510000D01*
X91249205Y-64948315D02*
X91199155Y-64898265D01*
X93799155Y-64948315D02*
X91249205Y-64948315D01*
X87999155Y-64948315D02*
X91149105Y-64948315D01*
X91149105Y-64948315D02*
X91199155Y-64898265D01*
D72*
X77519299Y-86284865D02*
X77519299Y-86078171D01*
X79805299Y-83792171D02*
X79805299Y-83584865D01*
X77519299Y-86078171D02*
X79805299Y-83792171D01*
D11*
X83803299Y-72248315D02*
X83734106Y-72317508D01*
X83734106Y-72317508D02*
X83202698Y-72317508D01*
X83202698Y-72317508D02*
X82849145Y-72317508D01*
X81277717Y-75350807D02*
X80924164Y-75350807D01*
X81539357Y-75350807D02*
X81277717Y-75350807D01*
X81583299Y-75306865D02*
X81539357Y-75350807D01*
X79805299Y-78654473D02*
X79699155Y-78548329D01*
X79805299Y-83584865D02*
X79805299Y-78654473D01*
X83965332Y-117272835D02*
X83715333Y-117022836D01*
X84199165Y-119562231D02*
X84199165Y-117506668D01*
X84199165Y-117506668D02*
X83965332Y-117272835D01*
X76440001Y-137400001D02*
X73914000Y-134874000D01*
X73914000Y-134874000D02*
X73660000Y-134874000D01*
X80925000Y-136100000D02*
X80925000Y-137300000D01*
X80925000Y-137300000D02*
X80824999Y-137400001D01*
X80824999Y-137400001D02*
X76440001Y-137400001D01*
X72199155Y-111148315D02*
X73749155Y-112698315D01*
X73749155Y-112698315D02*
X73749155Y-113048315D01*
X82533299Y-78306865D02*
X82533299Y-79332459D01*
X82533299Y-79332459D02*
X83099111Y-79898271D01*
X83099111Y-82637053D02*
X82091299Y-83644865D01*
X83099111Y-79898271D02*
X83099111Y-82637053D01*
X82091299Y-83644865D02*
X82091299Y-83744865D01*
X82091299Y-87056171D02*
X82091299Y-83744865D01*
X81499157Y-87648313D02*
X82091299Y-87056171D01*
X75499155Y-87648313D02*
X81499157Y-87648313D01*
X82140000Y-83793566D02*
X82091299Y-83744865D01*
X84399169Y-101248315D02*
X84699155Y-100948329D01*
X84699155Y-100948329D02*
X84699155Y-76205557D01*
X84699155Y-76205557D02*
X84573131Y-76079533D01*
X83403299Y-70748315D02*
X83755481Y-70748315D01*
X83755481Y-70748315D02*
X84109034Y-70748315D01*
X81903299Y-72248315D02*
X83403299Y-70748315D01*
X84592333Y-116731127D02*
X84342334Y-116481128D01*
X84799155Y-116937949D02*
X84592333Y-116731127D01*
X85299155Y-119648315D02*
X84799155Y-119148315D01*
X84799155Y-119148315D02*
X84799155Y-116937949D01*
X100949154Y-131998314D02*
X101249155Y-132298315D01*
X100799154Y-131848314D02*
X100949154Y-131998314D01*
X100399155Y-131448315D02*
X100799154Y-131848314D01*
X75772000Y-126084467D02*
X75652017Y-126204450D01*
X75652017Y-126204450D02*
X75402018Y-126454449D01*
X75772000Y-125222000D02*
X75772000Y-126084467D01*
X93235000Y-82510000D02*
X94274006Y-82510000D01*
X94274006Y-82510000D02*
X94488006Y-82296000D01*
X93698000Y-82510000D02*
X93235000Y-82510000D01*
X83499122Y-94531434D02*
X83499122Y-76993686D01*
X82799149Y-76293713D02*
X82799149Y-75481687D01*
X83499122Y-76993686D02*
X82799149Y-76293713D01*
X82383399Y-95172157D02*
X82858399Y-95172157D01*
X83767769Y-74748326D02*
X84121322Y-74748326D01*
X83532510Y-74748326D02*
X83767769Y-74748326D01*
X82858399Y-95172157D02*
X83499122Y-94531434D01*
X82799149Y-75481687D02*
X83532510Y-74748326D01*
D69*
X76983399Y-97712157D02*
X76983399Y-99614071D01*
X76983399Y-99614071D02*
X76949155Y-99648315D01*
D73*
X81026171Y-159024515D02*
X80622956Y-158621300D01*
X80622956Y-158621300D02*
X80622956Y-156622116D01*
X80622956Y-156622116D02*
X80449155Y-156448315D01*
X90972139Y-159024515D02*
X81026171Y-159024515D01*
X91972139Y-158024515D02*
X90972139Y-159024515D01*
X93326171Y-158024515D02*
X91972139Y-158024515D01*
X93608801Y-158307145D02*
X93326171Y-158024515D01*
X92785000Y-159260000D02*
X93608801Y-158436199D01*
X93608801Y-158436199D02*
X93608801Y-158307145D01*
X81172139Y-158672115D02*
X80975354Y-158475330D01*
X80975354Y-158475330D02*
X80975354Y-156622116D01*
X80975354Y-156622116D02*
X81149155Y-156448315D01*
X90826171Y-158672115D02*
X81172139Y-158672115D01*
X91826171Y-157672115D02*
X90826171Y-158672115D01*
X93472139Y-157672115D02*
X91826171Y-157672115D01*
X93961199Y-158161175D02*
X93472139Y-157672115D01*
X94785000Y-159260000D02*
X93961199Y-158436199D01*
X93961199Y-158436199D02*
X93961199Y-158161175D01*
D11*
X88099155Y-63820015D02*
X88099155Y-63801868D01*
X86899155Y-65020015D02*
X88099155Y-63820015D01*
X88099155Y-63801868D02*
X88099155Y-63448315D01*
X85247203Y-74648315D02*
X85400482Y-74495036D01*
X84999155Y-74648315D02*
X85247203Y-74648315D01*
X85400482Y-74495036D02*
X85650481Y-74245037D01*
X83899155Y-75748315D02*
X84999155Y-74648315D01*
X83899155Y-76262319D02*
X83899155Y-75748315D01*
X84299144Y-96271412D02*
X84299144Y-76662308D01*
X82858399Y-97712157D02*
X84299144Y-96271412D01*
X82383399Y-97712157D02*
X82858399Y-97712157D01*
X84299144Y-76662308D02*
X83899155Y-76262319D01*
X85699155Y-63448315D02*
X83499155Y-63448315D01*
D69*
X82182399Y-91489157D02*
X82182399Y-93701157D01*
X82182399Y-93701157D02*
X82383399Y-93902157D01*
D11*
X83349151Y-76099242D02*
X83349151Y-75745689D01*
X83349151Y-76278015D02*
X83349151Y-76099242D01*
X83899133Y-76827997D02*
X83349151Y-76278015D01*
X82858399Y-96442157D02*
X83899133Y-95401423D01*
X83899133Y-95401423D02*
X83899133Y-76827997D01*
X82383399Y-96442157D02*
X82858399Y-96442157D01*
X126099155Y-83748315D02*
X127610315Y-83748315D01*
X127610315Y-83748315D02*
X127682000Y-83820000D01*
X127682000Y-83820000D02*
X128016000Y-84154000D01*
X128016000Y-84154000D02*
X128016000Y-86294000D01*
X128016000Y-86294000D02*
X128082000Y-86360000D01*
D70*
X128084000Y-89360000D02*
X126499155Y-90944845D01*
X126499155Y-90944845D02*
X125750000Y-91694000D01*
X125065000Y-89460000D02*
X125065000Y-89710000D01*
X125065000Y-89710000D02*
X126299845Y-90944845D01*
X126299845Y-90944845D02*
X126499155Y-90944845D01*
X129032000Y-89360000D02*
X128084000Y-89360000D01*
D11*
X125050000Y-89475000D02*
X125065000Y-89460000D01*
X81499155Y-155248315D02*
X89773315Y-155248315D01*
X89773315Y-155248315D02*
X89785000Y-155260000D01*
X76849155Y-120548315D02*
X75149155Y-120548315D01*
X74149154Y-119548314D02*
X74149154Y-118398316D01*
X75149155Y-120548315D02*
X74149154Y-119548314D01*
X74149154Y-118398316D02*
X74749155Y-117798315D01*
X74749155Y-117798315D02*
X75049155Y-117798315D01*
X72549155Y-115798315D02*
X72749155Y-115798315D01*
X72749155Y-115798315D02*
X74749155Y-117798315D01*
D73*
X120675354Y-89848316D02*
X121063670Y-89460000D01*
X121063670Y-89460000D02*
X122265000Y-89460000D01*
X120849155Y-91148315D02*
X120675354Y-90974514D01*
X120675354Y-90974514D02*
X120675354Y-89848316D01*
X120322956Y-89848316D02*
X119934640Y-89460000D01*
X119934640Y-89460000D02*
X118765000Y-89460000D01*
X120149155Y-91148315D02*
X120322956Y-90974514D01*
X120322956Y-90974514D02*
X120322956Y-89848316D01*
D11*
X72749155Y-119098315D02*
X71849999Y-119098315D01*
D74*
G36*
X119408000Y-70660000D02*
X119418006Y-70709410D01*
X119446447Y-70751035D01*
X119488841Y-70778315D01*
X119535000Y-70787000D01*
X120535000Y-70787000D01*
X120584410Y-70776994D01*
X120626035Y-70748553D01*
X120653315Y-70706159D01*
X120662000Y-70660000D01*
X120662000Y-69687000D01*
X121408000Y-69687000D01*
X121408000Y-70660000D01*
X121418006Y-70709410D01*
X121446447Y-70751035D01*
X121488841Y-70778315D01*
X121535000Y-70787000D01*
X131058000Y-70787000D01*
X131058000Y-75633000D01*
X118517183Y-75633000D01*
X118576190Y-75621897D01*
X118705865Y-75538454D01*
X118792859Y-75411134D01*
X118823464Y-75260000D01*
X118823464Y-75041000D01*
X118896536Y-75041000D01*
X118896536Y-75185000D01*
X118923103Y-75326190D01*
X119006546Y-75455865D01*
X119133866Y-75542859D01*
X119285000Y-75573464D01*
X120785000Y-75573464D01*
X120926190Y-75546897D01*
X121055865Y-75463454D01*
X121142859Y-75336134D01*
X121173464Y-75185000D01*
X121173464Y-73935000D01*
X121146897Y-73793810D01*
X121063454Y-73664135D01*
X120936134Y-73577141D01*
X120785000Y-73546536D01*
X119285000Y-73546536D01*
X119143810Y-73573103D01*
X119014135Y-73656546D01*
X118927141Y-73783866D01*
X118896536Y-73935000D01*
X118896536Y-74079000D01*
X118823464Y-74079000D01*
X118823464Y-73760000D01*
X118796897Y-73618810D01*
X118713454Y-73489135D01*
X118586134Y-73402141D01*
X118435000Y-73371536D01*
X117135000Y-73371536D01*
X116993810Y-73398103D01*
X116864135Y-73481546D01*
X116777141Y-73608866D01*
X116746536Y-73760000D01*
X116746536Y-75260000D01*
X116773103Y-75401190D01*
X116856546Y-75530865D01*
X116983866Y-75617859D01*
X117058635Y-75633000D01*
X99312000Y-75633000D01*
X99312000Y-70787000D01*
X116860408Y-70787000D01*
X116777141Y-70908866D01*
X116746536Y-71060000D01*
X116746536Y-72560000D01*
X116773103Y-72701190D01*
X116856546Y-72830865D01*
X116983866Y-72917859D01*
X117135000Y-72948464D01*
X118435000Y-72948464D01*
X118576190Y-72921897D01*
X118705865Y-72838454D01*
X118792859Y-72711134D01*
X118823464Y-72560000D01*
X118823464Y-72291000D01*
X118896536Y-72291000D01*
X118896536Y-72435000D01*
X118923103Y-72576190D01*
X119006546Y-72705865D01*
X119133866Y-72792859D01*
X119285000Y-72823464D01*
X120785000Y-72823464D01*
X120926190Y-72796897D01*
X121055865Y-72713454D01*
X121142859Y-72586134D01*
X121173464Y-72435000D01*
X121173464Y-71185000D01*
X121146897Y-71043810D01*
X121063454Y-70914135D01*
X120936134Y-70827141D01*
X120785000Y-70796536D01*
X119285000Y-70796536D01*
X119143810Y-70823103D01*
X119014135Y-70906546D01*
X118927141Y-71033866D01*
X118896536Y-71185000D01*
X118896536Y-71329000D01*
X118823464Y-71329000D01*
X118823464Y-71060000D01*
X118796897Y-70918810D01*
X118713454Y-70789135D01*
X118634594Y-70735252D01*
X118653315Y-70706159D01*
X118662000Y-70660000D01*
X118662000Y-69437000D01*
X119408000Y-69437000D01*
X119408000Y-70660000D01*
X119408000Y-70660000D01*
G37*
X119408000Y-70660000D02*
X119418006Y-70709410D01*
X119446447Y-70751035D01*
X119488841Y-70778315D01*
X119535000Y-70787000D01*
X120535000Y-70787000D01*
X120584410Y-70776994D01*
X120626035Y-70748553D01*
X120653315Y-70706159D01*
X120662000Y-70660000D01*
X120662000Y-69687000D01*
X121408000Y-69687000D01*
X121408000Y-70660000D01*
X121418006Y-70709410D01*
X121446447Y-70751035D01*
X121488841Y-70778315D01*
X121535000Y-70787000D01*
X131058000Y-70787000D01*
X131058000Y-75633000D01*
X118517183Y-75633000D01*
X118576190Y-75621897D01*
X118705865Y-75538454D01*
X118792859Y-75411134D01*
X118823464Y-75260000D01*
X118823464Y-75041000D01*
X118896536Y-75041000D01*
X118896536Y-75185000D01*
X118923103Y-75326190D01*
X119006546Y-75455865D01*
X119133866Y-75542859D01*
X119285000Y-75573464D01*
X120785000Y-75573464D01*
X120926190Y-75546897D01*
X121055865Y-75463454D01*
X121142859Y-75336134D01*
X121173464Y-75185000D01*
X121173464Y-73935000D01*
X121146897Y-73793810D01*
X121063454Y-73664135D01*
X120936134Y-73577141D01*
X120785000Y-73546536D01*
X119285000Y-73546536D01*
X119143810Y-73573103D01*
X119014135Y-73656546D01*
X118927141Y-73783866D01*
X118896536Y-73935000D01*
X118896536Y-74079000D01*
X118823464Y-74079000D01*
X118823464Y-73760000D01*
X118796897Y-73618810D01*
X118713454Y-73489135D01*
X118586134Y-73402141D01*
X118435000Y-73371536D01*
X117135000Y-73371536D01*
X116993810Y-73398103D01*
X116864135Y-73481546D01*
X116777141Y-73608866D01*
X116746536Y-73760000D01*
X116746536Y-75260000D01*
X116773103Y-75401190D01*
X116856546Y-75530865D01*
X116983866Y-75617859D01*
X117058635Y-75633000D01*
X99312000Y-75633000D01*
X99312000Y-70787000D01*
X116860408Y-70787000D01*
X116777141Y-70908866D01*
X116746536Y-71060000D01*
X116746536Y-72560000D01*
X116773103Y-72701190D01*
X116856546Y-72830865D01*
X116983866Y-72917859D01*
X117135000Y-72948464D01*
X118435000Y-72948464D01*
X118576190Y-72921897D01*
X118705865Y-72838454D01*
X118792859Y-72711134D01*
X118823464Y-72560000D01*
X118823464Y-72291000D01*
X118896536Y-72291000D01*
X118896536Y-72435000D01*
X118923103Y-72576190D01*
X119006546Y-72705865D01*
X119133866Y-72792859D01*
X119285000Y-72823464D01*
X120785000Y-72823464D01*
X120926190Y-72796897D01*
X121055865Y-72713454D01*
X121142859Y-72586134D01*
X121173464Y-72435000D01*
X121173464Y-71185000D01*
X121146897Y-71043810D01*
X121063454Y-70914135D01*
X120936134Y-70827141D01*
X120785000Y-70796536D01*
X119285000Y-70796536D01*
X119143810Y-70823103D01*
X119014135Y-70906546D01*
X118927141Y-71033866D01*
X118896536Y-71185000D01*
X118896536Y-71329000D01*
X118823464Y-71329000D01*
X118823464Y-71060000D01*
X118796897Y-70918810D01*
X118713454Y-70789135D01*
X118634594Y-70735252D01*
X118653315Y-70706159D01*
X118662000Y-70660000D01*
X118662000Y-69437000D01*
X119408000Y-69437000D01*
X119408000Y-70660000D01*
G36*
X72918155Y-97148315D02*
X72985217Y-97485459D01*
X73176194Y-97771276D01*
X74010691Y-98605773D01*
X74010691Y-99073315D01*
X74037258Y-99214505D01*
X74120701Y-99344180D01*
X74218155Y-99410767D01*
X74218155Y-110521315D01*
X72334587Y-110521315D01*
X72325219Y-110517425D01*
X72074192Y-110517206D01*
X72064247Y-110521315D01*
X71780155Y-110521315D01*
X71780155Y-101511779D01*
X71849155Y-101511779D01*
X71990345Y-101485212D01*
X72120020Y-101401769D01*
X72207014Y-101274449D01*
X72237619Y-101123315D01*
X72237619Y-99873315D01*
X72211052Y-99732125D01*
X72127609Y-99602450D01*
X72000289Y-99515456D01*
X71849155Y-99484851D01*
X71780155Y-99484851D01*
X71780155Y-98020767D01*
X72984091Y-96816831D01*
X72918155Y-97148315D01*
X72918155Y-97148315D01*
G37*
X72918155Y-97148315D02*
X72985217Y-97485459D01*
X73176194Y-97771276D01*
X74010691Y-98605773D01*
X74010691Y-99073315D01*
X74037258Y-99214505D01*
X74120701Y-99344180D01*
X74218155Y-99410767D01*
X74218155Y-110521315D01*
X72334587Y-110521315D01*
X72325219Y-110517425D01*
X72074192Y-110517206D01*
X72064247Y-110521315D01*
X71780155Y-110521315D01*
X71780155Y-101511779D01*
X71849155Y-101511779D01*
X71990345Y-101485212D01*
X72120020Y-101401769D01*
X72207014Y-101274449D01*
X72237619Y-101123315D01*
X72237619Y-99873315D01*
X72211052Y-99732125D01*
X72127609Y-99602450D01*
X72000289Y-99515456D01*
X71849155Y-99484851D01*
X71780155Y-99484851D01*
X71780155Y-98020767D01*
X72984091Y-96816831D01*
X72918155Y-97148315D01*
G36*
X86572155Y-62928993D02*
X86457054Y-62813691D01*
X86225219Y-62717425D01*
X85974192Y-62717206D01*
X85742189Y-62813067D01*
X85687846Y-62867315D01*
X83910585Y-62867315D01*
X83857054Y-62813691D01*
X83625219Y-62717425D01*
X83374192Y-62717206D01*
X83142189Y-62813067D01*
X82964531Y-62990416D01*
X82868265Y-63222251D01*
X82868046Y-63473278D01*
X82963907Y-63705281D01*
X83000574Y-63742012D01*
X82939135Y-63781546D01*
X82852141Y-63908866D01*
X82821536Y-64060000D01*
X82821536Y-64960000D01*
X82848103Y-65101190D01*
X82931546Y-65230865D01*
X83058866Y-65317859D01*
X83210000Y-65348464D01*
X84910000Y-65348464D01*
X85051190Y-65321897D01*
X85180865Y-65238454D01*
X85267859Y-65111134D01*
X85298464Y-64960000D01*
X85298464Y-64060000D01*
X85271897Y-63918810D01*
X85214309Y-63829315D01*
X85687725Y-63829315D01*
X85741256Y-63882939D01*
X85973091Y-63979205D01*
X86224118Y-63979424D01*
X86456121Y-63883563D01*
X86572155Y-63767731D01*
X86572155Y-72267315D01*
X85199155Y-72267315D01*
X84862010Y-72334377D01*
X84797572Y-72377433D01*
X84777356Y-72376363D01*
X84673836Y-72412958D01*
X84591763Y-72429283D01*
X84591763Y-71198315D01*
X84585380Y-71164391D01*
X84643658Y-71106214D01*
X84739924Y-70874379D01*
X84740143Y-70623352D01*
X84644282Y-70391349D01*
X84466933Y-70213691D01*
X84235098Y-70117425D01*
X83984071Y-70117206D01*
X83752068Y-70213067D01*
X83697725Y-70267315D01*
X83598951Y-70267315D01*
X83611158Y-70249449D01*
X83641763Y-70098315D01*
X83641763Y-68198315D01*
X83615196Y-68057125D01*
X83531753Y-67927450D01*
X83404433Y-67840456D01*
X83253299Y-67809851D01*
X82453299Y-67809851D01*
X82312109Y-67836418D01*
X82182434Y-67919861D01*
X82095440Y-68047181D01*
X82064835Y-68198315D01*
X82064835Y-69487865D01*
X81730155Y-69487865D01*
X81730155Y-68197551D01*
X82300119Y-67627588D01*
X82362622Y-67534044D01*
X82390193Y-67492783D01*
X82501190Y-67471897D01*
X82630865Y-67388454D01*
X82717859Y-67261134D01*
X82748464Y-67110000D01*
X82748464Y-65510000D01*
X82721897Y-65368810D01*
X82638454Y-65239135D01*
X82511134Y-65152141D01*
X82360000Y-65121536D01*
X81560000Y-65121536D01*
X81418810Y-65148103D01*
X81289135Y-65231546D01*
X81202141Y-65358866D01*
X81171536Y-65510000D01*
X81171536Y-67110000D01*
X81198103Y-67251190D01*
X81244281Y-67322953D01*
X80909037Y-67658197D01*
X80804769Y-67814244D01*
X80768155Y-67998315D01*
X80768155Y-68847382D01*
X80684299Y-68830401D01*
X79726071Y-68830401D01*
X79234417Y-68338747D01*
X79078370Y-68234479D01*
X78991763Y-68217252D01*
X78991763Y-68028865D01*
X78965196Y-67887675D01*
X78881753Y-67758000D01*
X78754433Y-67671006D01*
X78603299Y-67640401D01*
X77103299Y-67640401D01*
X76962109Y-67666968D01*
X76832434Y-67750411D01*
X76745440Y-67877731D01*
X76714835Y-68028865D01*
X76714835Y-69328865D01*
X76741402Y-69470055D01*
X76824845Y-69599730D01*
X76952165Y-69686724D01*
X77103299Y-69717329D01*
X78603299Y-69717329D01*
X78744489Y-69690762D01*
X78874164Y-69607319D01*
X78961158Y-69479999D01*
X78970258Y-69435061D01*
X79045835Y-69510637D01*
X79045835Y-70718865D01*
X79072402Y-70860055D01*
X79155845Y-70989730D01*
X79283165Y-71076724D01*
X79434299Y-71107329D01*
X80684299Y-71107329D01*
X80825489Y-71080762D01*
X80955164Y-70997319D01*
X81042158Y-70869999D01*
X81072763Y-70718865D01*
X81072763Y-70449865D01*
X82292931Y-70449865D01*
X82302165Y-70456174D01*
X82453299Y-70486779D01*
X82984598Y-70486779D01*
X82559281Y-70912096D01*
X82454433Y-70840456D01*
X82303299Y-70809851D01*
X81503299Y-70809851D01*
X81362109Y-70836418D01*
X81232434Y-70919861D01*
X81145440Y-71047181D01*
X81114835Y-71198315D01*
X81114835Y-72967047D01*
X81072763Y-72975415D01*
X81072763Y-71718865D01*
X81046196Y-71577675D01*
X80962753Y-71448000D01*
X80835433Y-71361006D01*
X80684299Y-71330401D01*
X79434299Y-71330401D01*
X79293109Y-71356968D01*
X79163434Y-71440411D01*
X79079673Y-71563000D01*
X78991763Y-71563000D01*
X78991763Y-70314865D01*
X78965196Y-70173675D01*
X78881753Y-70044000D01*
X78754433Y-69957006D01*
X78603299Y-69926401D01*
X77103299Y-69926401D01*
X76962109Y-69952968D01*
X76832434Y-70036411D01*
X76745440Y-70163731D01*
X76714835Y-70314865D01*
X76714835Y-71614865D01*
X76741402Y-71756055D01*
X76824845Y-71885730D01*
X76952165Y-71972724D01*
X77103299Y-72003329D01*
X77122299Y-72003329D01*
X77122299Y-72237401D01*
X77003299Y-72237401D01*
X76862109Y-72263968D01*
X76732434Y-72347411D01*
X76645440Y-72474731D01*
X76614835Y-72625865D01*
X76614835Y-73496961D01*
X76392541Y-73719255D01*
X76391763Y-73719255D01*
X76391763Y-72625865D01*
X76365196Y-72484675D01*
X76281753Y-72355000D01*
X76154433Y-72268006D01*
X76134299Y-72263929D01*
X76134299Y-71918971D01*
X76174164Y-71893319D01*
X76261158Y-71765999D01*
X76291763Y-71614865D01*
X76291763Y-70314865D01*
X76265196Y-70173675D01*
X76181753Y-70044000D01*
X76054433Y-69957006D01*
X76034299Y-69952929D01*
X76034299Y-69692679D01*
X76044489Y-69690762D01*
X76174164Y-69607319D01*
X76261158Y-69479999D01*
X76291763Y-69328865D01*
X76291763Y-68028865D01*
X76265196Y-67887675D01*
X76181753Y-67758000D01*
X76054433Y-67671006D01*
X75903299Y-67640401D01*
X74403299Y-67640401D01*
X74262109Y-67666968D01*
X74132434Y-67750411D01*
X74045440Y-67877731D01*
X74014835Y-68028865D01*
X74014835Y-69328865D01*
X74041402Y-69470055D01*
X74124845Y-69599730D01*
X74252165Y-69686724D01*
X74272299Y-69690801D01*
X74272299Y-69951051D01*
X74262109Y-69952968D01*
X74132434Y-70036411D01*
X74045440Y-70163731D01*
X74014835Y-70314865D01*
X74014835Y-71614865D01*
X74041402Y-71756055D01*
X74124845Y-71885730D01*
X74252165Y-71972724D01*
X74372299Y-71997051D01*
X74372299Y-72262051D01*
X74362109Y-72263968D01*
X74232434Y-72347411D01*
X74145440Y-72474731D01*
X74114835Y-72625865D01*
X74114835Y-73018407D01*
X71976183Y-75157059D01*
X71785206Y-75442876D01*
X71718144Y-75780020D01*
X71718144Y-86324728D01*
X71785206Y-86661872D01*
X71976183Y-86947689D01*
X75073205Y-90044711D01*
X75359022Y-90235688D01*
X75696166Y-90302750D01*
X76332352Y-90302750D01*
X76334269Y-90312940D01*
X76417712Y-90442615D01*
X76545032Y-90529609D01*
X76696166Y-90560214D01*
X77213708Y-90560214D01*
X77818155Y-91164661D01*
X77818155Y-92448315D01*
X77885217Y-92785459D01*
X78076194Y-93071276D01*
X78362011Y-93262253D01*
X78699155Y-93329315D01*
X79273241Y-93329315D01*
X79610385Y-93262253D01*
X79896202Y-93071276D01*
X79939857Y-93027621D01*
X80657399Y-93027621D01*
X80798589Y-93001054D01*
X80928264Y-92917611D01*
X81015258Y-92790291D01*
X81045863Y-92639157D01*
X81045863Y-91827010D01*
X81046337Y-91826301D01*
X81113399Y-91489157D01*
X81046337Y-91152013D01*
X81045863Y-91151304D01*
X81045863Y-90339157D01*
X81019296Y-90197967D01*
X80935853Y-90068292D01*
X80808533Y-89981298D01*
X80657399Y-89950693D01*
X79902765Y-89950693D01*
X79728731Y-89834407D01*
X79391587Y-89767345D01*
X78912683Y-89767345D01*
X78334630Y-89189292D01*
X78334630Y-88671750D01*
X78308063Y-88530560D01*
X78224620Y-88400885D01*
X78097300Y-88313891D01*
X77946166Y-88283286D01*
X76696166Y-88283286D01*
X76554976Y-88309853D01*
X76425301Y-88393296D01*
X76338307Y-88520616D01*
X76334230Y-88540750D01*
X76061088Y-88540750D01*
X75748406Y-88228068D01*
X75856121Y-88183561D01*
X75910464Y-88129313D01*
X81499157Y-88129313D01*
X81683228Y-88092699D01*
X81839275Y-87988431D01*
X82431417Y-87396290D01*
X82535685Y-87240242D01*
X82542550Y-87205728D01*
X82572299Y-87056171D01*
X82572299Y-84883329D01*
X82741299Y-84883329D01*
X82882489Y-84856762D01*
X83012164Y-84773319D01*
X83018122Y-84764599D01*
X83018122Y-91261534D01*
X82996337Y-91152013D01*
X82995863Y-91151304D01*
X82995863Y-90339157D01*
X82969296Y-90197967D01*
X82885853Y-90068292D01*
X82758533Y-89981298D01*
X82607399Y-89950693D01*
X81757399Y-89950693D01*
X81616209Y-89977260D01*
X81486534Y-90060703D01*
X81399540Y-90188023D01*
X81368935Y-90339157D01*
X81368935Y-91151304D01*
X81368461Y-91152013D01*
X81301399Y-91489157D01*
X81301399Y-93376588D01*
X81250540Y-93451023D01*
X81219935Y-93602157D01*
X81219935Y-94202157D01*
X81246502Y-94343347D01*
X81329945Y-94473022D01*
X81424586Y-94537687D01*
X81337534Y-94593703D01*
X81250540Y-94721023D01*
X81219935Y-94872157D01*
X81219935Y-95472157D01*
X81246502Y-95613347D01*
X81329945Y-95743022D01*
X81424586Y-95807687D01*
X81337534Y-95863703D01*
X81250540Y-95991023D01*
X81219935Y-96142157D01*
X81219935Y-96742157D01*
X81246502Y-96883347D01*
X81329945Y-97013022D01*
X81424586Y-97077687D01*
X81337534Y-97133703D01*
X81250540Y-97261023D01*
X81219935Y-97412157D01*
X81219935Y-98012157D01*
X81246502Y-98153347D01*
X81329945Y-98283022D01*
X81457265Y-98370016D01*
X81608399Y-98400621D01*
X83158399Y-98400621D01*
X83299589Y-98374054D01*
X83429264Y-98290611D01*
X83516258Y-98163291D01*
X83546863Y-98012157D01*
X83546863Y-97703929D01*
X84218155Y-97032637D01*
X84218155Y-100640366D01*
X84042203Y-100713067D01*
X83864545Y-100890416D01*
X83768279Y-101122251D01*
X83768060Y-101373278D01*
X83863921Y-101605281D01*
X84041270Y-101782939D01*
X84273105Y-101879205D01*
X84524132Y-101879424D01*
X84529000Y-101877413D01*
X84529000Y-102260000D01*
X84563711Y-102434504D01*
X84662559Y-102582441D01*
X84668467Y-102586388D01*
X84671525Y-103467303D01*
X82849167Y-103467303D01*
X82665096Y-103503917D01*
X82639058Y-103521315D01*
X80499155Y-103521315D01*
X80449745Y-103531321D01*
X80408120Y-103559762D01*
X80380840Y-103602156D01*
X80372155Y-103648315D01*
X80372155Y-108645079D01*
X80209036Y-108808198D01*
X80104768Y-108964245D01*
X80068154Y-109148316D01*
X80068154Y-110521315D01*
X75980155Y-110521315D01*
X75980155Y-100609803D01*
X76048021Y-100656174D01*
X76199155Y-100686779D01*
X77699155Y-100686779D01*
X77840345Y-100660212D01*
X77970020Y-100576769D01*
X78057014Y-100449449D01*
X78087619Y-100298315D01*
X78087619Y-98998315D01*
X78061052Y-98857125D01*
X77977609Y-98727450D01*
X77864399Y-98650097D01*
X77864399Y-98380676D01*
X77899589Y-98374054D01*
X78029264Y-98290611D01*
X78116258Y-98163291D01*
X78146863Y-98012157D01*
X78146863Y-97412157D01*
X78120296Y-97270967D01*
X78036853Y-97141292D01*
X77942212Y-97076627D01*
X78029264Y-97020611D01*
X78116258Y-96893291D01*
X78146863Y-96742157D01*
X78146863Y-96142157D01*
X78120296Y-96000967D01*
X78036853Y-95871292D01*
X77942212Y-95806627D01*
X78029264Y-95750611D01*
X78116258Y-95623291D01*
X78146863Y-95472157D01*
X78146863Y-94872157D01*
X78120296Y-94730967D01*
X78036853Y-94601292D01*
X77909533Y-94514298D01*
X77758399Y-94483693D01*
X77508328Y-94483693D01*
X77320543Y-94358219D01*
X76983399Y-94291157D01*
X75289843Y-94291157D01*
X74952698Y-94358219D01*
X74798074Y-94461536D01*
X74237000Y-94461536D01*
X74095810Y-94488103D01*
X73966135Y-94571546D01*
X73879141Y-94698866D01*
X73875064Y-94719000D01*
X73818814Y-94719000D01*
X73816897Y-94708810D01*
X73733454Y-94579135D01*
X73606134Y-94492141D01*
X73455000Y-94461536D01*
X72205000Y-94461536D01*
X72063810Y-94488103D01*
X71934135Y-94571546D01*
X71847141Y-94698866D01*
X71816536Y-94850000D01*
X71816536Y-95492542D01*
X70526155Y-96782923D01*
X70526155Y-66175315D01*
X75199155Y-66175315D01*
X75248565Y-66165309D01*
X75290190Y-66136868D01*
X75317470Y-66094474D01*
X75326155Y-66048315D01*
X75326155Y-65510000D01*
X77771536Y-65510000D01*
X77771536Y-67110000D01*
X77798103Y-67251190D01*
X77881546Y-67380865D01*
X78008866Y-67467859D01*
X78160000Y-67498464D01*
X78960000Y-67498464D01*
X79101190Y-67471897D01*
X79230865Y-67388454D01*
X79317859Y-67261134D01*
X79348464Y-67110000D01*
X79348464Y-65510000D01*
X79321897Y-65368810D01*
X79238454Y-65239135D01*
X79111134Y-65152141D01*
X78960000Y-65121536D01*
X78160000Y-65121536D01*
X78018810Y-65148103D01*
X77889135Y-65231546D01*
X77802141Y-65358866D01*
X77771536Y-65510000D01*
X75326155Y-65510000D01*
X75326155Y-65222487D01*
X75331546Y-65230865D01*
X75458866Y-65317859D01*
X75610000Y-65348464D01*
X77310000Y-65348464D01*
X77451190Y-65321897D01*
X77580865Y-65238454D01*
X77667859Y-65111134D01*
X77698464Y-64960000D01*
X77698464Y-64060000D01*
X77671897Y-63918810D01*
X77588454Y-63789135D01*
X77461134Y-63702141D01*
X77310000Y-63671536D01*
X75610000Y-63671536D01*
X75468810Y-63698103D01*
X75339135Y-63781546D01*
X75326155Y-63800543D01*
X75326155Y-62716000D01*
X86572155Y-62716000D01*
X86572155Y-62928993D01*
X86572155Y-62928993D01*
G37*
X86572155Y-62928993D02*
X86457054Y-62813691D01*
X86225219Y-62717425D01*
X85974192Y-62717206D01*
X85742189Y-62813067D01*
X85687846Y-62867315D01*
X83910585Y-62867315D01*
X83857054Y-62813691D01*
X83625219Y-62717425D01*
X83374192Y-62717206D01*
X83142189Y-62813067D01*
X82964531Y-62990416D01*
X82868265Y-63222251D01*
X82868046Y-63473278D01*
X82963907Y-63705281D01*
X83000574Y-63742012D01*
X82939135Y-63781546D01*
X82852141Y-63908866D01*
X82821536Y-64060000D01*
X82821536Y-64960000D01*
X82848103Y-65101190D01*
X82931546Y-65230865D01*
X83058866Y-65317859D01*
X83210000Y-65348464D01*
X84910000Y-65348464D01*
X85051190Y-65321897D01*
X85180865Y-65238454D01*
X85267859Y-65111134D01*
X85298464Y-64960000D01*
X85298464Y-64060000D01*
X85271897Y-63918810D01*
X85214309Y-63829315D01*
X85687725Y-63829315D01*
X85741256Y-63882939D01*
X85973091Y-63979205D01*
X86224118Y-63979424D01*
X86456121Y-63883563D01*
X86572155Y-63767731D01*
X86572155Y-72267315D01*
X85199155Y-72267315D01*
X84862010Y-72334377D01*
X84797572Y-72377433D01*
X84777356Y-72376363D01*
X84673836Y-72412958D01*
X84591763Y-72429283D01*
X84591763Y-71198315D01*
X84585380Y-71164391D01*
X84643658Y-71106214D01*
X84739924Y-70874379D01*
X84740143Y-70623352D01*
X84644282Y-70391349D01*
X84466933Y-70213691D01*
X84235098Y-70117425D01*
X83984071Y-70117206D01*
X83752068Y-70213067D01*
X83697725Y-70267315D01*
X83598951Y-70267315D01*
X83611158Y-70249449D01*
X83641763Y-70098315D01*
X83641763Y-68198315D01*
X83615196Y-68057125D01*
X83531753Y-67927450D01*
X83404433Y-67840456D01*
X83253299Y-67809851D01*
X82453299Y-67809851D01*
X82312109Y-67836418D01*
X82182434Y-67919861D01*
X82095440Y-68047181D01*
X82064835Y-68198315D01*
X82064835Y-69487865D01*
X81730155Y-69487865D01*
X81730155Y-68197551D01*
X82300119Y-67627588D01*
X82362622Y-67534044D01*
X82390193Y-67492783D01*
X82501190Y-67471897D01*
X82630865Y-67388454D01*
X82717859Y-67261134D01*
X82748464Y-67110000D01*
X82748464Y-65510000D01*
X82721897Y-65368810D01*
X82638454Y-65239135D01*
X82511134Y-65152141D01*
X82360000Y-65121536D01*
X81560000Y-65121536D01*
X81418810Y-65148103D01*
X81289135Y-65231546D01*
X81202141Y-65358866D01*
X81171536Y-65510000D01*
X81171536Y-67110000D01*
X81198103Y-67251190D01*
X81244281Y-67322953D01*
X80909037Y-67658197D01*
X80804769Y-67814244D01*
X80768155Y-67998315D01*
X80768155Y-68847382D01*
X80684299Y-68830401D01*
X79726071Y-68830401D01*
X79234417Y-68338747D01*
X79078370Y-68234479D01*
X78991763Y-68217252D01*
X78991763Y-68028865D01*
X78965196Y-67887675D01*
X78881753Y-67758000D01*
X78754433Y-67671006D01*
X78603299Y-67640401D01*
X77103299Y-67640401D01*
X76962109Y-67666968D01*
X76832434Y-67750411D01*
X76745440Y-67877731D01*
X76714835Y-68028865D01*
X76714835Y-69328865D01*
X76741402Y-69470055D01*
X76824845Y-69599730D01*
X76952165Y-69686724D01*
X77103299Y-69717329D01*
X78603299Y-69717329D01*
X78744489Y-69690762D01*
X78874164Y-69607319D01*
X78961158Y-69479999D01*
X78970258Y-69435061D01*
X79045835Y-69510637D01*
X79045835Y-70718865D01*
X79072402Y-70860055D01*
X79155845Y-70989730D01*
X79283165Y-71076724D01*
X79434299Y-71107329D01*
X80684299Y-71107329D01*
X80825489Y-71080762D01*
X80955164Y-70997319D01*
X81042158Y-70869999D01*
X81072763Y-70718865D01*
X81072763Y-70449865D01*
X82292931Y-70449865D01*
X82302165Y-70456174D01*
X82453299Y-70486779D01*
X82984598Y-70486779D01*
X82559281Y-70912096D01*
X82454433Y-70840456D01*
X82303299Y-70809851D01*
X81503299Y-70809851D01*
X81362109Y-70836418D01*
X81232434Y-70919861D01*
X81145440Y-71047181D01*
X81114835Y-71198315D01*
X81114835Y-72967047D01*
X81072763Y-72975415D01*
X81072763Y-71718865D01*
X81046196Y-71577675D01*
X80962753Y-71448000D01*
X80835433Y-71361006D01*
X80684299Y-71330401D01*
X79434299Y-71330401D01*
X79293109Y-71356968D01*
X79163434Y-71440411D01*
X79079673Y-71563000D01*
X78991763Y-71563000D01*
X78991763Y-70314865D01*
X78965196Y-70173675D01*
X78881753Y-70044000D01*
X78754433Y-69957006D01*
X78603299Y-69926401D01*
X77103299Y-69926401D01*
X76962109Y-69952968D01*
X76832434Y-70036411D01*
X76745440Y-70163731D01*
X76714835Y-70314865D01*
X76714835Y-71614865D01*
X76741402Y-71756055D01*
X76824845Y-71885730D01*
X76952165Y-71972724D01*
X77103299Y-72003329D01*
X77122299Y-72003329D01*
X77122299Y-72237401D01*
X77003299Y-72237401D01*
X76862109Y-72263968D01*
X76732434Y-72347411D01*
X76645440Y-72474731D01*
X76614835Y-72625865D01*
X76614835Y-73496961D01*
X76392541Y-73719255D01*
X76391763Y-73719255D01*
X76391763Y-72625865D01*
X76365196Y-72484675D01*
X76281753Y-72355000D01*
X76154433Y-72268006D01*
X76134299Y-72263929D01*
X76134299Y-71918971D01*
X76174164Y-71893319D01*
X76261158Y-71765999D01*
X76291763Y-71614865D01*
X76291763Y-70314865D01*
X76265196Y-70173675D01*
X76181753Y-70044000D01*
X76054433Y-69957006D01*
X76034299Y-69952929D01*
X76034299Y-69692679D01*
X76044489Y-69690762D01*
X76174164Y-69607319D01*
X76261158Y-69479999D01*
X76291763Y-69328865D01*
X76291763Y-68028865D01*
X76265196Y-67887675D01*
X76181753Y-67758000D01*
X76054433Y-67671006D01*
X75903299Y-67640401D01*
X74403299Y-67640401D01*
X74262109Y-67666968D01*
X74132434Y-67750411D01*
X74045440Y-67877731D01*
X74014835Y-68028865D01*
X74014835Y-69328865D01*
X74041402Y-69470055D01*
X74124845Y-69599730D01*
X74252165Y-69686724D01*
X74272299Y-69690801D01*
X74272299Y-69951051D01*
X74262109Y-69952968D01*
X74132434Y-70036411D01*
X74045440Y-70163731D01*
X74014835Y-70314865D01*
X74014835Y-71614865D01*
X74041402Y-71756055D01*
X74124845Y-71885730D01*
X74252165Y-71972724D01*
X74372299Y-71997051D01*
X74372299Y-72262051D01*
X74362109Y-72263968D01*
X74232434Y-72347411D01*
X74145440Y-72474731D01*
X74114835Y-72625865D01*
X74114835Y-73018407D01*
X71976183Y-75157059D01*
X71785206Y-75442876D01*
X71718144Y-75780020D01*
X71718144Y-86324728D01*
X71785206Y-86661872D01*
X71976183Y-86947689D01*
X75073205Y-90044711D01*
X75359022Y-90235688D01*
X75696166Y-90302750D01*
X76332352Y-90302750D01*
X76334269Y-90312940D01*
X76417712Y-90442615D01*
X76545032Y-90529609D01*
X76696166Y-90560214D01*
X77213708Y-90560214D01*
X77818155Y-91164661D01*
X77818155Y-92448315D01*
X77885217Y-92785459D01*
X78076194Y-93071276D01*
X78362011Y-93262253D01*
X78699155Y-93329315D01*
X79273241Y-93329315D01*
X79610385Y-93262253D01*
X79896202Y-93071276D01*
X79939857Y-93027621D01*
X80657399Y-93027621D01*
X80798589Y-93001054D01*
X80928264Y-92917611D01*
X81015258Y-92790291D01*
X81045863Y-92639157D01*
X81045863Y-91827010D01*
X81046337Y-91826301D01*
X81113399Y-91489157D01*
X81046337Y-91152013D01*
X81045863Y-91151304D01*
X81045863Y-90339157D01*
X81019296Y-90197967D01*
X80935853Y-90068292D01*
X80808533Y-89981298D01*
X80657399Y-89950693D01*
X79902765Y-89950693D01*
X79728731Y-89834407D01*
X79391587Y-89767345D01*
X78912683Y-89767345D01*
X78334630Y-89189292D01*
X78334630Y-88671750D01*
X78308063Y-88530560D01*
X78224620Y-88400885D01*
X78097300Y-88313891D01*
X77946166Y-88283286D01*
X76696166Y-88283286D01*
X76554976Y-88309853D01*
X76425301Y-88393296D01*
X76338307Y-88520616D01*
X76334230Y-88540750D01*
X76061088Y-88540750D01*
X75748406Y-88228068D01*
X75856121Y-88183561D01*
X75910464Y-88129313D01*
X81499157Y-88129313D01*
X81683228Y-88092699D01*
X81839275Y-87988431D01*
X82431417Y-87396290D01*
X82535685Y-87240242D01*
X82542550Y-87205728D01*
X82572299Y-87056171D01*
X82572299Y-84883329D01*
X82741299Y-84883329D01*
X82882489Y-84856762D01*
X83012164Y-84773319D01*
X83018122Y-84764599D01*
X83018122Y-91261534D01*
X82996337Y-91152013D01*
X82995863Y-91151304D01*
X82995863Y-90339157D01*
X82969296Y-90197967D01*
X82885853Y-90068292D01*
X82758533Y-89981298D01*
X82607399Y-89950693D01*
X81757399Y-89950693D01*
X81616209Y-89977260D01*
X81486534Y-90060703D01*
X81399540Y-90188023D01*
X81368935Y-90339157D01*
X81368935Y-91151304D01*
X81368461Y-91152013D01*
X81301399Y-91489157D01*
X81301399Y-93376588D01*
X81250540Y-93451023D01*
X81219935Y-93602157D01*
X81219935Y-94202157D01*
X81246502Y-94343347D01*
X81329945Y-94473022D01*
X81424586Y-94537687D01*
X81337534Y-94593703D01*
X81250540Y-94721023D01*
X81219935Y-94872157D01*
X81219935Y-95472157D01*
X81246502Y-95613347D01*
X81329945Y-95743022D01*
X81424586Y-95807687D01*
X81337534Y-95863703D01*
X81250540Y-95991023D01*
X81219935Y-96142157D01*
X81219935Y-96742157D01*
X81246502Y-96883347D01*
X81329945Y-97013022D01*
X81424586Y-97077687D01*
X81337534Y-97133703D01*
X81250540Y-97261023D01*
X81219935Y-97412157D01*
X81219935Y-98012157D01*
X81246502Y-98153347D01*
X81329945Y-98283022D01*
X81457265Y-98370016D01*
X81608399Y-98400621D01*
X83158399Y-98400621D01*
X83299589Y-98374054D01*
X83429264Y-98290611D01*
X83516258Y-98163291D01*
X83546863Y-98012157D01*
X83546863Y-97703929D01*
X84218155Y-97032637D01*
X84218155Y-100640366D01*
X84042203Y-100713067D01*
X83864545Y-100890416D01*
X83768279Y-101122251D01*
X83768060Y-101373278D01*
X83863921Y-101605281D01*
X84041270Y-101782939D01*
X84273105Y-101879205D01*
X84524132Y-101879424D01*
X84529000Y-101877413D01*
X84529000Y-102260000D01*
X84563711Y-102434504D01*
X84662559Y-102582441D01*
X84668467Y-102586388D01*
X84671525Y-103467303D01*
X82849167Y-103467303D01*
X82665096Y-103503917D01*
X82639058Y-103521315D01*
X80499155Y-103521315D01*
X80449745Y-103531321D01*
X80408120Y-103559762D01*
X80380840Y-103602156D01*
X80372155Y-103648315D01*
X80372155Y-108645079D01*
X80209036Y-108808198D01*
X80104768Y-108964245D01*
X80068154Y-109148316D01*
X80068154Y-110521315D01*
X75980155Y-110521315D01*
X75980155Y-100609803D01*
X76048021Y-100656174D01*
X76199155Y-100686779D01*
X77699155Y-100686779D01*
X77840345Y-100660212D01*
X77970020Y-100576769D01*
X78057014Y-100449449D01*
X78087619Y-100298315D01*
X78087619Y-98998315D01*
X78061052Y-98857125D01*
X77977609Y-98727450D01*
X77864399Y-98650097D01*
X77864399Y-98380676D01*
X77899589Y-98374054D01*
X78029264Y-98290611D01*
X78116258Y-98163291D01*
X78146863Y-98012157D01*
X78146863Y-97412157D01*
X78120296Y-97270967D01*
X78036853Y-97141292D01*
X77942212Y-97076627D01*
X78029264Y-97020611D01*
X78116258Y-96893291D01*
X78146863Y-96742157D01*
X78146863Y-96142157D01*
X78120296Y-96000967D01*
X78036853Y-95871292D01*
X77942212Y-95806627D01*
X78029264Y-95750611D01*
X78116258Y-95623291D01*
X78146863Y-95472157D01*
X78146863Y-94872157D01*
X78120296Y-94730967D01*
X78036853Y-94601292D01*
X77909533Y-94514298D01*
X77758399Y-94483693D01*
X77508328Y-94483693D01*
X77320543Y-94358219D01*
X76983399Y-94291157D01*
X75289843Y-94291157D01*
X74952698Y-94358219D01*
X74798074Y-94461536D01*
X74237000Y-94461536D01*
X74095810Y-94488103D01*
X73966135Y-94571546D01*
X73879141Y-94698866D01*
X73875064Y-94719000D01*
X73818814Y-94719000D01*
X73816897Y-94708810D01*
X73733454Y-94579135D01*
X73606134Y-94492141D01*
X73455000Y-94461536D01*
X72205000Y-94461536D01*
X72063810Y-94488103D01*
X71934135Y-94571546D01*
X71847141Y-94698866D01*
X71816536Y-94850000D01*
X71816536Y-95492542D01*
X70526155Y-96782923D01*
X70526155Y-66175315D01*
X75199155Y-66175315D01*
X75248565Y-66165309D01*
X75290190Y-66136868D01*
X75317470Y-66094474D01*
X75326155Y-66048315D01*
X75326155Y-65510000D01*
X77771536Y-65510000D01*
X77771536Y-67110000D01*
X77798103Y-67251190D01*
X77881546Y-67380865D01*
X78008866Y-67467859D01*
X78160000Y-67498464D01*
X78960000Y-67498464D01*
X79101190Y-67471897D01*
X79230865Y-67388454D01*
X79317859Y-67261134D01*
X79348464Y-67110000D01*
X79348464Y-65510000D01*
X79321897Y-65368810D01*
X79238454Y-65239135D01*
X79111134Y-65152141D01*
X78960000Y-65121536D01*
X78160000Y-65121536D01*
X78018810Y-65148103D01*
X77889135Y-65231546D01*
X77802141Y-65358866D01*
X77771536Y-65510000D01*
X75326155Y-65510000D01*
X75326155Y-65222487D01*
X75331546Y-65230865D01*
X75458866Y-65317859D01*
X75610000Y-65348464D01*
X77310000Y-65348464D01*
X77451190Y-65321897D01*
X77580865Y-65238454D01*
X77667859Y-65111134D01*
X77698464Y-64960000D01*
X77698464Y-64060000D01*
X77671897Y-63918810D01*
X77588454Y-63789135D01*
X77461134Y-63702141D01*
X77310000Y-63671536D01*
X75610000Y-63671536D01*
X75468810Y-63698103D01*
X75339135Y-63781546D01*
X75326155Y-63800543D01*
X75326155Y-62716000D01*
X86572155Y-62716000D01*
X86572155Y-62928993D01*
G36*
X82459031Y-76633831D02*
X83018122Y-77192923D01*
X83018122Y-77423817D01*
X82949155Y-77409851D01*
X82149155Y-77409851D01*
X82007965Y-77436418D01*
X81878290Y-77519861D01*
X81791296Y-77647181D01*
X81760691Y-77798315D01*
X81760691Y-79698315D01*
X81787258Y-79839505D01*
X81870701Y-79969180D01*
X81998021Y-80056174D01*
X82149155Y-80086779D01*
X82607383Y-80086779D01*
X82618111Y-80097507D01*
X82618111Y-82437816D01*
X82449526Y-82606401D01*
X81441299Y-82606401D01*
X81300109Y-82632968D01*
X81170434Y-82716411D01*
X81083440Y-82843731D01*
X81052835Y-82994865D01*
X81052835Y-84494865D01*
X81079402Y-84636055D01*
X81162845Y-84765730D01*
X81290165Y-84852724D01*
X81441299Y-84883329D01*
X81610299Y-84883329D01*
X81610299Y-86856934D01*
X81299921Y-87167313D01*
X80816942Y-87167313D01*
X80843763Y-87034865D01*
X80843763Y-85534865D01*
X80817196Y-85393675D01*
X80733753Y-85264000D01*
X80606433Y-85177006D01*
X80455299Y-85146401D01*
X79520215Y-85146401D01*
X79943287Y-84723329D01*
X80455299Y-84723329D01*
X80596489Y-84696762D01*
X80726164Y-84613319D01*
X80813158Y-84485999D01*
X80843763Y-84334865D01*
X80843763Y-82834865D01*
X80817196Y-82693675D01*
X80733753Y-82564000D01*
X80606433Y-82477006D01*
X80455299Y-82446401D01*
X80286299Y-82446401D01*
X80286299Y-78779745D01*
X80330045Y-78674393D01*
X80330264Y-78423366D01*
X80234403Y-78191363D01*
X80057054Y-78013705D01*
X79825219Y-77917439D01*
X79574192Y-77917220D01*
X79342189Y-78013081D01*
X79164531Y-78190430D01*
X79068265Y-78422265D01*
X79068046Y-78673292D01*
X79163907Y-78905295D01*
X79324299Y-79065966D01*
X79324299Y-79628621D01*
X79322116Y-79625354D01*
X79036299Y-79434377D01*
X78699155Y-79367315D01*
X77899155Y-79367315D01*
X77562011Y-79434377D01*
X77276194Y-79625354D01*
X77085217Y-79911171D01*
X77018155Y-80248315D01*
X77018155Y-80400565D01*
X77012702Y-80408726D01*
X76981803Y-80564065D01*
X76832361Y-80787721D01*
X76765299Y-81124865D01*
X76832361Y-81462009D01*
X76981803Y-81685665D01*
X77012702Y-81841004D01*
X77161365Y-82063494D01*
X77383855Y-82212157D01*
X77646299Y-82264360D01*
X77908743Y-82212157D01*
X78131233Y-82063494D01*
X78169739Y-82005865D01*
X78392859Y-82005865D01*
X78431365Y-82063494D01*
X78653855Y-82212157D01*
X78916299Y-82264360D01*
X79178743Y-82212157D01*
X79324299Y-82114900D01*
X79324299Y-82446401D01*
X79155299Y-82446401D01*
X79014109Y-82472968D01*
X78884434Y-82556411D01*
X78797440Y-82683731D01*
X78766835Y-82834865D01*
X78766835Y-83761489D01*
X78557763Y-83970561D01*
X78557763Y-82834865D01*
X78531196Y-82693675D01*
X78447753Y-82564000D01*
X78320433Y-82477006D01*
X78169299Y-82446401D01*
X77320101Y-82446401D01*
X77313093Y-82411171D01*
X77122116Y-82125354D01*
X76836299Y-81934377D01*
X76499155Y-81867315D01*
X75999155Y-81867315D01*
X75662011Y-81934377D01*
X75376194Y-82125354D01*
X75185217Y-82411171D01*
X75158318Y-82546401D01*
X74680155Y-82546401D01*
X74680155Y-79366167D01*
X76695489Y-77350833D01*
X76876194Y-77621276D01*
X77162011Y-77812253D01*
X77499155Y-77879315D01*
X79307664Y-77879315D01*
X79644808Y-77812253D01*
X79930625Y-77621276D01*
X80597115Y-76954786D01*
X80788092Y-76668969D01*
X80810691Y-76555356D01*
X80810691Y-76698315D01*
X80837258Y-76839505D01*
X80920701Y-76969180D01*
X81048021Y-77056174D01*
X81199155Y-77086779D01*
X81999155Y-77086779D01*
X82140345Y-77060212D01*
X82270020Y-76976769D01*
X82357014Y-76849449D01*
X82387619Y-76698315D01*
X82387619Y-76526956D01*
X82459031Y-76633831D01*
X82459031Y-76633831D01*
G37*
X82459031Y-76633831D02*
X83018122Y-77192923D01*
X83018122Y-77423817D01*
X82949155Y-77409851D01*
X82149155Y-77409851D01*
X82007965Y-77436418D01*
X81878290Y-77519861D01*
X81791296Y-77647181D01*
X81760691Y-77798315D01*
X81760691Y-79698315D01*
X81787258Y-79839505D01*
X81870701Y-79969180D01*
X81998021Y-80056174D01*
X82149155Y-80086779D01*
X82607383Y-80086779D01*
X82618111Y-80097507D01*
X82618111Y-82437816D01*
X82449526Y-82606401D01*
X81441299Y-82606401D01*
X81300109Y-82632968D01*
X81170434Y-82716411D01*
X81083440Y-82843731D01*
X81052835Y-82994865D01*
X81052835Y-84494865D01*
X81079402Y-84636055D01*
X81162845Y-84765730D01*
X81290165Y-84852724D01*
X81441299Y-84883329D01*
X81610299Y-84883329D01*
X81610299Y-86856934D01*
X81299921Y-87167313D01*
X80816942Y-87167313D01*
X80843763Y-87034865D01*
X80843763Y-85534865D01*
X80817196Y-85393675D01*
X80733753Y-85264000D01*
X80606433Y-85177006D01*
X80455299Y-85146401D01*
X79520215Y-85146401D01*
X79943287Y-84723329D01*
X80455299Y-84723329D01*
X80596489Y-84696762D01*
X80726164Y-84613319D01*
X80813158Y-84485999D01*
X80843763Y-84334865D01*
X80843763Y-82834865D01*
X80817196Y-82693675D01*
X80733753Y-82564000D01*
X80606433Y-82477006D01*
X80455299Y-82446401D01*
X80286299Y-82446401D01*
X80286299Y-78779745D01*
X80330045Y-78674393D01*
X80330264Y-78423366D01*
X80234403Y-78191363D01*
X80057054Y-78013705D01*
X79825219Y-77917439D01*
X79574192Y-77917220D01*
X79342189Y-78013081D01*
X79164531Y-78190430D01*
X79068265Y-78422265D01*
X79068046Y-78673292D01*
X79163907Y-78905295D01*
X79324299Y-79065966D01*
X79324299Y-79628621D01*
X79322116Y-79625354D01*
X79036299Y-79434377D01*
X78699155Y-79367315D01*
X77899155Y-79367315D01*
X77562011Y-79434377D01*
X77276194Y-79625354D01*
X77085217Y-79911171D01*
X77018155Y-80248315D01*
X77018155Y-80400565D01*
X77012702Y-80408726D01*
X76981803Y-80564065D01*
X76832361Y-80787721D01*
X76765299Y-81124865D01*
X76832361Y-81462009D01*
X76981803Y-81685665D01*
X77012702Y-81841004D01*
X77161365Y-82063494D01*
X77383855Y-82212157D01*
X77646299Y-82264360D01*
X77908743Y-82212157D01*
X78131233Y-82063494D01*
X78169739Y-82005865D01*
X78392859Y-82005865D01*
X78431365Y-82063494D01*
X78653855Y-82212157D01*
X78916299Y-82264360D01*
X79178743Y-82212157D01*
X79324299Y-82114900D01*
X79324299Y-82446401D01*
X79155299Y-82446401D01*
X79014109Y-82472968D01*
X78884434Y-82556411D01*
X78797440Y-82683731D01*
X78766835Y-82834865D01*
X78766835Y-83761489D01*
X78557763Y-83970561D01*
X78557763Y-82834865D01*
X78531196Y-82693675D01*
X78447753Y-82564000D01*
X78320433Y-82477006D01*
X78169299Y-82446401D01*
X77320101Y-82446401D01*
X77313093Y-82411171D01*
X77122116Y-82125354D01*
X76836299Y-81934377D01*
X76499155Y-81867315D01*
X75999155Y-81867315D01*
X75662011Y-81934377D01*
X75376194Y-82125354D01*
X75185217Y-82411171D01*
X75158318Y-82546401D01*
X74680155Y-82546401D01*
X74680155Y-79366167D01*
X76695489Y-77350833D01*
X76876194Y-77621276D01*
X77162011Y-77812253D01*
X77499155Y-77879315D01*
X79307664Y-77879315D01*
X79644808Y-77812253D01*
X79930625Y-77621276D01*
X80597115Y-76954786D01*
X80788092Y-76668969D01*
X80810691Y-76555356D01*
X80810691Y-76698315D01*
X80837258Y-76839505D01*
X80920701Y-76969180D01*
X81048021Y-77056174D01*
X81199155Y-77086779D01*
X81999155Y-77086779D01*
X82140345Y-77060212D01*
X82270020Y-76976769D01*
X82357014Y-76849449D01*
X82387619Y-76698315D01*
X82387619Y-76526956D01*
X82459031Y-76633831D01*
M02*
